G04 EAGLE Gerber RS-274X export*
G75*
%MOMM*%
%FSLAX34Y34*%
%LPD*%
%INBottom Copper*%
%IPPOS*%
%AMOC8*
5,1,8,0,0,1.08239X$1,22.5*%
G01*
G04 Define Apertures*
%ADD10C,1.280000*%
%ADD11C,2.400000*%
%ADD12C,1.524000*%
%ADD13C,0.254000*%
%ADD14C,0.604000*%
G36*
X661971Y10261D02*
X661476Y10160D01*
X11430Y10160D01*
X10972Y10245D01*
X10546Y10518D01*
X10261Y10935D01*
X10160Y11430D01*
X10160Y369570D01*
X10245Y370028D01*
X10518Y370454D01*
X10935Y370739D01*
X11430Y370840D01*
X661664Y370840D01*
X662122Y370754D01*
X662548Y370482D01*
X662834Y370065D01*
X662934Y369569D01*
X662746Y11429D01*
X662661Y10972D01*
X662388Y10546D01*
X661971Y10261D01*
G37*
%LPC*%
G36*
X612638Y311390D02*
X619262Y311390D01*
X625661Y313105D01*
X631399Y316417D01*
X636083Y321101D01*
X639395Y326839D01*
X641110Y333238D01*
X641110Y339862D01*
X639395Y346261D01*
X636083Y351999D01*
X631399Y356683D01*
X625661Y359995D01*
X619262Y361710D01*
X612638Y361710D01*
X606239Y359995D01*
X600501Y356683D01*
X595817Y351999D01*
X592505Y346261D01*
X590790Y339862D01*
X590790Y333238D01*
X592505Y326839D01*
X595817Y321101D01*
X600501Y316417D01*
X606239Y313105D01*
X612638Y311390D01*
G37*
G36*
X47488Y311390D02*
X54112Y311390D01*
X60511Y313105D01*
X66249Y316417D01*
X70933Y321101D01*
X74245Y326839D01*
X75960Y333238D01*
X75960Y339862D01*
X74245Y346261D01*
X70933Y351999D01*
X66249Y356683D01*
X60511Y359995D01*
X54112Y361710D01*
X47488Y361710D01*
X41089Y359995D01*
X35351Y356683D01*
X30667Y351999D01*
X27355Y346261D01*
X25640Y339862D01*
X25640Y333238D01*
X27355Y326839D01*
X30667Y321101D01*
X35351Y316417D01*
X41089Y313105D01*
X47488Y311390D01*
G37*
G36*
X245674Y252376D02*
X248826Y252376D01*
X251739Y253582D01*
X253968Y255811D01*
X255174Y258724D01*
X255174Y261683D01*
X255271Y262169D01*
X256394Y264881D01*
X256394Y293919D01*
X255002Y297280D01*
X238116Y314166D01*
X237845Y314568D01*
X237744Y315064D01*
X237744Y326939D01*
X236352Y330300D01*
X233780Y332872D01*
X232178Y333535D01*
X231780Y333796D01*
X231495Y334213D01*
X231394Y334709D01*
X231394Y345628D01*
X231487Y346104D01*
X231766Y346526D01*
X233144Y347904D01*
X233144Y351668D01*
X230482Y354330D01*
X226718Y354330D01*
X224056Y351668D01*
X224056Y347904D01*
X225434Y346526D01*
X225705Y346123D01*
X225806Y345628D01*
X225806Y334709D01*
X225717Y334241D01*
X225441Y333818D01*
X225022Y333535D01*
X223420Y332872D01*
X220848Y330300D01*
X219456Y326939D01*
X219456Y308061D01*
X220848Y304700D01*
X223420Y302128D01*
X224672Y301610D01*
X225084Y301334D01*
X237734Y288684D01*
X238005Y288282D01*
X238106Y287786D01*
X238106Y264881D01*
X239229Y262169D01*
X239326Y261683D01*
X239326Y258724D01*
X240532Y255811D01*
X242761Y253582D01*
X245674Y252376D01*
G37*
G36*
X525074Y252376D02*
X528226Y252376D01*
X531139Y253582D01*
X533368Y255811D01*
X534574Y258724D01*
X534574Y261683D01*
X534671Y262169D01*
X535794Y264881D01*
X535794Y293519D01*
X534402Y296880D01*
X517516Y313766D01*
X517245Y314168D01*
X517144Y314664D01*
X517144Y326939D01*
X515752Y330300D01*
X513180Y332872D01*
X511578Y333535D01*
X511180Y333796D01*
X510895Y334213D01*
X510794Y334709D01*
X510794Y345092D01*
X510887Y345568D01*
X511166Y345990D01*
X512544Y347368D01*
X512544Y351132D01*
X509882Y353794D01*
X506118Y353794D01*
X503456Y351132D01*
X503456Y347368D01*
X504834Y345990D01*
X505105Y345587D01*
X505206Y345092D01*
X505206Y334709D01*
X505117Y334241D01*
X504841Y333818D01*
X504422Y333535D01*
X502820Y332872D01*
X500248Y330300D01*
X498856Y326939D01*
X498856Y308061D01*
X500248Y304700D01*
X502820Y302128D01*
X503389Y301892D01*
X503801Y301617D01*
X517134Y288284D01*
X517405Y287882D01*
X517506Y287386D01*
X517506Y264881D01*
X518629Y262169D01*
X518726Y261683D01*
X518726Y258724D01*
X519932Y255811D01*
X522161Y253582D01*
X525074Y252376D01*
G37*
G36*
X385374Y252376D02*
X388526Y252376D01*
X391439Y253582D01*
X393668Y255811D01*
X394874Y258724D01*
X394874Y261683D01*
X394971Y262169D01*
X396094Y264881D01*
X396094Y294319D01*
X394702Y297680D01*
X377816Y314566D01*
X377545Y314968D01*
X377444Y315464D01*
X377444Y326939D01*
X376052Y330300D01*
X373480Y332872D01*
X371878Y333535D01*
X371480Y333796D01*
X371195Y334213D01*
X371094Y334709D01*
X371094Y345092D01*
X371187Y345568D01*
X371466Y345990D01*
X372844Y347368D01*
X372844Y351132D01*
X370182Y353794D01*
X366418Y353794D01*
X363756Y351132D01*
X363756Y347368D01*
X365134Y345990D01*
X365405Y345587D01*
X365506Y345092D01*
X365506Y334709D01*
X365417Y334241D01*
X365141Y333818D01*
X364722Y333535D01*
X363120Y332872D01*
X360548Y330300D01*
X359156Y326939D01*
X359156Y308061D01*
X360548Y304700D01*
X363120Y302128D01*
X365055Y301327D01*
X365467Y301051D01*
X377434Y289084D01*
X377705Y288682D01*
X377806Y288186D01*
X377806Y264881D01*
X378929Y262169D01*
X379026Y261683D01*
X379026Y258724D01*
X380232Y255811D01*
X382461Y253582D01*
X385374Y252376D01*
G37*
G36*
X193040Y320040D02*
X200660Y320040D01*
X200660Y335065D01*
X197445Y333733D01*
X194587Y330875D01*
X193040Y327141D01*
X193040Y320040D01*
G37*
G36*
X205740Y320040D02*
X213360Y320040D01*
X213360Y327141D01*
X211813Y330875D01*
X208955Y333733D01*
X205740Y335065D01*
X205740Y320040D01*
G37*
G36*
X332740Y320040D02*
X340360Y320040D01*
X340360Y335065D01*
X337145Y333733D01*
X334287Y330875D01*
X332740Y327141D01*
X332740Y320040D01*
G37*
G36*
X345440Y320040D02*
X353060Y320040D01*
X353060Y327141D01*
X351513Y330875D01*
X348655Y333733D01*
X345440Y335065D01*
X345440Y320040D01*
G37*
G36*
X472440Y320040D02*
X480060Y320040D01*
X480060Y335065D01*
X476845Y333733D01*
X473987Y330875D01*
X472440Y327141D01*
X472440Y320040D01*
G37*
G36*
X485140Y320040D02*
X492760Y320040D01*
X492760Y327141D01*
X491213Y330875D01*
X488355Y333733D01*
X485140Y335065D01*
X485140Y320040D01*
G37*
G36*
X485140Y314960D02*
X485140Y299935D01*
X488355Y301267D01*
X491213Y304125D01*
X492760Y307859D01*
X492760Y314960D01*
X485140Y314960D01*
G37*
G36*
X476845Y301267D02*
X480060Y299935D01*
X480060Y314960D01*
X472440Y314960D01*
X472440Y307859D01*
X473987Y304125D01*
X476845Y301267D01*
G37*
G36*
X345440Y314960D02*
X345440Y299935D01*
X348655Y301267D01*
X351513Y304125D01*
X353060Y307859D01*
X353060Y314960D01*
X345440Y314960D01*
G37*
G36*
X337145Y301267D02*
X340360Y299935D01*
X340360Y314960D01*
X332740Y314960D01*
X332740Y307859D01*
X334287Y304125D01*
X337145Y301267D01*
G37*
G36*
X205740Y314960D02*
X205740Y299935D01*
X208955Y301267D01*
X211813Y304125D01*
X213360Y307859D01*
X213360Y314960D01*
X205740Y314960D01*
G37*
G36*
X197445Y301267D02*
X200660Y299935D01*
X200660Y314960D01*
X193040Y314960D01*
X193040Y307859D01*
X194587Y304125D01*
X197445Y301267D01*
G37*
G36*
X550074Y252376D02*
X553226Y252376D01*
X556139Y253582D01*
X558368Y255811D01*
X559574Y258724D01*
X559574Y274676D01*
X558368Y277589D01*
X556139Y279818D01*
X553226Y281024D01*
X550074Y281024D01*
X547161Y279818D01*
X544932Y277589D01*
X543726Y274676D01*
X543726Y258724D01*
X544932Y255811D01*
X547161Y253582D01*
X550074Y252376D01*
G37*
G36*
X500074Y252376D02*
X503226Y252376D01*
X506139Y253582D01*
X508368Y255811D01*
X509574Y258724D01*
X509574Y274676D01*
X508368Y277589D01*
X506139Y279818D01*
X503226Y281024D01*
X500074Y281024D01*
X497161Y279818D01*
X494932Y277589D01*
X493726Y274676D01*
X493726Y258724D01*
X494932Y255811D01*
X497161Y253582D01*
X500074Y252376D01*
G37*
G36*
X410374Y252376D02*
X413526Y252376D01*
X416439Y253582D01*
X418668Y255811D01*
X419874Y258724D01*
X419874Y274676D01*
X418668Y277589D01*
X416439Y279818D01*
X413526Y281024D01*
X410374Y281024D01*
X407461Y279818D01*
X405232Y277589D01*
X404026Y274676D01*
X404026Y258724D01*
X405232Y255811D01*
X407461Y253582D01*
X410374Y252376D01*
G37*
G36*
X360374Y252376D02*
X363526Y252376D01*
X366439Y253582D01*
X368668Y255811D01*
X369874Y258724D01*
X369874Y274676D01*
X368668Y277589D01*
X366439Y279818D01*
X363526Y281024D01*
X360374Y281024D01*
X357461Y279818D01*
X355232Y277589D01*
X354026Y274676D01*
X354026Y258724D01*
X355232Y255811D01*
X357461Y253582D01*
X360374Y252376D01*
G37*
G36*
X270674Y252376D02*
X273826Y252376D01*
X276739Y253582D01*
X278968Y255811D01*
X280174Y258724D01*
X280174Y274676D01*
X278968Y277589D01*
X276739Y279818D01*
X273826Y281024D01*
X270674Y281024D01*
X267761Y279818D01*
X265532Y277589D01*
X264326Y274676D01*
X264326Y258724D01*
X265532Y255811D01*
X267761Y253582D01*
X270674Y252376D01*
G37*
G36*
X220674Y252376D02*
X223826Y252376D01*
X226739Y253582D01*
X228968Y255811D01*
X230174Y258724D01*
X230174Y274676D01*
X228968Y277589D01*
X226739Y279818D01*
X223826Y281024D01*
X220674Y281024D01*
X217761Y279818D01*
X215532Y277589D01*
X214326Y274676D01*
X214326Y258724D01*
X215532Y255811D01*
X217761Y253582D01*
X220674Y252376D01*
G37*
G36*
X119510Y243840D02*
X143510Y243840D01*
X143510Y255840D01*
X131158Y255840D01*
X125814Y253626D01*
X121724Y249536D01*
X119510Y244192D01*
X119510Y243840D01*
G37*
G36*
X17910Y243840D02*
X41910Y243840D01*
X41910Y255840D01*
X29558Y255840D01*
X24214Y253626D01*
X20124Y249536D01*
X17910Y244192D01*
X17910Y243840D01*
G37*
G36*
X46990Y243840D02*
X70990Y243840D01*
X70990Y244192D01*
X68776Y249536D01*
X64686Y253626D01*
X59342Y255840D01*
X46990Y255840D01*
X46990Y243840D01*
G37*
G36*
X148590Y243840D02*
X172590Y243840D01*
X172590Y244192D01*
X170376Y249536D01*
X166286Y253626D01*
X160942Y255840D01*
X148590Y255840D01*
X148590Y243840D01*
G37*
G36*
X148590Y226760D02*
X160942Y226760D01*
X166286Y228974D01*
X170376Y233064D01*
X172590Y238408D01*
X172590Y238760D01*
X148590Y238760D01*
X148590Y226760D01*
G37*
G36*
X131158Y226760D02*
X143510Y226760D01*
X143510Y238760D01*
X119510Y238760D01*
X119510Y238408D01*
X121724Y233064D01*
X125814Y228974D01*
X131158Y226760D01*
G37*
G36*
X46990Y226760D02*
X59342Y226760D01*
X64686Y228974D01*
X68776Y233064D01*
X70990Y238408D01*
X70990Y238760D01*
X46990Y238760D01*
X46990Y226760D01*
G37*
G36*
X29558Y226760D02*
X41910Y226760D01*
X41910Y238760D01*
X17910Y238760D01*
X17910Y238408D01*
X20124Y233064D01*
X24214Y228974D01*
X29558Y226760D01*
G37*
G36*
X601624Y207176D02*
X617576Y207176D01*
X620489Y208382D01*
X622718Y210611D01*
X623924Y213524D01*
X623924Y216676D01*
X622718Y219589D01*
X620489Y221818D01*
X617576Y223024D01*
X601624Y223024D01*
X598711Y221818D01*
X596482Y219589D01*
X595276Y216676D01*
X595276Y213524D01*
X596482Y210611D01*
X598711Y208382D01*
X601624Y207176D01*
G37*
G36*
X601624Y182176D02*
X617576Y182176D01*
X620489Y183382D01*
X622718Y185611D01*
X623924Y188524D01*
X623924Y191676D01*
X622718Y194589D01*
X620489Y196818D01*
X617576Y198024D01*
X601624Y198024D01*
X598711Y196818D01*
X596482Y194589D01*
X595276Y191676D01*
X595276Y188524D01*
X596482Y185611D01*
X598711Y183382D01*
X601624Y182176D01*
G37*
G36*
X601624Y157176D02*
X617576Y157176D01*
X620489Y158382D01*
X622718Y160611D01*
X623924Y163524D01*
X623924Y166676D01*
X622718Y169589D01*
X620489Y171818D01*
X617576Y173024D01*
X601624Y173024D01*
X598711Y171818D01*
X596482Y169589D01*
X595276Y166676D01*
X595276Y163524D01*
X596482Y160611D01*
X598711Y158382D01*
X601624Y157176D01*
G37*
G36*
X131360Y126176D02*
X160740Y126176D01*
X165711Y128235D01*
X169515Y132039D01*
X171574Y137010D01*
X171574Y142390D01*
X169515Y147361D01*
X165711Y151165D01*
X160740Y153224D01*
X131360Y153224D01*
X126389Y151165D01*
X122585Y147361D01*
X120526Y142390D01*
X120526Y137010D01*
X122585Y132039D01*
X126389Y128235D01*
X131360Y126176D01*
G37*
G36*
X29760Y126176D02*
X59140Y126176D01*
X64111Y128235D01*
X67915Y132039D01*
X69974Y137010D01*
X69974Y142390D01*
X67915Y147361D01*
X64111Y151165D01*
X59140Y153224D01*
X29760Y153224D01*
X24789Y151165D01*
X20985Y147361D01*
X18926Y142390D01*
X18926Y137010D01*
X20985Y132039D01*
X24789Y128235D01*
X29760Y126176D01*
G37*
G36*
X361174Y99976D02*
X364326Y99976D01*
X367239Y101182D01*
X369468Y103411D01*
X370674Y106324D01*
X370674Y122276D01*
X369468Y125189D01*
X367239Y127418D01*
X364326Y128624D01*
X361174Y128624D01*
X358261Y127418D01*
X356032Y125189D01*
X354826Y122276D01*
X354826Y106324D01*
X356032Y103411D01*
X358261Y101182D01*
X361174Y99976D01*
G37*
G36*
X271474Y99976D02*
X274626Y99976D01*
X277539Y101182D01*
X279768Y103411D01*
X280974Y106324D01*
X280974Y122276D01*
X279768Y125189D01*
X277539Y127418D01*
X274626Y128624D01*
X271474Y128624D01*
X268561Y127418D01*
X266332Y125189D01*
X265126Y122276D01*
X265126Y106324D01*
X266332Y103411D01*
X268561Y101182D01*
X271474Y99976D01*
G37*
G36*
X226718Y27206D02*
X230482Y27206D01*
X233144Y29868D01*
X233144Y33632D01*
X231766Y35010D01*
X231495Y35413D01*
X231394Y35908D01*
X231394Y46291D01*
X231483Y46759D01*
X231759Y47182D01*
X232178Y47465D01*
X233780Y48128D01*
X236352Y50700D01*
X237744Y54061D01*
X237744Y65536D01*
X237837Y66013D01*
X238116Y66434D01*
X255802Y84120D01*
X257194Y87481D01*
X257194Y116119D01*
X256071Y118831D01*
X255974Y119317D01*
X255974Y122276D01*
X254768Y125189D01*
X252539Y127418D01*
X249626Y128624D01*
X246474Y128624D01*
X243561Y127418D01*
X241332Y125189D01*
X240126Y122276D01*
X240126Y119317D01*
X240029Y118831D01*
X238906Y116119D01*
X238906Y93614D01*
X238813Y93137D01*
X238534Y92716D01*
X225767Y79949D01*
X225355Y79673D01*
X223420Y78872D01*
X220848Y76300D01*
X219456Y72939D01*
X219456Y54061D01*
X220848Y50700D01*
X223420Y48128D01*
X225022Y47465D01*
X225420Y47204D01*
X225705Y46787D01*
X225806Y46291D01*
X225806Y35908D01*
X225713Y35432D01*
X225434Y35010D01*
X224056Y33632D01*
X224056Y29868D01*
X226718Y27206D01*
G37*
G36*
X221474Y99976D02*
X224626Y99976D01*
X227539Y101182D01*
X229768Y103411D01*
X230974Y106324D01*
X230974Y122276D01*
X229768Y125189D01*
X227539Y127418D01*
X224626Y128624D01*
X221474Y128624D01*
X218561Y127418D01*
X216332Y125189D01*
X215126Y122276D01*
X215126Y106324D01*
X216332Y103411D01*
X218561Y101182D01*
X221474Y99976D01*
G37*
G36*
X550874Y99976D02*
X554026Y99976D01*
X556939Y101182D01*
X559168Y103411D01*
X560374Y106324D01*
X560374Y122276D01*
X559168Y125189D01*
X556939Y127418D01*
X554026Y128624D01*
X550874Y128624D01*
X547961Y127418D01*
X545732Y125189D01*
X544526Y122276D01*
X544526Y106324D01*
X545732Y103411D01*
X547961Y101182D01*
X550874Y99976D01*
G37*
G36*
X506118Y27206D02*
X509882Y27206D01*
X512544Y29868D01*
X512544Y33632D01*
X511166Y35010D01*
X510895Y35413D01*
X510794Y35908D01*
X510794Y46291D01*
X510883Y46759D01*
X511159Y47182D01*
X511578Y47465D01*
X513180Y48128D01*
X515752Y50700D01*
X517144Y54061D01*
X517144Y65536D01*
X517237Y66013D01*
X517516Y66434D01*
X535202Y84120D01*
X536594Y87481D01*
X536594Y116119D01*
X535471Y118831D01*
X535374Y119317D01*
X535374Y122276D01*
X534168Y125189D01*
X531939Y127418D01*
X529026Y128624D01*
X525874Y128624D01*
X522961Y127418D01*
X520732Y125189D01*
X519526Y122276D01*
X519526Y119317D01*
X519429Y118831D01*
X518306Y116119D01*
X518306Y93614D01*
X518213Y93137D01*
X517934Y92716D01*
X505167Y79949D01*
X504755Y79673D01*
X502820Y78872D01*
X500248Y76300D01*
X498856Y72939D01*
X498856Y54061D01*
X500248Y50700D01*
X502820Y48128D01*
X504422Y47465D01*
X504820Y47204D01*
X505105Y46787D01*
X505206Y46291D01*
X505206Y35908D01*
X505113Y35432D01*
X504834Y35010D01*
X503456Y33632D01*
X503456Y29868D01*
X506118Y27206D01*
G37*
G36*
X500874Y99976D02*
X504026Y99976D01*
X506939Y101182D01*
X509168Y103411D01*
X510374Y106324D01*
X510374Y122276D01*
X509168Y125189D01*
X506939Y127418D01*
X504026Y128624D01*
X500874Y128624D01*
X497961Y127418D01*
X495732Y125189D01*
X494526Y122276D01*
X494526Y106324D01*
X495732Y103411D01*
X497961Y101182D01*
X500874Y99976D01*
G37*
G36*
X411174Y99976D02*
X414326Y99976D01*
X417239Y101182D01*
X419468Y103411D01*
X420674Y106324D01*
X420674Y122276D01*
X419468Y125189D01*
X417239Y127418D01*
X414326Y128624D01*
X411174Y128624D01*
X408261Y127418D01*
X406032Y125189D01*
X404826Y122276D01*
X404826Y106324D01*
X406032Y103411D01*
X408261Y101182D01*
X411174Y99976D01*
G37*
G36*
X366418Y27206D02*
X370182Y27206D01*
X372844Y29868D01*
X372844Y33632D01*
X371466Y35010D01*
X371195Y35413D01*
X371094Y35908D01*
X371094Y46291D01*
X371183Y46759D01*
X371459Y47182D01*
X371878Y47465D01*
X373480Y48128D01*
X376052Y50700D01*
X377444Y54061D01*
X377444Y65536D01*
X377537Y66013D01*
X377816Y66434D01*
X395502Y84120D01*
X396894Y87481D01*
X396894Y116119D01*
X395771Y118831D01*
X395674Y119317D01*
X395674Y122276D01*
X394468Y125189D01*
X392239Y127418D01*
X389326Y128624D01*
X386174Y128624D01*
X383261Y127418D01*
X381032Y125189D01*
X379826Y122276D01*
X379826Y119317D01*
X379729Y118831D01*
X378606Y116119D01*
X378606Y93614D01*
X378513Y93137D01*
X378234Y92716D01*
X365467Y79949D01*
X365055Y79673D01*
X363120Y78872D01*
X360548Y76300D01*
X359156Y72939D01*
X359156Y54061D01*
X360548Y50700D01*
X363120Y48128D01*
X364722Y47465D01*
X365120Y47204D01*
X365405Y46787D01*
X365506Y46291D01*
X365506Y35908D01*
X365413Y35432D01*
X365134Y35010D01*
X363756Y33632D01*
X363756Y29868D01*
X366418Y27206D01*
G37*
G36*
X193040Y66040D02*
X200660Y66040D01*
X200660Y81065D01*
X197445Y79733D01*
X194587Y76875D01*
X193040Y73141D01*
X193040Y66040D01*
G37*
G36*
X205740Y66040D02*
X213360Y66040D01*
X213360Y73141D01*
X211813Y76875D01*
X208955Y79733D01*
X205740Y81065D01*
X205740Y66040D01*
G37*
G36*
X332740Y66040D02*
X340360Y66040D01*
X340360Y81065D01*
X337145Y79733D01*
X334287Y76875D01*
X332740Y73141D01*
X332740Y66040D01*
G37*
G36*
X345440Y66040D02*
X353060Y66040D01*
X353060Y73141D01*
X351513Y76875D01*
X348655Y79733D01*
X345440Y81065D01*
X345440Y66040D01*
G37*
G36*
X472440Y66040D02*
X480060Y66040D01*
X480060Y81065D01*
X476845Y79733D01*
X473987Y76875D01*
X472440Y73141D01*
X472440Y66040D01*
G37*
G36*
X485140Y66040D02*
X492760Y66040D01*
X492760Y73141D01*
X491213Y76875D01*
X488355Y79733D01*
X485140Y81065D01*
X485140Y66040D01*
G37*
G36*
X612638Y19290D02*
X619262Y19290D01*
X625661Y21005D01*
X631399Y24317D01*
X636083Y29001D01*
X639395Y34739D01*
X641110Y41138D01*
X641110Y47762D01*
X639395Y54161D01*
X636083Y59899D01*
X631399Y64583D01*
X625661Y67895D01*
X619262Y69610D01*
X612638Y69610D01*
X606239Y67895D01*
X600501Y64583D01*
X595817Y59899D01*
X592505Y54161D01*
X590790Y47762D01*
X590790Y41138D01*
X592505Y34739D01*
X595817Y29001D01*
X600501Y24317D01*
X606239Y21005D01*
X612638Y19290D01*
G37*
G36*
X47488Y19290D02*
X54112Y19290D01*
X60511Y21005D01*
X66249Y24317D01*
X70933Y29001D01*
X74245Y34739D01*
X75960Y41138D01*
X75960Y47762D01*
X74245Y54161D01*
X70933Y59899D01*
X66249Y64583D01*
X60511Y67895D01*
X54112Y69610D01*
X47488Y69610D01*
X41089Y67895D01*
X35351Y64583D01*
X30667Y59899D01*
X27355Y54161D01*
X25640Y47762D01*
X25640Y41138D01*
X27355Y34739D01*
X30667Y29001D01*
X35351Y24317D01*
X41089Y21005D01*
X47488Y19290D01*
G37*
G36*
X485140Y60960D02*
X485140Y45935D01*
X488355Y47267D01*
X491213Y50125D01*
X492760Y53859D01*
X492760Y60960D01*
X485140Y60960D01*
G37*
G36*
X476845Y47267D02*
X480060Y45935D01*
X480060Y60960D01*
X472440Y60960D01*
X472440Y53859D01*
X473987Y50125D01*
X476845Y47267D01*
G37*
G36*
X345440Y60960D02*
X345440Y45935D01*
X348655Y47267D01*
X351513Y50125D01*
X353060Y53859D01*
X353060Y60960D01*
X345440Y60960D01*
G37*
G36*
X337145Y47267D02*
X340360Y45935D01*
X340360Y60960D01*
X332740Y60960D01*
X332740Y53859D01*
X334287Y50125D01*
X337145Y47267D01*
G37*
G36*
X205740Y60960D02*
X205740Y45935D01*
X208955Y47267D01*
X211813Y50125D01*
X213360Y53859D01*
X213360Y60960D01*
X205740Y60960D01*
G37*
G36*
X197445Y47267D02*
X200660Y45935D01*
X200660Y60960D01*
X193040Y60960D01*
X193040Y53859D01*
X194587Y50125D01*
X197445Y47267D01*
G37*
%LPD*%
D10*
X362750Y120700D02*
X362750Y107900D01*
X387750Y107900D02*
X387750Y120700D01*
X412750Y120700D02*
X412750Y107900D01*
X502450Y107900D02*
X502450Y120700D01*
X527450Y120700D02*
X527450Y107900D01*
X552450Y107900D02*
X552450Y120700D01*
X411950Y260300D02*
X411950Y273100D01*
X386950Y273100D02*
X386950Y260300D01*
X361950Y260300D02*
X361950Y273100D01*
X551650Y273100D02*
X551650Y260300D01*
X526650Y260300D02*
X526650Y273100D01*
X501650Y273100D02*
X501650Y260300D01*
D11*
X158050Y241300D02*
X134050Y241300D01*
X56450Y241300D02*
X32450Y241300D01*
X134050Y139700D02*
X158050Y139700D01*
X56450Y139700D02*
X32450Y139700D01*
D12*
X368300Y71120D02*
X368300Y55880D01*
X342900Y55880D02*
X342900Y71120D01*
X228600Y71120D02*
X228600Y55880D01*
X203200Y55880D02*
X203200Y71120D01*
X508000Y71120D02*
X508000Y55880D01*
X482600Y55880D02*
X482600Y71120D01*
X228600Y309880D02*
X228600Y325120D01*
X203200Y325120D02*
X203200Y309880D01*
X368300Y309880D02*
X368300Y325120D01*
X342900Y325120D02*
X342900Y309880D01*
X508000Y309880D02*
X508000Y325120D01*
X482600Y325120D02*
X482600Y309880D01*
D10*
X603200Y215100D02*
X616000Y215100D01*
X616000Y190100D02*
X603200Y190100D01*
X603200Y165100D02*
X616000Y165100D01*
X223050Y120700D02*
X223050Y107900D01*
X248050Y107900D02*
X248050Y120700D01*
X273050Y120700D02*
X273050Y107900D01*
X272250Y260300D02*
X272250Y273100D01*
X247250Y273100D02*
X247250Y260300D01*
X222250Y260300D02*
X222250Y273100D01*
D12*
X248050Y114300D02*
X248050Y89300D01*
X228600Y69850D01*
X228600Y63500D01*
D13*
X228600Y31750D01*
D14*
X228600Y31750D03*
D12*
X527450Y89300D02*
X527450Y114300D01*
X527450Y89300D02*
X508000Y69850D01*
X508000Y63500D01*
D13*
X508000Y31750D01*
D14*
X508000Y31750D03*
D12*
X387750Y89300D02*
X387750Y114300D01*
X387750Y89300D02*
X368300Y69850D01*
X368300Y63500D01*
D13*
X368300Y31750D01*
D14*
X368300Y31750D03*
D12*
X247250Y266700D02*
X247250Y292100D01*
X228600Y310750D01*
X228600Y317500D01*
D14*
X228600Y349786D03*
D13*
X228600Y317500D01*
X501650Y317500D02*
X508000Y317500D01*
X508000Y349250D01*
D14*
X508000Y349250D03*
D12*
X526650Y291700D02*
X526650Y266700D01*
X508000Y310350D02*
X508000Y317500D01*
X508000Y310350D02*
X526650Y291700D01*
D14*
X368300Y349250D03*
D12*
X368300Y311150D02*
X386950Y292500D01*
X368300Y311150D02*
X368300Y317500D01*
D13*
X368300Y349250D01*
D12*
X386950Y292500D02*
X386950Y266700D01*
M02*
