G04 EAGLE Gerber RS-274X export*
G75*
%MOMM*%
%FSLAX34Y34*%
%LPD*%
%INSilkscreen Top*%
%IPPOS*%
%AMOC8*
5,1,8,0,0,1.08239X$1,22.5*%
G01*
G04 Define Apertures*
%ADD10C,0.127000*%
%ADD11C,0.400000*%
%ADD12C,0.152400*%
%ADD13C,0.120000*%
G36*
X654253Y178259D02*
X653625Y178270D01*
X653014Y178303D01*
X652421Y178357D01*
X651844Y178434D01*
X651286Y178532D01*
X650744Y178651D01*
X650220Y178793D01*
X649714Y178956D01*
X649224Y179142D01*
X648752Y179349D01*
X648298Y179577D01*
X647861Y179828D01*
X647441Y180100D01*
X647038Y180395D01*
X646653Y180710D01*
X646286Y181048D01*
X645938Y181405D01*
X645613Y181780D01*
X645310Y182171D01*
X645029Y182579D01*
X644771Y183005D01*
X644536Y183447D01*
X644322Y183907D01*
X644132Y184384D01*
X643964Y184878D01*
X643818Y185388D01*
X643694Y185916D01*
X643593Y186461D01*
X643515Y187023D01*
X643459Y187603D01*
X643425Y188199D01*
X643414Y188812D01*
X643434Y189609D01*
X643494Y190379D01*
X643595Y191122D01*
X643736Y191839D01*
X643917Y192528D01*
X644139Y193191D01*
X644401Y193827D01*
X644703Y194435D01*
X645043Y195013D01*
X645420Y195556D01*
X645834Y196064D01*
X646284Y196537D01*
X646770Y196974D01*
X647293Y197377D01*
X647853Y197744D01*
X648449Y198076D01*
X649077Y198371D01*
X649733Y198627D01*
X650417Y198843D01*
X651129Y199020D01*
X651868Y199158D01*
X652635Y199256D01*
X653430Y199315D01*
X654253Y199335D01*
X655073Y199315D01*
X655867Y199255D01*
X656635Y199156D01*
X657378Y199017D01*
X658094Y198837D01*
X658784Y198618D01*
X659449Y198360D01*
X660088Y198061D01*
X660695Y197725D01*
X661266Y197355D01*
X661801Y196950D01*
X662300Y196510D01*
X662762Y196036D01*
X663188Y195527D01*
X663578Y194983D01*
X663932Y194405D01*
X664246Y193796D01*
X664519Y193161D01*
X664749Y192498D01*
X664938Y191808D01*
X665085Y191092D01*
X665190Y190349D01*
X665253Y189579D01*
X665274Y188782D01*
X665253Y187978D01*
X665191Y187202D01*
X665087Y186455D01*
X664942Y185735D01*
X664755Y185043D01*
X664527Y184379D01*
X664258Y183744D01*
X663947Y183136D01*
X663597Y182560D01*
X663210Y182019D01*
X662785Y181513D01*
X662324Y181043D01*
X661826Y180607D01*
X661291Y180206D01*
X660719Y179841D01*
X660110Y179510D01*
X659470Y179217D01*
X658803Y178963D01*
X658110Y178748D01*
X657391Y178572D01*
X656646Y178435D01*
X655874Y178337D01*
X655077Y178279D01*
X654253Y178259D01*
G37*
%LPC*%
G36*
X654253Y181184D02*
X654746Y181192D01*
X655226Y181215D01*
X655693Y181255D01*
X656148Y181310D01*
X656589Y181380D01*
X657017Y181467D01*
X657433Y181569D01*
X657836Y181687D01*
X658225Y181821D01*
X658602Y181970D01*
X658966Y182135D01*
X659317Y182316D01*
X659655Y182513D01*
X659981Y182725D01*
X660293Y182953D01*
X660593Y183197D01*
X660876Y183454D01*
X661142Y183724D01*
X661389Y184006D01*
X661618Y184300D01*
X661829Y184607D01*
X662021Y184925D01*
X662195Y185256D01*
X662351Y185599D01*
X662488Y185954D01*
X662607Y186322D01*
X662708Y186701D01*
X662790Y187093D01*
X662854Y187497D01*
X662900Y187913D01*
X662928Y188342D01*
X662937Y188782D01*
X662928Y189235D01*
X662901Y189675D01*
X662857Y190101D01*
X662795Y190514D01*
X662715Y190914D01*
X662618Y191300D01*
X662503Y191673D01*
X662370Y192033D01*
X662219Y192379D01*
X662051Y192712D01*
X661864Y193031D01*
X661661Y193337D01*
X661439Y193630D01*
X661200Y193909D01*
X660943Y194175D01*
X660668Y194428D01*
X660377Y194666D01*
X660071Y194889D01*
X659751Y195096D01*
X659416Y195289D01*
X659067Y195465D01*
X658702Y195627D01*
X658323Y195773D01*
X657930Y195903D01*
X657522Y196019D01*
X657099Y196119D01*
X656661Y196203D01*
X656209Y196272D01*
X655742Y196326D01*
X655260Y196365D01*
X654764Y196388D01*
X654253Y196395D01*
X653764Y196388D01*
X653289Y196364D01*
X652826Y196326D01*
X652377Y196271D01*
X651942Y196202D01*
X651519Y196116D01*
X651110Y196016D01*
X650714Y195900D01*
X650332Y195768D01*
X649963Y195621D01*
X649607Y195458D01*
X649264Y195280D01*
X648935Y195087D01*
X648619Y194877D01*
X648316Y194653D01*
X648027Y194413D01*
X647753Y194159D01*
X647497Y193892D01*
X647258Y193612D01*
X647038Y193319D01*
X646834Y193014D01*
X646649Y192696D01*
X646481Y192365D01*
X646331Y192021D01*
X646198Y191665D01*
X646084Y191296D01*
X645986Y190914D01*
X645907Y190519D01*
X645845Y190112D01*
X645801Y189691D01*
X645774Y189258D01*
X645766Y188812D01*
X645774Y188363D01*
X645800Y187926D01*
X645844Y187502D01*
X645905Y187092D01*
X645984Y186694D01*
X646079Y186309D01*
X646193Y185937D01*
X646323Y185578D01*
X646472Y185233D01*
X646637Y184900D01*
X646820Y184580D01*
X647021Y184273D01*
X647239Y183978D01*
X647474Y183697D01*
X647727Y183429D01*
X647997Y183174D01*
X648283Y182933D01*
X648583Y182707D01*
X648897Y182498D01*
X649225Y182303D01*
X649567Y182124D01*
X649922Y181961D01*
X650292Y181814D01*
X650677Y181681D01*
X651075Y181565D01*
X651487Y181464D01*
X651913Y181378D01*
X652353Y181308D01*
X652807Y181254D01*
X653275Y181215D01*
X653757Y181192D01*
X654253Y181184D01*
G37*
%LPD*%
G36*
X664972Y203330D02*
X643730Y203330D01*
X643730Y207114D01*
X658459Y212767D01*
X659381Y213063D01*
X660366Y213347D01*
X661243Y213579D01*
X661836Y213717D01*
X661077Y213903D01*
X660005Y214222D01*
X659004Y214544D01*
X658459Y214742D01*
X643730Y220290D01*
X643730Y223983D01*
X664972Y223983D01*
X664972Y221390D01*
X650801Y221390D01*
X649636Y221399D01*
X648494Y221424D01*
X647375Y221467D01*
X646278Y221526D01*
X647554Y221166D01*
X648683Y220825D01*
X649665Y220503D01*
X650499Y220199D01*
X664972Y214712D01*
X664972Y212692D01*
X650499Y207129D01*
X647937Y206284D01*
X646278Y205787D01*
X647952Y205832D01*
X650801Y205892D01*
X664972Y205892D01*
X664972Y203330D01*
G37*
G36*
X654253Y156052D02*
X653627Y156063D01*
X653017Y156095D01*
X652425Y156149D01*
X651851Y156224D01*
X651293Y156320D01*
X650752Y156438D01*
X650229Y156577D01*
X649723Y156738D01*
X649234Y156920D01*
X648762Y157124D01*
X648308Y157349D01*
X647871Y157596D01*
X647450Y157864D01*
X647048Y158153D01*
X646662Y158464D01*
X646293Y158796D01*
X645945Y159147D01*
X645618Y159515D01*
X645315Y159899D01*
X645033Y160300D01*
X644775Y160717D01*
X644539Y161151D01*
X644325Y161601D01*
X644134Y162067D01*
X643965Y162551D01*
X643819Y163050D01*
X643695Y163566D01*
X643594Y164099D01*
X643515Y164648D01*
X643459Y165214D01*
X643425Y165796D01*
X643414Y166394D01*
X643435Y167225D01*
X643497Y168020D01*
X643600Y168781D01*
X643745Y169507D01*
X643932Y170198D01*
X644160Y170855D01*
X644430Y171476D01*
X644740Y172063D01*
X645092Y172613D01*
X645484Y173125D01*
X645916Y173600D01*
X646387Y174038D01*
X646899Y174437D01*
X647451Y174799D01*
X648043Y175123D01*
X648675Y175409D01*
X649580Y172681D01*
X649130Y172482D01*
X648707Y172255D01*
X648312Y172001D01*
X647944Y171718D01*
X647603Y171407D01*
X647290Y171068D01*
X647004Y170701D01*
X646746Y170306D01*
X646516Y169888D01*
X646317Y169450D01*
X646148Y168994D01*
X646011Y168518D01*
X645903Y168023D01*
X645827Y167509D01*
X645781Y166976D01*
X645766Y166424D01*
X645774Y165989D01*
X645801Y165567D01*
X645845Y165157D01*
X645907Y164758D01*
X645987Y164373D01*
X646085Y163999D01*
X646200Y163638D01*
X646333Y163289D01*
X646484Y162952D01*
X646652Y162627D01*
X646838Y162315D01*
X647042Y162015D01*
X647263Y161727D01*
X647503Y161451D01*
X647760Y161188D01*
X648035Y160937D01*
X648325Y160699D01*
X648628Y160477D01*
X648944Y160271D01*
X649274Y160079D01*
X649617Y159903D01*
X649973Y159742D01*
X650342Y159597D01*
X650724Y159467D01*
X651119Y159352D01*
X651527Y159253D01*
X651949Y159168D01*
X652383Y159099D01*
X652831Y159046D01*
X653292Y159008D01*
X653766Y158985D01*
X654253Y158977D01*
X654735Y158985D01*
X655205Y159009D01*
X655664Y159049D01*
X656110Y159105D01*
X656544Y159176D01*
X656966Y159264D01*
X657377Y159368D01*
X657775Y159488D01*
X658162Y159623D01*
X658536Y159775D01*
X658899Y159942D01*
X659249Y160126D01*
X659588Y160325D01*
X659915Y160541D01*
X660229Y160772D01*
X660532Y161020D01*
X660820Y161281D01*
X661089Y161553D01*
X661339Y161836D01*
X661571Y162131D01*
X661784Y162437D01*
X661979Y162754D01*
X662155Y163083D01*
X662313Y163422D01*
X662452Y163773D01*
X662573Y164136D01*
X662675Y164509D01*
X662758Y164894D01*
X662823Y165290D01*
X662870Y165697D01*
X662897Y166115D01*
X662907Y166545D01*
X662889Y167094D01*
X662838Y167626D01*
X662751Y168140D01*
X662631Y168638D01*
X662475Y169118D01*
X662285Y169580D01*
X662061Y170025D01*
X661802Y170453D01*
X661509Y170864D01*
X661181Y171257D01*
X660819Y171633D01*
X660422Y171992D01*
X659991Y172333D01*
X659525Y172657D01*
X659024Y172964D01*
X658489Y173254D01*
X659665Y175605D01*
X660331Y175261D01*
X660955Y174883D01*
X661539Y174472D01*
X662081Y174028D01*
X662583Y173551D01*
X663043Y173040D01*
X663463Y172496D01*
X663841Y171919D01*
X664177Y171314D01*
X664468Y170685D01*
X664714Y170032D01*
X664915Y169355D01*
X665072Y168654D01*
X665184Y167930D01*
X665251Y167181D01*
X665274Y166409D01*
X665253Y165620D01*
X665190Y164858D01*
X665086Y164123D01*
X664940Y163415D01*
X664752Y162734D01*
X664523Y162080D01*
X664252Y161453D01*
X663939Y160854D01*
X663588Y160285D01*
X663201Y159751D01*
X662778Y159253D01*
X662319Y158788D01*
X661824Y158359D01*
X661294Y157965D01*
X660727Y157606D01*
X660125Y157281D01*
X659491Y156993D01*
X658828Y156743D01*
X658137Y156532D01*
X657417Y156359D01*
X656669Y156225D01*
X655892Y156129D01*
X655087Y156071D01*
X654253Y156052D01*
G37*
G36*
X254736Y204978D02*
X241424Y204978D01*
X241424Y207285D01*
X246836Y207285D01*
X246836Y223627D01*
X242042Y220204D01*
X242042Y222767D01*
X247062Y226220D01*
X249565Y226220D01*
X249565Y207285D01*
X254736Y207285D01*
X254736Y204978D01*
G37*
G36*
X254690Y154178D02*
X240625Y154178D01*
X240625Y156093D01*
X241030Y156949D01*
X241478Y157753D01*
X241969Y158505D01*
X242502Y159206D01*
X243063Y159864D01*
X243638Y160491D01*
X244227Y161085D01*
X244831Y161648D01*
X246046Y162701D01*
X247250Y163676D01*
X247835Y164143D01*
X248391Y164610D01*
X248917Y165078D01*
X249414Y165545D01*
X249873Y166018D01*
X250286Y166502D01*
X250653Y166998D01*
X250974Y167505D01*
X251114Y167765D01*
X251235Y168034D01*
X251337Y168312D01*
X251421Y168598D01*
X251486Y168892D01*
X251532Y169195D01*
X251560Y169507D01*
X251570Y169827D01*
X251554Y170252D01*
X251506Y170652D01*
X251425Y171028D01*
X251313Y171379D01*
X251169Y171706D01*
X250993Y172009D01*
X250785Y172287D01*
X250544Y172540D01*
X250276Y172766D01*
X249982Y172962D01*
X249663Y173128D01*
X249320Y173264D01*
X248951Y173369D01*
X248557Y173445D01*
X248139Y173490D01*
X247695Y173505D01*
X247271Y173490D01*
X246866Y173446D01*
X246481Y173373D01*
X246114Y173269D01*
X245767Y173137D01*
X245438Y172975D01*
X245129Y172784D01*
X244838Y172563D01*
X244572Y172315D01*
X244335Y172044D01*
X244126Y171749D01*
X243947Y171430D01*
X243797Y171088D01*
X243675Y170721D01*
X243583Y170331D01*
X243519Y169917D01*
X240745Y170173D01*
X240845Y170794D01*
X240994Y171382D01*
X241191Y171938D01*
X241437Y172461D01*
X241732Y172952D01*
X242075Y173410D01*
X242468Y173836D01*
X242909Y174229D01*
X243391Y174582D01*
X243906Y174888D01*
X244454Y175147D01*
X245036Y175359D01*
X245651Y175524D01*
X246299Y175642D01*
X246981Y175713D01*
X247695Y175736D01*
X248091Y175730D01*
X248475Y175713D01*
X248847Y175683D01*
X249208Y175642D01*
X249557Y175588D01*
X249895Y175523D01*
X250221Y175446D01*
X250535Y175357D01*
X250838Y175257D01*
X251129Y175144D01*
X251409Y175020D01*
X251677Y174884D01*
X251933Y174736D01*
X252178Y174576D01*
X252411Y174405D01*
X252632Y174221D01*
X253037Y173822D01*
X253219Y173608D01*
X253388Y173384D01*
X253543Y173150D01*
X253684Y172906D01*
X253812Y172652D01*
X253927Y172388D01*
X254028Y172114D01*
X254116Y171830D01*
X254190Y171536D01*
X254251Y171232D01*
X254298Y170918D01*
X254332Y170594D01*
X254352Y170261D01*
X254359Y169917D01*
X254350Y169608D01*
X254323Y169300D01*
X254279Y168992D01*
X254217Y168685D01*
X254138Y168378D01*
X254041Y168071D01*
X253926Y167765D01*
X253793Y167460D01*
X253476Y166849D01*
X253090Y166239D01*
X252636Y165628D01*
X252112Y165017D01*
X251427Y164323D01*
X250488Y163461D01*
X249294Y162431D01*
X247846Y161233D01*
X247023Y160542D01*
X246289Y159886D01*
X245644Y159265D01*
X245087Y158678D01*
X244610Y158114D01*
X244205Y157561D01*
X243872Y157017D01*
X243610Y156485D01*
X254690Y156485D01*
X254690Y154178D01*
G37*
G36*
X387380Y204677D02*
X386594Y204699D01*
X385848Y204767D01*
X385144Y204881D01*
X384480Y205040D01*
X383857Y205245D01*
X383274Y205495D01*
X382733Y205790D01*
X382232Y206131D01*
X381776Y206517D01*
X381368Y206946D01*
X381010Y207418D01*
X380700Y207935D01*
X380563Y208209D01*
X380439Y208495D01*
X380326Y208791D01*
X380226Y209098D01*
X380138Y209416D01*
X380063Y209745D01*
X379999Y210085D01*
X379948Y210435D01*
X382752Y210692D01*
X382834Y210235D01*
X382943Y209808D01*
X383080Y209411D01*
X383245Y209043D01*
X383437Y208704D01*
X383657Y208395D01*
X383905Y208115D01*
X384180Y207865D01*
X384483Y207644D01*
X384814Y207453D01*
X385173Y207291D01*
X385559Y207158D01*
X385973Y207055D01*
X386414Y206982D01*
X386883Y206937D01*
X387380Y206923D01*
X387879Y206939D01*
X388350Y206986D01*
X388794Y207065D01*
X389210Y207175D01*
X389598Y207317D01*
X389959Y207491D01*
X390293Y207696D01*
X390599Y207933D01*
X390873Y208201D01*
X391110Y208499D01*
X391311Y208828D01*
X391475Y209188D01*
X391603Y209578D01*
X391694Y209999D01*
X391749Y210451D01*
X391767Y210933D01*
X391746Y211354D01*
X391684Y211752D01*
X391579Y212126D01*
X391434Y212476D01*
X391246Y212803D01*
X391017Y213105D01*
X390746Y213384D01*
X390433Y213639D01*
X390081Y213867D01*
X389692Y214064D01*
X389266Y214232D01*
X388803Y214368D01*
X388303Y214475D01*
X387766Y214551D01*
X387192Y214596D01*
X386581Y214611D01*
X385043Y214611D01*
X385043Y216963D01*
X386521Y216963D01*
X387063Y216978D01*
X387574Y217024D01*
X388053Y217100D01*
X388501Y217206D01*
X388918Y217343D01*
X389304Y217510D01*
X389658Y217708D01*
X389981Y217936D01*
X390269Y218190D01*
X390518Y218468D01*
X390729Y218770D01*
X390902Y219094D01*
X391037Y219443D01*
X391133Y219814D01*
X391190Y220209D01*
X391209Y220627D01*
X391194Y221041D01*
X391147Y221434D01*
X391068Y221804D01*
X390959Y222151D01*
X390818Y222476D01*
X390645Y222779D01*
X390442Y223060D01*
X390207Y223318D01*
X389941Y223549D01*
X389645Y223750D01*
X389318Y223919D01*
X388961Y224058D01*
X388574Y224166D01*
X388156Y224243D01*
X387708Y224290D01*
X387229Y224305D01*
X386792Y224291D01*
X386375Y224248D01*
X385980Y224176D01*
X385607Y224075D01*
X385255Y223946D01*
X384924Y223788D01*
X384615Y223601D01*
X384327Y223385D01*
X384065Y223144D01*
X383831Y222878D01*
X383627Y222590D01*
X383451Y222277D01*
X383304Y221941D01*
X383187Y221582D01*
X383098Y221199D01*
X383038Y220792D01*
X380310Y221003D01*
X380353Y221325D01*
X380409Y221638D01*
X380558Y222236D01*
X380755Y222798D01*
X381001Y223325D01*
X381296Y223816D01*
X381640Y224271D01*
X382032Y224690D01*
X382473Y225074D01*
X382955Y225417D01*
X383470Y225714D01*
X384019Y225965D01*
X384601Y226171D01*
X385215Y226331D01*
X385864Y226445D01*
X386545Y226513D01*
X387259Y226536D01*
X388036Y226513D01*
X388768Y226443D01*
X389456Y226327D01*
X390099Y226165D01*
X390698Y225956D01*
X391252Y225701D01*
X391762Y225399D01*
X392227Y225051D01*
X392642Y224662D01*
X393002Y224236D01*
X393161Y224009D01*
X393306Y223773D01*
X393438Y223528D01*
X393555Y223274D01*
X393659Y223011D01*
X393749Y222739D01*
X393825Y222457D01*
X393888Y222167D01*
X393936Y221867D01*
X393971Y221558D01*
X393991Y221240D01*
X393998Y220913D01*
X393981Y220416D01*
X393927Y219943D01*
X393838Y219494D01*
X393714Y219068D01*
X393554Y218666D01*
X393358Y218288D01*
X393127Y217934D01*
X392860Y217604D01*
X392559Y217298D01*
X392226Y217018D01*
X391861Y216764D01*
X391464Y216535D01*
X391034Y216332D01*
X390572Y216155D01*
X390078Y216004D01*
X389551Y215878D01*
X389551Y215817D01*
X390130Y215736D01*
X390676Y215621D01*
X391189Y215473D01*
X391669Y215290D01*
X392116Y215073D01*
X392530Y214822D01*
X392911Y214538D01*
X393260Y214219D01*
X393571Y213873D01*
X393840Y213505D01*
X394068Y213116D01*
X394255Y212704D01*
X394400Y212271D01*
X394503Y211817D01*
X394566Y211340D01*
X394586Y210842D01*
X394579Y210480D01*
X394557Y210128D01*
X394521Y209787D01*
X394469Y209455D01*
X394404Y209135D01*
X394323Y208824D01*
X394228Y208524D01*
X394119Y208234D01*
X393995Y207955D01*
X393856Y207686D01*
X393703Y207427D01*
X393535Y207179D01*
X393352Y206941D01*
X393155Y206714D01*
X392943Y206496D01*
X392717Y206290D01*
X392477Y206094D01*
X392225Y205912D01*
X391960Y205741D01*
X391682Y205584D01*
X391392Y205439D01*
X391090Y205307D01*
X390775Y205187D01*
X390448Y205080D01*
X390108Y204985D01*
X389756Y204903D01*
X389391Y204834D01*
X389014Y204777D01*
X388624Y204733D01*
X388222Y204702D01*
X387807Y204683D01*
X387380Y204677D01*
G37*
G36*
X392054Y154178D02*
X389491Y154178D01*
X389491Y158987D01*
X379480Y158987D01*
X379480Y161098D01*
X389204Y175420D01*
X392054Y175420D01*
X392054Y161128D01*
X395039Y161128D01*
X395039Y158987D01*
X392054Y158987D01*
X392054Y154178D01*
G37*
%LPC*%
G36*
X389491Y161128D02*
X389491Y172359D01*
X389069Y171560D01*
X388726Y170957D01*
X388481Y170565D01*
X383038Y162545D01*
X382224Y161429D01*
X381983Y161128D01*
X389491Y161128D01*
G37*
%LPD*%
G36*
X526809Y204677D02*
X526084Y204697D01*
X525395Y204758D01*
X524742Y204859D01*
X524125Y205001D01*
X523544Y205183D01*
X522998Y205406D01*
X522489Y205669D01*
X522015Y205973D01*
X521580Y206315D01*
X521186Y206694D01*
X520835Y207109D01*
X520526Y207560D01*
X520259Y208047D01*
X520033Y208571D01*
X519850Y209131D01*
X519708Y209727D01*
X522452Y210043D01*
X522570Y209662D01*
X522709Y209305D01*
X522869Y208973D01*
X523050Y208665D01*
X523252Y208382D01*
X523476Y208123D01*
X523720Y207890D01*
X523986Y207680D01*
X524272Y207496D01*
X524580Y207336D01*
X524909Y207200D01*
X525259Y207090D01*
X525630Y207003D01*
X526022Y206942D01*
X526435Y206905D01*
X526869Y206893D01*
X527401Y206913D01*
X527903Y206975D01*
X528375Y207078D01*
X528818Y207222D01*
X529230Y207408D01*
X529614Y207635D01*
X529967Y207903D01*
X530291Y208212D01*
X530581Y208557D01*
X530832Y208933D01*
X531045Y209340D01*
X531218Y209778D01*
X531354Y210246D01*
X531450Y210746D01*
X531508Y211276D01*
X531527Y211837D01*
X531508Y212327D01*
X531450Y212792D01*
X531353Y213233D01*
X531216Y213650D01*
X531042Y214043D01*
X530828Y214413D01*
X530575Y214758D01*
X530284Y215079D01*
X529959Y215368D01*
X529608Y215620D01*
X529229Y215832D01*
X528823Y216006D01*
X528390Y216141D01*
X527930Y216238D01*
X527443Y216296D01*
X526929Y216315D01*
X526388Y216293D01*
X525866Y216228D01*
X525363Y216120D01*
X524879Y215968D01*
X524404Y215765D01*
X523929Y215501D01*
X523454Y215177D01*
X522980Y214792D01*
X520326Y214792D01*
X521035Y226220D01*
X533110Y226220D01*
X533110Y223913D01*
X523507Y223913D01*
X523100Y217174D01*
X523555Y217492D01*
X524036Y217768D01*
X524544Y218001D01*
X525079Y218192D01*
X525641Y218340D01*
X526229Y218446D01*
X526845Y218510D01*
X527487Y218531D01*
X527874Y218524D01*
X528251Y218502D01*
X528618Y218466D01*
X528975Y218416D01*
X529323Y218351D01*
X529660Y218272D01*
X529987Y218179D01*
X530304Y218071D01*
X530612Y217949D01*
X530909Y217813D01*
X531197Y217662D01*
X531474Y217496D01*
X531742Y217317D01*
X531999Y217123D01*
X532247Y216915D01*
X532485Y216692D01*
X532710Y216458D01*
X532921Y216215D01*
X533117Y215963D01*
X533299Y215702D01*
X533467Y215433D01*
X533619Y215155D01*
X533757Y214869D01*
X533881Y214574D01*
X533990Y214270D01*
X534085Y213957D01*
X534165Y213636D01*
X534230Y213305D01*
X534281Y212967D01*
X534317Y212619D01*
X534339Y212263D01*
X534347Y211898D01*
X534339Y211483D01*
X534315Y211080D01*
X534276Y210687D01*
X534222Y210306D01*
X534151Y209936D01*
X534066Y209578D01*
X533964Y209230D01*
X533847Y208894D01*
X533715Y208569D01*
X533566Y208255D01*
X533402Y207952D01*
X533223Y207661D01*
X533028Y207380D01*
X532817Y207111D01*
X532591Y206853D01*
X532349Y206606D01*
X532093Y206373D01*
X531826Y206154D01*
X531546Y205950D01*
X531254Y205762D01*
X530950Y205589D01*
X530634Y205430D01*
X530305Y205287D01*
X529965Y205159D01*
X529613Y205046D01*
X529249Y204948D01*
X528872Y204865D01*
X528484Y204797D01*
X528083Y204744D01*
X527670Y204707D01*
X527246Y204684D01*
X526809Y204677D01*
G37*
G36*
X527427Y153877D02*
X526985Y153887D01*
X526556Y153918D01*
X526141Y153970D01*
X525738Y154043D01*
X525349Y154137D01*
X524973Y154252D01*
X524611Y154387D01*
X524261Y154544D01*
X523925Y154721D01*
X523601Y154919D01*
X523291Y155138D01*
X522995Y155377D01*
X522711Y155638D01*
X522441Y155919D01*
X522183Y156222D01*
X521939Y156545D01*
X521709Y156888D01*
X521494Y157250D01*
X521294Y157631D01*
X521108Y158031D01*
X520938Y158450D01*
X520782Y158888D01*
X520641Y159344D01*
X520515Y159820D01*
X520403Y160315D01*
X520307Y160828D01*
X520225Y161361D01*
X520158Y161913D01*
X520107Y162483D01*
X520069Y163073D01*
X520047Y163681D01*
X520040Y164309D01*
X520047Y164989D01*
X520071Y165648D01*
X520109Y166288D01*
X520163Y166908D01*
X520233Y167507D01*
X520317Y168087D01*
X520418Y168646D01*
X520533Y169186D01*
X520665Y169705D01*
X520811Y170205D01*
X520973Y170684D01*
X521151Y171144D01*
X521343Y171583D01*
X521552Y172003D01*
X521776Y172402D01*
X522015Y172781D01*
X522268Y173139D01*
X522535Y173474D01*
X522814Y173786D01*
X523107Y174074D01*
X523412Y174340D01*
X523731Y174582D01*
X524063Y174801D01*
X524408Y174998D01*
X524766Y175171D01*
X525137Y175321D01*
X525521Y175448D01*
X525918Y175552D01*
X526329Y175632D01*
X526752Y175690D01*
X527188Y175725D01*
X527638Y175736D01*
X528225Y175719D01*
X528785Y175669D01*
X529316Y175584D01*
X529820Y175466D01*
X530296Y175314D01*
X530744Y175128D01*
X531165Y174908D01*
X531558Y174655D01*
X531922Y174367D01*
X532260Y174046D01*
X532569Y173691D01*
X532850Y173302D01*
X533104Y172880D01*
X533330Y172424D01*
X533528Y171933D01*
X533698Y171410D01*
X531105Y170942D01*
X530998Y171256D01*
X530876Y171550D01*
X530739Y171823D01*
X530587Y172077D01*
X530420Y172310D01*
X530239Y172522D01*
X530043Y172715D01*
X529831Y172887D01*
X529605Y173039D01*
X529365Y173171D01*
X529109Y173282D01*
X528838Y173373D01*
X528553Y173444D01*
X528253Y173495D01*
X527938Y173525D01*
X527608Y173535D01*
X527322Y173527D01*
X527044Y173501D01*
X526774Y173459D01*
X526512Y173400D01*
X526259Y173324D01*
X526014Y173231D01*
X525777Y173121D01*
X525548Y172994D01*
X525327Y172851D01*
X525115Y172690D01*
X524911Y172513D01*
X524715Y172318D01*
X524527Y172107D01*
X524347Y171879D01*
X524012Y171372D01*
X523858Y171094D01*
X523714Y170801D01*
X523455Y170169D01*
X523236Y169477D01*
X523057Y168724D01*
X522917Y167911D01*
X522818Y167037D01*
X522758Y166103D01*
X522738Y165108D01*
X522932Y165441D01*
X523145Y165753D01*
X523377Y166045D01*
X523628Y166316D01*
X523897Y166567D01*
X524186Y166797D01*
X524493Y167007D01*
X524819Y167196D01*
X525160Y167364D01*
X525514Y167509D01*
X525880Y167632D01*
X526258Y167733D01*
X526649Y167811D01*
X527052Y167867D01*
X527467Y167901D01*
X527894Y167912D01*
X528257Y167905D01*
X528610Y167883D01*
X528954Y167847D01*
X529288Y167797D01*
X529613Y167732D01*
X529928Y167653D01*
X530234Y167560D01*
X530531Y167452D01*
X530817Y167330D01*
X531095Y167193D01*
X531363Y167043D01*
X531621Y166877D01*
X531870Y166698D01*
X532110Y166504D01*
X532340Y166295D01*
X532560Y166073D01*
X532769Y165838D01*
X532965Y165593D01*
X533147Y165338D01*
X533315Y165074D01*
X533470Y164800D01*
X533612Y164515D01*
X533740Y164221D01*
X533855Y163917D01*
X533956Y163603D01*
X534044Y163279D01*
X534118Y162945D01*
X534178Y162602D01*
X534226Y162248D01*
X534259Y161885D01*
X534280Y161511D01*
X534286Y161128D01*
X534279Y160713D01*
X534258Y160310D01*
X534222Y159917D01*
X534172Y159536D01*
X534108Y159165D01*
X534030Y158806D01*
X533937Y158457D01*
X533830Y158120D01*
X533709Y157794D01*
X533574Y157479D01*
X533424Y157175D01*
X533260Y156882D01*
X533082Y156600D01*
X532890Y156330D01*
X532683Y156070D01*
X532462Y155821D01*
X532229Y155586D01*
X531984Y155365D01*
X531729Y155160D01*
X531463Y154970D01*
X531187Y154796D01*
X530899Y154636D01*
X530600Y154492D01*
X530291Y154363D01*
X529971Y154249D01*
X529640Y154150D01*
X529298Y154066D01*
X528946Y153998D01*
X528582Y153945D01*
X528208Y153907D01*
X527823Y153884D01*
X527427Y153877D01*
G37*
%LPC*%
G36*
X527336Y156062D02*
X527813Y156083D01*
X528264Y156145D01*
X528688Y156248D01*
X529085Y156392D01*
X529456Y156578D01*
X529801Y156804D01*
X530120Y157072D01*
X530412Y157382D01*
X530673Y157727D01*
X530900Y158103D01*
X531092Y158510D01*
X531249Y158948D01*
X531371Y159416D01*
X531458Y159916D01*
X531510Y160446D01*
X531527Y161007D01*
X531510Y161567D01*
X531457Y162095D01*
X531368Y162589D01*
X531245Y163050D01*
X531086Y163478D01*
X530891Y163874D01*
X530662Y164236D01*
X530397Y164565D01*
X530100Y164858D01*
X529776Y165113D01*
X529424Y165328D01*
X529044Y165504D01*
X528636Y165640D01*
X528200Y165738D01*
X527737Y165797D01*
X527246Y165816D01*
X526782Y165799D01*
X526342Y165747D01*
X525924Y165661D01*
X525529Y165539D01*
X525157Y165384D01*
X524808Y165193D01*
X524482Y164968D01*
X524178Y164708D01*
X523904Y164418D01*
X523667Y164102D01*
X523466Y163760D01*
X523302Y163391D01*
X523174Y162996D01*
X523083Y162576D01*
X523028Y162129D01*
X523010Y161656D01*
X523029Y161055D01*
X523086Y160482D01*
X523180Y159938D01*
X523313Y159421D01*
X523484Y158931D01*
X523692Y158470D01*
X523939Y158036D01*
X524223Y157630D01*
X524537Y157263D01*
X524873Y156944D01*
X525230Y156675D01*
X525608Y156454D01*
X526008Y156283D01*
X526429Y156160D01*
X526872Y156087D01*
X527102Y156069D01*
X527336Y156062D01*
G37*
%LPD*%
G36*
X13029Y12700D02*
X10078Y12700D01*
X10078Y20590D01*
X12688Y20590D01*
X13175Y20575D01*
X13633Y20528D01*
X14063Y20449D01*
X14464Y20339D01*
X14836Y20198D01*
X15180Y20025D01*
X15495Y19821D01*
X15782Y19585D01*
X16037Y19321D01*
X16258Y19030D01*
X16446Y18712D01*
X16599Y18368D01*
X16718Y17997D01*
X16803Y17600D01*
X16854Y17177D01*
X16871Y16726D01*
X16864Y16426D01*
X16841Y16135D01*
X16804Y15854D01*
X16752Y15582D01*
X16685Y15320D01*
X16603Y15067D01*
X16507Y14824D01*
X16395Y14590D01*
X16270Y14368D01*
X16132Y14159D01*
X15982Y13964D01*
X15820Y13781D01*
X15645Y13613D01*
X15457Y13458D01*
X15258Y13316D01*
X15045Y13187D01*
X14823Y13073D01*
X14592Y12974D01*
X14352Y12890D01*
X14105Y12822D01*
X13848Y12769D01*
X13584Y12730D01*
X13311Y12708D01*
X13029Y12700D01*
G37*
%LPC*%
G36*
X12906Y13557D02*
X13327Y13581D01*
X13722Y13652D01*
X14090Y13771D01*
X14432Y13938D01*
X14742Y14149D01*
X15014Y14402D01*
X15248Y14698D01*
X15443Y15035D01*
X15597Y15410D01*
X15708Y15816D01*
X15774Y16255D01*
X15796Y16726D01*
X15783Y17082D01*
X15746Y17416D01*
X15683Y17729D01*
X15595Y18019D01*
X15482Y18288D01*
X15344Y18535D01*
X15181Y18760D01*
X14992Y18964D01*
X14780Y19144D01*
X14546Y19300D01*
X14288Y19433D01*
X14009Y19541D01*
X13707Y19625D01*
X13382Y19685D01*
X13035Y19722D01*
X12665Y19734D01*
X11148Y19734D01*
X11148Y13557D01*
X12906Y13557D01*
G37*
%LPD*%
G36*
X190813Y12588D02*
X190483Y12604D01*
X190175Y12653D01*
X189887Y12734D01*
X189621Y12847D01*
X189376Y12993D01*
X189153Y13171D01*
X188950Y13381D01*
X188769Y13624D01*
X188609Y13898D01*
X188470Y14201D01*
X188352Y14535D01*
X188256Y14898D01*
X188182Y15291D01*
X188128Y15713D01*
X188096Y16166D01*
X188085Y16648D01*
X188096Y17140D01*
X188127Y17601D01*
X188179Y18029D01*
X188251Y18426D01*
X188345Y18791D01*
X188459Y19124D01*
X188594Y19425D01*
X188749Y19694D01*
X188927Y19932D01*
X189129Y20138D01*
X189355Y20312D01*
X189605Y20455D01*
X189879Y20565D01*
X190178Y20645D01*
X190500Y20692D01*
X190846Y20708D01*
X191183Y20692D01*
X191498Y20644D01*
X191789Y20564D01*
X192058Y20452D01*
X192304Y20308D01*
X192527Y20132D01*
X192727Y19923D01*
X192904Y19683D01*
X193060Y19412D01*
X193195Y19109D01*
X193309Y18776D01*
X193402Y18412D01*
X193475Y18017D01*
X193526Y17592D01*
X193558Y17135D01*
X193568Y16648D01*
X193557Y16168D01*
X193524Y15718D01*
X193470Y15297D01*
X193394Y14905D01*
X193296Y14542D01*
X193176Y14209D01*
X193034Y13905D01*
X192871Y13630D01*
X192686Y13385D01*
X192481Y13174D01*
X192254Y12995D01*
X192008Y12848D01*
X191740Y12734D01*
X191452Y12653D01*
X191143Y12604D01*
X190813Y12588D01*
G37*
%LPC*%
G36*
X190824Y13411D02*
X191039Y13424D01*
X191239Y13461D01*
X191425Y13523D01*
X191595Y13610D01*
X191751Y13722D01*
X191892Y13858D01*
X192018Y14020D01*
X192129Y14206D01*
X192226Y14418D01*
X192310Y14657D01*
X192381Y14922D01*
X192439Y15214D01*
X192485Y15533D01*
X192517Y15878D01*
X192537Y16250D01*
X192543Y16648D01*
X192537Y17060D01*
X192518Y17443D01*
X192488Y17797D01*
X192444Y18121D01*
X192389Y18415D01*
X192321Y18681D01*
X192241Y18917D01*
X192148Y19123D01*
X192042Y19303D01*
X191919Y19459D01*
X191780Y19591D01*
X191625Y19699D01*
X191455Y19782D01*
X191268Y19842D01*
X191065Y19878D01*
X190846Y19890D01*
X190622Y19879D01*
X190414Y19843D01*
X190223Y19784D01*
X190048Y19701D01*
X189889Y19595D01*
X189746Y19465D01*
X189620Y19312D01*
X189511Y19134D01*
X189416Y18930D01*
X189333Y18695D01*
X189263Y18430D01*
X189206Y18135D01*
X189162Y17809D01*
X189130Y17452D01*
X189111Y17065D01*
X189105Y16648D01*
X189111Y16242D01*
X189130Y15864D01*
X189163Y15515D01*
X189208Y15193D01*
X189265Y14900D01*
X189336Y14635D01*
X189420Y14398D01*
X189516Y14190D01*
X189627Y14007D01*
X189752Y13849D01*
X189893Y13715D01*
X190049Y13606D01*
X190220Y13521D01*
X190406Y13460D01*
X190607Y13423D01*
X190824Y13411D01*
G37*
%LPD*%
G36*
X94648Y12700D02*
X93578Y12700D01*
X93578Y20590D01*
X97291Y20590D01*
X97615Y20581D01*
X97920Y20553D01*
X98205Y20506D01*
X98472Y20441D01*
X98720Y20357D01*
X98948Y20255D01*
X99158Y20134D01*
X99349Y19994D01*
X99519Y19838D01*
X99666Y19667D01*
X99791Y19481D01*
X99893Y19281D01*
X99972Y19066D01*
X100029Y18836D01*
X100063Y18592D01*
X100074Y18334D01*
X100066Y18118D01*
X100042Y17911D01*
X100002Y17714D01*
X99946Y17524D01*
X99874Y17344D01*
X99786Y17172D01*
X99682Y17009D01*
X99562Y16855D01*
X99428Y16712D01*
X99281Y16583D01*
X99123Y16468D01*
X99052Y16426D01*
X98952Y16367D01*
X98769Y16279D01*
X98574Y16205D01*
X98367Y16145D01*
X98148Y16099D01*
X99101Y14652D01*
X100388Y12700D01*
X99156Y12700D01*
X97106Y15976D01*
X94648Y15976D01*
X94648Y12700D01*
G37*
%LPC*%
G36*
X97229Y16822D02*
X97435Y16828D01*
X97628Y16846D01*
X97810Y16877D01*
X97979Y16920D01*
X98137Y16976D01*
X98282Y17044D01*
X98416Y17124D01*
X98537Y17216D01*
X98645Y17320D01*
X98739Y17434D01*
X98819Y17557D01*
X98884Y17690D01*
X98934Y17833D01*
X98970Y17987D01*
X98992Y18150D01*
X98999Y18322D01*
X98992Y18489D01*
X98970Y18646D01*
X98933Y18793D01*
X98882Y18929D01*
X98816Y19055D01*
X98736Y19171D01*
X98641Y19277D01*
X98531Y19372D01*
X98408Y19457D01*
X98272Y19530D01*
X97961Y19643D01*
X97599Y19711D01*
X97185Y19734D01*
X94648Y19734D01*
X94648Y16822D01*
X97229Y16822D01*
G37*
%LPD*%
G36*
X41512Y10320D02*
X40504Y10320D01*
X40504Y17522D01*
X40496Y18299D01*
X40470Y18759D01*
X41445Y18759D01*
X41462Y18600D01*
X41487Y18177D01*
X41501Y17785D01*
X41523Y17785D01*
X41668Y18046D01*
X41835Y18270D01*
X42024Y18456D01*
X42234Y18605D01*
X42473Y18719D01*
X42747Y18800D01*
X43056Y18849D01*
X43399Y18866D01*
X43670Y18854D01*
X43924Y18819D01*
X44160Y18760D01*
X44378Y18678D01*
X44578Y18572D01*
X44761Y18443D01*
X44926Y18291D01*
X45074Y18115D01*
X45204Y17914D01*
X45316Y17686D01*
X45411Y17432D01*
X45489Y17151D01*
X45550Y16842D01*
X45593Y16508D01*
X45619Y16146D01*
X45628Y15758D01*
X45619Y15374D01*
X45593Y15015D01*
X45550Y14680D01*
X45489Y14371D01*
X45410Y14086D01*
X45315Y13826D01*
X45201Y13591D01*
X45071Y13380D01*
X44923Y13195D01*
X44757Y13034D01*
X44575Y12898D01*
X44374Y12786D01*
X44157Y12699D01*
X43922Y12638D01*
X43669Y12600D01*
X43399Y12588D01*
X43064Y12604D01*
X42757Y12654D01*
X42478Y12736D01*
X42229Y12851D01*
X42008Y12999D01*
X41816Y13180D01*
X41652Y13394D01*
X41518Y13641D01*
X41490Y13641D01*
X41506Y13380D01*
X41512Y12689D01*
X41512Y10320D01*
G37*
%LPC*%
G36*
X43130Y13333D02*
X43312Y13341D01*
X43480Y13367D01*
X43636Y13410D01*
X43779Y13471D01*
X43910Y13548D01*
X44028Y13643D01*
X44133Y13755D01*
X44225Y13884D01*
X44306Y14034D01*
X44376Y14207D01*
X44435Y14403D01*
X44484Y14623D01*
X44521Y14866D01*
X44548Y15132D01*
X44570Y15735D01*
X44548Y16323D01*
X44522Y16583D01*
X44484Y16820D01*
X44436Y17035D01*
X44377Y17227D01*
X44308Y17397D01*
X44228Y17544D01*
X44136Y17671D01*
X44032Y17782D01*
X43915Y17875D01*
X43786Y17951D01*
X43644Y18011D01*
X43489Y18053D01*
X43322Y18079D01*
X43142Y18087D01*
X42858Y18071D01*
X42608Y18024D01*
X42389Y17945D01*
X42204Y17835D01*
X42044Y17692D01*
X41905Y17512D01*
X41787Y17298D01*
X41688Y17048D01*
X41611Y16761D01*
X41556Y16433D01*
X41523Y16065D01*
X41512Y15657D01*
X41518Y15368D01*
X41536Y15100D01*
X41566Y14850D01*
X41607Y14621D01*
X41661Y14411D01*
X41726Y14220D01*
X41804Y14050D01*
X41893Y13898D01*
X41995Y13766D01*
X42113Y13651D01*
X42245Y13554D01*
X42393Y13474D01*
X42555Y13412D01*
X42732Y13368D01*
X42924Y13342D01*
X43130Y13333D01*
G37*
%LPD*%
G36*
X58712Y12588D02*
X58382Y12604D01*
X58081Y12650D01*
X57809Y12728D01*
X57567Y12837D01*
X57349Y12981D01*
X57153Y13163D01*
X56978Y13383D01*
X56825Y13641D01*
X56813Y13641D01*
X56791Y13112D01*
X56757Y12700D01*
X55783Y12700D01*
X55808Y13163D01*
X55817Y13949D01*
X55817Y21010D01*
X56825Y21010D01*
X56825Y18642D01*
X56802Y17785D01*
X56825Y17785D01*
X56976Y18055D01*
X57150Y18285D01*
X57347Y18473D01*
X57567Y18619D01*
X57811Y18729D01*
X58084Y18808D01*
X58384Y18855D01*
X58712Y18871D01*
X58989Y18859D01*
X59248Y18823D01*
X59487Y18762D01*
X59708Y18678D01*
X59909Y18569D01*
X60092Y18436D01*
X60256Y18280D01*
X60400Y18098D01*
X60527Y17893D01*
X60637Y17662D01*
X60729Y17407D01*
X60805Y17127D01*
X60865Y16822D01*
X60907Y16492D01*
X60932Y16137D01*
X60941Y15758D01*
X60932Y15374D01*
X60906Y15015D01*
X60862Y14680D01*
X60801Y14371D01*
X60723Y14086D01*
X60627Y13826D01*
X60514Y13591D01*
X60383Y13380D01*
X60235Y13195D01*
X60070Y13034D01*
X59887Y12898D01*
X59687Y12786D01*
X59469Y12699D01*
X59234Y12638D01*
X58982Y12600D01*
X58712Y12588D01*
G37*
%LPC*%
G36*
X58443Y13333D02*
X58627Y13342D01*
X58797Y13368D01*
X58955Y13412D01*
X59099Y13473D01*
X59230Y13553D01*
X59348Y13649D01*
X59452Y13764D01*
X59543Y13896D01*
X59623Y14047D01*
X59692Y14221D01*
X59750Y14417D01*
X59797Y14634D01*
X59834Y14874D01*
X59861Y15135D01*
X59882Y15724D01*
X59861Y16314D01*
X59835Y16576D01*
X59798Y16815D01*
X59751Y17031D01*
X59693Y17224D01*
X59625Y17395D01*
X59546Y17544D01*
X59456Y17673D01*
X59352Y17784D01*
X59235Y17878D01*
X59105Y17956D01*
X58962Y18016D01*
X58806Y18058D01*
X58637Y18084D01*
X58454Y18093D01*
X58249Y18084D01*
X58057Y18056D01*
X57881Y18011D01*
X57718Y17947D01*
X57571Y17865D01*
X57437Y17765D01*
X57318Y17647D01*
X57214Y17510D01*
X57123Y17354D01*
X57043Y17176D01*
X56977Y16978D01*
X56922Y16757D01*
X56879Y16516D01*
X56849Y16252D01*
X56831Y15968D01*
X56825Y15662D01*
X56830Y15374D01*
X56848Y15105D01*
X56878Y14856D01*
X56920Y14626D01*
X56973Y14415D01*
X57039Y14224D01*
X57116Y14053D01*
X57205Y13901D01*
X57308Y13768D01*
X57425Y13653D01*
X57558Y13555D01*
X57705Y13475D01*
X57867Y13413D01*
X58044Y13368D01*
X58236Y13342D01*
X58443Y13333D01*
G37*
%LPD*%
G36*
X146973Y12588D02*
X146695Y12600D01*
X146437Y12636D01*
X146197Y12697D01*
X145977Y12781D01*
X145775Y12890D01*
X145593Y13023D01*
X145429Y13180D01*
X145284Y13361D01*
X145158Y13566D01*
X145048Y13797D01*
X144955Y14052D01*
X144879Y14332D01*
X144820Y14637D01*
X144778Y14967D01*
X144753Y15322D01*
X144744Y15702D01*
X144753Y16085D01*
X144779Y16444D01*
X144822Y16779D01*
X144883Y17088D01*
X144962Y17373D01*
X145058Y17633D01*
X145171Y17868D01*
X145301Y18079D01*
X145449Y18264D01*
X145615Y18425D01*
X145798Y18562D01*
X145998Y18673D01*
X146215Y18760D01*
X146451Y18822D01*
X146703Y18859D01*
X146973Y18871D01*
X147303Y18855D01*
X147604Y18808D01*
X147877Y18729D01*
X148121Y18619D01*
X148339Y18475D01*
X148535Y18293D01*
X148709Y18074D01*
X148860Y17818D01*
X148871Y17818D01*
X148860Y18496D01*
X148860Y21010D01*
X149868Y21010D01*
X149868Y13949D01*
X149876Y13163D01*
X149902Y12700D01*
X148938Y12700D01*
X148902Y13114D01*
X148882Y13674D01*
X148860Y13674D01*
X148709Y13404D01*
X148535Y13175D01*
X148338Y12987D01*
X148118Y12840D01*
X147873Y12730D01*
X147601Y12651D01*
X147301Y12604D01*
X146973Y12588D01*
G37*
%LPC*%
G36*
X147230Y13366D02*
X147437Y13376D01*
X147629Y13403D01*
X147807Y13450D01*
X147970Y13515D01*
X148118Y13598D01*
X148251Y13700D01*
X148370Y13821D01*
X148461Y13943D01*
X148474Y13960D01*
X148564Y14119D01*
X148643Y14298D01*
X148709Y14497D01*
X148763Y14717D01*
X148806Y14958D01*
X148836Y15219D01*
X148854Y15500D01*
X148860Y15802D01*
X148854Y16093D01*
X148836Y16364D01*
X148806Y16615D01*
X148763Y16845D01*
X148709Y17056D01*
X148643Y17246D01*
X148564Y17416D01*
X148474Y17566D01*
X148370Y17698D01*
X148252Y17811D01*
X148119Y17908D01*
X147972Y17986D01*
X147811Y18048D01*
X147636Y18091D01*
X147446Y18118D01*
X147242Y18126D01*
X147058Y18118D01*
X146887Y18091D01*
X146730Y18047D01*
X146586Y17986D01*
X146455Y17907D01*
X146337Y17810D01*
X146233Y17695D01*
X146141Y17564D01*
X146062Y17412D01*
X145993Y17238D01*
X145935Y17043D01*
X145887Y16825D01*
X145850Y16586D01*
X145824Y16324D01*
X145802Y15735D01*
X145823Y15145D01*
X145850Y14883D01*
X145886Y14645D01*
X145934Y14428D01*
X145991Y14235D01*
X146060Y14064D01*
X146138Y13915D01*
X146229Y13787D01*
X146333Y13675D01*
X146450Y13581D01*
X146579Y13504D01*
X146723Y13444D01*
X146879Y13401D01*
X147048Y13375D01*
X147230Y13366D01*
G37*
%LPD*%
G36*
X76179Y12700D02*
X75110Y12700D01*
X75110Y20590D01*
X78430Y20590D01*
X78753Y20581D01*
X79056Y20552D01*
X79341Y20503D01*
X79608Y20435D01*
X79855Y20348D01*
X80084Y20241D01*
X80294Y20114D01*
X80486Y19969D01*
X80656Y19805D01*
X80804Y19626D01*
X80929Y19431D01*
X81032Y19220D01*
X81111Y18993D01*
X81168Y18750D01*
X81202Y18491D01*
X81214Y18216D01*
X81202Y17943D01*
X81168Y17685D01*
X81111Y17441D01*
X81031Y17211D01*
X80928Y16995D01*
X80802Y16794D01*
X80654Y16608D01*
X80483Y16435D01*
X80292Y16280D01*
X80085Y16146D01*
X79861Y16033D01*
X79621Y15940D01*
X79365Y15867D01*
X79092Y15816D01*
X78803Y15785D01*
X78498Y15774D01*
X76179Y15774D01*
X76179Y12700D01*
G37*
%LPC*%
G36*
X78346Y16620D02*
X78563Y16626D01*
X78766Y16645D01*
X78955Y16676D01*
X79130Y16719D01*
X79291Y16775D01*
X79438Y16843D01*
X79571Y16923D01*
X79690Y17016D01*
X79795Y17121D01*
X79886Y17239D01*
X79963Y17369D01*
X80026Y17511D01*
X80075Y17666D01*
X80110Y17833D01*
X80131Y18013D01*
X80138Y18205D01*
X80131Y18390D01*
X80110Y18563D01*
X80074Y18724D01*
X80024Y18874D01*
X79959Y19011D01*
X79880Y19136D01*
X79787Y19250D01*
X79679Y19351D01*
X79557Y19441D01*
X79421Y19519D01*
X79270Y19584D01*
X79105Y19638D01*
X78926Y19680D01*
X78732Y19710D01*
X78524Y19728D01*
X78302Y19734D01*
X76179Y19734D01*
X76179Y16620D01*
X78346Y16620D01*
G37*
%LPD*%
G36*
X85476Y12700D02*
X84199Y12700D01*
X81875Y20590D01*
X82990Y20590D01*
X84407Y15578D01*
X84649Y14624D01*
X84871Y13641D01*
X85182Y14985D01*
X85659Y16750D01*
X86736Y20590D01*
X87761Y20590D01*
X89133Y15679D01*
X89413Y14568D01*
X89626Y13641D01*
X89676Y13837D01*
X89923Y14887D01*
X90364Y16516D01*
X91496Y20590D01*
X92611Y20590D01*
X90287Y12700D01*
X89010Y12700D01*
X87643Y17712D01*
X87478Y18369D01*
X87251Y19398D01*
X87005Y18311D01*
X86572Y16690D01*
X85476Y12700D01*
G37*
G36*
X24395Y12588D02*
X24074Y12601D01*
X23772Y12639D01*
X23491Y12702D01*
X23230Y12790D01*
X22990Y12904D01*
X22770Y13043D01*
X22570Y13208D01*
X22390Y13397D01*
X22232Y13611D01*
X22094Y13847D01*
X21978Y14105D01*
X21882Y14386D01*
X21808Y14690D01*
X21755Y15016D01*
X21723Y15364D01*
X21713Y15735D01*
X21723Y16115D01*
X21755Y16470D01*
X21808Y16801D01*
X21883Y17107D01*
X21978Y17389D01*
X22095Y17646D01*
X22233Y17879D01*
X22392Y18087D01*
X22572Y18271D01*
X22774Y18430D01*
X22997Y18565D01*
X23241Y18675D01*
X23506Y18761D01*
X23792Y18822D01*
X24100Y18859D01*
X24429Y18871D01*
X24765Y18859D01*
X25077Y18823D01*
X25367Y18764D01*
X25634Y18680D01*
X25878Y18573D01*
X26099Y18441D01*
X26298Y18286D01*
X26473Y18107D01*
X26626Y17903D01*
X26759Y17672D01*
X26872Y17415D01*
X26964Y17132D01*
X27036Y16822D01*
X27087Y16486D01*
X27118Y16124D01*
X27128Y15735D01*
X27117Y15350D01*
X27084Y14991D01*
X27030Y14657D01*
X26953Y14348D01*
X26855Y14064D01*
X26734Y13806D01*
X26592Y13574D01*
X26428Y13366D01*
X26243Y13184D01*
X26038Y13026D01*
X25814Y12892D01*
X25570Y12783D01*
X25306Y12697D01*
X25022Y12637D01*
X24719Y12600D01*
X24395Y12588D01*
G37*
%LPC*%
G36*
X24384Y13333D02*
X24603Y13342D01*
X24805Y13369D01*
X24992Y13415D01*
X25162Y13478D01*
X25316Y13560D01*
X25453Y13660D01*
X25575Y13779D01*
X25680Y13915D01*
X25772Y14071D01*
X25851Y14247D01*
X25918Y14444D01*
X25972Y14661D01*
X26015Y14899D01*
X26045Y15157D01*
X26064Y15436D01*
X26070Y15735D01*
X26064Y16038D01*
X26046Y16320D01*
X26017Y16580D01*
X25977Y16818D01*
X25924Y17035D01*
X25860Y17231D01*
X25785Y17405D01*
X25697Y17558D01*
X25596Y17691D01*
X25479Y17807D01*
X25347Y17904D01*
X25198Y17984D01*
X25034Y18046D01*
X24854Y18091D01*
X24658Y18117D01*
X24446Y18126D01*
X24232Y18117D01*
X24034Y18090D01*
X23851Y18045D01*
X23683Y17981D01*
X23531Y17900D01*
X23394Y17800D01*
X23272Y17683D01*
X23166Y17547D01*
X23074Y17392D01*
X22993Y17216D01*
X22925Y17020D01*
X22870Y16804D01*
X22827Y16567D01*
X22796Y16310D01*
X22777Y16033D01*
X22771Y15735D01*
X22777Y15445D01*
X22796Y15173D01*
X22826Y14920D01*
X22869Y14686D01*
X22923Y14470D01*
X22990Y14273D01*
X23069Y14095D01*
X23160Y13935D01*
X23265Y13794D01*
X23383Y13671D01*
X23515Y13568D01*
X23661Y13483D01*
X23821Y13417D01*
X23995Y13370D01*
X24182Y13342D01*
X24384Y13333D01*
G37*
%LPD*%
G36*
X36520Y12588D02*
X36199Y12601D01*
X35897Y12639D01*
X35616Y12702D01*
X35355Y12790D01*
X35115Y12904D01*
X34895Y13043D01*
X34695Y13208D01*
X34515Y13397D01*
X34357Y13611D01*
X34219Y13847D01*
X34103Y14105D01*
X34007Y14386D01*
X33933Y14690D01*
X33880Y15016D01*
X33848Y15364D01*
X33838Y15735D01*
X33848Y16115D01*
X33880Y16470D01*
X33933Y16801D01*
X34008Y17107D01*
X34103Y17389D01*
X34220Y17646D01*
X34358Y17879D01*
X34517Y18087D01*
X34697Y18271D01*
X34899Y18430D01*
X35122Y18565D01*
X35366Y18675D01*
X35631Y18761D01*
X35917Y18822D01*
X36225Y18859D01*
X36554Y18871D01*
X36890Y18859D01*
X37202Y18823D01*
X37492Y18764D01*
X37759Y18680D01*
X38003Y18573D01*
X38224Y18441D01*
X38423Y18286D01*
X38598Y18107D01*
X38751Y17903D01*
X38884Y17672D01*
X38997Y17415D01*
X39089Y17132D01*
X39161Y16822D01*
X39212Y16486D01*
X39243Y16124D01*
X39253Y15735D01*
X39242Y15350D01*
X39209Y14991D01*
X39155Y14657D01*
X39078Y14348D01*
X38980Y14064D01*
X38859Y13806D01*
X38717Y13574D01*
X38553Y13366D01*
X38368Y13184D01*
X38163Y13026D01*
X37939Y12892D01*
X37695Y12783D01*
X37431Y12697D01*
X37147Y12637D01*
X36844Y12600D01*
X36520Y12588D01*
G37*
%LPC*%
G36*
X36509Y13333D02*
X36728Y13342D01*
X36930Y13369D01*
X37117Y13415D01*
X37287Y13478D01*
X37441Y13560D01*
X37578Y13660D01*
X37700Y13779D01*
X37805Y13915D01*
X37897Y14071D01*
X37976Y14247D01*
X38043Y14444D01*
X38097Y14661D01*
X38140Y14899D01*
X38170Y15157D01*
X38189Y15436D01*
X38195Y15735D01*
X38189Y16038D01*
X38171Y16320D01*
X38142Y16580D01*
X38102Y16818D01*
X38049Y17035D01*
X37985Y17231D01*
X37910Y17405D01*
X37822Y17558D01*
X37721Y17691D01*
X37604Y17807D01*
X37472Y17904D01*
X37323Y17984D01*
X37159Y18046D01*
X36979Y18091D01*
X36783Y18117D01*
X36571Y18126D01*
X36357Y18117D01*
X36159Y18090D01*
X35976Y18045D01*
X35808Y17981D01*
X35656Y17900D01*
X35519Y17800D01*
X35397Y17683D01*
X35291Y17547D01*
X35199Y17392D01*
X35118Y17216D01*
X35050Y17020D01*
X34995Y16804D01*
X34952Y16567D01*
X34921Y16310D01*
X34902Y16033D01*
X34896Y15735D01*
X34902Y15445D01*
X34921Y15173D01*
X34951Y14920D01*
X34994Y14686D01*
X35048Y14470D01*
X35115Y14273D01*
X35194Y14095D01*
X35285Y13935D01*
X35390Y13794D01*
X35508Y13671D01*
X35640Y13568D01*
X35786Y13483D01*
X35946Y13417D01*
X36120Y13370D01*
X36307Y13342D01*
X36509Y13333D01*
G37*
%LPD*%
G36*
X64583Y12588D02*
X64261Y12601D01*
X63960Y12639D01*
X63679Y12702D01*
X63418Y12790D01*
X63177Y12904D01*
X62957Y13043D01*
X62757Y13208D01*
X62578Y13397D01*
X62419Y13611D01*
X62281Y13847D01*
X62165Y14105D01*
X62070Y14386D01*
X61996Y14690D01*
X61943Y15016D01*
X61911Y15364D01*
X61900Y15735D01*
X61911Y16115D01*
X61943Y16470D01*
X61996Y16801D01*
X62070Y17107D01*
X62166Y17389D01*
X62282Y17646D01*
X62420Y17879D01*
X62579Y18087D01*
X62760Y18271D01*
X62961Y18430D01*
X63184Y18565D01*
X63428Y18675D01*
X63693Y18761D01*
X63980Y18822D01*
X64287Y18859D01*
X64616Y18871D01*
X64952Y18859D01*
X65265Y18823D01*
X65555Y18764D01*
X65822Y18680D01*
X66066Y18573D01*
X66287Y18441D01*
X66485Y18286D01*
X66660Y18107D01*
X66814Y17903D01*
X66947Y17672D01*
X67060Y17415D01*
X67152Y17132D01*
X67223Y16822D01*
X67275Y16486D01*
X67305Y16124D01*
X67316Y15735D01*
X67305Y15350D01*
X67272Y14991D01*
X67217Y14657D01*
X67141Y14348D01*
X67042Y14064D01*
X66922Y13806D01*
X66780Y13574D01*
X66616Y13366D01*
X66431Y13184D01*
X66226Y13026D01*
X66002Y12892D01*
X65757Y12783D01*
X65493Y12697D01*
X65210Y12637D01*
X64906Y12600D01*
X64583Y12588D01*
G37*
%LPC*%
G36*
X64572Y13333D02*
X64790Y13342D01*
X64993Y13369D01*
X65179Y13415D01*
X65349Y13478D01*
X65503Y13560D01*
X65641Y13660D01*
X65763Y13779D01*
X65868Y13915D01*
X65959Y14071D01*
X66038Y14247D01*
X66105Y14444D01*
X66160Y14661D01*
X66202Y14899D01*
X66233Y15157D01*
X66251Y15436D01*
X66257Y15735D01*
X66251Y16038D01*
X66234Y16320D01*
X66205Y16580D01*
X66164Y16818D01*
X66112Y17035D01*
X66048Y17231D01*
X65972Y17405D01*
X65885Y17558D01*
X65784Y17691D01*
X65667Y17807D01*
X65534Y17904D01*
X65386Y17984D01*
X65221Y18046D01*
X65041Y18091D01*
X64845Y18117D01*
X64633Y18126D01*
X64420Y18117D01*
X64221Y18090D01*
X64038Y18045D01*
X63871Y17981D01*
X63719Y17900D01*
X63582Y17800D01*
X63460Y17683D01*
X63354Y17547D01*
X63261Y17392D01*
X63181Y17216D01*
X63113Y17020D01*
X63057Y16804D01*
X63014Y16567D01*
X62983Y16310D01*
X62965Y16033D01*
X62959Y15735D01*
X62965Y15445D01*
X62983Y15173D01*
X63013Y14920D01*
X63056Y14686D01*
X63111Y14470D01*
X63178Y14273D01*
X63257Y14095D01*
X63348Y13935D01*
X63452Y13794D01*
X63570Y13671D01*
X63702Y13568D01*
X63848Y13483D01*
X64008Y13417D01*
X64182Y13370D01*
X64370Y13342D01*
X64572Y13333D01*
G37*
%LPD*%
G36*
X138489Y12588D02*
X138167Y12601D01*
X137866Y12639D01*
X137585Y12702D01*
X137324Y12790D01*
X137084Y12904D01*
X136864Y13043D01*
X136664Y13208D01*
X136484Y13397D01*
X136325Y13611D01*
X136188Y13847D01*
X136071Y14105D01*
X135976Y14386D01*
X135902Y14690D01*
X135849Y15016D01*
X135817Y15364D01*
X135807Y15735D01*
X135817Y16115D01*
X135849Y16470D01*
X135902Y16801D01*
X135976Y17107D01*
X136072Y17389D01*
X136189Y17646D01*
X136326Y17879D01*
X136486Y18087D01*
X136666Y18271D01*
X136868Y18430D01*
X137090Y18565D01*
X137334Y18675D01*
X137600Y18761D01*
X137886Y18822D01*
X138194Y18859D01*
X138523Y18871D01*
X138858Y18859D01*
X139171Y18823D01*
X139461Y18764D01*
X139728Y18680D01*
X139972Y18573D01*
X140193Y18441D01*
X140391Y18286D01*
X140567Y18107D01*
X140720Y17903D01*
X140853Y17672D01*
X140966Y17415D01*
X141058Y17132D01*
X141130Y16822D01*
X141181Y16486D01*
X141212Y16124D01*
X141222Y15735D01*
X141211Y15350D01*
X141178Y14991D01*
X141123Y14657D01*
X141047Y14348D01*
X140948Y14064D01*
X140828Y13806D01*
X140686Y13574D01*
X140522Y13366D01*
X140337Y13184D01*
X140132Y13026D01*
X139908Y12892D01*
X139664Y12783D01*
X139400Y12697D01*
X139116Y12637D01*
X138812Y12600D01*
X138489Y12588D01*
G37*
%LPC*%
G36*
X138478Y13333D02*
X138696Y13342D01*
X138899Y13369D01*
X139085Y13415D01*
X139255Y13478D01*
X139409Y13560D01*
X139547Y13660D01*
X139669Y13779D01*
X139774Y13915D01*
X139865Y14071D01*
X139944Y14247D01*
X140011Y14444D01*
X140066Y14661D01*
X140109Y14899D01*
X140139Y15157D01*
X140157Y15436D01*
X140163Y15735D01*
X140158Y16038D01*
X140140Y16320D01*
X140111Y16580D01*
X140070Y16818D01*
X140018Y17035D01*
X139954Y17231D01*
X139878Y17405D01*
X139791Y17558D01*
X139690Y17691D01*
X139573Y17807D01*
X139440Y17904D01*
X139292Y17984D01*
X139128Y18046D01*
X138947Y18091D01*
X138751Y18117D01*
X138539Y18126D01*
X138326Y18117D01*
X138128Y18090D01*
X137945Y18045D01*
X137777Y17981D01*
X137625Y17900D01*
X137488Y17800D01*
X137366Y17683D01*
X137260Y17547D01*
X137167Y17392D01*
X137087Y17216D01*
X137019Y17020D01*
X136964Y16804D01*
X136921Y16567D01*
X136890Y16310D01*
X136871Y16033D01*
X136865Y15735D01*
X136871Y15445D01*
X136889Y15173D01*
X136920Y14920D01*
X136962Y14686D01*
X137017Y14470D01*
X137084Y14273D01*
X137163Y14095D01*
X137254Y13935D01*
X137358Y13794D01*
X137477Y13671D01*
X137609Y13568D01*
X137755Y13483D01*
X137915Y13417D01*
X138088Y13370D01*
X138276Y13342D01*
X138478Y13333D01*
G37*
%LPD*%
G36*
X130972Y12588D02*
X130667Y12596D01*
X130374Y12619D01*
X130091Y12657D01*
X129819Y12711D01*
X129558Y12780D01*
X129307Y12865D01*
X129067Y12965D01*
X128838Y13081D01*
X128621Y13211D01*
X128416Y13354D01*
X128225Y13511D01*
X128048Y13682D01*
X127883Y13866D01*
X127732Y14064D01*
X127594Y14275D01*
X127469Y14500D01*
X127358Y14737D01*
X127262Y14984D01*
X127180Y15242D01*
X127114Y15509D01*
X127062Y15787D01*
X127025Y16075D01*
X127003Y16373D01*
X126996Y16682D01*
X127012Y17148D01*
X127060Y17588D01*
X127140Y18000D01*
X127253Y18385D01*
X127398Y18744D01*
X127575Y19075D01*
X127784Y19378D01*
X128026Y19655D01*
X128297Y19902D01*
X128593Y20116D01*
X128916Y20297D01*
X129265Y20445D01*
X129640Y20560D01*
X130041Y20642D01*
X130468Y20692D01*
X130921Y20708D01*
X131241Y20701D01*
X131546Y20680D01*
X131835Y20646D01*
X132108Y20597D01*
X132367Y20535D01*
X132610Y20459D01*
X132837Y20369D01*
X133049Y20266D01*
X133248Y20147D01*
X133434Y20011D01*
X133610Y19859D01*
X133773Y19690D01*
X133925Y19505D01*
X134064Y19303D01*
X134193Y19084D01*
X134309Y18849D01*
X133290Y18546D01*
X133106Y18860D01*
X132890Y19127D01*
X132643Y19350D01*
X132363Y19526D01*
X132050Y19661D01*
X131700Y19757D01*
X131315Y19815D01*
X130893Y19834D01*
X130562Y19821D01*
X130250Y19783D01*
X129959Y19718D01*
X129688Y19628D01*
X129437Y19512D01*
X129206Y19370D01*
X128995Y19202D01*
X128804Y19008D01*
X128635Y18791D01*
X128488Y18553D01*
X128364Y18294D01*
X128263Y18014D01*
X128184Y17712D01*
X128127Y17390D01*
X128093Y17046D01*
X128082Y16682D01*
X128094Y16318D01*
X128130Y15973D01*
X128190Y15649D01*
X128274Y15344D01*
X128382Y15059D01*
X128513Y14793D01*
X128669Y14547D01*
X128849Y14321D01*
X129050Y14118D01*
X129269Y13943D01*
X129507Y13794D01*
X129763Y13672D01*
X130038Y13578D01*
X130331Y13510D01*
X130642Y13470D01*
X130972Y13456D01*
X131351Y13471D01*
X131718Y13515D01*
X132072Y13588D01*
X132414Y13691D01*
X132732Y13819D01*
X133019Y13968D01*
X133274Y14138D01*
X133497Y14330D01*
X133497Y15752D01*
X131140Y15752D01*
X131140Y16648D01*
X134483Y16648D01*
X134483Y13926D01*
X134151Y13625D01*
X133785Y13360D01*
X133383Y13131D01*
X132946Y12938D01*
X132481Y12785D01*
X131997Y12676D01*
X131494Y12610D01*
X130972Y12588D01*
G37*
G36*
X158185Y12700D02*
X157183Y12700D01*
X157183Y17466D01*
X157174Y18318D01*
X157149Y18759D01*
X158101Y18759D01*
X158112Y18608D01*
X158126Y18325D01*
X158146Y17723D01*
X158163Y17723D01*
X158331Y18021D01*
X158511Y18269D01*
X158703Y18469D01*
X158907Y18619D01*
X159129Y18729D01*
X159374Y18808D01*
X159641Y18855D01*
X159932Y18871D01*
X160259Y18854D01*
X160549Y18803D01*
X160803Y18717D01*
X161021Y18597D01*
X161206Y18439D01*
X161361Y18241D01*
X161485Y18002D01*
X161579Y17723D01*
X161595Y17723D01*
X161761Y18007D01*
X161942Y18248D01*
X162140Y18447D01*
X162354Y18602D01*
X162589Y18720D01*
X162846Y18804D01*
X163128Y18854D01*
X163432Y18871D01*
X163654Y18863D01*
X163860Y18840D01*
X164051Y18801D01*
X164225Y18747D01*
X164384Y18676D01*
X164528Y18591D01*
X164656Y18490D01*
X164768Y18373D01*
X164866Y18238D01*
X164950Y18084D01*
X165022Y17909D01*
X165081Y17715D01*
X165126Y17500D01*
X165159Y17266D01*
X165179Y17012D01*
X165185Y16738D01*
X165185Y12700D01*
X164188Y12700D01*
X164188Y16542D01*
X164173Y16947D01*
X164128Y17285D01*
X164053Y17555D01*
X163947Y17757D01*
X163803Y17904D01*
X163610Y18009D01*
X163369Y18072D01*
X163079Y18093D01*
X162919Y18085D01*
X162767Y18062D01*
X162625Y18024D01*
X162492Y17970D01*
X162368Y17901D01*
X162254Y17817D01*
X162148Y17718D01*
X162052Y17603D01*
X161966Y17474D01*
X161891Y17332D01*
X161828Y17177D01*
X161777Y17010D01*
X161708Y16636D01*
X161685Y16211D01*
X161685Y12700D01*
X160688Y12700D01*
X160688Y16542D01*
X160673Y16947D01*
X160628Y17285D01*
X160553Y17555D01*
X160447Y17757D01*
X160303Y17904D01*
X160110Y18009D01*
X159869Y18072D01*
X159579Y18093D01*
X159423Y18085D01*
X159274Y18062D01*
X159134Y18023D01*
X159003Y17970D01*
X158879Y17900D01*
X158765Y17816D01*
X158658Y17715D01*
X158560Y17600D01*
X158472Y17470D01*
X158396Y17328D01*
X158332Y17174D01*
X158279Y17006D01*
X158238Y16826D01*
X158209Y16634D01*
X158191Y16429D01*
X158185Y16211D01*
X158185Y12700D01*
G37*
G36*
X205321Y12700D02*
X204369Y12700D01*
X204369Y14486D01*
X200651Y14486D01*
X200651Y15270D01*
X204263Y20590D01*
X205321Y20590D01*
X205321Y15282D01*
X206430Y15282D01*
X206430Y14486D01*
X205321Y14486D01*
X205321Y12700D01*
G37*
%LPC*%
G36*
X204369Y15282D02*
X204369Y19454D01*
X204212Y19157D01*
X203994Y18787D01*
X201972Y15808D01*
X201670Y15394D01*
X201580Y15282D01*
X204369Y15282D01*
G37*
%LPD*%
G36*
X47909Y12700D02*
X46901Y12700D01*
X46901Y21010D01*
X47909Y21010D01*
X47909Y18849D01*
X47890Y18143D01*
X47865Y17723D01*
X47881Y17723D01*
X48052Y18000D01*
X48239Y18238D01*
X48443Y18436D01*
X48663Y18594D01*
X48906Y18715D01*
X49180Y18802D01*
X49484Y18854D01*
X49819Y18871D01*
X50057Y18864D01*
X50279Y18841D01*
X50485Y18802D01*
X50675Y18749D01*
X50849Y18680D01*
X51006Y18596D01*
X51147Y18496D01*
X51272Y18381D01*
X51382Y18248D01*
X51477Y18095D01*
X51557Y17920D01*
X51623Y17725D01*
X51674Y17509D01*
X51711Y17273D01*
X51733Y17016D01*
X51740Y16738D01*
X51740Y12700D01*
X50726Y12700D01*
X50726Y16542D01*
X50719Y16840D01*
X50697Y17098D01*
X50660Y17315D01*
X50609Y17491D01*
X50540Y17636D01*
X50453Y17760D01*
X50347Y17864D01*
X50222Y17947D01*
X50075Y18011D01*
X49902Y18056D01*
X49702Y18084D01*
X49477Y18093D01*
X49304Y18085D01*
X49140Y18062D01*
X48984Y18023D01*
X48837Y17970D01*
X48699Y17900D01*
X48570Y17816D01*
X48449Y17715D01*
X48338Y17600D01*
X48237Y17471D01*
X48150Y17332D01*
X48077Y17182D01*
X48017Y17022D01*
X47970Y16851D01*
X47936Y16669D01*
X47916Y16476D01*
X47909Y16273D01*
X47909Y12700D01*
G37*
G36*
X173503Y12700D02*
X172495Y12700D01*
X172495Y21010D01*
X173503Y21010D01*
X173503Y18849D01*
X173484Y18143D01*
X173458Y17723D01*
X173475Y17723D01*
X173646Y18000D01*
X173833Y18238D01*
X174036Y18436D01*
X174256Y18594D01*
X174500Y18715D01*
X174774Y18802D01*
X175078Y18854D01*
X175413Y18871D01*
X175651Y18864D01*
X175873Y18841D01*
X176079Y18802D01*
X176269Y18749D01*
X176442Y18680D01*
X176600Y18596D01*
X176741Y18496D01*
X176866Y18381D01*
X176976Y18248D01*
X177071Y18095D01*
X177151Y17920D01*
X177217Y17725D01*
X177268Y17509D01*
X177304Y17273D01*
X177326Y17016D01*
X177334Y16738D01*
X177334Y12700D01*
X176320Y12700D01*
X176320Y16542D01*
X176313Y16840D01*
X176291Y17098D01*
X176254Y17315D01*
X176202Y17491D01*
X176134Y17636D01*
X176047Y17760D01*
X175941Y17864D01*
X175816Y17947D01*
X175669Y18011D01*
X175495Y18056D01*
X175296Y18084D01*
X175071Y18093D01*
X174898Y18085D01*
X174733Y18062D01*
X174578Y18023D01*
X174431Y17970D01*
X174293Y17900D01*
X174163Y17816D01*
X174043Y17715D01*
X173932Y17600D01*
X173831Y17471D01*
X173744Y17332D01*
X173671Y17182D01*
X173610Y17022D01*
X173563Y16851D01*
X173530Y16669D01*
X173510Y16476D01*
X173503Y16273D01*
X173503Y12700D01*
G37*
G36*
X115658Y12700D02*
X110433Y12700D01*
X110433Y13411D01*
X110584Y13729D01*
X110750Y14028D01*
X110932Y14307D01*
X111130Y14568D01*
X111552Y15045D01*
X111995Y15475D01*
X112447Y15866D01*
X112894Y16228D01*
X113318Y16575D01*
X113698Y16922D01*
X114022Y17278D01*
X114158Y17462D01*
X114277Y17650D01*
X114374Y17847D01*
X114443Y18056D01*
X114485Y18278D01*
X114499Y18513D01*
X114475Y18819D01*
X114403Y19090D01*
X114284Y19323D01*
X114118Y19521D01*
X113909Y19678D01*
X113663Y19790D01*
X113380Y19857D01*
X113059Y19879D01*
X112752Y19857D01*
X112472Y19792D01*
X112221Y19682D01*
X111998Y19529D01*
X111811Y19336D01*
X111667Y19108D01*
X111566Y18845D01*
X111508Y18546D01*
X110478Y18642D01*
X110515Y18872D01*
X110570Y19091D01*
X110643Y19297D01*
X110735Y19491D01*
X110844Y19674D01*
X110972Y19844D01*
X111118Y20002D01*
X111281Y20148D01*
X111461Y20279D01*
X111652Y20393D01*
X111856Y20489D01*
X112072Y20568D01*
X112300Y20629D01*
X112541Y20673D01*
X112794Y20699D01*
X113059Y20708D01*
X113349Y20699D01*
X113621Y20673D01*
X113876Y20629D01*
X114114Y20567D01*
X114335Y20488D01*
X114538Y20391D01*
X114725Y20277D01*
X114893Y20145D01*
X115044Y19997D01*
X115174Y19834D01*
X115284Y19657D01*
X115374Y19464D01*
X115444Y19257D01*
X115495Y19035D01*
X115525Y18798D01*
X115535Y18546D01*
X115522Y18317D01*
X115482Y18089D01*
X115417Y17861D01*
X115325Y17634D01*
X115207Y17407D01*
X115064Y17180D01*
X114895Y16953D01*
X114700Y16726D01*
X114446Y16468D01*
X114097Y16148D01*
X113115Y15321D01*
X112537Y14820D01*
X112091Y14372D01*
X111914Y14162D01*
X111763Y13956D01*
X111639Y13755D01*
X111542Y13557D01*
X115658Y13557D01*
X115658Y12700D01*
G37*
G36*
X187064Y12700D02*
X181839Y12700D01*
X181839Y13411D01*
X181990Y13729D01*
X182156Y14028D01*
X182339Y14307D01*
X182536Y14568D01*
X182959Y15045D01*
X183402Y15475D01*
X183853Y15866D01*
X184300Y16228D01*
X184724Y16575D01*
X185104Y16922D01*
X185428Y17278D01*
X185565Y17462D01*
X185684Y17650D01*
X185780Y17847D01*
X185850Y18056D01*
X185891Y18278D01*
X185905Y18513D01*
X185881Y18819D01*
X185810Y19090D01*
X185691Y19323D01*
X185524Y19521D01*
X185315Y19678D01*
X185069Y19790D01*
X184786Y19857D01*
X184466Y19879D01*
X184158Y19857D01*
X183878Y19792D01*
X183627Y19682D01*
X183404Y19529D01*
X183217Y19336D01*
X183073Y19108D01*
X182972Y18845D01*
X182914Y18546D01*
X181884Y18642D01*
X181921Y18872D01*
X181976Y19091D01*
X182050Y19297D01*
X182141Y19491D01*
X182251Y19674D01*
X182378Y19844D01*
X182524Y20002D01*
X182688Y20148D01*
X182867Y20279D01*
X183058Y20393D01*
X183262Y20489D01*
X183478Y20568D01*
X183706Y20629D01*
X183947Y20673D01*
X184200Y20699D01*
X184466Y20708D01*
X184755Y20699D01*
X185028Y20673D01*
X185283Y20629D01*
X185521Y20567D01*
X185741Y20488D01*
X185945Y20391D01*
X186131Y20277D01*
X186300Y20145D01*
X186450Y19997D01*
X186580Y19834D01*
X186690Y19657D01*
X186781Y19464D01*
X186851Y19257D01*
X186901Y19035D01*
X186931Y18798D01*
X186941Y18546D01*
X186928Y18317D01*
X186888Y18089D01*
X186823Y17861D01*
X186731Y17634D01*
X186613Y17407D01*
X186470Y17180D01*
X186301Y16953D01*
X186106Y16726D01*
X185852Y16468D01*
X185503Y16148D01*
X184522Y15321D01*
X183943Y14820D01*
X183497Y14372D01*
X183320Y14162D01*
X183169Y13956D01*
X183045Y13755D01*
X182948Y13557D01*
X187064Y13557D01*
X187064Y12700D01*
G37*
G36*
X199814Y12700D02*
X194589Y12700D01*
X194589Y13411D01*
X194740Y13729D01*
X194906Y14028D01*
X195089Y14307D01*
X195286Y14568D01*
X195709Y15045D01*
X196152Y15475D01*
X196603Y15866D01*
X197050Y16228D01*
X197474Y16575D01*
X197854Y16922D01*
X198178Y17278D01*
X198315Y17462D01*
X198434Y17650D01*
X198530Y17847D01*
X198600Y18056D01*
X198641Y18278D01*
X198655Y18513D01*
X198631Y18819D01*
X198560Y19090D01*
X198441Y19323D01*
X198274Y19521D01*
X198065Y19678D01*
X197819Y19790D01*
X197536Y19857D01*
X197216Y19879D01*
X196908Y19857D01*
X196628Y19792D01*
X196377Y19682D01*
X196154Y19529D01*
X195967Y19336D01*
X195823Y19108D01*
X195722Y18845D01*
X195664Y18546D01*
X194634Y18642D01*
X194671Y18872D01*
X194726Y19091D01*
X194800Y19297D01*
X194891Y19491D01*
X195001Y19674D01*
X195128Y19844D01*
X195274Y20002D01*
X195438Y20148D01*
X195617Y20279D01*
X195808Y20393D01*
X196012Y20489D01*
X196228Y20568D01*
X196456Y20629D01*
X196697Y20673D01*
X196950Y20699D01*
X197216Y20708D01*
X197505Y20699D01*
X197778Y20673D01*
X198033Y20629D01*
X198271Y20567D01*
X198491Y20488D01*
X198695Y20391D01*
X198881Y20277D01*
X199050Y20145D01*
X199200Y19997D01*
X199330Y19834D01*
X199440Y19657D01*
X199531Y19464D01*
X199601Y19257D01*
X199651Y19035D01*
X199681Y18798D01*
X199691Y18546D01*
X199678Y18317D01*
X199638Y18089D01*
X199573Y17861D01*
X199481Y17634D01*
X199363Y17407D01*
X199220Y17180D01*
X199051Y16953D01*
X198856Y16726D01*
X198602Y16468D01*
X198253Y16148D01*
X197272Y15321D01*
X196693Y14820D01*
X196247Y14372D01*
X196070Y14162D01*
X195919Y13956D01*
X195795Y13755D01*
X195698Y13557D01*
X199814Y13557D01*
X199814Y12700D01*
G37*
G36*
X30468Y12588D02*
X30193Y12594D01*
X29935Y12611D01*
X29692Y12640D01*
X29466Y12681D01*
X29256Y12733D01*
X29062Y12797D01*
X28885Y12873D01*
X28723Y12960D01*
X28577Y13060D01*
X28444Y13173D01*
X28324Y13298D01*
X28217Y13437D01*
X28124Y13589D01*
X28045Y13754D01*
X27978Y13932D01*
X27925Y14122D01*
X28816Y14296D01*
X28897Y14069D01*
X29013Y13874D01*
X29163Y13712D01*
X29348Y13582D01*
X29569Y13483D01*
X29829Y13412D01*
X30129Y13369D01*
X30468Y13355D01*
X30826Y13370D01*
X31132Y13414D01*
X31387Y13487D01*
X31591Y13590D01*
X31746Y13723D01*
X31857Y13884D01*
X31924Y14075D01*
X31946Y14296D01*
X31931Y14467D01*
X31885Y14621D01*
X31808Y14758D01*
X31700Y14878D01*
X31558Y14985D01*
X31378Y15083D01*
X31160Y15170D01*
X30905Y15248D01*
X30182Y15438D01*
X29780Y15550D01*
X29440Y15660D01*
X29162Y15770D01*
X28947Y15878D01*
X28774Y15992D01*
X28621Y16117D01*
X28487Y16253D01*
X28373Y16402D01*
X28283Y16564D01*
X28218Y16745D01*
X28179Y16942D01*
X28166Y17158D01*
X28175Y17359D01*
X28203Y17547D01*
X28249Y17724D01*
X28314Y17888D01*
X28397Y18039D01*
X28499Y18179D01*
X28619Y18306D01*
X28757Y18420D01*
X28913Y18522D01*
X29086Y18610D01*
X29276Y18685D01*
X29483Y18746D01*
X29707Y18793D01*
X29947Y18827D01*
X30205Y18848D01*
X30479Y18854D01*
X30955Y18832D01*
X31379Y18766D01*
X31751Y18656D01*
X32072Y18502D01*
X32213Y18407D01*
X32341Y18299D01*
X32454Y18177D01*
X32555Y18042D01*
X32641Y17894D01*
X32714Y17733D01*
X32774Y17558D01*
X32820Y17370D01*
X31913Y17258D01*
X31853Y17448D01*
X31758Y17615D01*
X31628Y17758D01*
X31462Y17877D01*
X31263Y17972D01*
X31033Y18039D01*
X30771Y18079D01*
X30479Y18093D01*
X30160Y18080D01*
X29885Y18041D01*
X29656Y17976D01*
X29471Y17886D01*
X29329Y17769D01*
X29227Y17625D01*
X29167Y17455D01*
X29146Y17258D01*
X29155Y17135D01*
X29180Y17023D01*
X29222Y16922D01*
X29281Y16833D01*
X29447Y16677D01*
X29678Y16547D01*
X30087Y16407D01*
X30787Y16222D01*
X31476Y16028D01*
X31736Y15937D01*
X31941Y15850D01*
X32256Y15670D01*
X32498Y15472D01*
X32679Y15249D01*
X32814Y14993D01*
X32863Y14853D01*
X32898Y14703D01*
X32919Y14543D01*
X32926Y14374D01*
X32916Y14166D01*
X32886Y13970D01*
X32835Y13787D01*
X32765Y13616D01*
X32674Y13457D01*
X32562Y13310D01*
X32431Y13175D01*
X32279Y13053D01*
X32110Y12944D01*
X31924Y12849D01*
X31721Y12770D01*
X31503Y12704D01*
X31269Y12653D01*
X31018Y12617D01*
X30751Y12595D01*
X30468Y12588D01*
G37*
G36*
X153499Y12588D02*
X153224Y12594D01*
X152966Y12611D01*
X152724Y12640D01*
X152497Y12681D01*
X152287Y12733D01*
X152094Y12797D01*
X151916Y12873D01*
X151755Y12960D01*
X151608Y13060D01*
X151475Y13173D01*
X151355Y13298D01*
X151249Y13437D01*
X151156Y13589D01*
X151076Y13754D01*
X151010Y13932D01*
X150957Y14122D01*
X151847Y14296D01*
X151929Y14069D01*
X152044Y13874D01*
X152195Y13712D01*
X152379Y13582D01*
X152600Y13483D01*
X152861Y13412D01*
X153160Y13369D01*
X153499Y13355D01*
X153857Y13370D01*
X154163Y13414D01*
X154418Y13487D01*
X154622Y13590D01*
X154777Y13723D01*
X154889Y13884D01*
X154955Y14075D01*
X154977Y14296D01*
X154962Y14467D01*
X154916Y14621D01*
X154839Y14758D01*
X154731Y14878D01*
X154589Y14985D01*
X154409Y15083D01*
X154191Y15170D01*
X153936Y15248D01*
X153213Y15438D01*
X152811Y15550D01*
X152471Y15660D01*
X152193Y15770D01*
X151979Y15878D01*
X151805Y15992D01*
X151652Y16117D01*
X151518Y16253D01*
X151405Y16402D01*
X151314Y16564D01*
X151249Y16745D01*
X151210Y16942D01*
X151197Y17158D01*
X151207Y17359D01*
X151234Y17547D01*
X151281Y17724D01*
X151345Y17888D01*
X151428Y18039D01*
X151530Y18179D01*
X151650Y18306D01*
X151788Y18420D01*
X151944Y18522D01*
X152117Y18610D01*
X152307Y18685D01*
X152514Y18746D01*
X152738Y18793D01*
X152978Y18827D01*
X153236Y18848D01*
X153510Y18854D01*
X153986Y18832D01*
X154410Y18766D01*
X154782Y18656D01*
X155103Y18502D01*
X155244Y18407D01*
X155372Y18299D01*
X155486Y18177D01*
X155586Y18042D01*
X155672Y17894D01*
X155746Y17733D01*
X155805Y17558D01*
X155851Y17370D01*
X154944Y17258D01*
X154884Y17448D01*
X154789Y17615D01*
X154659Y17758D01*
X154493Y17877D01*
X154294Y17972D01*
X154064Y18039D01*
X153803Y18079D01*
X153510Y18093D01*
X153191Y18080D01*
X152917Y18041D01*
X152687Y17976D01*
X152502Y17886D01*
X152360Y17769D01*
X152259Y17625D01*
X152198Y17455D01*
X152177Y17258D01*
X152186Y17135D01*
X152211Y17023D01*
X152253Y16922D01*
X152312Y16833D01*
X152478Y16677D01*
X152709Y16547D01*
X153118Y16407D01*
X153818Y16222D01*
X154507Y16028D01*
X154767Y15937D01*
X154972Y15850D01*
X155288Y15670D01*
X155529Y15472D01*
X155710Y15249D01*
X155845Y14993D01*
X155894Y14853D01*
X155929Y14703D01*
X155950Y14543D01*
X155957Y14374D01*
X155947Y14166D01*
X155917Y13970D01*
X155867Y13787D01*
X155796Y13616D01*
X155705Y13457D01*
X155594Y13310D01*
X155462Y13175D01*
X155311Y13053D01*
X155141Y12944D01*
X154955Y12849D01*
X154753Y12770D01*
X154534Y12704D01*
X154300Y12653D01*
X154049Y12617D01*
X153782Y12595D01*
X153499Y12588D01*
G37*
G36*
X107539Y12700D02*
X106346Y12700D01*
X104145Y18759D01*
X105221Y18759D01*
X106553Y14817D01*
X106940Y13490D01*
X107136Y14145D01*
X107354Y14806D01*
X108732Y18759D01*
X109801Y18759D01*
X107539Y12700D01*
G37*
G36*
X69877Y12610D02*
X69593Y12632D01*
X69348Y12696D01*
X69140Y12803D01*
X68970Y12953D01*
X68837Y13146D01*
X68743Y13382D01*
X68686Y13661D01*
X68667Y13982D01*
X68667Y18026D01*
X67967Y18026D01*
X67967Y18759D01*
X68707Y18759D01*
X69003Y20114D01*
X69675Y20114D01*
X69675Y18759D01*
X70795Y18759D01*
X70795Y18026D01*
X69675Y18026D01*
X69675Y14201D01*
X69684Y13999D01*
X69711Y13829D01*
X69756Y13692D01*
X69818Y13588D01*
X69903Y13510D01*
X70013Y13455D01*
X70150Y13422D01*
X70314Y13411D01*
X70560Y13431D01*
X70896Y13490D01*
X70896Y12745D01*
X70646Y12686D01*
X70392Y12644D01*
X70136Y12619D01*
X69877Y12610D01*
G37*
G36*
X170596Y12610D02*
X170312Y12632D01*
X170066Y12696D01*
X169859Y12803D01*
X169688Y12953D01*
X169556Y13146D01*
X169462Y13382D01*
X169405Y13661D01*
X169386Y13982D01*
X169386Y18026D01*
X168686Y18026D01*
X168686Y18759D01*
X169425Y18759D01*
X169722Y20114D01*
X170394Y20114D01*
X170394Y18759D01*
X171514Y18759D01*
X171514Y18026D01*
X170394Y18026D01*
X170394Y14201D01*
X170403Y13999D01*
X170430Y13829D01*
X170474Y13692D01*
X170537Y13588D01*
X170621Y13510D01*
X170732Y13455D01*
X170869Y13422D01*
X171032Y13411D01*
X171279Y13431D01*
X171615Y13490D01*
X171615Y12745D01*
X171364Y12686D01*
X171111Y12644D01*
X170855Y12619D01*
X170596Y12610D01*
G37*
G36*
X143481Y12700D02*
X142473Y12700D01*
X142473Y21010D01*
X143481Y21010D01*
X143481Y12700D01*
G37*
G36*
X19222Y12700D02*
X18214Y12700D01*
X18214Y17348D01*
X18206Y18020D01*
X18180Y18759D01*
X19132Y18759D01*
X19177Y17522D01*
X19200Y17522D01*
X19324Y17880D01*
X19459Y18177D01*
X19602Y18412D01*
X19754Y18586D01*
X19927Y18711D01*
X20132Y18800D01*
X20369Y18853D01*
X20639Y18871D01*
X20842Y18857D01*
X21048Y18815D01*
X21048Y17891D01*
X20812Y17933D01*
X20510Y17947D01*
X20358Y17939D01*
X20215Y17913D01*
X20081Y17871D01*
X19957Y17812D01*
X19842Y17736D01*
X19736Y17643D01*
X19640Y17533D01*
X19552Y17407D01*
X19475Y17264D01*
X19408Y17107D01*
X19305Y16749D01*
X19243Y16333D01*
X19222Y15858D01*
X19222Y12700D01*
G37*
G36*
X54256Y12700D02*
X53248Y12700D01*
X53248Y18759D01*
X54256Y18759D01*
X54256Y12700D01*
G37*
G36*
X167725Y12700D02*
X166717Y12700D01*
X166717Y18759D01*
X167725Y18759D01*
X167725Y12700D01*
G37*
G36*
X122728Y15298D02*
X119928Y15298D01*
X119928Y16194D01*
X122728Y16194D01*
X122728Y15298D01*
G37*
G36*
X54256Y20047D02*
X53248Y20047D01*
X53248Y21010D01*
X54256Y21010D01*
X54256Y20047D01*
G37*
G36*
X167725Y20047D02*
X166717Y20047D01*
X166717Y21010D01*
X167725Y21010D01*
X167725Y20047D01*
G37*
G36*
X250800Y29860D02*
X250471Y29876D01*
X250162Y29925D01*
X249875Y30006D01*
X249609Y30119D01*
X249364Y30265D01*
X249140Y30443D01*
X248938Y30653D01*
X248756Y30896D01*
X248596Y31170D01*
X248457Y31473D01*
X248340Y31807D01*
X248244Y32170D01*
X248169Y32563D01*
X248116Y32985D01*
X248084Y33438D01*
X248073Y33920D01*
X248083Y34412D01*
X248114Y34873D01*
X248166Y35301D01*
X248239Y35698D01*
X248332Y36063D01*
X248446Y36396D01*
X248581Y36697D01*
X248737Y36966D01*
X248915Y37204D01*
X249117Y37410D01*
X249343Y37584D01*
X249593Y37727D01*
X249867Y37837D01*
X250165Y37917D01*
X250487Y37964D01*
X250834Y37980D01*
X251171Y37964D01*
X251485Y37916D01*
X251777Y37836D01*
X252045Y37724D01*
X252291Y37580D01*
X252514Y37404D01*
X252714Y37195D01*
X252892Y36955D01*
X253047Y36684D01*
X253182Y36381D01*
X253296Y36048D01*
X253389Y35684D01*
X253462Y35289D01*
X253514Y34864D01*
X253545Y34407D01*
X253555Y33920D01*
X253544Y33440D01*
X253512Y32990D01*
X253457Y32569D01*
X253381Y32177D01*
X253283Y31814D01*
X253163Y31481D01*
X253022Y31177D01*
X252858Y30902D01*
X252674Y30657D01*
X252468Y30446D01*
X252242Y30267D01*
X251995Y30120D01*
X251727Y30006D01*
X251439Y29925D01*
X251130Y29876D01*
X250800Y29860D01*
G37*
%LPC*%
G36*
X250811Y30683D02*
X251027Y30696D01*
X251227Y30733D01*
X251412Y30795D01*
X251583Y30882D01*
X251738Y30994D01*
X251879Y31130D01*
X252005Y31292D01*
X252116Y31478D01*
X252213Y31690D01*
X252297Y31929D01*
X252369Y32194D01*
X252427Y32486D01*
X252472Y32805D01*
X252505Y33150D01*
X252524Y33522D01*
X252531Y33920D01*
X252524Y34332D01*
X252506Y34715D01*
X252475Y35069D01*
X252432Y35393D01*
X252376Y35687D01*
X252309Y35953D01*
X252228Y36189D01*
X252136Y36395D01*
X252029Y36575D01*
X251906Y36731D01*
X251768Y36863D01*
X251613Y36971D01*
X251442Y37054D01*
X251255Y37114D01*
X251053Y37150D01*
X250834Y37162D01*
X250610Y37151D01*
X250402Y37115D01*
X250210Y37056D01*
X250035Y36973D01*
X249876Y36867D01*
X249734Y36737D01*
X249608Y36584D01*
X249498Y36406D01*
X249403Y36202D01*
X249321Y35967D01*
X249251Y35702D01*
X249194Y35407D01*
X249149Y35081D01*
X249118Y34724D01*
X249099Y34337D01*
X249092Y33920D01*
X249099Y33514D01*
X249118Y33136D01*
X249150Y32787D01*
X249195Y32465D01*
X249253Y32172D01*
X249324Y31907D01*
X249407Y31670D01*
X249504Y31462D01*
X249614Y31279D01*
X249740Y31121D01*
X249881Y30987D01*
X250036Y30878D01*
X250208Y30793D01*
X250394Y30732D01*
X250595Y30695D01*
X250811Y30683D01*
G37*
%LPD*%
G36*
X263550Y29860D02*
X263221Y29876D01*
X262912Y29925D01*
X262625Y30006D01*
X262359Y30119D01*
X262114Y30265D01*
X261890Y30443D01*
X261688Y30653D01*
X261506Y30896D01*
X261346Y31170D01*
X261207Y31473D01*
X261090Y31807D01*
X260994Y32170D01*
X260919Y32563D01*
X260866Y32985D01*
X260834Y33438D01*
X260823Y33920D01*
X260833Y34412D01*
X260864Y34873D01*
X260916Y35301D01*
X260989Y35698D01*
X261082Y36063D01*
X261196Y36396D01*
X261331Y36697D01*
X261487Y36966D01*
X261665Y37204D01*
X261867Y37410D01*
X262093Y37584D01*
X262343Y37727D01*
X262617Y37837D01*
X262915Y37917D01*
X263237Y37964D01*
X263584Y37980D01*
X263921Y37964D01*
X264235Y37916D01*
X264527Y37836D01*
X264795Y37724D01*
X265041Y37580D01*
X265264Y37404D01*
X265464Y37195D01*
X265642Y36955D01*
X265797Y36684D01*
X265932Y36381D01*
X266046Y36048D01*
X266139Y35684D01*
X266212Y35289D01*
X266264Y34864D01*
X266295Y34407D01*
X266305Y33920D01*
X266294Y33440D01*
X266262Y32990D01*
X266207Y32569D01*
X266131Y32177D01*
X266033Y31814D01*
X265913Y31481D01*
X265772Y31177D01*
X265608Y30902D01*
X265424Y30657D01*
X265218Y30446D01*
X264992Y30267D01*
X264745Y30120D01*
X264477Y30006D01*
X264189Y29925D01*
X263880Y29876D01*
X263550Y29860D01*
G37*
%LPC*%
G36*
X263561Y30683D02*
X263777Y30696D01*
X263977Y30733D01*
X264162Y30795D01*
X264333Y30882D01*
X264488Y30994D01*
X264629Y31130D01*
X264755Y31292D01*
X264866Y31478D01*
X264963Y31690D01*
X265047Y31929D01*
X265119Y32194D01*
X265177Y32486D01*
X265222Y32805D01*
X265255Y33150D01*
X265274Y33522D01*
X265281Y33920D01*
X265274Y34332D01*
X265256Y34715D01*
X265225Y35069D01*
X265182Y35393D01*
X265126Y35687D01*
X265059Y35953D01*
X264978Y36189D01*
X264886Y36395D01*
X264779Y36575D01*
X264656Y36731D01*
X264518Y36863D01*
X264363Y36971D01*
X264192Y37054D01*
X264005Y37114D01*
X263803Y37150D01*
X263584Y37162D01*
X263360Y37151D01*
X263152Y37115D01*
X262960Y37056D01*
X262785Y36973D01*
X262626Y36867D01*
X262484Y36737D01*
X262358Y36584D01*
X262248Y36406D01*
X262153Y36202D01*
X262071Y35967D01*
X262001Y35702D01*
X261944Y35407D01*
X261899Y35081D01*
X261868Y34724D01*
X261849Y34337D01*
X261842Y33920D01*
X261849Y33514D01*
X261868Y33136D01*
X261900Y32787D01*
X261945Y32465D01*
X262003Y32172D01*
X262074Y31907D01*
X262157Y31670D01*
X262254Y31462D01*
X262364Y31279D01*
X262490Y31121D01*
X262631Y30987D01*
X262786Y30878D01*
X262958Y30793D01*
X263144Y30732D01*
X263345Y30695D01*
X263561Y30683D01*
G37*
%LPD*%
G36*
X257097Y29860D02*
X256828Y29868D01*
X256572Y29890D01*
X256329Y29928D01*
X256100Y29980D01*
X255884Y30048D01*
X255681Y30131D01*
X255492Y30229D01*
X255316Y30342D01*
X255154Y30469D01*
X255008Y30609D01*
X254878Y30763D01*
X254763Y30931D01*
X254664Y31112D01*
X254580Y31307D01*
X254512Y31515D01*
X254459Y31736D01*
X255478Y31854D01*
X255574Y31579D01*
X255701Y31342D01*
X255859Y31140D01*
X256048Y30976D01*
X256269Y30848D01*
X256521Y30756D01*
X256804Y30701D01*
X257119Y30683D01*
X257317Y30691D01*
X257503Y30714D01*
X257679Y30752D01*
X257843Y30806D01*
X257996Y30875D01*
X258139Y30959D01*
X258270Y31058D01*
X258390Y31173D01*
X258498Y31301D01*
X258591Y31441D01*
X258670Y31592D01*
X258735Y31755D01*
X258785Y31929D01*
X258821Y32115D01*
X258842Y32312D01*
X258850Y32520D01*
X258842Y32702D01*
X258821Y32875D01*
X258785Y33038D01*
X258734Y33193D01*
X258669Y33339D01*
X258590Y33477D01*
X258496Y33605D01*
X258388Y33724D01*
X258267Y33832D01*
X258136Y33925D01*
X257996Y34004D01*
X257845Y34068D01*
X257684Y34119D01*
X257513Y34154D01*
X257333Y34176D01*
X257142Y34183D01*
X256941Y34175D01*
X256747Y34151D01*
X256560Y34111D01*
X256380Y34054D01*
X256204Y33979D01*
X256027Y33881D01*
X255851Y33760D01*
X255674Y33618D01*
X254689Y33618D01*
X254952Y37862D01*
X259438Y37862D01*
X259438Y37006D01*
X255870Y37006D01*
X255719Y34502D01*
X255888Y34621D01*
X256067Y34723D01*
X256255Y34810D01*
X256454Y34880D01*
X256663Y34936D01*
X256882Y34975D01*
X257110Y34999D01*
X257349Y35006D01*
X257633Y34996D01*
X257902Y34964D01*
X258156Y34910D01*
X258395Y34836D01*
X258620Y34740D01*
X258830Y34622D01*
X259025Y34483D01*
X259205Y34323D01*
X259367Y34146D01*
X259508Y33956D01*
X259627Y33753D01*
X259724Y33536D01*
X259800Y33307D01*
X259854Y33065D01*
X259886Y32810D01*
X259897Y32542D01*
X259885Y32239D01*
X259850Y31951D01*
X259792Y31681D01*
X259711Y31427D01*
X259607Y31189D01*
X259479Y30968D01*
X259329Y30764D01*
X259155Y30577D01*
X258960Y30409D01*
X258748Y30263D01*
X258518Y30140D01*
X258269Y30039D01*
X258003Y29961D01*
X257719Y29905D01*
X257417Y29871D01*
X257097Y29860D01*
G37*
G36*
X247052Y29972D02*
X241827Y29972D01*
X241827Y30683D01*
X241977Y31001D01*
X242144Y31300D01*
X242326Y31579D01*
X242524Y31840D01*
X242946Y32317D01*
X243389Y32747D01*
X243841Y33138D01*
X244288Y33500D01*
X244711Y33847D01*
X245092Y34194D01*
X245416Y34550D01*
X245552Y34734D01*
X245671Y34922D01*
X245768Y35119D01*
X245837Y35328D01*
X245879Y35550D01*
X245892Y35785D01*
X245869Y36091D01*
X245797Y36362D01*
X245678Y36595D01*
X245512Y36793D01*
X245303Y36950D01*
X245057Y37062D01*
X244773Y37129D01*
X244453Y37151D01*
X244145Y37129D01*
X243866Y37064D01*
X243615Y36954D01*
X243392Y36801D01*
X243205Y36608D01*
X243061Y36380D01*
X242960Y36117D01*
X242902Y35818D01*
X241872Y35914D01*
X241909Y36144D01*
X241964Y36363D01*
X242037Y36569D01*
X242128Y36763D01*
X242238Y36946D01*
X242366Y37116D01*
X242511Y37274D01*
X242675Y37420D01*
X242854Y37551D01*
X243046Y37665D01*
X243249Y37761D01*
X243465Y37840D01*
X243694Y37901D01*
X243935Y37945D01*
X244188Y37971D01*
X244453Y37980D01*
X244743Y37971D01*
X245015Y37945D01*
X245270Y37901D01*
X245508Y37839D01*
X245729Y37760D01*
X245932Y37663D01*
X246118Y37549D01*
X246287Y37417D01*
X246437Y37269D01*
X246568Y37106D01*
X246678Y36929D01*
X246768Y36736D01*
X246838Y36529D01*
X246888Y36307D01*
X246918Y36070D01*
X246928Y35818D01*
X246915Y35589D01*
X246876Y35361D01*
X246810Y35133D01*
X246718Y34906D01*
X246601Y34679D01*
X246457Y34452D01*
X246288Y34225D01*
X246094Y33998D01*
X245840Y33740D01*
X245491Y33420D01*
X244509Y32593D01*
X243931Y32092D01*
X243484Y31644D01*
X243307Y31434D01*
X243157Y31228D01*
X243033Y31027D01*
X242936Y30829D01*
X247052Y30829D01*
X247052Y29972D01*
G37*
G36*
X390500Y29860D02*
X390171Y29876D01*
X389862Y29925D01*
X389575Y30006D01*
X389309Y30119D01*
X389064Y30265D01*
X388840Y30443D01*
X388638Y30653D01*
X388456Y30896D01*
X388296Y31170D01*
X388157Y31473D01*
X388040Y31807D01*
X387944Y32170D01*
X387869Y32563D01*
X387816Y32985D01*
X387784Y33438D01*
X387773Y33920D01*
X387783Y34412D01*
X387814Y34873D01*
X387866Y35301D01*
X387939Y35698D01*
X388032Y36063D01*
X388146Y36396D01*
X388281Y36697D01*
X388437Y36966D01*
X388615Y37204D01*
X388817Y37410D01*
X389043Y37584D01*
X389293Y37727D01*
X389567Y37837D01*
X389865Y37917D01*
X390187Y37964D01*
X390534Y37980D01*
X390871Y37964D01*
X391185Y37916D01*
X391477Y37836D01*
X391745Y37724D01*
X391991Y37580D01*
X392214Y37404D01*
X392414Y37195D01*
X392592Y36955D01*
X392747Y36684D01*
X392882Y36381D01*
X392996Y36048D01*
X393089Y35684D01*
X393162Y35289D01*
X393214Y34864D01*
X393245Y34407D01*
X393255Y33920D01*
X393244Y33440D01*
X393212Y32990D01*
X393157Y32569D01*
X393081Y32177D01*
X392983Y31814D01*
X392863Y31481D01*
X392722Y31177D01*
X392558Y30902D01*
X392374Y30657D01*
X392168Y30446D01*
X391942Y30267D01*
X391695Y30120D01*
X391427Y30006D01*
X391139Y29925D01*
X390830Y29876D01*
X390500Y29860D01*
G37*
%LPC*%
G36*
X390511Y30683D02*
X390727Y30696D01*
X390927Y30733D01*
X391112Y30795D01*
X391283Y30882D01*
X391438Y30994D01*
X391579Y31130D01*
X391705Y31292D01*
X391816Y31478D01*
X391913Y31690D01*
X391997Y31929D01*
X392069Y32194D01*
X392127Y32486D01*
X392172Y32805D01*
X392205Y33150D01*
X392224Y33522D01*
X392231Y33920D01*
X392224Y34332D01*
X392206Y34715D01*
X392175Y35069D01*
X392132Y35393D01*
X392076Y35687D01*
X392009Y35953D01*
X391928Y36189D01*
X391836Y36395D01*
X391729Y36575D01*
X391606Y36731D01*
X391468Y36863D01*
X391313Y36971D01*
X391142Y37054D01*
X390955Y37114D01*
X390753Y37150D01*
X390534Y37162D01*
X390310Y37151D01*
X390102Y37115D01*
X389910Y37056D01*
X389735Y36973D01*
X389576Y36867D01*
X389434Y36737D01*
X389308Y36584D01*
X389198Y36406D01*
X389103Y36202D01*
X389021Y35967D01*
X388951Y35702D01*
X388894Y35407D01*
X388849Y35081D01*
X388818Y34724D01*
X388799Y34337D01*
X388792Y33920D01*
X388799Y33514D01*
X388818Y33136D01*
X388850Y32787D01*
X388895Y32465D01*
X388953Y32172D01*
X389024Y31907D01*
X389107Y31670D01*
X389204Y31462D01*
X389314Y31279D01*
X389440Y31121D01*
X389581Y30987D01*
X389736Y30878D01*
X389908Y30793D01*
X390094Y30732D01*
X390295Y30695D01*
X390511Y30683D01*
G37*
%LPD*%
G36*
X403250Y29860D02*
X402921Y29876D01*
X402612Y29925D01*
X402325Y30006D01*
X402059Y30119D01*
X401814Y30265D01*
X401590Y30443D01*
X401388Y30653D01*
X401206Y30896D01*
X401046Y31170D01*
X400907Y31473D01*
X400790Y31807D01*
X400694Y32170D01*
X400619Y32563D01*
X400566Y32985D01*
X400534Y33438D01*
X400523Y33920D01*
X400533Y34412D01*
X400564Y34873D01*
X400616Y35301D01*
X400689Y35698D01*
X400782Y36063D01*
X400896Y36396D01*
X401031Y36697D01*
X401187Y36966D01*
X401365Y37204D01*
X401567Y37410D01*
X401793Y37584D01*
X402043Y37727D01*
X402317Y37837D01*
X402615Y37917D01*
X402937Y37964D01*
X403284Y37980D01*
X403621Y37964D01*
X403935Y37916D01*
X404227Y37836D01*
X404495Y37724D01*
X404741Y37580D01*
X404964Y37404D01*
X405164Y37195D01*
X405342Y36955D01*
X405497Y36684D01*
X405632Y36381D01*
X405746Y36048D01*
X405839Y35684D01*
X405912Y35289D01*
X405964Y34864D01*
X405995Y34407D01*
X406005Y33920D01*
X405994Y33440D01*
X405962Y32990D01*
X405907Y32569D01*
X405831Y32177D01*
X405733Y31814D01*
X405613Y31481D01*
X405472Y31177D01*
X405308Y30902D01*
X405124Y30657D01*
X404918Y30446D01*
X404692Y30267D01*
X404445Y30120D01*
X404177Y30006D01*
X403889Y29925D01*
X403580Y29876D01*
X403250Y29860D01*
G37*
%LPC*%
G36*
X403261Y30683D02*
X403477Y30696D01*
X403677Y30733D01*
X403862Y30795D01*
X404033Y30882D01*
X404188Y30994D01*
X404329Y31130D01*
X404455Y31292D01*
X404566Y31478D01*
X404663Y31690D01*
X404747Y31929D01*
X404819Y32194D01*
X404877Y32486D01*
X404922Y32805D01*
X404955Y33150D01*
X404974Y33522D01*
X404981Y33920D01*
X404974Y34332D01*
X404956Y34715D01*
X404925Y35069D01*
X404882Y35393D01*
X404826Y35687D01*
X404759Y35953D01*
X404678Y36189D01*
X404586Y36395D01*
X404479Y36575D01*
X404356Y36731D01*
X404218Y36863D01*
X404063Y36971D01*
X403892Y37054D01*
X403705Y37114D01*
X403503Y37150D01*
X403284Y37162D01*
X403060Y37151D01*
X402852Y37115D01*
X402660Y37056D01*
X402485Y36973D01*
X402326Y36867D01*
X402184Y36737D01*
X402058Y36584D01*
X401948Y36406D01*
X401853Y36202D01*
X401771Y35967D01*
X401701Y35702D01*
X401644Y35407D01*
X401599Y35081D01*
X401568Y34724D01*
X401549Y34337D01*
X401542Y33920D01*
X401549Y33514D01*
X401568Y33136D01*
X401600Y32787D01*
X401645Y32465D01*
X401703Y32172D01*
X401774Y31907D01*
X401857Y31670D01*
X401954Y31462D01*
X402064Y31279D01*
X402190Y31121D01*
X402331Y30987D01*
X402486Y30878D01*
X402658Y30793D01*
X402844Y30732D01*
X403045Y30695D01*
X403261Y30683D01*
G37*
%LPD*%
G36*
X396797Y29860D02*
X396528Y29868D01*
X396272Y29890D01*
X396029Y29928D01*
X395800Y29980D01*
X395584Y30048D01*
X395381Y30131D01*
X395192Y30229D01*
X395016Y30342D01*
X394854Y30469D01*
X394708Y30609D01*
X394578Y30763D01*
X394463Y30931D01*
X394364Y31112D01*
X394280Y31307D01*
X394212Y31515D01*
X394159Y31736D01*
X395178Y31854D01*
X395274Y31579D01*
X395401Y31342D01*
X395559Y31140D01*
X395748Y30976D01*
X395969Y30848D01*
X396221Y30756D01*
X396504Y30701D01*
X396819Y30683D01*
X397017Y30691D01*
X397203Y30714D01*
X397379Y30752D01*
X397543Y30806D01*
X397696Y30875D01*
X397839Y30959D01*
X397970Y31058D01*
X398090Y31173D01*
X398198Y31301D01*
X398291Y31441D01*
X398370Y31592D01*
X398435Y31755D01*
X398485Y31929D01*
X398521Y32115D01*
X398542Y32312D01*
X398550Y32520D01*
X398542Y32702D01*
X398521Y32875D01*
X398485Y33038D01*
X398434Y33193D01*
X398369Y33339D01*
X398290Y33477D01*
X398196Y33605D01*
X398088Y33724D01*
X397967Y33832D01*
X397836Y33925D01*
X397696Y34004D01*
X397545Y34068D01*
X397384Y34119D01*
X397213Y34154D01*
X397033Y34176D01*
X396842Y34183D01*
X396641Y34175D01*
X396447Y34151D01*
X396260Y34111D01*
X396080Y34054D01*
X395904Y33979D01*
X395727Y33881D01*
X395551Y33760D01*
X395374Y33618D01*
X394389Y33618D01*
X394652Y37862D01*
X399138Y37862D01*
X399138Y37006D01*
X395570Y37006D01*
X395419Y34502D01*
X395588Y34621D01*
X395767Y34723D01*
X395955Y34810D01*
X396154Y34880D01*
X396363Y34936D01*
X396582Y34975D01*
X396810Y34999D01*
X397049Y35006D01*
X397333Y34996D01*
X397602Y34964D01*
X397856Y34910D01*
X398095Y34836D01*
X398320Y34740D01*
X398530Y34622D01*
X398725Y34483D01*
X398905Y34323D01*
X399067Y34146D01*
X399208Y33956D01*
X399327Y33753D01*
X399424Y33536D01*
X399500Y33307D01*
X399554Y33065D01*
X399586Y32810D01*
X399597Y32542D01*
X399585Y32239D01*
X399550Y31951D01*
X399492Y31681D01*
X399411Y31427D01*
X399307Y31189D01*
X399179Y30968D01*
X399029Y30764D01*
X398855Y30577D01*
X398660Y30409D01*
X398448Y30263D01*
X398218Y30140D01*
X397969Y30039D01*
X397703Y29961D01*
X397419Y29905D01*
X397117Y29871D01*
X396797Y29860D01*
G37*
G36*
X386752Y29972D02*
X381527Y29972D01*
X381527Y30683D01*
X381677Y31001D01*
X381844Y31300D01*
X382026Y31579D01*
X382224Y31840D01*
X382646Y32317D01*
X383089Y32747D01*
X383541Y33138D01*
X383988Y33500D01*
X384411Y33847D01*
X384792Y34194D01*
X385116Y34550D01*
X385252Y34734D01*
X385371Y34922D01*
X385468Y35119D01*
X385537Y35328D01*
X385579Y35550D01*
X385592Y35785D01*
X385569Y36091D01*
X385497Y36362D01*
X385378Y36595D01*
X385212Y36793D01*
X385003Y36950D01*
X384757Y37062D01*
X384473Y37129D01*
X384153Y37151D01*
X383845Y37129D01*
X383566Y37064D01*
X383315Y36954D01*
X383092Y36801D01*
X382905Y36608D01*
X382761Y36380D01*
X382660Y36117D01*
X382602Y35818D01*
X381572Y35914D01*
X381609Y36144D01*
X381664Y36363D01*
X381737Y36569D01*
X381828Y36763D01*
X381938Y36946D01*
X382066Y37116D01*
X382211Y37274D01*
X382375Y37420D01*
X382554Y37551D01*
X382746Y37665D01*
X382949Y37761D01*
X383165Y37840D01*
X383394Y37901D01*
X383635Y37945D01*
X383888Y37971D01*
X384153Y37980D01*
X384443Y37971D01*
X384715Y37945D01*
X384970Y37901D01*
X385208Y37839D01*
X385429Y37760D01*
X385632Y37663D01*
X385818Y37549D01*
X385987Y37417D01*
X386137Y37269D01*
X386268Y37106D01*
X386378Y36929D01*
X386468Y36736D01*
X386538Y36529D01*
X386588Y36307D01*
X386618Y36070D01*
X386628Y35818D01*
X386615Y35589D01*
X386576Y35361D01*
X386510Y35133D01*
X386418Y34906D01*
X386301Y34679D01*
X386157Y34452D01*
X385988Y34225D01*
X385794Y33998D01*
X385540Y33740D01*
X385191Y33420D01*
X384209Y32593D01*
X383631Y32092D01*
X383184Y31644D01*
X383007Y31434D01*
X382857Y31228D01*
X382733Y31027D01*
X382636Y30829D01*
X386752Y30829D01*
X386752Y29972D01*
G37*
G36*
X530200Y29860D02*
X529871Y29876D01*
X529562Y29925D01*
X529275Y30006D01*
X529009Y30119D01*
X528764Y30265D01*
X528540Y30443D01*
X528338Y30653D01*
X528156Y30896D01*
X527996Y31170D01*
X527857Y31473D01*
X527740Y31807D01*
X527644Y32170D01*
X527569Y32563D01*
X527516Y32985D01*
X527484Y33438D01*
X527473Y33920D01*
X527483Y34412D01*
X527514Y34873D01*
X527566Y35301D01*
X527639Y35698D01*
X527732Y36063D01*
X527846Y36396D01*
X527981Y36697D01*
X528137Y36966D01*
X528315Y37204D01*
X528517Y37410D01*
X528743Y37584D01*
X528993Y37727D01*
X529267Y37837D01*
X529565Y37917D01*
X529887Y37964D01*
X530234Y37980D01*
X530571Y37964D01*
X530885Y37916D01*
X531177Y37836D01*
X531445Y37724D01*
X531691Y37580D01*
X531914Y37404D01*
X532114Y37195D01*
X532292Y36955D01*
X532447Y36684D01*
X532582Y36381D01*
X532696Y36048D01*
X532789Y35684D01*
X532862Y35289D01*
X532914Y34864D01*
X532945Y34407D01*
X532955Y33920D01*
X532944Y33440D01*
X532912Y32990D01*
X532857Y32569D01*
X532781Y32177D01*
X532683Y31814D01*
X532563Y31481D01*
X532422Y31177D01*
X532258Y30902D01*
X532074Y30657D01*
X531868Y30446D01*
X531642Y30267D01*
X531395Y30120D01*
X531127Y30006D01*
X530839Y29925D01*
X530530Y29876D01*
X530200Y29860D01*
G37*
%LPC*%
G36*
X530211Y30683D02*
X530427Y30696D01*
X530627Y30733D01*
X530812Y30795D01*
X530983Y30882D01*
X531138Y30994D01*
X531279Y31130D01*
X531405Y31292D01*
X531516Y31478D01*
X531613Y31690D01*
X531697Y31929D01*
X531769Y32194D01*
X531827Y32486D01*
X531872Y32805D01*
X531905Y33150D01*
X531924Y33522D01*
X531931Y33920D01*
X531924Y34332D01*
X531906Y34715D01*
X531875Y35069D01*
X531832Y35393D01*
X531776Y35687D01*
X531709Y35953D01*
X531628Y36189D01*
X531536Y36395D01*
X531429Y36575D01*
X531306Y36731D01*
X531168Y36863D01*
X531013Y36971D01*
X530842Y37054D01*
X530655Y37114D01*
X530453Y37150D01*
X530234Y37162D01*
X530010Y37151D01*
X529802Y37115D01*
X529610Y37056D01*
X529435Y36973D01*
X529276Y36867D01*
X529134Y36737D01*
X529008Y36584D01*
X528898Y36406D01*
X528803Y36202D01*
X528721Y35967D01*
X528651Y35702D01*
X528594Y35407D01*
X528549Y35081D01*
X528518Y34724D01*
X528499Y34337D01*
X528492Y33920D01*
X528499Y33514D01*
X528518Y33136D01*
X528550Y32787D01*
X528595Y32465D01*
X528653Y32172D01*
X528724Y31907D01*
X528807Y31670D01*
X528904Y31462D01*
X529014Y31279D01*
X529140Y31121D01*
X529281Y30987D01*
X529436Y30878D01*
X529608Y30793D01*
X529794Y30732D01*
X529995Y30695D01*
X530211Y30683D01*
G37*
%LPD*%
G36*
X542950Y29860D02*
X542621Y29876D01*
X542312Y29925D01*
X542025Y30006D01*
X541759Y30119D01*
X541514Y30265D01*
X541290Y30443D01*
X541088Y30653D01*
X540906Y30896D01*
X540746Y31170D01*
X540607Y31473D01*
X540490Y31807D01*
X540394Y32170D01*
X540319Y32563D01*
X540266Y32985D01*
X540234Y33438D01*
X540223Y33920D01*
X540233Y34412D01*
X540264Y34873D01*
X540316Y35301D01*
X540389Y35698D01*
X540482Y36063D01*
X540596Y36396D01*
X540731Y36697D01*
X540887Y36966D01*
X541065Y37204D01*
X541267Y37410D01*
X541493Y37584D01*
X541743Y37727D01*
X542017Y37837D01*
X542315Y37917D01*
X542637Y37964D01*
X542984Y37980D01*
X543321Y37964D01*
X543635Y37916D01*
X543927Y37836D01*
X544195Y37724D01*
X544441Y37580D01*
X544664Y37404D01*
X544864Y37195D01*
X545042Y36955D01*
X545197Y36684D01*
X545332Y36381D01*
X545446Y36048D01*
X545539Y35684D01*
X545612Y35289D01*
X545664Y34864D01*
X545695Y34407D01*
X545705Y33920D01*
X545694Y33440D01*
X545662Y32990D01*
X545607Y32569D01*
X545531Y32177D01*
X545433Y31814D01*
X545313Y31481D01*
X545172Y31177D01*
X545008Y30902D01*
X544824Y30657D01*
X544618Y30446D01*
X544392Y30267D01*
X544145Y30120D01*
X543877Y30006D01*
X543589Y29925D01*
X543280Y29876D01*
X542950Y29860D01*
G37*
%LPC*%
G36*
X542961Y30683D02*
X543177Y30696D01*
X543377Y30733D01*
X543562Y30795D01*
X543733Y30882D01*
X543888Y30994D01*
X544029Y31130D01*
X544155Y31292D01*
X544266Y31478D01*
X544363Y31690D01*
X544447Y31929D01*
X544519Y32194D01*
X544577Y32486D01*
X544622Y32805D01*
X544655Y33150D01*
X544674Y33522D01*
X544681Y33920D01*
X544674Y34332D01*
X544656Y34715D01*
X544625Y35069D01*
X544582Y35393D01*
X544526Y35687D01*
X544459Y35953D01*
X544378Y36189D01*
X544286Y36395D01*
X544179Y36575D01*
X544056Y36731D01*
X543918Y36863D01*
X543763Y36971D01*
X543592Y37054D01*
X543405Y37114D01*
X543203Y37150D01*
X542984Y37162D01*
X542760Y37151D01*
X542552Y37115D01*
X542360Y37056D01*
X542185Y36973D01*
X542026Y36867D01*
X541884Y36737D01*
X541758Y36584D01*
X541648Y36406D01*
X541553Y36202D01*
X541471Y35967D01*
X541401Y35702D01*
X541344Y35407D01*
X541299Y35081D01*
X541268Y34724D01*
X541249Y34337D01*
X541242Y33920D01*
X541249Y33514D01*
X541268Y33136D01*
X541300Y32787D01*
X541345Y32465D01*
X541403Y32172D01*
X541474Y31907D01*
X541557Y31670D01*
X541654Y31462D01*
X541764Y31279D01*
X541890Y31121D01*
X542031Y30987D01*
X542186Y30878D01*
X542358Y30793D01*
X542544Y30732D01*
X542745Y30695D01*
X542961Y30683D01*
G37*
%LPD*%
G36*
X536497Y29860D02*
X536228Y29868D01*
X535972Y29890D01*
X535729Y29928D01*
X535500Y29980D01*
X535284Y30048D01*
X535081Y30131D01*
X534892Y30229D01*
X534716Y30342D01*
X534554Y30469D01*
X534408Y30609D01*
X534278Y30763D01*
X534163Y30931D01*
X534064Y31112D01*
X533980Y31307D01*
X533912Y31515D01*
X533859Y31736D01*
X534878Y31854D01*
X534974Y31579D01*
X535101Y31342D01*
X535259Y31140D01*
X535448Y30976D01*
X535669Y30848D01*
X535921Y30756D01*
X536204Y30701D01*
X536519Y30683D01*
X536717Y30691D01*
X536903Y30714D01*
X537079Y30752D01*
X537243Y30806D01*
X537396Y30875D01*
X537539Y30959D01*
X537670Y31058D01*
X537790Y31173D01*
X537898Y31301D01*
X537991Y31441D01*
X538070Y31592D01*
X538135Y31755D01*
X538185Y31929D01*
X538221Y32115D01*
X538242Y32312D01*
X538250Y32520D01*
X538242Y32702D01*
X538221Y32875D01*
X538185Y33038D01*
X538134Y33193D01*
X538069Y33339D01*
X537990Y33477D01*
X537896Y33605D01*
X537788Y33724D01*
X537667Y33832D01*
X537536Y33925D01*
X537396Y34004D01*
X537245Y34068D01*
X537084Y34119D01*
X536913Y34154D01*
X536733Y34176D01*
X536542Y34183D01*
X536341Y34175D01*
X536147Y34151D01*
X535960Y34111D01*
X535780Y34054D01*
X535604Y33979D01*
X535427Y33881D01*
X535251Y33760D01*
X535074Y33618D01*
X534089Y33618D01*
X534352Y37862D01*
X538838Y37862D01*
X538838Y37006D01*
X535270Y37006D01*
X535119Y34502D01*
X535288Y34621D01*
X535467Y34723D01*
X535655Y34810D01*
X535854Y34880D01*
X536063Y34936D01*
X536282Y34975D01*
X536510Y34999D01*
X536749Y35006D01*
X537033Y34996D01*
X537302Y34964D01*
X537556Y34910D01*
X537795Y34836D01*
X538020Y34740D01*
X538230Y34622D01*
X538425Y34483D01*
X538605Y34323D01*
X538767Y34146D01*
X538908Y33956D01*
X539027Y33753D01*
X539124Y33536D01*
X539200Y33307D01*
X539254Y33065D01*
X539286Y32810D01*
X539297Y32542D01*
X539285Y32239D01*
X539250Y31951D01*
X539192Y31681D01*
X539111Y31427D01*
X539007Y31189D01*
X538879Y30968D01*
X538729Y30764D01*
X538555Y30577D01*
X538360Y30409D01*
X538148Y30263D01*
X537918Y30140D01*
X537669Y30039D01*
X537403Y29961D01*
X537119Y29905D01*
X536817Y29871D01*
X536497Y29860D01*
G37*
G36*
X526452Y29972D02*
X521227Y29972D01*
X521227Y30683D01*
X521377Y31001D01*
X521544Y31300D01*
X521726Y31579D01*
X521924Y31840D01*
X522346Y32317D01*
X522789Y32747D01*
X523241Y33138D01*
X523688Y33500D01*
X524111Y33847D01*
X524492Y34194D01*
X524816Y34550D01*
X524952Y34734D01*
X525071Y34922D01*
X525168Y35119D01*
X525237Y35328D01*
X525279Y35550D01*
X525292Y35785D01*
X525269Y36091D01*
X525197Y36362D01*
X525078Y36595D01*
X524912Y36793D01*
X524703Y36950D01*
X524457Y37062D01*
X524173Y37129D01*
X523853Y37151D01*
X523545Y37129D01*
X523266Y37064D01*
X523015Y36954D01*
X522792Y36801D01*
X522605Y36608D01*
X522461Y36380D01*
X522360Y36117D01*
X522302Y35818D01*
X521272Y35914D01*
X521309Y36144D01*
X521364Y36363D01*
X521437Y36569D01*
X521528Y36763D01*
X521638Y36946D01*
X521766Y37116D01*
X521911Y37274D01*
X522075Y37420D01*
X522254Y37551D01*
X522446Y37665D01*
X522649Y37761D01*
X522865Y37840D01*
X523094Y37901D01*
X523335Y37945D01*
X523588Y37971D01*
X523853Y37980D01*
X524143Y37971D01*
X524415Y37945D01*
X524670Y37901D01*
X524908Y37839D01*
X525129Y37760D01*
X525332Y37663D01*
X525518Y37549D01*
X525687Y37417D01*
X525837Y37269D01*
X525968Y37106D01*
X526078Y36929D01*
X526168Y36736D01*
X526238Y36529D01*
X526288Y36307D01*
X526318Y36070D01*
X526328Y35818D01*
X526315Y35589D01*
X526276Y35361D01*
X526210Y35133D01*
X526118Y34906D01*
X526001Y34679D01*
X525857Y34452D01*
X525688Y34225D01*
X525494Y33998D01*
X525240Y33740D01*
X524891Y33420D01*
X523909Y32593D01*
X523331Y32092D01*
X522884Y31644D01*
X522707Y31434D01*
X522557Y31228D01*
X522433Y31027D01*
X522336Y30829D01*
X526452Y30829D01*
X526452Y29972D01*
G37*
G36*
X250800Y341010D02*
X250471Y341026D01*
X250162Y341075D01*
X249875Y341156D01*
X249609Y341269D01*
X249364Y341415D01*
X249140Y341593D01*
X248938Y341803D01*
X248756Y342046D01*
X248596Y342320D01*
X248457Y342623D01*
X248340Y342957D01*
X248244Y343320D01*
X248169Y343713D01*
X248116Y344135D01*
X248084Y344588D01*
X248073Y345070D01*
X248083Y345562D01*
X248114Y346023D01*
X248166Y346451D01*
X248239Y346848D01*
X248332Y347213D01*
X248446Y347546D01*
X248581Y347847D01*
X248737Y348116D01*
X248915Y348354D01*
X249117Y348560D01*
X249343Y348734D01*
X249593Y348877D01*
X249867Y348987D01*
X250165Y349067D01*
X250487Y349114D01*
X250834Y349130D01*
X251171Y349114D01*
X251485Y349066D01*
X251777Y348986D01*
X252045Y348874D01*
X252291Y348730D01*
X252514Y348554D01*
X252714Y348345D01*
X252892Y348105D01*
X253047Y347834D01*
X253182Y347531D01*
X253296Y347198D01*
X253389Y346834D01*
X253462Y346439D01*
X253514Y346014D01*
X253545Y345557D01*
X253555Y345070D01*
X253544Y344590D01*
X253512Y344140D01*
X253457Y343719D01*
X253381Y343327D01*
X253283Y342964D01*
X253163Y342631D01*
X253022Y342327D01*
X252858Y342052D01*
X252674Y341807D01*
X252468Y341596D01*
X252242Y341417D01*
X251995Y341270D01*
X251727Y341156D01*
X251439Y341075D01*
X251130Y341026D01*
X250800Y341010D01*
G37*
%LPC*%
G36*
X250811Y341833D02*
X251027Y341846D01*
X251227Y341883D01*
X251412Y341945D01*
X251583Y342032D01*
X251738Y342144D01*
X251879Y342280D01*
X252005Y342442D01*
X252116Y342628D01*
X252213Y342840D01*
X252297Y343079D01*
X252369Y343344D01*
X252427Y343636D01*
X252472Y343955D01*
X252505Y344300D01*
X252524Y344672D01*
X252531Y345070D01*
X252524Y345482D01*
X252506Y345865D01*
X252475Y346219D01*
X252432Y346543D01*
X252376Y346837D01*
X252309Y347103D01*
X252228Y347339D01*
X252136Y347545D01*
X252029Y347725D01*
X251906Y347881D01*
X251768Y348013D01*
X251613Y348121D01*
X251442Y348204D01*
X251255Y348264D01*
X251053Y348300D01*
X250834Y348312D01*
X250610Y348301D01*
X250402Y348265D01*
X250210Y348206D01*
X250035Y348123D01*
X249876Y348017D01*
X249734Y347887D01*
X249608Y347734D01*
X249498Y347556D01*
X249403Y347352D01*
X249321Y347117D01*
X249251Y346852D01*
X249194Y346557D01*
X249149Y346231D01*
X249118Y345874D01*
X249099Y345487D01*
X249092Y345070D01*
X249099Y344664D01*
X249118Y344286D01*
X249150Y343937D01*
X249195Y343615D01*
X249253Y343322D01*
X249324Y343057D01*
X249407Y342820D01*
X249504Y342612D01*
X249614Y342429D01*
X249740Y342271D01*
X249881Y342137D01*
X250036Y342028D01*
X250208Y341943D01*
X250394Y341882D01*
X250595Y341845D01*
X250811Y341833D01*
G37*
%LPD*%
G36*
X263550Y341010D02*
X263221Y341026D01*
X262912Y341075D01*
X262625Y341156D01*
X262359Y341269D01*
X262114Y341415D01*
X261890Y341593D01*
X261688Y341803D01*
X261506Y342046D01*
X261346Y342320D01*
X261207Y342623D01*
X261090Y342957D01*
X260994Y343320D01*
X260919Y343713D01*
X260866Y344135D01*
X260834Y344588D01*
X260823Y345070D01*
X260833Y345562D01*
X260864Y346023D01*
X260916Y346451D01*
X260989Y346848D01*
X261082Y347213D01*
X261196Y347546D01*
X261331Y347847D01*
X261487Y348116D01*
X261665Y348354D01*
X261867Y348560D01*
X262093Y348734D01*
X262343Y348877D01*
X262617Y348987D01*
X262915Y349067D01*
X263237Y349114D01*
X263584Y349130D01*
X263921Y349114D01*
X264235Y349066D01*
X264527Y348986D01*
X264795Y348874D01*
X265041Y348730D01*
X265264Y348554D01*
X265464Y348345D01*
X265642Y348105D01*
X265797Y347834D01*
X265932Y347531D01*
X266046Y347198D01*
X266139Y346834D01*
X266212Y346439D01*
X266264Y346014D01*
X266295Y345557D01*
X266305Y345070D01*
X266294Y344590D01*
X266262Y344140D01*
X266207Y343719D01*
X266131Y343327D01*
X266033Y342964D01*
X265913Y342631D01*
X265772Y342327D01*
X265608Y342052D01*
X265424Y341807D01*
X265218Y341596D01*
X264992Y341417D01*
X264745Y341270D01*
X264477Y341156D01*
X264189Y341075D01*
X263880Y341026D01*
X263550Y341010D01*
G37*
%LPC*%
G36*
X263561Y341833D02*
X263777Y341846D01*
X263977Y341883D01*
X264162Y341945D01*
X264333Y342032D01*
X264488Y342144D01*
X264629Y342280D01*
X264755Y342442D01*
X264866Y342628D01*
X264963Y342840D01*
X265047Y343079D01*
X265119Y343344D01*
X265177Y343636D01*
X265222Y343955D01*
X265255Y344300D01*
X265274Y344672D01*
X265281Y345070D01*
X265274Y345482D01*
X265256Y345865D01*
X265225Y346219D01*
X265182Y346543D01*
X265126Y346837D01*
X265059Y347103D01*
X264978Y347339D01*
X264886Y347545D01*
X264779Y347725D01*
X264656Y347881D01*
X264518Y348013D01*
X264363Y348121D01*
X264192Y348204D01*
X264005Y348264D01*
X263803Y348300D01*
X263584Y348312D01*
X263360Y348301D01*
X263152Y348265D01*
X262960Y348206D01*
X262785Y348123D01*
X262626Y348017D01*
X262484Y347887D01*
X262358Y347734D01*
X262248Y347556D01*
X262153Y347352D01*
X262071Y347117D01*
X262001Y346852D01*
X261944Y346557D01*
X261899Y346231D01*
X261868Y345874D01*
X261849Y345487D01*
X261842Y345070D01*
X261849Y344664D01*
X261868Y344286D01*
X261900Y343937D01*
X261945Y343615D01*
X262003Y343322D01*
X262074Y343057D01*
X262157Y342820D01*
X262254Y342612D01*
X262364Y342429D01*
X262490Y342271D01*
X262631Y342137D01*
X262786Y342028D01*
X262958Y341943D01*
X263144Y341882D01*
X263345Y341845D01*
X263561Y341833D01*
G37*
%LPD*%
G36*
X257097Y341010D02*
X256828Y341018D01*
X256572Y341040D01*
X256329Y341078D01*
X256100Y341130D01*
X255884Y341198D01*
X255681Y341281D01*
X255492Y341379D01*
X255316Y341492D01*
X255154Y341619D01*
X255008Y341759D01*
X254878Y341913D01*
X254763Y342081D01*
X254664Y342262D01*
X254580Y342457D01*
X254512Y342665D01*
X254459Y342886D01*
X255478Y343004D01*
X255574Y342729D01*
X255701Y342492D01*
X255859Y342290D01*
X256048Y342126D01*
X256269Y341998D01*
X256521Y341906D01*
X256804Y341851D01*
X257119Y341833D01*
X257317Y341841D01*
X257503Y341864D01*
X257679Y341902D01*
X257843Y341956D01*
X257996Y342025D01*
X258139Y342109D01*
X258270Y342208D01*
X258390Y342323D01*
X258498Y342451D01*
X258591Y342591D01*
X258670Y342742D01*
X258735Y342905D01*
X258785Y343079D01*
X258821Y343265D01*
X258842Y343462D01*
X258850Y343670D01*
X258842Y343852D01*
X258821Y344025D01*
X258785Y344188D01*
X258734Y344343D01*
X258669Y344489D01*
X258590Y344627D01*
X258496Y344755D01*
X258388Y344874D01*
X258267Y344982D01*
X258136Y345075D01*
X257996Y345154D01*
X257845Y345218D01*
X257684Y345269D01*
X257513Y345304D01*
X257333Y345326D01*
X257142Y345333D01*
X256941Y345325D01*
X256747Y345301D01*
X256560Y345261D01*
X256380Y345204D01*
X256204Y345129D01*
X256027Y345031D01*
X255851Y344910D01*
X255674Y344768D01*
X254689Y344768D01*
X254952Y349012D01*
X259438Y349012D01*
X259438Y348156D01*
X255870Y348156D01*
X255719Y345652D01*
X255888Y345771D01*
X256067Y345873D01*
X256255Y345960D01*
X256454Y346030D01*
X256663Y346086D01*
X256882Y346125D01*
X257110Y346149D01*
X257349Y346156D01*
X257633Y346146D01*
X257902Y346114D01*
X258156Y346060D01*
X258395Y345986D01*
X258620Y345890D01*
X258830Y345772D01*
X259025Y345633D01*
X259205Y345473D01*
X259367Y345296D01*
X259508Y345106D01*
X259627Y344903D01*
X259724Y344686D01*
X259800Y344457D01*
X259854Y344215D01*
X259886Y343960D01*
X259897Y343692D01*
X259885Y343389D01*
X259850Y343101D01*
X259792Y342831D01*
X259711Y342577D01*
X259607Y342339D01*
X259479Y342118D01*
X259329Y341914D01*
X259155Y341727D01*
X258960Y341559D01*
X258748Y341413D01*
X258518Y341290D01*
X258269Y341189D01*
X258003Y341111D01*
X257719Y341055D01*
X257417Y341021D01*
X257097Y341010D01*
G37*
G36*
X247052Y341122D02*
X241827Y341122D01*
X241827Y341833D01*
X241977Y342151D01*
X242144Y342450D01*
X242326Y342729D01*
X242524Y342990D01*
X242946Y343467D01*
X243389Y343897D01*
X243841Y344288D01*
X244288Y344650D01*
X244711Y344997D01*
X245092Y345344D01*
X245416Y345700D01*
X245552Y345884D01*
X245671Y346072D01*
X245768Y346269D01*
X245837Y346478D01*
X245879Y346700D01*
X245892Y346935D01*
X245869Y347241D01*
X245797Y347512D01*
X245678Y347745D01*
X245512Y347943D01*
X245303Y348100D01*
X245057Y348212D01*
X244773Y348279D01*
X244453Y348301D01*
X244145Y348279D01*
X243866Y348214D01*
X243615Y348104D01*
X243392Y347951D01*
X243205Y347758D01*
X243061Y347530D01*
X242960Y347267D01*
X242902Y346968D01*
X241872Y347064D01*
X241909Y347294D01*
X241964Y347513D01*
X242037Y347719D01*
X242128Y347913D01*
X242238Y348096D01*
X242366Y348266D01*
X242511Y348424D01*
X242675Y348570D01*
X242854Y348701D01*
X243046Y348815D01*
X243249Y348911D01*
X243465Y348990D01*
X243694Y349051D01*
X243935Y349095D01*
X244188Y349121D01*
X244453Y349130D01*
X244743Y349121D01*
X245015Y349095D01*
X245270Y349051D01*
X245508Y348989D01*
X245729Y348910D01*
X245932Y348813D01*
X246118Y348699D01*
X246287Y348567D01*
X246437Y348419D01*
X246568Y348256D01*
X246678Y348079D01*
X246768Y347886D01*
X246838Y347679D01*
X246888Y347457D01*
X246918Y347220D01*
X246928Y346968D01*
X246915Y346739D01*
X246876Y346511D01*
X246810Y346283D01*
X246718Y346056D01*
X246601Y345829D01*
X246457Y345602D01*
X246288Y345375D01*
X246094Y345148D01*
X245840Y344890D01*
X245491Y344570D01*
X244509Y343743D01*
X243931Y343242D01*
X243484Y342794D01*
X243307Y342584D01*
X243157Y342378D01*
X243033Y342177D01*
X242936Y341979D01*
X247052Y341979D01*
X247052Y341122D01*
G37*
G36*
X390500Y341010D02*
X390171Y341026D01*
X389862Y341075D01*
X389575Y341156D01*
X389309Y341269D01*
X389064Y341415D01*
X388840Y341593D01*
X388638Y341803D01*
X388456Y342046D01*
X388296Y342320D01*
X388157Y342623D01*
X388040Y342957D01*
X387944Y343320D01*
X387869Y343713D01*
X387816Y344135D01*
X387784Y344588D01*
X387773Y345070D01*
X387783Y345562D01*
X387814Y346023D01*
X387866Y346451D01*
X387939Y346848D01*
X388032Y347213D01*
X388146Y347546D01*
X388281Y347847D01*
X388437Y348116D01*
X388615Y348354D01*
X388817Y348560D01*
X389043Y348734D01*
X389293Y348877D01*
X389567Y348987D01*
X389865Y349067D01*
X390187Y349114D01*
X390534Y349130D01*
X390871Y349114D01*
X391185Y349066D01*
X391477Y348986D01*
X391745Y348874D01*
X391991Y348730D01*
X392214Y348554D01*
X392414Y348345D01*
X392592Y348105D01*
X392747Y347834D01*
X392882Y347531D01*
X392996Y347198D01*
X393089Y346834D01*
X393162Y346439D01*
X393214Y346014D01*
X393245Y345557D01*
X393255Y345070D01*
X393244Y344590D01*
X393212Y344140D01*
X393157Y343719D01*
X393081Y343327D01*
X392983Y342964D01*
X392863Y342631D01*
X392722Y342327D01*
X392558Y342052D01*
X392374Y341807D01*
X392168Y341596D01*
X391942Y341417D01*
X391695Y341270D01*
X391427Y341156D01*
X391139Y341075D01*
X390830Y341026D01*
X390500Y341010D01*
G37*
%LPC*%
G36*
X390511Y341833D02*
X390727Y341846D01*
X390927Y341883D01*
X391112Y341945D01*
X391283Y342032D01*
X391438Y342144D01*
X391579Y342280D01*
X391705Y342442D01*
X391816Y342628D01*
X391913Y342840D01*
X391997Y343079D01*
X392069Y343344D01*
X392127Y343636D01*
X392172Y343955D01*
X392205Y344300D01*
X392224Y344672D01*
X392231Y345070D01*
X392224Y345482D01*
X392206Y345865D01*
X392175Y346219D01*
X392132Y346543D01*
X392076Y346837D01*
X392009Y347103D01*
X391928Y347339D01*
X391836Y347545D01*
X391729Y347725D01*
X391606Y347881D01*
X391468Y348013D01*
X391313Y348121D01*
X391142Y348204D01*
X390955Y348264D01*
X390753Y348300D01*
X390534Y348312D01*
X390310Y348301D01*
X390102Y348265D01*
X389910Y348206D01*
X389735Y348123D01*
X389576Y348017D01*
X389434Y347887D01*
X389308Y347734D01*
X389198Y347556D01*
X389103Y347352D01*
X389021Y347117D01*
X388951Y346852D01*
X388894Y346557D01*
X388849Y346231D01*
X388818Y345874D01*
X388799Y345487D01*
X388792Y345070D01*
X388799Y344664D01*
X388818Y344286D01*
X388850Y343937D01*
X388895Y343615D01*
X388953Y343322D01*
X389024Y343057D01*
X389107Y342820D01*
X389204Y342612D01*
X389314Y342429D01*
X389440Y342271D01*
X389581Y342137D01*
X389736Y342028D01*
X389908Y341943D01*
X390094Y341882D01*
X390295Y341845D01*
X390511Y341833D01*
G37*
%LPD*%
G36*
X403250Y341010D02*
X402921Y341026D01*
X402612Y341075D01*
X402325Y341156D01*
X402059Y341269D01*
X401814Y341415D01*
X401590Y341593D01*
X401388Y341803D01*
X401206Y342046D01*
X401046Y342320D01*
X400907Y342623D01*
X400790Y342957D01*
X400694Y343320D01*
X400619Y343713D01*
X400566Y344135D01*
X400534Y344588D01*
X400523Y345070D01*
X400533Y345562D01*
X400564Y346023D01*
X400616Y346451D01*
X400689Y346848D01*
X400782Y347213D01*
X400896Y347546D01*
X401031Y347847D01*
X401187Y348116D01*
X401365Y348354D01*
X401567Y348560D01*
X401793Y348734D01*
X402043Y348877D01*
X402317Y348987D01*
X402615Y349067D01*
X402937Y349114D01*
X403284Y349130D01*
X403621Y349114D01*
X403935Y349066D01*
X404227Y348986D01*
X404495Y348874D01*
X404741Y348730D01*
X404964Y348554D01*
X405164Y348345D01*
X405342Y348105D01*
X405497Y347834D01*
X405632Y347531D01*
X405746Y347198D01*
X405839Y346834D01*
X405912Y346439D01*
X405964Y346014D01*
X405995Y345557D01*
X406005Y345070D01*
X405994Y344590D01*
X405962Y344140D01*
X405907Y343719D01*
X405831Y343327D01*
X405733Y342964D01*
X405613Y342631D01*
X405472Y342327D01*
X405308Y342052D01*
X405124Y341807D01*
X404918Y341596D01*
X404692Y341417D01*
X404445Y341270D01*
X404177Y341156D01*
X403889Y341075D01*
X403580Y341026D01*
X403250Y341010D01*
G37*
%LPC*%
G36*
X403261Y341833D02*
X403477Y341846D01*
X403677Y341883D01*
X403862Y341945D01*
X404033Y342032D01*
X404188Y342144D01*
X404329Y342280D01*
X404455Y342442D01*
X404566Y342628D01*
X404663Y342840D01*
X404747Y343079D01*
X404819Y343344D01*
X404877Y343636D01*
X404922Y343955D01*
X404955Y344300D01*
X404974Y344672D01*
X404981Y345070D01*
X404974Y345482D01*
X404956Y345865D01*
X404925Y346219D01*
X404882Y346543D01*
X404826Y346837D01*
X404759Y347103D01*
X404678Y347339D01*
X404586Y347545D01*
X404479Y347725D01*
X404356Y347881D01*
X404218Y348013D01*
X404063Y348121D01*
X403892Y348204D01*
X403705Y348264D01*
X403503Y348300D01*
X403284Y348312D01*
X403060Y348301D01*
X402852Y348265D01*
X402660Y348206D01*
X402485Y348123D01*
X402326Y348017D01*
X402184Y347887D01*
X402058Y347734D01*
X401948Y347556D01*
X401853Y347352D01*
X401771Y347117D01*
X401701Y346852D01*
X401644Y346557D01*
X401599Y346231D01*
X401568Y345874D01*
X401549Y345487D01*
X401542Y345070D01*
X401549Y344664D01*
X401568Y344286D01*
X401600Y343937D01*
X401645Y343615D01*
X401703Y343322D01*
X401774Y343057D01*
X401857Y342820D01*
X401954Y342612D01*
X402064Y342429D01*
X402190Y342271D01*
X402331Y342137D01*
X402486Y342028D01*
X402658Y341943D01*
X402844Y341882D01*
X403045Y341845D01*
X403261Y341833D01*
G37*
%LPD*%
G36*
X396797Y341010D02*
X396528Y341018D01*
X396272Y341040D01*
X396029Y341078D01*
X395800Y341130D01*
X395584Y341198D01*
X395381Y341281D01*
X395192Y341379D01*
X395016Y341492D01*
X394854Y341619D01*
X394708Y341759D01*
X394578Y341913D01*
X394463Y342081D01*
X394364Y342262D01*
X394280Y342457D01*
X394212Y342665D01*
X394159Y342886D01*
X395178Y343004D01*
X395274Y342729D01*
X395401Y342492D01*
X395559Y342290D01*
X395748Y342126D01*
X395969Y341998D01*
X396221Y341906D01*
X396504Y341851D01*
X396819Y341833D01*
X397017Y341841D01*
X397203Y341864D01*
X397379Y341902D01*
X397543Y341956D01*
X397696Y342025D01*
X397839Y342109D01*
X397970Y342208D01*
X398090Y342323D01*
X398198Y342451D01*
X398291Y342591D01*
X398370Y342742D01*
X398435Y342905D01*
X398485Y343079D01*
X398521Y343265D01*
X398542Y343462D01*
X398550Y343670D01*
X398542Y343852D01*
X398521Y344025D01*
X398485Y344188D01*
X398434Y344343D01*
X398369Y344489D01*
X398290Y344627D01*
X398196Y344755D01*
X398088Y344874D01*
X397967Y344982D01*
X397836Y345075D01*
X397696Y345154D01*
X397545Y345218D01*
X397384Y345269D01*
X397213Y345304D01*
X397033Y345326D01*
X396842Y345333D01*
X396641Y345325D01*
X396447Y345301D01*
X396260Y345261D01*
X396080Y345204D01*
X395904Y345129D01*
X395727Y345031D01*
X395551Y344910D01*
X395374Y344768D01*
X394389Y344768D01*
X394652Y349012D01*
X399138Y349012D01*
X399138Y348156D01*
X395570Y348156D01*
X395419Y345652D01*
X395588Y345771D01*
X395767Y345873D01*
X395955Y345960D01*
X396154Y346030D01*
X396363Y346086D01*
X396582Y346125D01*
X396810Y346149D01*
X397049Y346156D01*
X397333Y346146D01*
X397602Y346114D01*
X397856Y346060D01*
X398095Y345986D01*
X398320Y345890D01*
X398530Y345772D01*
X398725Y345633D01*
X398905Y345473D01*
X399067Y345296D01*
X399208Y345106D01*
X399327Y344903D01*
X399424Y344686D01*
X399500Y344457D01*
X399554Y344215D01*
X399586Y343960D01*
X399597Y343692D01*
X399585Y343389D01*
X399550Y343101D01*
X399492Y342831D01*
X399411Y342577D01*
X399307Y342339D01*
X399179Y342118D01*
X399029Y341914D01*
X398855Y341727D01*
X398660Y341559D01*
X398448Y341413D01*
X398218Y341290D01*
X397969Y341189D01*
X397703Y341111D01*
X397419Y341055D01*
X397117Y341021D01*
X396797Y341010D01*
G37*
G36*
X386752Y341122D02*
X381527Y341122D01*
X381527Y341833D01*
X381677Y342151D01*
X381844Y342450D01*
X382026Y342729D01*
X382224Y342990D01*
X382646Y343467D01*
X383089Y343897D01*
X383541Y344288D01*
X383988Y344650D01*
X384411Y344997D01*
X384792Y345344D01*
X385116Y345700D01*
X385252Y345884D01*
X385371Y346072D01*
X385468Y346269D01*
X385537Y346478D01*
X385579Y346700D01*
X385592Y346935D01*
X385569Y347241D01*
X385497Y347512D01*
X385378Y347745D01*
X385212Y347943D01*
X385003Y348100D01*
X384757Y348212D01*
X384473Y348279D01*
X384153Y348301D01*
X383845Y348279D01*
X383566Y348214D01*
X383315Y348104D01*
X383092Y347951D01*
X382905Y347758D01*
X382761Y347530D01*
X382660Y347267D01*
X382602Y346968D01*
X381572Y347064D01*
X381609Y347294D01*
X381664Y347513D01*
X381737Y347719D01*
X381828Y347913D01*
X381938Y348096D01*
X382066Y348266D01*
X382211Y348424D01*
X382375Y348570D01*
X382554Y348701D01*
X382746Y348815D01*
X382949Y348911D01*
X383165Y348990D01*
X383394Y349051D01*
X383635Y349095D01*
X383888Y349121D01*
X384153Y349130D01*
X384443Y349121D01*
X384715Y349095D01*
X384970Y349051D01*
X385208Y348989D01*
X385429Y348910D01*
X385632Y348813D01*
X385818Y348699D01*
X385987Y348567D01*
X386137Y348419D01*
X386268Y348256D01*
X386378Y348079D01*
X386468Y347886D01*
X386538Y347679D01*
X386588Y347457D01*
X386618Y347220D01*
X386628Y346968D01*
X386615Y346739D01*
X386576Y346511D01*
X386510Y346283D01*
X386418Y346056D01*
X386301Y345829D01*
X386157Y345602D01*
X385988Y345375D01*
X385794Y345148D01*
X385540Y344890D01*
X385191Y344570D01*
X384209Y343743D01*
X383631Y343242D01*
X383184Y342794D01*
X383007Y342584D01*
X382857Y342378D01*
X382733Y342177D01*
X382636Y341979D01*
X386752Y341979D01*
X386752Y341122D01*
G37*
G36*
X530200Y341010D02*
X529871Y341026D01*
X529562Y341075D01*
X529275Y341156D01*
X529009Y341269D01*
X528764Y341415D01*
X528540Y341593D01*
X528338Y341803D01*
X528156Y342046D01*
X527996Y342320D01*
X527857Y342623D01*
X527740Y342957D01*
X527644Y343320D01*
X527569Y343713D01*
X527516Y344135D01*
X527484Y344588D01*
X527473Y345070D01*
X527483Y345562D01*
X527514Y346023D01*
X527566Y346451D01*
X527639Y346848D01*
X527732Y347213D01*
X527846Y347546D01*
X527981Y347847D01*
X528137Y348116D01*
X528315Y348354D01*
X528517Y348560D01*
X528743Y348734D01*
X528993Y348877D01*
X529267Y348987D01*
X529565Y349067D01*
X529887Y349114D01*
X530234Y349130D01*
X530571Y349114D01*
X530885Y349066D01*
X531177Y348986D01*
X531445Y348874D01*
X531691Y348730D01*
X531914Y348554D01*
X532114Y348345D01*
X532292Y348105D01*
X532447Y347834D01*
X532582Y347531D01*
X532696Y347198D01*
X532789Y346834D01*
X532862Y346439D01*
X532914Y346014D01*
X532945Y345557D01*
X532955Y345070D01*
X532944Y344590D01*
X532912Y344140D01*
X532857Y343719D01*
X532781Y343327D01*
X532683Y342964D01*
X532563Y342631D01*
X532422Y342327D01*
X532258Y342052D01*
X532074Y341807D01*
X531868Y341596D01*
X531642Y341417D01*
X531395Y341270D01*
X531127Y341156D01*
X530839Y341075D01*
X530530Y341026D01*
X530200Y341010D01*
G37*
%LPC*%
G36*
X530211Y341833D02*
X530427Y341846D01*
X530627Y341883D01*
X530812Y341945D01*
X530983Y342032D01*
X531138Y342144D01*
X531279Y342280D01*
X531405Y342442D01*
X531516Y342628D01*
X531613Y342840D01*
X531697Y343079D01*
X531769Y343344D01*
X531827Y343636D01*
X531872Y343955D01*
X531905Y344300D01*
X531924Y344672D01*
X531931Y345070D01*
X531924Y345482D01*
X531906Y345865D01*
X531875Y346219D01*
X531832Y346543D01*
X531776Y346837D01*
X531709Y347103D01*
X531628Y347339D01*
X531536Y347545D01*
X531429Y347725D01*
X531306Y347881D01*
X531168Y348013D01*
X531013Y348121D01*
X530842Y348204D01*
X530655Y348264D01*
X530453Y348300D01*
X530234Y348312D01*
X530010Y348301D01*
X529802Y348265D01*
X529610Y348206D01*
X529435Y348123D01*
X529276Y348017D01*
X529134Y347887D01*
X529008Y347734D01*
X528898Y347556D01*
X528803Y347352D01*
X528721Y347117D01*
X528651Y346852D01*
X528594Y346557D01*
X528549Y346231D01*
X528518Y345874D01*
X528499Y345487D01*
X528492Y345070D01*
X528499Y344664D01*
X528518Y344286D01*
X528550Y343937D01*
X528595Y343615D01*
X528653Y343322D01*
X528724Y343057D01*
X528807Y342820D01*
X528904Y342612D01*
X529014Y342429D01*
X529140Y342271D01*
X529281Y342137D01*
X529436Y342028D01*
X529608Y341943D01*
X529794Y341882D01*
X529995Y341845D01*
X530211Y341833D01*
G37*
%LPD*%
G36*
X542950Y341010D02*
X542621Y341026D01*
X542312Y341075D01*
X542025Y341156D01*
X541759Y341269D01*
X541514Y341415D01*
X541290Y341593D01*
X541088Y341803D01*
X540906Y342046D01*
X540746Y342320D01*
X540607Y342623D01*
X540490Y342957D01*
X540394Y343320D01*
X540319Y343713D01*
X540266Y344135D01*
X540234Y344588D01*
X540223Y345070D01*
X540233Y345562D01*
X540264Y346023D01*
X540316Y346451D01*
X540389Y346848D01*
X540482Y347213D01*
X540596Y347546D01*
X540731Y347847D01*
X540887Y348116D01*
X541065Y348354D01*
X541267Y348560D01*
X541493Y348734D01*
X541743Y348877D01*
X542017Y348987D01*
X542315Y349067D01*
X542637Y349114D01*
X542984Y349130D01*
X543321Y349114D01*
X543635Y349066D01*
X543927Y348986D01*
X544195Y348874D01*
X544441Y348730D01*
X544664Y348554D01*
X544864Y348345D01*
X545042Y348105D01*
X545197Y347834D01*
X545332Y347531D01*
X545446Y347198D01*
X545539Y346834D01*
X545612Y346439D01*
X545664Y346014D01*
X545695Y345557D01*
X545705Y345070D01*
X545694Y344590D01*
X545662Y344140D01*
X545607Y343719D01*
X545531Y343327D01*
X545433Y342964D01*
X545313Y342631D01*
X545172Y342327D01*
X545008Y342052D01*
X544824Y341807D01*
X544618Y341596D01*
X544392Y341417D01*
X544145Y341270D01*
X543877Y341156D01*
X543589Y341075D01*
X543280Y341026D01*
X542950Y341010D01*
G37*
%LPC*%
G36*
X542961Y341833D02*
X543177Y341846D01*
X543377Y341883D01*
X543562Y341945D01*
X543733Y342032D01*
X543888Y342144D01*
X544029Y342280D01*
X544155Y342442D01*
X544266Y342628D01*
X544363Y342840D01*
X544447Y343079D01*
X544519Y343344D01*
X544577Y343636D01*
X544622Y343955D01*
X544655Y344300D01*
X544674Y344672D01*
X544681Y345070D01*
X544674Y345482D01*
X544656Y345865D01*
X544625Y346219D01*
X544582Y346543D01*
X544526Y346837D01*
X544459Y347103D01*
X544378Y347339D01*
X544286Y347545D01*
X544179Y347725D01*
X544056Y347881D01*
X543918Y348013D01*
X543763Y348121D01*
X543592Y348204D01*
X543405Y348264D01*
X543203Y348300D01*
X542984Y348312D01*
X542760Y348301D01*
X542552Y348265D01*
X542360Y348206D01*
X542185Y348123D01*
X542026Y348017D01*
X541884Y347887D01*
X541758Y347734D01*
X541648Y347556D01*
X541553Y347352D01*
X541471Y347117D01*
X541401Y346852D01*
X541344Y346557D01*
X541299Y346231D01*
X541268Y345874D01*
X541249Y345487D01*
X541242Y345070D01*
X541249Y344664D01*
X541268Y344286D01*
X541300Y343937D01*
X541345Y343615D01*
X541403Y343322D01*
X541474Y343057D01*
X541557Y342820D01*
X541654Y342612D01*
X541764Y342429D01*
X541890Y342271D01*
X542031Y342137D01*
X542186Y342028D01*
X542358Y341943D01*
X542544Y341882D01*
X542745Y341845D01*
X542961Y341833D01*
G37*
%LPD*%
G36*
X536497Y341010D02*
X536228Y341018D01*
X535972Y341040D01*
X535729Y341078D01*
X535500Y341130D01*
X535284Y341198D01*
X535081Y341281D01*
X534892Y341379D01*
X534716Y341492D01*
X534554Y341619D01*
X534408Y341759D01*
X534278Y341913D01*
X534163Y342081D01*
X534064Y342262D01*
X533980Y342457D01*
X533912Y342665D01*
X533859Y342886D01*
X534878Y343004D01*
X534974Y342729D01*
X535101Y342492D01*
X535259Y342290D01*
X535448Y342126D01*
X535669Y341998D01*
X535921Y341906D01*
X536204Y341851D01*
X536519Y341833D01*
X536717Y341841D01*
X536903Y341864D01*
X537079Y341902D01*
X537243Y341956D01*
X537396Y342025D01*
X537539Y342109D01*
X537670Y342208D01*
X537790Y342323D01*
X537898Y342451D01*
X537991Y342591D01*
X538070Y342742D01*
X538135Y342905D01*
X538185Y343079D01*
X538221Y343265D01*
X538242Y343462D01*
X538250Y343670D01*
X538242Y343852D01*
X538221Y344025D01*
X538185Y344188D01*
X538134Y344343D01*
X538069Y344489D01*
X537990Y344627D01*
X537896Y344755D01*
X537788Y344874D01*
X537667Y344982D01*
X537536Y345075D01*
X537396Y345154D01*
X537245Y345218D01*
X537084Y345269D01*
X536913Y345304D01*
X536733Y345326D01*
X536542Y345333D01*
X536341Y345325D01*
X536147Y345301D01*
X535960Y345261D01*
X535780Y345204D01*
X535604Y345129D01*
X535427Y345031D01*
X535251Y344910D01*
X535074Y344768D01*
X534089Y344768D01*
X534352Y349012D01*
X538838Y349012D01*
X538838Y348156D01*
X535270Y348156D01*
X535119Y345652D01*
X535288Y345771D01*
X535467Y345873D01*
X535655Y345960D01*
X535854Y346030D01*
X536063Y346086D01*
X536282Y346125D01*
X536510Y346149D01*
X536749Y346156D01*
X537033Y346146D01*
X537302Y346114D01*
X537556Y346060D01*
X537795Y345986D01*
X538020Y345890D01*
X538230Y345772D01*
X538425Y345633D01*
X538605Y345473D01*
X538767Y345296D01*
X538908Y345106D01*
X539027Y344903D01*
X539124Y344686D01*
X539200Y344457D01*
X539254Y344215D01*
X539286Y343960D01*
X539297Y343692D01*
X539285Y343389D01*
X539250Y343101D01*
X539192Y342831D01*
X539111Y342577D01*
X539007Y342339D01*
X538879Y342118D01*
X538729Y341914D01*
X538555Y341727D01*
X538360Y341559D01*
X538148Y341413D01*
X537918Y341290D01*
X537669Y341189D01*
X537403Y341111D01*
X537119Y341055D01*
X536817Y341021D01*
X536497Y341010D01*
G37*
G36*
X526452Y341122D02*
X521227Y341122D01*
X521227Y341833D01*
X521377Y342151D01*
X521544Y342450D01*
X521726Y342729D01*
X521924Y342990D01*
X522346Y343467D01*
X522789Y343897D01*
X523241Y344288D01*
X523688Y344650D01*
X524111Y344997D01*
X524492Y345344D01*
X524816Y345700D01*
X524952Y345884D01*
X525071Y346072D01*
X525168Y346269D01*
X525237Y346478D01*
X525279Y346700D01*
X525292Y346935D01*
X525269Y347241D01*
X525197Y347512D01*
X525078Y347745D01*
X524912Y347943D01*
X524703Y348100D01*
X524457Y348212D01*
X524173Y348279D01*
X523853Y348301D01*
X523545Y348279D01*
X523266Y348214D01*
X523015Y348104D01*
X522792Y347951D01*
X522605Y347758D01*
X522461Y347530D01*
X522360Y347267D01*
X522302Y346968D01*
X521272Y347064D01*
X521309Y347294D01*
X521364Y347513D01*
X521437Y347719D01*
X521528Y347913D01*
X521638Y348096D01*
X521766Y348266D01*
X521911Y348424D01*
X522075Y348570D01*
X522254Y348701D01*
X522446Y348815D01*
X522649Y348911D01*
X522865Y348990D01*
X523094Y349051D01*
X523335Y349095D01*
X523588Y349121D01*
X523853Y349130D01*
X524143Y349121D01*
X524415Y349095D01*
X524670Y349051D01*
X524908Y348989D01*
X525129Y348910D01*
X525332Y348813D01*
X525518Y348699D01*
X525687Y348567D01*
X525837Y348419D01*
X525968Y348256D01*
X526078Y348079D01*
X526168Y347886D01*
X526238Y347679D01*
X526288Y347457D01*
X526318Y347220D01*
X526328Y346968D01*
X526315Y346739D01*
X526276Y346511D01*
X526210Y346283D01*
X526118Y346056D01*
X526001Y345829D01*
X525857Y345602D01*
X525688Y345375D01*
X525494Y345148D01*
X525240Y344890D01*
X524891Y344570D01*
X523909Y343743D01*
X523331Y343242D01*
X522884Y342794D01*
X522707Y342584D01*
X522557Y342378D01*
X522433Y342177D01*
X522336Y341979D01*
X526452Y341979D01*
X526452Y341122D01*
G37*
D10*
X338250Y96000D02*
X424550Y96000D01*
X437250Y108700D01*
X437250Y145000D01*
X338250Y145000D02*
X338250Y96000D01*
X338250Y145000D02*
X437250Y145000D01*
X477950Y96000D02*
X564250Y96000D01*
X576950Y108700D01*
X576950Y145000D01*
X477950Y145000D02*
X477950Y96000D01*
X477950Y145000D02*
X576950Y145000D01*
X436450Y285000D02*
X350150Y285000D01*
X337450Y272300D01*
X337450Y236000D01*
X436450Y236000D02*
X436450Y285000D01*
X436450Y236000D02*
X337450Y236000D01*
X489850Y285000D02*
X576150Y285000D01*
X489850Y285000D02*
X477150Y272300D01*
X477150Y236000D01*
X576150Y236000D02*
X576150Y285000D01*
X576150Y236000D02*
X477150Y236000D01*
X178050Y292100D02*
X178050Y88900D01*
X-6350Y88900D01*
X-41950Y88900D01*
X-41950Y292100D01*
X-6350Y292100D01*
X178050Y292100D01*
X-6350Y292100D02*
X-6350Y88900D01*
D11*
X150250Y301500D02*
X150252Y301589D01*
X150258Y301678D01*
X150268Y301767D01*
X150282Y301855D01*
X150299Y301942D01*
X150321Y302028D01*
X150347Y302114D01*
X150376Y302198D01*
X150409Y302281D01*
X150445Y302362D01*
X150486Y302442D01*
X150529Y302519D01*
X150576Y302595D01*
X150627Y302668D01*
X150680Y302739D01*
X150737Y302808D01*
X150797Y302874D01*
X150860Y302938D01*
X150925Y302998D01*
X150993Y303056D01*
X151064Y303110D01*
X151137Y303161D01*
X151212Y303209D01*
X151289Y303254D01*
X151368Y303295D01*
X151449Y303332D01*
X151531Y303366D01*
X151615Y303397D01*
X151700Y303423D01*
X151786Y303446D01*
X151873Y303464D01*
X151961Y303479D01*
X152050Y303490D01*
X152139Y303497D01*
X152228Y303500D01*
X152317Y303499D01*
X152406Y303494D01*
X152494Y303485D01*
X152583Y303472D01*
X152670Y303455D01*
X152757Y303435D01*
X152843Y303410D01*
X152927Y303382D01*
X153010Y303350D01*
X153092Y303314D01*
X153172Y303275D01*
X153250Y303232D01*
X153326Y303186D01*
X153400Y303136D01*
X153472Y303083D01*
X153541Y303027D01*
X153608Y302968D01*
X153672Y302906D01*
X153733Y302842D01*
X153792Y302774D01*
X153847Y302704D01*
X153899Y302632D01*
X153948Y302557D01*
X153993Y302481D01*
X154035Y302402D01*
X154073Y302322D01*
X154108Y302240D01*
X154139Y302156D01*
X154167Y302071D01*
X154190Y301985D01*
X154210Y301898D01*
X154226Y301811D01*
X154238Y301722D01*
X154246Y301634D01*
X154250Y301545D01*
X154250Y301455D01*
X154246Y301366D01*
X154238Y301278D01*
X154226Y301189D01*
X154210Y301102D01*
X154190Y301015D01*
X154167Y300929D01*
X154139Y300844D01*
X154108Y300760D01*
X154073Y300678D01*
X154035Y300598D01*
X153993Y300519D01*
X153948Y300443D01*
X153899Y300368D01*
X153847Y300296D01*
X153792Y300226D01*
X153733Y300158D01*
X153672Y300094D01*
X153608Y300032D01*
X153541Y299973D01*
X153472Y299917D01*
X153400Y299864D01*
X153326Y299814D01*
X153250Y299768D01*
X153172Y299725D01*
X153092Y299686D01*
X153010Y299650D01*
X152927Y299618D01*
X152843Y299590D01*
X152757Y299565D01*
X152670Y299545D01*
X152583Y299528D01*
X152494Y299515D01*
X152406Y299506D01*
X152317Y299501D01*
X152228Y299500D01*
X152139Y299503D01*
X152050Y299510D01*
X151961Y299521D01*
X151873Y299536D01*
X151786Y299554D01*
X151700Y299577D01*
X151615Y299603D01*
X151531Y299634D01*
X151449Y299668D01*
X151368Y299705D01*
X151289Y299746D01*
X151212Y299791D01*
X151137Y299839D01*
X151064Y299890D01*
X150993Y299944D01*
X150925Y300002D01*
X150860Y300062D01*
X150797Y300126D01*
X150737Y300192D01*
X150680Y300261D01*
X150627Y300332D01*
X150576Y300405D01*
X150529Y300481D01*
X150486Y300558D01*
X150445Y300638D01*
X150409Y300719D01*
X150376Y300802D01*
X150347Y300886D01*
X150321Y300972D01*
X150299Y301058D01*
X150282Y301145D01*
X150268Y301233D01*
X150258Y301322D01*
X150252Y301411D01*
X150250Y301500D01*
D12*
X361950Y50800D02*
X374650Y50800D01*
X361950Y50800D02*
X355600Y57150D01*
X355600Y69850D01*
X361950Y76200D01*
X381000Y69850D02*
X381000Y57150D01*
X374650Y50800D01*
X381000Y69850D02*
X374650Y76200D01*
X361950Y76200D01*
X355600Y57150D02*
X349250Y50800D01*
X336550Y50800D01*
X330200Y57150D01*
X330200Y69850D01*
X336550Y76200D01*
X349250Y76200D01*
X355600Y69850D01*
X234950Y50800D02*
X222250Y50800D01*
X215900Y57150D01*
X215900Y69850D01*
X222250Y76200D01*
X241300Y69850D02*
X241300Y57150D01*
X234950Y50800D01*
X241300Y69850D02*
X234950Y76200D01*
X222250Y76200D01*
X215900Y57150D02*
X209550Y50800D01*
X196850Y50800D01*
X190500Y57150D01*
X190500Y69850D01*
X196850Y76200D01*
X209550Y76200D01*
X215900Y69850D01*
X501650Y50800D02*
X514350Y50800D01*
X501650Y50800D02*
X495300Y57150D01*
X495300Y69850D01*
X501650Y76200D01*
X520700Y69850D02*
X520700Y57150D01*
X514350Y50800D01*
X520700Y69850D02*
X514350Y76200D01*
X501650Y76200D01*
X495300Y57150D02*
X488950Y50800D01*
X476250Y50800D01*
X469900Y57150D01*
X469900Y69850D01*
X476250Y76200D01*
X488950Y76200D01*
X495300Y69850D01*
X234950Y304800D02*
X222250Y304800D01*
X215900Y311150D01*
X215900Y323850D01*
X222250Y330200D01*
X241300Y323850D02*
X241300Y311150D01*
X234950Y304800D01*
X241300Y323850D02*
X234950Y330200D01*
X222250Y330200D01*
X215900Y311150D02*
X209550Y304800D01*
X196850Y304800D01*
X190500Y311150D01*
X190500Y323850D01*
X196850Y330200D01*
X209550Y330200D01*
X215900Y323850D01*
X361950Y304800D02*
X374650Y304800D01*
X361950Y304800D02*
X355600Y311150D01*
X355600Y323850D01*
X361950Y330200D01*
X381000Y323850D02*
X381000Y311150D01*
X374650Y304800D01*
X381000Y323850D02*
X374650Y330200D01*
X361950Y330200D01*
X355600Y311150D02*
X349250Y304800D01*
X336550Y304800D01*
X330200Y311150D01*
X330200Y323850D01*
X336550Y330200D01*
X349250Y330200D01*
X355600Y323850D01*
X501650Y304800D02*
X514350Y304800D01*
X501650Y304800D02*
X495300Y311150D01*
X495300Y323850D01*
X501650Y330200D01*
X520700Y323850D02*
X520700Y311150D01*
X514350Y304800D01*
X520700Y323850D02*
X514350Y330200D01*
X501650Y330200D01*
X495300Y311150D02*
X488950Y304800D01*
X476250Y304800D01*
X469900Y311150D01*
X469900Y323850D01*
X476250Y330200D01*
X488950Y330200D01*
X495300Y323850D01*
D10*
X591300Y239600D02*
X591300Y153300D01*
X604000Y140600D01*
X640300Y140600D01*
X640300Y239600D02*
X591300Y239600D01*
X640300Y239600D02*
X640300Y140600D01*
X284850Y96000D02*
X198550Y96000D01*
X284850Y96000D02*
X297550Y108700D01*
X297550Y145000D01*
X198550Y145000D02*
X198550Y96000D01*
X198550Y145000D02*
X297550Y145000D01*
X296750Y285000D02*
X210450Y285000D01*
X197750Y272300D01*
X197750Y236000D01*
X296750Y236000D02*
X296750Y285000D01*
X296750Y236000D02*
X197750Y236000D01*
D13*
X277750Y11351D02*
X298849Y11351D01*
X298849Y26749D01*
X277750Y26749D01*
X417450Y11351D02*
X438549Y11351D01*
X438549Y26749D01*
X417450Y26749D01*
X557150Y11351D02*
X578249Y11351D01*
X578249Y26749D01*
X557150Y26749D01*
X298849Y354251D02*
X277750Y354251D01*
X298849Y354251D02*
X298849Y369649D01*
X277750Y369649D01*
X417450Y354251D02*
X438549Y354251D01*
X438549Y369649D01*
X417450Y369649D01*
X557150Y354251D02*
X578249Y354251D01*
X578249Y369649D01*
X557150Y369649D01*
D10*
X262500Y11041D02*
X245500Y11041D01*
X245500Y27059D02*
X262500Y27059D01*
X385200Y11041D02*
X402200Y11041D01*
X402200Y27059D02*
X385200Y27059D01*
X524900Y11041D02*
X541900Y11041D01*
X541900Y27059D02*
X524900Y27059D01*
X262500Y353941D02*
X245500Y353941D01*
X245500Y369959D02*
X262500Y369959D01*
X385200Y353941D02*
X402200Y353941D01*
X402200Y369959D02*
X385200Y369959D01*
X524900Y353941D02*
X541900Y353941D01*
X541900Y369959D02*
X524900Y369959D01*
M02*
