G04 EAGLE Gerber RS-274X export*
G75*
%MOMM*%
%FSLAX34Y34*%
%LPD*%
%INSoldermask Bottom*%
%IPPOS*%
%AMOC8*
5,1,8,0,0,1.08239X$1,22.5*%
G01*
G04 Define Apertures*
%ADD10C,3.127000*%
%ADD11C,1.407000*%
%ADD12C,2.527000*%
%ADD13C,1.651000*%
%ADD14C,0.731000*%
D10*
X50800Y44450D03*
X615950Y44450D03*
X50800Y336550D03*
X615950Y336550D03*
D11*
X362750Y120700D02*
X362750Y107900D01*
X387750Y107900D02*
X387750Y120700D01*
X412750Y120700D02*
X412750Y107900D01*
X502450Y107900D02*
X502450Y120700D01*
X527450Y120700D02*
X527450Y107900D01*
X552450Y107900D02*
X552450Y120700D01*
X411950Y260300D02*
X411950Y273100D01*
X386950Y273100D02*
X386950Y260300D01*
X361950Y260300D02*
X361950Y273100D01*
X551650Y273100D02*
X551650Y260300D01*
X526650Y260300D02*
X526650Y273100D01*
X501650Y273100D02*
X501650Y260300D01*
D12*
X158050Y241300D02*
X134050Y241300D01*
X56450Y241300D02*
X32450Y241300D01*
X134050Y139700D02*
X158050Y139700D01*
X56450Y139700D02*
X32450Y139700D01*
D13*
X368300Y71120D02*
X368300Y55880D01*
X342900Y55880D02*
X342900Y71120D01*
X228600Y71120D02*
X228600Y55880D01*
X203200Y55880D02*
X203200Y71120D01*
X508000Y71120D02*
X508000Y55880D01*
X482600Y55880D02*
X482600Y71120D01*
X228600Y309880D02*
X228600Y325120D01*
X203200Y325120D02*
X203200Y309880D01*
X368300Y309880D02*
X368300Y325120D01*
X342900Y325120D02*
X342900Y309880D01*
X508000Y309880D02*
X508000Y325120D01*
X482600Y325120D02*
X482600Y309880D01*
D11*
X603200Y215100D02*
X616000Y215100D01*
X616000Y190100D02*
X603200Y190100D01*
X603200Y165100D02*
X616000Y165100D01*
X223050Y120700D02*
X223050Y107900D01*
X248050Y107900D02*
X248050Y120700D01*
X273050Y120700D02*
X273050Y107900D01*
X272250Y260300D02*
X272250Y273100D01*
X247250Y273100D02*
X247250Y260300D01*
X222250Y260300D02*
X222250Y273100D01*
D14*
X228600Y31750D03*
X508000Y31750D03*
X368300Y31750D03*
X228600Y349786D03*
X508000Y349250D03*
X368300Y349250D03*
M02*
