M48
;GenerationSoftware,Autodesk,EAGLE,9.7.0*%
;CreationDate,2025-06-04T17:09:07Z*%
FMAT,2
ICI,OFF
METRIC,TZ,000.000
T3C0.350
T2C1.016
T1C3.251
%
G90
M71
T1
X16637Y11557
X34417Y72517
X34417Y11557
X16637Y72517
T2
X3937Y64262
X14137Y66167
X14137Y63627
X14137Y61087
X14137Y58547
X14137Y56007
X14137Y53467
X14137Y50927
X14137Y48387
X14137Y45847
X14137Y43307
X14137Y40767
X14137Y38227
X14137Y35687
X14137Y33147
X14137Y30607
X14137Y28067
X14137Y25527
X14137Y22987
X14137Y20447
X14137Y17907
X36997Y66167
X36997Y63627
X36997Y61087
X36997Y58547
X36997Y56007
X36997Y53467
X36997Y50927
X36997Y48387
X36997Y45847
X36997Y43307
X36997Y40767
X36997Y38227
X36997Y35687
X36997Y33147
X36997Y30607
X36997Y28067
X36997Y25527
X36997Y22987
X36997Y20447
X36997Y17907
X3937Y39497
X3937Y36957
X3937Y34417
X3937Y31877
X3937Y29337
X3937Y26797
X3937Y24257
X3937Y21717
X3937Y19177
X3937Y16637
X3937Y14097
X3937Y11557
X46990Y39624
X46990Y37084
X46990Y34544
X46990Y32004
X46990Y29464
X46990Y26924
X46990Y24384
X46990Y21844
X46990Y19304
X46990Y16764
X46990Y14224
X46990Y11684
X3937Y71882
X3937Y69342
X3937Y66802
X3937Y61722
X3937Y59182
X3937Y56642
X3937Y54102
X3937Y51562
X3937Y49022
X3937Y46482
X3937Y43942
X46914Y71882
X46914Y69342
X46914Y66802
X46914Y64262
X46914Y61722
X46914Y59182
X46914Y56642
X46914Y54102
X46914Y51562
X46914Y49022
X46914Y46482
X46914Y43942
X1905Y82779
X4445Y82779
X6985Y82779
X9525Y82779
X12065Y82779
X14605Y82779
X17145Y82779
X19685Y82779
X22225Y82779
X24765Y82779
X27305Y82779
X29845Y82779
X20955Y88265
X23495Y88265
X26035Y88265
X28575Y88265
X31115Y88265
X33655Y88265
X36195Y88265
X38735Y88265
X41275Y88265
X43815Y88265
X46355Y88265
X48895Y88265
T3
X22225Y20320
X29210Y20320
X21590Y46990
X40005Y45085
X40640Y20955
X29210Y51435
X40005Y59690
X32037Y59040
X40005Y76835
X24130Y76200
X21590Y50165
X34290Y42545
X27940Y42545
X27171Y27806
X32852Y28108
X34925Y46355
X31750Y33020
X29210Y33020
X32439Y44396
X19050Y34925
X33020Y37465
X33020Y39237
X29210Y38100
X22225Y29845
X29751Y29751
X32385Y31115
X19050Y31067
X34290Y27940
X43815Y30607
X43180Y86360
X43939Y61595
X43180Y28067
X42545Y84455
X33655Y84455
X43533Y60325
X30480Y34925
X33655Y34925
X30480Y25452
X26670Y25400
X26670Y34544
X38735Y34871
X21590Y24130
X24765Y30480
X33655Y29845
X17159Y24130
X30601Y29845
X27940Y33020
X34973Y33655
X24192Y32958
X25400Y6350
X6985Y6350
X6985Y21590
X29210Y8255
X7620Y8255
X7620Y19050
X8255Y13970
X8255Y16510
X24819Y13970
X16510Y14605
X20414Y9431
X24765Y23495
X20955Y20955
X27940Y34290
X22225Y56567
X20320Y5080
X6350Y5080
X31750Y30480
X29210Y34290
X26670Y18415
X30480Y15240
X34925Y14678
X29845Y13970
X10160Y28575
X10160Y64135
X18415Y28648
X9525Y41910
X9525Y66675
X33020Y39994
X17145Y34925
X6350Y34925
X6985Y37465
X6985Y53975
X20955Y38046
X24765Y39370
X7620Y39370
X7620Y51435
X20955Y39370
X8255Y40005
X8255Y48895
X17091Y46990
X21496Y44544
X42545Y66675
X33114Y44978
X43126Y44450
X42545Y29210
X41910Y64135
X19685Y28648
X24765Y57150
X21590Y54610
X27977Y50710
X30480Y49584
X34290Y52016
X45206Y52972
X30480Y52070
X44450Y52070
X24130Y40640
X8890Y41275
X10795Y29210
X10160Y79375
X6985Y79375
X27940Y28682
X22225Y71205
X24130Y71120
X20955Y80645
X27940Y85725
X36830Y67945
X34925Y67945
X29845Y69215
X38735Y69215
X21590Y75565
X41910Y75638
X25400Y74930
X43815Y74930
X46990Y78740
X29210Y78740
X25400Y78740
X49530Y78105
X19685Y50800
X19685Y42545
X22225Y42545
X24130Y42545
X18461Y38146
X20199Y38106
X18415Y50800
X22225Y49530
X23495Y49530
X27940Y49530
X29210Y49530
X31750Y50165
X33020Y50165
X18415Y59055
X19685Y59055
X28575Y59055
X21590Y59055
X22860Y59055
X15875Y59464
X33020Y43815
X31750Y64135
X33655Y64135
X22860Y73660
X31750Y73660
X24130Y73660
X31750Y76200
X27940Y76200
X26670Y76200
X40005Y29845
X18415Y40005
X39370Y46990
X24130Y46990
X39370Y57150
X18415Y61595
X39370Y19050
X23495Y18415
X33133Y58980
X33114Y61501
X16078Y39917
X20320Y27940
X19685Y7620
X26670Y7620
X16510Y52070
X19685Y52070
X16510Y64135
X29210Y63500
X16510Y28067
X20320Y36830
X22225Y37465
X16522Y56515
X16510Y19685
X27940Y19685
X25781Y37465
X23495Y37465
X26035Y51435
X27940Y52070
X26035Y62230
X21590Y62865
X20955Y76200
X22860Y76200
X23589Y62324
X25454Y19685
X32385Y14605
X41275Y13970
X24130Y6985
X32385Y6985
X19685Y40005
X29845Y39370
X41275Y62230
X19685Y63500
X41275Y74295
X33020Y33020
X26670Y74295
X41856Y24765
X41856Y39370
X11430Y15875
X18415Y15875
X19685Y15875
X11430Y8890
X26670Y8890
X22860Y8890
X27940Y8890
X12065Y21590
X23495Y20955
X31750Y20955
X33020Y20955
X12065Y15240
X27940Y15875
X29210Y15875
X22192Y21109
X17145Y32968
X17780Y23495
X27305Y19050
X21590Y11430
X17097Y42545
X26670Y43180
X26670Y52070
X17145Y54610
X17145Y66675
X26670Y66675
X21590Y78740
X26670Y33201
X18415Y20272
X10160Y20320
X10160Y16510
X33020Y15875
X40640Y15875
X40640Y47625
X33020Y46990
X40640Y55245
X17780Y55245
X40640Y64770
X27940Y64135
X40640Y69850
X28575Y70485
X22225Y18415
M30