G04 EAGLE Gerber RS-274X export*
G75*
%MOMM*%
%FSLAX34Y34*%
%LPD*%
%INBottom Copper*%
%IPPOS*%
%AMOC8*
5,1,8,0,0,1.08239X$1,22.5*%
G01*
G04 Define Apertures*
%ADD10C,1.524000*%
%ADD11C,0.254000*%
%ADD12C,0.604000*%
G36*
X495035Y11531D02*
X494540Y11430D01*
X12700Y11430D01*
X12242Y11515D01*
X11816Y11788D01*
X11531Y12205D01*
X11430Y12700D01*
X11430Y810425D01*
X11512Y810873D01*
X11781Y811301D01*
X12195Y811590D01*
X12690Y811695D01*
X13186Y811598D01*
X17029Y810006D01*
X17780Y810006D01*
X17780Y845566D01*
X17029Y845566D01*
X13186Y843974D01*
X12740Y843878D01*
X12242Y843963D01*
X11816Y844235D01*
X11531Y844652D01*
X11430Y845147D01*
X11430Y904240D01*
X11515Y904698D01*
X11788Y905124D01*
X12205Y905409D01*
X12700Y905510D01*
X494540Y905510D01*
X494998Y905425D01*
X495424Y905152D01*
X495709Y904735D01*
X495810Y904240D01*
X495810Y899227D01*
X495728Y898778D01*
X495459Y898350D01*
X495045Y898061D01*
X494550Y897957D01*
X494054Y898053D01*
X490769Y899414D01*
X487131Y899414D01*
X483770Y898022D01*
X481198Y895450D01*
X479806Y892089D01*
X479806Y873211D01*
X481198Y869850D01*
X483770Y867278D01*
X487131Y865886D01*
X490769Y865886D01*
X494054Y867247D01*
X494500Y867343D01*
X494998Y867258D01*
X495424Y866986D01*
X495709Y866569D01*
X495810Y866073D01*
X495810Y786864D01*
X495725Y786406D01*
X495452Y785980D01*
X495035Y785695D01*
X494540Y785594D01*
X493418Y785594D01*
X492040Y784216D01*
X491637Y783945D01*
X491142Y783844D01*
X475714Y783844D01*
X475256Y783929D01*
X474830Y784202D01*
X474545Y784619D01*
X474444Y785114D01*
X474444Y789282D01*
X471782Y791944D01*
X468018Y791944D01*
X466640Y790566D01*
X466237Y790295D01*
X465742Y790194D01*
X296258Y790194D01*
X295782Y790287D01*
X295360Y790566D01*
X293982Y791944D01*
X290218Y791944D01*
X287556Y789282D01*
X287556Y786261D01*
X287478Y785823D01*
X287212Y785392D01*
X286800Y785100D01*
X286306Y784992D01*
X285809Y785084D01*
X285388Y785363D01*
X280557Y790194D01*
X258158Y790194D01*
X257682Y790287D01*
X257260Y790566D01*
X255882Y791944D01*
X252118Y791944D01*
X249456Y789282D01*
X249456Y785518D01*
X252118Y782856D01*
X255882Y782856D01*
X257260Y784234D01*
X257663Y784505D01*
X258158Y784606D01*
X277717Y784606D01*
X278193Y784513D01*
X278615Y784234D01*
X284593Y778256D01*
X491142Y778256D01*
X491618Y778163D01*
X492040Y777884D01*
X493418Y776506D01*
X494540Y776506D01*
X494998Y776421D01*
X495424Y776148D01*
X495709Y775731D01*
X495810Y775236D01*
X495810Y12700D01*
X495725Y12242D01*
X495452Y11816D01*
X495035Y11531D01*
G37*
%LPC*%
G36*
X199390Y883920D02*
X208280Y883920D01*
X208280Y900430D01*
X207529Y900430D01*
X203795Y898883D01*
X200937Y896025D01*
X199390Y892291D01*
X199390Y883920D01*
G37*
G36*
X210820Y883920D02*
X219710Y883920D01*
X219710Y892291D01*
X218163Y896025D01*
X215305Y898883D01*
X211571Y900430D01*
X210820Y900430D01*
X210820Y883920D01*
G37*
G36*
X461731Y865886D02*
X465369Y865886D01*
X468730Y867278D01*
X471302Y869850D01*
X472694Y873211D01*
X472694Y892089D01*
X471302Y895450D01*
X468730Y898022D01*
X465369Y899414D01*
X461731Y899414D01*
X458370Y898022D01*
X455798Y895450D01*
X454406Y892089D01*
X454406Y873211D01*
X455798Y869850D01*
X458370Y867278D01*
X461731Y865886D01*
G37*
G36*
X207668Y801906D02*
X211432Y801906D01*
X212810Y803284D01*
X213213Y803555D01*
X213708Y803656D01*
X242457Y803656D01*
X249895Y811094D01*
X250307Y811369D01*
X252830Y812414D01*
X255402Y814986D01*
X256794Y818347D01*
X256794Y837225D01*
X255402Y840586D01*
X255130Y840858D01*
X254875Y841224D01*
X254758Y841716D01*
X254843Y842214D01*
X255115Y842640D01*
X255532Y842925D01*
X256028Y843026D01*
X264672Y843026D01*
X265111Y842948D01*
X265541Y842682D01*
X265834Y842270D01*
X265942Y841776D01*
X265850Y841279D01*
X265570Y840858D01*
X265298Y840586D01*
X263906Y837225D01*
X263906Y818347D01*
X265298Y814986D01*
X267870Y812414D01*
X271231Y811022D01*
X274869Y811022D01*
X278230Y812414D01*
X280802Y814986D01*
X282194Y818347D01*
X282194Y837225D01*
X280802Y840586D01*
X280530Y840858D01*
X280275Y841224D01*
X280158Y841716D01*
X280243Y842214D01*
X280515Y842640D01*
X280932Y842925D01*
X281428Y843026D01*
X290072Y843026D01*
X290511Y842948D01*
X290941Y842682D01*
X291234Y842270D01*
X291342Y841776D01*
X291250Y841279D01*
X290970Y840858D01*
X290698Y840586D01*
X289306Y837225D01*
X289306Y818347D01*
X290698Y814986D01*
X293270Y812414D01*
X296631Y811022D01*
X300269Y811022D01*
X303630Y812414D01*
X306202Y814986D01*
X307594Y818347D01*
X307594Y837225D01*
X306202Y840586D01*
X305930Y840858D01*
X305675Y841224D01*
X305558Y841716D01*
X305643Y842214D01*
X305915Y842640D01*
X306332Y842925D01*
X306828Y843026D01*
X331122Y843026D01*
X331598Y842933D01*
X332020Y842654D01*
X334668Y840006D01*
X338432Y840006D01*
X339810Y841384D01*
X340213Y841655D01*
X340708Y841756D01*
X421292Y841756D01*
X421768Y841663D01*
X422190Y841384D01*
X423568Y840006D01*
X427332Y840006D01*
X429994Y842668D01*
X429994Y846432D01*
X427332Y849094D01*
X423568Y849094D01*
X422190Y847716D01*
X421787Y847445D01*
X421292Y847344D01*
X340708Y847344D01*
X340232Y847437D01*
X339810Y847716D01*
X338432Y849094D01*
X334668Y849094D01*
X334560Y848986D01*
X334157Y848715D01*
X333662Y848614D01*
X322231Y848614D01*
X321793Y848692D01*
X321362Y848958D01*
X321070Y849370D01*
X320962Y849864D01*
X321054Y850361D01*
X321333Y850782D01*
X330985Y860434D01*
X331388Y860705D01*
X331883Y860806D01*
X427642Y860806D01*
X428118Y860713D01*
X428540Y860434D01*
X429918Y859056D01*
X433682Y859056D01*
X436344Y861718D01*
X436344Y864616D01*
X436429Y865074D01*
X436702Y865500D01*
X437119Y865785D01*
X437614Y865886D01*
X439969Y865886D01*
X443330Y867278D01*
X445902Y869850D01*
X447294Y873211D01*
X447294Y892089D01*
X445902Y895450D01*
X443330Y898022D01*
X439969Y899414D01*
X436331Y899414D01*
X432970Y898022D01*
X430398Y895450D01*
X429006Y892089D01*
X429006Y873211D01*
X430432Y869767D01*
X430529Y869302D01*
X430436Y868805D01*
X430157Y868383D01*
X428540Y866766D01*
X428137Y866495D01*
X427642Y866394D01*
X420112Y866394D01*
X419673Y866472D01*
X419243Y866738D01*
X418950Y867150D01*
X418842Y867644D01*
X418934Y868141D01*
X419214Y868562D01*
X420502Y869850D01*
X421894Y873211D01*
X421894Y892089D01*
X420502Y895450D01*
X417930Y898022D01*
X414569Y899414D01*
X410931Y899414D01*
X407570Y898022D01*
X404998Y895450D01*
X403606Y892089D01*
X403606Y873211D01*
X404998Y869850D01*
X406286Y868562D01*
X406541Y868196D01*
X406658Y867704D01*
X406573Y867206D01*
X406301Y866780D01*
X405884Y866495D01*
X405388Y866394D01*
X394712Y866394D01*
X394273Y866472D01*
X393843Y866738D01*
X393550Y867150D01*
X393442Y867644D01*
X393534Y868141D01*
X393814Y868562D01*
X395102Y869850D01*
X396494Y873211D01*
X396494Y892089D01*
X395102Y895450D01*
X392530Y898022D01*
X389169Y899414D01*
X385531Y899414D01*
X382170Y898022D01*
X379598Y895450D01*
X378206Y892089D01*
X378206Y873211D01*
X379598Y869850D01*
X380886Y868562D01*
X381141Y868196D01*
X381258Y867704D01*
X381173Y867206D01*
X380901Y866780D01*
X380484Y866495D01*
X379988Y866394D01*
X369312Y866394D01*
X368873Y866472D01*
X368443Y866738D01*
X368150Y867150D01*
X368042Y867644D01*
X368134Y868141D01*
X368414Y868562D01*
X369702Y869850D01*
X371094Y873211D01*
X371094Y892089D01*
X369702Y895450D01*
X367130Y898022D01*
X363769Y899414D01*
X360131Y899414D01*
X356770Y898022D01*
X354198Y895450D01*
X352806Y892089D01*
X352806Y873211D01*
X354198Y869850D01*
X355486Y868562D01*
X355741Y868196D01*
X355858Y867704D01*
X355773Y867206D01*
X355501Y866780D01*
X355084Y866495D01*
X354588Y866394D01*
X343912Y866394D01*
X343473Y866472D01*
X343043Y866738D01*
X342750Y867150D01*
X342642Y867644D01*
X342734Y868141D01*
X343014Y868562D01*
X344302Y869850D01*
X345694Y873211D01*
X345694Y892089D01*
X344302Y895450D01*
X341730Y898022D01*
X338369Y899414D01*
X334731Y899414D01*
X331370Y898022D01*
X328798Y895450D01*
X327406Y892089D01*
X327406Y873211D01*
X328798Y869850D01*
X330086Y868562D01*
X330341Y868196D01*
X330458Y867704D01*
X330373Y867206D01*
X330101Y866780D01*
X329684Y866495D01*
X329188Y866394D01*
X329043Y866394D01*
X324748Y862099D01*
X324364Y861836D01*
X323870Y861728D01*
X323373Y861820D01*
X322952Y862099D01*
X317949Y867102D01*
X317686Y867486D01*
X317578Y867980D01*
X317670Y868477D01*
X317949Y868898D01*
X318902Y869850D01*
X320294Y873211D01*
X320294Y892089D01*
X318902Y895450D01*
X316330Y898022D01*
X312969Y899414D01*
X309331Y899414D01*
X305970Y898022D01*
X303398Y895450D01*
X302006Y892089D01*
X302006Y873211D01*
X303398Y869850D01*
X305970Y867278D01*
X309331Y865886D01*
X310737Y865886D01*
X311213Y865793D01*
X311635Y865514D01*
X319001Y858148D01*
X319264Y857764D01*
X319372Y857270D01*
X319280Y856773D01*
X319001Y856352D01*
X316715Y854066D01*
X316312Y853795D01*
X315817Y853694D01*
X285214Y853694D01*
X284756Y853779D01*
X284330Y854052D01*
X284045Y854469D01*
X283944Y854964D01*
X283944Y859132D01*
X281282Y861794D01*
X277518Y861794D01*
X276140Y860416D01*
X275737Y860145D01*
X275242Y860044D01*
X268383Y860044D01*
X267907Y860137D01*
X267485Y860416D01*
X263516Y864385D01*
X263245Y864788D01*
X263144Y865283D01*
X263144Y865441D01*
X263233Y865909D01*
X263509Y866332D01*
X263928Y866615D01*
X265530Y867278D01*
X268102Y869850D01*
X269494Y873211D01*
X269494Y892089D01*
X268102Y895450D01*
X265530Y898022D01*
X262169Y899414D01*
X258531Y899414D01*
X255170Y898022D01*
X252598Y895450D01*
X251206Y892089D01*
X251206Y873211D01*
X252598Y869850D01*
X255170Y867278D01*
X256772Y866615D01*
X257170Y866354D01*
X257455Y865937D01*
X257556Y865441D01*
X257556Y862443D01*
X264137Y855862D01*
X264392Y855496D01*
X264508Y855004D01*
X264423Y854506D01*
X264151Y854080D01*
X263734Y853795D01*
X263239Y853694D01*
X125843Y853694D01*
X117856Y845707D01*
X117856Y844995D01*
X117767Y844527D01*
X117491Y844104D01*
X117072Y843821D01*
X115470Y843158D01*
X112898Y840586D01*
X111506Y837225D01*
X111506Y818347D01*
X112898Y814986D01*
X115470Y812414D01*
X118831Y811022D01*
X122469Y811022D01*
X125830Y812414D01*
X128402Y814986D01*
X129794Y818347D01*
X129794Y837225D01*
X128402Y840586D01*
X125830Y843158D01*
X125733Y843198D01*
X125350Y843445D01*
X125057Y843857D01*
X124949Y844351D01*
X125042Y844848D01*
X125321Y845269D01*
X127785Y847734D01*
X128188Y848005D01*
X128683Y848106D01*
X159353Y848106D01*
X159792Y848028D01*
X160222Y847762D01*
X160514Y847350D01*
X160622Y846856D01*
X160530Y846359D01*
X160251Y845938D01*
X155248Y840935D01*
X154864Y840672D01*
X154370Y840564D01*
X153874Y840656D01*
X153452Y840935D01*
X151230Y843158D01*
X147869Y844550D01*
X144231Y844550D01*
X140870Y843158D01*
X138298Y840586D01*
X136906Y837225D01*
X136906Y818347D01*
X138298Y814986D01*
X140870Y812414D01*
X144231Y811022D01*
X147869Y811022D01*
X151230Y812414D01*
X153802Y814986D01*
X155194Y818347D01*
X155194Y832453D01*
X155287Y832929D01*
X155566Y833351D01*
X160138Y837923D01*
X160504Y838178D01*
X160996Y838294D01*
X161494Y838209D01*
X161920Y837937D01*
X162205Y837520D01*
X162306Y837025D01*
X162306Y818347D01*
X163698Y814986D01*
X166270Y812414D01*
X169631Y811022D01*
X173269Y811022D01*
X176630Y812414D01*
X179202Y814986D01*
X180594Y818347D01*
X180594Y837225D01*
X179202Y840586D01*
X178930Y840858D01*
X178675Y841224D01*
X178558Y841716D01*
X178643Y842214D01*
X178915Y842640D01*
X179332Y842925D01*
X179828Y843026D01*
X188472Y843026D01*
X188911Y842948D01*
X189341Y842682D01*
X189634Y842270D01*
X189742Y841776D01*
X189650Y841279D01*
X189370Y840858D01*
X189098Y840586D01*
X187706Y837225D01*
X187706Y818347D01*
X189098Y814986D01*
X191670Y812414D01*
X195031Y811022D01*
X198669Y811022D01*
X202030Y812414D01*
X204602Y814986D01*
X205994Y818347D01*
X205994Y837225D01*
X204602Y840586D01*
X204330Y840858D01*
X204075Y841224D01*
X203958Y841716D01*
X204043Y842214D01*
X204315Y842640D01*
X204732Y842925D01*
X205228Y843026D01*
X213872Y843026D01*
X214311Y842948D01*
X214741Y842682D01*
X215034Y842270D01*
X215142Y841776D01*
X215050Y841279D01*
X214770Y840858D01*
X214498Y840586D01*
X213106Y837225D01*
X213106Y818347D01*
X214498Y814986D01*
X217070Y812414D01*
X218825Y811687D01*
X219193Y811454D01*
X219492Y811046D01*
X219608Y810554D01*
X219524Y810056D01*
X219251Y809630D01*
X218834Y809345D01*
X218339Y809244D01*
X213708Y809244D01*
X213232Y809337D01*
X212810Y809616D01*
X211432Y810994D01*
X207668Y810994D01*
X205006Y808332D01*
X205006Y804568D01*
X207668Y801906D01*
G37*
G36*
X283931Y865886D02*
X287569Y865886D01*
X290930Y867278D01*
X293502Y869850D01*
X294894Y873211D01*
X294894Y892089D01*
X293502Y895450D01*
X290930Y898022D01*
X287569Y899414D01*
X283931Y899414D01*
X280570Y898022D01*
X277998Y895450D01*
X276606Y892089D01*
X276606Y873211D01*
X277998Y869850D01*
X280570Y867278D01*
X283931Y865886D01*
G37*
G36*
X233131Y865886D02*
X236769Y865886D01*
X240130Y867278D01*
X242702Y869850D01*
X244094Y873211D01*
X244094Y892089D01*
X242702Y895450D01*
X240130Y898022D01*
X236769Y899414D01*
X233131Y899414D01*
X229770Y898022D01*
X227198Y895450D01*
X225806Y892089D01*
X225806Y873211D01*
X227198Y869850D01*
X229770Y867278D01*
X233131Y865886D01*
G37*
G36*
X210820Y864870D02*
X211571Y864870D01*
X215305Y866417D01*
X218163Y869275D01*
X219710Y873009D01*
X219710Y881380D01*
X210820Y881380D01*
X210820Y864870D01*
G37*
G36*
X207529Y864870D02*
X208280Y864870D01*
X208280Y881380D01*
X199390Y881380D01*
X199390Y873009D01*
X200937Y869275D01*
X203795Y866417D01*
X207529Y864870D01*
G37*
G36*
X20320Y829056D02*
X29210Y829056D01*
X29210Y837427D01*
X27663Y841161D01*
X24805Y844019D01*
X21071Y845566D01*
X20320Y845566D01*
X20320Y829056D01*
G37*
G36*
X93431Y811022D02*
X97069Y811022D01*
X100430Y812414D01*
X103002Y814986D01*
X104394Y818347D01*
X104394Y837225D01*
X103002Y840586D01*
X100430Y843158D01*
X97069Y844550D01*
X93431Y844550D01*
X90070Y843158D01*
X87498Y840586D01*
X86106Y837225D01*
X86106Y818347D01*
X87498Y814986D01*
X90070Y812414D01*
X93431Y811022D01*
G37*
G36*
X68031Y811022D02*
X71669Y811022D01*
X75030Y812414D01*
X77602Y814986D01*
X78994Y818347D01*
X78994Y837225D01*
X77602Y840586D01*
X75030Y843158D01*
X71669Y844550D01*
X68031Y844550D01*
X64670Y843158D01*
X62098Y840586D01*
X60706Y837225D01*
X60706Y818347D01*
X62098Y814986D01*
X64670Y812414D01*
X68031Y811022D01*
G37*
G36*
X42631Y811022D02*
X46269Y811022D01*
X49630Y812414D01*
X52202Y814986D01*
X53594Y818347D01*
X53594Y837225D01*
X52202Y840586D01*
X49630Y843158D01*
X46269Y844550D01*
X42631Y844550D01*
X39270Y843158D01*
X36698Y840586D01*
X35306Y837225D01*
X35306Y818347D01*
X36698Y814986D01*
X39270Y812414D01*
X42631Y811022D01*
G37*
G36*
X20320Y810006D02*
X21071Y810006D01*
X24805Y811553D01*
X27663Y814411D01*
X29210Y818145D01*
X29210Y826516D01*
X20320Y826516D01*
X20320Y810006D01*
G37*
G36*
X67968Y789206D02*
X71732Y789206D01*
X73110Y790584D01*
X73513Y790855D01*
X74008Y790956D01*
X97442Y790956D01*
X97918Y790863D01*
X98340Y790584D01*
X99718Y789206D01*
X103482Y789206D01*
X106144Y791868D01*
X106144Y795632D01*
X103482Y798294D01*
X99718Y798294D01*
X98340Y796916D01*
X97937Y796645D01*
X97442Y796544D01*
X74008Y796544D01*
X73532Y796637D01*
X73110Y796916D01*
X71732Y798294D01*
X67968Y798294D01*
X65306Y795632D01*
X65306Y791868D01*
X67968Y789206D01*
G37*
G36*
X404518Y693956D02*
X408282Y693956D01*
X410944Y696618D01*
X410944Y700382D01*
X408282Y703044D01*
X406333Y703044D01*
X405857Y703137D01*
X405435Y703416D01*
X402223Y706628D01*
X366051Y706628D01*
X365612Y706706D01*
X365182Y706972D01*
X364889Y707384D01*
X364781Y707878D01*
X364873Y708375D01*
X365152Y708796D01*
X365307Y708951D01*
X368785Y714974D01*
X370585Y721692D01*
X370585Y728648D01*
X368785Y735366D01*
X367119Y738251D01*
X366950Y738846D01*
X367034Y739344D01*
X367307Y739770D01*
X367724Y740055D01*
X368219Y740156D01*
X408592Y740156D01*
X409068Y740063D01*
X409490Y739784D01*
X410868Y738406D01*
X414632Y738406D01*
X417294Y741068D01*
X417294Y744832D01*
X416518Y745608D01*
X416263Y745974D01*
X416147Y746466D01*
X416232Y746964D01*
X416504Y747390D01*
X416921Y747675D01*
X417416Y747776D01*
X432722Y747776D01*
X433198Y747683D01*
X433620Y747404D01*
X436268Y744756D01*
X440032Y744756D01*
X442694Y747418D01*
X442694Y751182D01*
X440032Y753844D01*
X436268Y753844D01*
X436160Y753736D01*
X435757Y753465D01*
X435262Y753364D01*
X424914Y753364D01*
X424456Y753449D01*
X424030Y753722D01*
X423745Y754139D01*
X423644Y754634D01*
X423644Y758266D01*
X420982Y760928D01*
X417218Y760928D01*
X415106Y758816D01*
X414703Y758545D01*
X414208Y758444D01*
X323314Y758444D01*
X322856Y758529D01*
X322430Y758802D01*
X322145Y759219D01*
X322044Y759714D01*
X322044Y764286D01*
X322129Y764744D01*
X322402Y765170D01*
X322819Y765455D01*
X323314Y765556D01*
X395892Y765556D01*
X396368Y765463D01*
X396790Y765184D01*
X398168Y763806D01*
X401932Y763806D01*
X404594Y766468D01*
X404594Y770232D01*
X401932Y772894D01*
X398168Y772894D01*
X396790Y771516D01*
X396387Y771245D01*
X395892Y771144D01*
X246493Y771144D01*
X242265Y766916D01*
X241862Y766645D01*
X241367Y766544D01*
X239418Y766544D01*
X236756Y763882D01*
X236756Y759714D01*
X236671Y759256D01*
X236398Y758830D01*
X235981Y758545D01*
X235486Y758444D01*
X234414Y758444D01*
X233956Y758529D01*
X233530Y758802D01*
X233245Y759219D01*
X233144Y759714D01*
X233144Y763882D01*
X230482Y766544D01*
X226718Y766544D01*
X225340Y765166D01*
X224937Y764895D01*
X224442Y764794D01*
X213708Y764794D01*
X213232Y764887D01*
X212810Y765166D01*
X211432Y766544D01*
X207668Y766544D01*
X205006Y763882D01*
X205006Y760118D01*
X207668Y757456D01*
X210086Y757456D01*
X210544Y757371D01*
X210970Y757098D01*
X211255Y756681D01*
X211356Y756186D01*
X211356Y753768D01*
X214018Y751106D01*
X217782Y751106D01*
X219160Y752484D01*
X219563Y752755D01*
X220058Y752856D01*
X248186Y752856D01*
X248644Y752771D01*
X249070Y752498D01*
X249355Y752081D01*
X249456Y751586D01*
X249456Y747418D01*
X252118Y744756D01*
X255882Y744756D01*
X258530Y747404D01*
X258933Y747675D01*
X259428Y747776D01*
X262034Y747776D01*
X262473Y747698D01*
X262903Y747432D01*
X263195Y747020D01*
X263304Y746526D01*
X263211Y746029D01*
X262932Y745608D01*
X262156Y744832D01*
X262156Y740664D01*
X262071Y740206D01*
X261798Y739780D01*
X261381Y739495D01*
X260886Y739394D01*
X245458Y739394D01*
X244982Y739487D01*
X244560Y739766D01*
X243182Y741144D01*
X239418Y741144D01*
X238040Y739766D01*
X237637Y739495D01*
X237142Y739394D01*
X232758Y739394D01*
X232282Y739487D01*
X231860Y739766D01*
X230482Y741144D01*
X226718Y741144D01*
X224056Y738482D01*
X224056Y734718D01*
X226718Y732056D01*
X230482Y732056D01*
X231860Y733434D01*
X232263Y733705D01*
X232758Y733806D01*
X237142Y733806D01*
X237618Y733713D01*
X238040Y733434D01*
X239418Y732056D01*
X243182Y732056D01*
X244560Y733434D01*
X244963Y733705D01*
X245458Y733806D01*
X313342Y733806D01*
X313818Y733713D01*
X314240Y733434D01*
X315618Y732056D01*
X317013Y732056D01*
X317303Y732023D01*
X317762Y731812D01*
X318103Y731438D01*
X318271Y730962D01*
X318240Y730457D01*
X317755Y728648D01*
X317755Y721692D01*
X319555Y714974D01*
X322687Y709549D01*
X322857Y708954D01*
X322772Y708456D01*
X322500Y708030D01*
X322083Y707745D01*
X321588Y707644D01*
X289908Y707644D01*
X289432Y707737D01*
X289010Y708016D01*
X287632Y709394D01*
X283868Y709394D01*
X281206Y706732D01*
X281206Y702968D01*
X283868Y700306D01*
X287632Y700306D01*
X289010Y701684D01*
X289413Y701955D01*
X289908Y702056D01*
X331034Y702056D01*
X331669Y701886D01*
X333974Y700555D01*
X340692Y698755D01*
X347648Y698755D01*
X354366Y700555D01*
X354911Y700870D01*
X355546Y701040D01*
X399383Y701040D01*
X399859Y700947D01*
X400281Y700668D01*
X401484Y699465D01*
X401755Y699062D01*
X401856Y698567D01*
X401856Y696618D01*
X404518Y693956D01*
G37*
G36*
X162892Y698755D02*
X169848Y698755D01*
X176566Y700555D01*
X182589Y704033D01*
X187507Y708951D01*
X190985Y714974D01*
X192785Y721692D01*
X192785Y728648D01*
X190985Y735366D01*
X187507Y741389D01*
X182589Y746307D01*
X176566Y749785D01*
X169848Y751585D01*
X162892Y751585D01*
X156174Y749785D01*
X150151Y746307D01*
X145233Y741389D01*
X141755Y735366D01*
X139955Y728648D01*
X139955Y721692D01*
X141755Y714974D01*
X145233Y708951D01*
X150151Y704033D01*
X156174Y700555D01*
X162892Y698755D01*
G37*
G36*
X21590Y720090D02*
X38100Y720090D01*
X38100Y728980D01*
X29729Y728980D01*
X25995Y727433D01*
X23137Y724575D01*
X21590Y720841D01*
X21590Y720090D01*
G37*
G36*
X40640Y720090D02*
X57150Y720090D01*
X57150Y720841D01*
X55603Y724575D01*
X52745Y727433D01*
X49011Y728980D01*
X40640Y728980D01*
X40640Y720090D01*
G37*
G36*
X470410Y720090D02*
X486920Y720090D01*
X486920Y720841D01*
X485373Y724575D01*
X482515Y727433D01*
X478781Y728980D01*
X470410Y728980D01*
X470410Y720090D01*
G37*
G36*
X451360Y720090D02*
X467870Y720090D01*
X467870Y728980D01*
X459499Y728980D01*
X455765Y727433D01*
X452907Y724575D01*
X451360Y720841D01*
X451360Y720090D01*
G37*
G36*
X470410Y708660D02*
X478781Y708660D01*
X482515Y710207D01*
X485373Y713065D01*
X486920Y716799D01*
X486920Y717550D01*
X470410Y717550D01*
X470410Y708660D01*
G37*
G36*
X459499Y708660D02*
X467870Y708660D01*
X467870Y717550D01*
X451360Y717550D01*
X451360Y716799D01*
X452907Y713065D01*
X455765Y710207D01*
X459499Y708660D01*
G37*
G36*
X40640Y708660D02*
X49011Y708660D01*
X52745Y710207D01*
X55603Y713065D01*
X57150Y716799D01*
X57150Y717550D01*
X40640Y717550D01*
X40640Y708660D01*
G37*
G36*
X29729Y708660D02*
X38100Y708660D01*
X38100Y717550D01*
X21590Y717550D01*
X21590Y716799D01*
X23137Y713065D01*
X25995Y710207D01*
X29729Y708660D01*
G37*
G36*
X239418Y706656D02*
X243182Y706656D01*
X245844Y709318D01*
X245844Y713082D01*
X243182Y715744D01*
X239418Y715744D01*
X238040Y714366D01*
X237637Y714095D01*
X237142Y713994D01*
X227261Y713994D01*
X226784Y714087D01*
X226363Y714366D01*
X224132Y716596D01*
X220368Y716596D01*
X217706Y713935D01*
X217706Y710170D01*
X220368Y707508D01*
X224132Y707508D01*
X224658Y708034D01*
X225061Y708305D01*
X225556Y708406D01*
X237142Y708406D01*
X237618Y708313D01*
X238040Y708034D01*
X239418Y706656D01*
G37*
G36*
X459701Y684276D02*
X478579Y684276D01*
X481940Y685668D01*
X484512Y688240D01*
X485904Y691601D01*
X485904Y695239D01*
X484512Y698600D01*
X481940Y701172D01*
X478579Y702564D01*
X459701Y702564D01*
X456340Y701172D01*
X453768Y698600D01*
X452376Y695239D01*
X452376Y691601D01*
X453768Y688240D01*
X456340Y685668D01*
X459701Y684276D01*
G37*
G36*
X29931Y684276D02*
X48809Y684276D01*
X52170Y685668D01*
X54742Y688240D01*
X56134Y691601D01*
X56134Y695239D01*
X54742Y698600D01*
X52170Y701172D01*
X48809Y702564D01*
X29931Y702564D01*
X26570Y701172D01*
X23998Y698600D01*
X22606Y695239D01*
X22606Y691601D01*
X23998Y688240D01*
X26570Y685668D01*
X29931Y684276D01*
G37*
G36*
X296568Y687606D02*
X300332Y687606D01*
X301710Y688984D01*
X302113Y689255D01*
X302608Y689356D01*
X383192Y689356D01*
X383668Y689263D01*
X384090Y688984D01*
X385468Y687606D01*
X389232Y687606D01*
X391894Y690268D01*
X391894Y694032D01*
X389232Y696694D01*
X385468Y696694D01*
X384090Y695316D01*
X383687Y695045D01*
X383192Y694944D01*
X302608Y694944D01*
X302132Y695037D01*
X301710Y695316D01*
X300332Y696694D01*
X296568Y696694D01*
X293906Y694032D01*
X293906Y690268D01*
X296568Y687606D01*
G37*
G36*
X347368Y674906D02*
X351132Y674906D01*
X352510Y676284D01*
X352913Y676555D01*
X353408Y676656D01*
X364142Y676656D01*
X364618Y676563D01*
X365040Y676284D01*
X366418Y674906D01*
X370182Y674906D01*
X372844Y677568D01*
X372844Y681332D01*
X370182Y683994D01*
X366418Y683994D01*
X365040Y682616D01*
X364637Y682345D01*
X364142Y682244D01*
X353408Y682244D01*
X352932Y682337D01*
X352510Y682616D01*
X351132Y683994D01*
X347368Y683994D01*
X344706Y681332D01*
X344706Y677568D01*
X347368Y674906D01*
G37*
G36*
X459701Y658876D02*
X478579Y658876D01*
X481940Y660268D01*
X484512Y662840D01*
X485904Y666201D01*
X485904Y669839D01*
X484512Y673200D01*
X481940Y675772D01*
X478579Y677164D01*
X459701Y677164D01*
X456340Y675772D01*
X453768Y673200D01*
X453105Y671598D01*
X452844Y671200D01*
X452427Y670915D01*
X451931Y670814D01*
X428338Y670814D01*
X427862Y670907D01*
X427440Y671186D01*
X427332Y671294D01*
X423568Y671294D01*
X420906Y668632D01*
X420906Y664868D01*
X423568Y662206D01*
X427332Y662206D01*
X429980Y664854D01*
X430383Y665125D01*
X430878Y665226D01*
X451931Y665226D01*
X452399Y665137D01*
X452822Y664861D01*
X453105Y664442D01*
X453768Y662840D01*
X456340Y660268D01*
X459701Y658876D01*
G37*
G36*
X29931Y658876D02*
X48809Y658876D01*
X52170Y660268D01*
X54742Y662840D01*
X54879Y663172D01*
X55140Y663570D01*
X55557Y663855D01*
X56053Y663956D01*
X91092Y663956D01*
X91568Y663863D01*
X91990Y663584D01*
X93368Y662206D01*
X97132Y662206D01*
X99794Y664868D01*
X99794Y668632D01*
X97132Y671294D01*
X93368Y671294D01*
X91990Y669916D01*
X91587Y669645D01*
X91092Y669544D01*
X57105Y669544D01*
X56637Y669633D01*
X56214Y669909D01*
X55931Y670328D01*
X54742Y673200D01*
X52170Y675772D01*
X48809Y677164D01*
X29931Y677164D01*
X26570Y675772D01*
X23998Y673200D01*
X22606Y669839D01*
X22606Y666201D01*
X23998Y662840D01*
X26570Y660268D01*
X29931Y658876D01*
G37*
G36*
X131931Y652526D02*
X150809Y652526D01*
X154170Y653918D01*
X156742Y656490D01*
X158134Y659851D01*
X158134Y663489D01*
X156742Y666850D01*
X154170Y669422D01*
X150809Y670814D01*
X131931Y670814D01*
X128570Y669422D01*
X125998Y666850D01*
X124606Y663489D01*
X124606Y659851D01*
X125998Y656490D01*
X128570Y653918D01*
X131931Y652526D01*
G37*
G36*
X360531Y169926D02*
X379409Y169926D01*
X382770Y171318D01*
X385342Y173890D01*
X386734Y177251D01*
X386734Y180889D01*
X385342Y184250D01*
X385070Y184522D01*
X384815Y184888D01*
X384698Y185380D01*
X384783Y185878D01*
X385055Y186304D01*
X385472Y186589D01*
X385968Y186690D01*
X390558Y186690D01*
X391034Y186597D01*
X391456Y186318D01*
X391818Y185956D01*
X395582Y185956D01*
X398244Y188618D01*
X398244Y188976D01*
X398329Y189434D01*
X398602Y189860D01*
X399019Y190145D01*
X399514Y190246D01*
X452691Y190246D01*
X453159Y190157D01*
X453582Y189881D01*
X453865Y189462D01*
X454528Y187860D01*
X457100Y185288D01*
X460461Y183896D01*
X479339Y183896D01*
X482700Y185288D01*
X485272Y187860D01*
X486664Y191221D01*
X486664Y194859D01*
X485272Y198220D01*
X482700Y200792D01*
X479339Y202184D01*
X460461Y202184D01*
X457100Y200792D01*
X454528Y198220D01*
X453865Y196618D01*
X453604Y196220D01*
X453187Y195935D01*
X452691Y195834D01*
X401066Y195834D01*
X400589Y195927D01*
X400168Y196206D01*
X397266Y199108D01*
X390134Y199108D01*
X387740Y196714D01*
X387338Y196443D01*
X386842Y196342D01*
X385460Y196342D01*
X385021Y196420D01*
X384591Y196686D01*
X384298Y197098D01*
X384190Y197592D01*
X384282Y198089D01*
X384562Y198510D01*
X385342Y199290D01*
X386734Y202651D01*
X386734Y206289D01*
X385342Y209650D01*
X385070Y209922D01*
X384815Y210288D01*
X384698Y210780D01*
X384783Y211278D01*
X385055Y211704D01*
X385472Y211989D01*
X385968Y212090D01*
X392520Y212090D01*
X392997Y211997D01*
X393418Y211718D01*
X398380Y206756D01*
X402242Y206756D01*
X402718Y206663D01*
X403140Y206384D01*
X404518Y205006D01*
X408282Y205006D01*
X410944Y207668D01*
X410944Y211432D01*
X408898Y213478D01*
X408643Y213844D01*
X408527Y214336D01*
X408612Y214834D01*
X408884Y215260D01*
X409301Y215545D01*
X409796Y215646D01*
X452691Y215646D01*
X453159Y215557D01*
X453582Y215281D01*
X453865Y214862D01*
X454528Y213260D01*
X457100Y210688D01*
X460461Y209296D01*
X479339Y209296D01*
X482700Y210688D01*
X485272Y213260D01*
X486664Y216621D01*
X486664Y220259D01*
X485272Y223620D01*
X482700Y226192D01*
X479339Y227584D01*
X460461Y227584D01*
X457100Y226192D01*
X454528Y223620D01*
X453865Y222018D01*
X453604Y221620D01*
X453187Y221335D01*
X452691Y221234D01*
X398078Y221234D01*
X397602Y221327D01*
X397180Y221606D01*
X397044Y221742D01*
X385460Y221742D01*
X385021Y221820D01*
X384591Y222086D01*
X384298Y222498D01*
X384190Y222992D01*
X384282Y223489D01*
X384562Y223910D01*
X385342Y224690D01*
X386734Y228051D01*
X386734Y231689D01*
X385342Y235050D01*
X384562Y235830D01*
X384307Y236196D01*
X384190Y236688D01*
X384275Y237186D01*
X384547Y237612D01*
X384964Y237897D01*
X385460Y237998D01*
X454664Y237998D01*
X455141Y237905D01*
X455562Y237626D01*
X457100Y236088D01*
X460461Y234696D01*
X479339Y234696D01*
X482700Y236088D01*
X485272Y238660D01*
X486664Y242021D01*
X486664Y245659D01*
X485272Y249020D01*
X482700Y251592D01*
X479339Y252984D01*
X460461Y252984D01*
X457100Y251592D01*
X454528Y249020D01*
X453136Y245659D01*
X453136Y244856D01*
X453051Y244398D01*
X452778Y243972D01*
X452361Y243687D01*
X451866Y243586D01*
X423992Y243586D01*
X423553Y243664D01*
X423123Y243930D01*
X422831Y244342D01*
X422722Y244836D01*
X422815Y245333D01*
X423094Y245754D01*
X423108Y245768D01*
X423108Y249532D01*
X420446Y252194D01*
X416682Y252194D01*
X415304Y250816D01*
X414901Y250545D01*
X414406Y250444D01*
X389490Y250444D01*
X387068Y248022D01*
X386666Y247751D01*
X386170Y247650D01*
X385968Y247650D01*
X385529Y247728D01*
X385099Y247994D01*
X384806Y248406D01*
X384698Y248900D01*
X384790Y249397D01*
X385070Y249818D01*
X385342Y250090D01*
X386734Y253451D01*
X386734Y257089D01*
X385342Y260450D01*
X382770Y263022D01*
X379409Y264414D01*
X360731Y264414D01*
X360293Y264492D01*
X359862Y264758D01*
X359570Y265170D01*
X359462Y265664D01*
X359554Y266161D01*
X359833Y266582D01*
X364405Y271154D01*
X364808Y271425D01*
X365303Y271526D01*
X379409Y271526D01*
X382770Y272918D01*
X385342Y275490D01*
X386005Y277092D01*
X386266Y277490D01*
X386683Y277775D01*
X387179Y277876D01*
X427642Y277876D01*
X428118Y277783D01*
X428540Y277504D01*
X429918Y276126D01*
X433682Y276126D01*
X435060Y277504D01*
X435463Y277775D01*
X435958Y277876D01*
X454918Y277876D01*
X455357Y277798D01*
X455787Y277532D01*
X456080Y277120D01*
X456188Y276626D01*
X456096Y276129D01*
X455816Y275708D01*
X454528Y274420D01*
X453136Y271059D01*
X453136Y267421D01*
X454528Y264060D01*
X457100Y261488D01*
X460461Y260096D01*
X479339Y260096D01*
X482700Y261488D01*
X485272Y264060D01*
X486664Y267421D01*
X486664Y271059D01*
X485272Y274420D01*
X482700Y276992D01*
X479339Y278384D01*
X465233Y278384D01*
X464757Y278477D01*
X464335Y278756D01*
X459763Y283328D01*
X459559Y283621D01*
X459477Y283565D01*
X458982Y283464D01*
X435958Y283464D01*
X435482Y283557D01*
X435060Y283836D01*
X433682Y285214D01*
X429918Y285214D01*
X428540Y283836D01*
X428137Y283565D01*
X427642Y283464D01*
X387179Y283464D01*
X386711Y283553D01*
X386288Y283829D01*
X386005Y284248D01*
X385342Y285850D01*
X385070Y286122D01*
X384815Y286488D01*
X384698Y286980D01*
X384783Y287478D01*
X385055Y287904D01*
X385472Y288189D01*
X385968Y288290D01*
X399589Y288290D01*
X400233Y288934D01*
X400635Y289205D01*
X401131Y289306D01*
X421292Y289306D01*
X421768Y289213D01*
X422190Y288934D01*
X423568Y287556D01*
X427332Y287556D01*
X429994Y290218D01*
X429994Y293982D01*
X427332Y296644D01*
X423568Y296644D01*
X422190Y295266D01*
X421787Y294995D01*
X421292Y294894D01*
X405864Y294894D01*
X405406Y294979D01*
X404980Y295252D01*
X404695Y295669D01*
X404594Y296164D01*
X404594Y300332D01*
X403818Y301108D01*
X403563Y301474D01*
X403447Y301966D01*
X403532Y302464D01*
X403804Y302890D01*
X404221Y303175D01*
X404716Y303276D01*
X433992Y303276D01*
X434468Y303183D01*
X434890Y302904D01*
X436268Y301526D01*
X440032Y301526D01*
X441410Y302904D01*
X441813Y303175D01*
X442308Y303276D01*
X454918Y303276D01*
X455357Y303198D01*
X455787Y302932D01*
X456080Y302520D01*
X456188Y302026D01*
X456096Y301529D01*
X455816Y301108D01*
X454528Y299820D01*
X453136Y296459D01*
X453136Y292821D01*
X454528Y289460D01*
X457100Y286888D01*
X459468Y285907D01*
X459836Y285674D01*
X460083Y285338D01*
X460166Y285395D01*
X460661Y285496D01*
X479339Y285496D01*
X482700Y286888D01*
X485272Y289460D01*
X486664Y292821D01*
X486664Y296459D01*
X485272Y299820D01*
X482700Y302392D01*
X479339Y303784D01*
X465233Y303784D01*
X464757Y303877D01*
X464335Y304156D01*
X459763Y308728D01*
X459559Y309021D01*
X459477Y308965D01*
X458982Y308864D01*
X442308Y308864D01*
X441832Y308957D01*
X441410Y309236D01*
X440032Y310614D01*
X436268Y310614D01*
X434890Y309236D01*
X434487Y308965D01*
X433992Y308864D01*
X387179Y308864D01*
X386711Y308953D01*
X386288Y309229D01*
X386005Y309648D01*
X385342Y311250D01*
X385070Y311522D01*
X384815Y311888D01*
X384698Y312380D01*
X384783Y312878D01*
X385055Y313304D01*
X385472Y313589D01*
X385968Y313690D01*
X455172Y313690D01*
X455649Y313597D01*
X456070Y313318D01*
X457100Y312288D01*
X459468Y311307D01*
X459836Y311074D01*
X460083Y310738D01*
X460166Y310795D01*
X460661Y310896D01*
X479339Y310896D01*
X482700Y312288D01*
X485272Y314860D01*
X486664Y318221D01*
X486664Y321859D01*
X485272Y325220D01*
X482700Y327792D01*
X479339Y329184D01*
X460461Y329184D01*
X457100Y327792D01*
X454528Y325220D01*
X453136Y321859D01*
X453136Y320548D01*
X453051Y320090D01*
X452778Y319664D01*
X452361Y319379D01*
X451866Y319278D01*
X361700Y319278D01*
X361262Y319356D01*
X360831Y319622D01*
X360539Y320034D01*
X360431Y320528D01*
X360523Y321025D01*
X360802Y321446D01*
X361310Y321954D01*
X361713Y322225D01*
X362208Y322326D01*
X379409Y322326D01*
X382770Y323718D01*
X385342Y326290D01*
X386734Y329651D01*
X386734Y333289D01*
X385342Y336650D01*
X384562Y337430D01*
X384307Y337796D01*
X384190Y338288D01*
X384275Y338786D01*
X384547Y339212D01*
X384964Y339497D01*
X385460Y339598D01*
X454664Y339598D01*
X455141Y339505D01*
X455562Y339226D01*
X457100Y337688D01*
X460461Y336296D01*
X479339Y336296D01*
X482700Y337688D01*
X485272Y340260D01*
X486664Y343621D01*
X486664Y347259D01*
X485272Y350620D01*
X482700Y353192D01*
X479339Y354584D01*
X460461Y354584D01*
X457100Y353192D01*
X454528Y350620D01*
X453136Y347259D01*
X453136Y346456D01*
X453051Y345998D01*
X452778Y345572D01*
X452361Y345287D01*
X451866Y345186D01*
X393164Y345186D01*
X392706Y345271D01*
X392280Y345544D01*
X391995Y345961D01*
X391894Y346456D01*
X391894Y350596D01*
X389232Y353258D01*
X387892Y353258D01*
X387444Y353340D01*
X387016Y353609D01*
X386727Y354023D01*
X386622Y354518D01*
X386719Y355014D01*
X386734Y355051D01*
X386734Y358689D01*
X385342Y362050D01*
X382770Y364622D01*
X379409Y366014D01*
X360531Y366014D01*
X357170Y364622D01*
X354598Y362050D01*
X353206Y358689D01*
X353206Y355051D01*
X354598Y351690D01*
X354870Y351418D01*
X355125Y351052D01*
X355242Y350560D01*
X355157Y350062D01*
X354885Y349636D01*
X354468Y349351D01*
X353972Y349250D01*
X342364Y349250D01*
X341906Y349335D01*
X341480Y349608D01*
X341195Y350025D01*
X341094Y350520D01*
X341094Y351132D01*
X338432Y353794D01*
X334668Y353794D01*
X333290Y352416D01*
X332887Y352145D01*
X332392Y352044D01*
X308958Y352044D01*
X308482Y352137D01*
X308060Y352416D01*
X306682Y353794D01*
X302918Y353794D01*
X301540Y352416D01*
X301137Y352145D01*
X300642Y352044D01*
X269353Y352044D01*
X267665Y350356D01*
X267262Y350085D01*
X266767Y349984D01*
X264818Y349984D01*
X262156Y347322D01*
X262156Y346456D01*
X262071Y345998D01*
X261798Y345572D01*
X261381Y345287D01*
X260886Y345186D01*
X195928Y345186D01*
X195489Y345264D01*
X195059Y345530D01*
X194767Y345942D01*
X194658Y346436D01*
X194751Y346933D01*
X195030Y347354D01*
X195044Y347368D01*
X195044Y349317D01*
X195137Y349793D01*
X195416Y350215D01*
X203985Y358784D01*
X204388Y359055D01*
X204883Y359156D01*
X318657Y359156D01*
X329235Y369734D01*
X329638Y370005D01*
X330133Y370106D01*
X332082Y370106D01*
X334744Y372768D01*
X334744Y376532D01*
X333968Y377308D01*
X333713Y377674D01*
X333597Y378166D01*
X333682Y378664D01*
X333954Y379090D01*
X334371Y379375D01*
X334866Y379476D01*
X352761Y379476D01*
X353229Y379387D01*
X353652Y379111D01*
X353935Y378692D01*
X354598Y377090D01*
X357170Y374518D01*
X360531Y373126D01*
X379409Y373126D01*
X382770Y374518D01*
X385342Y377090D01*
X386734Y380451D01*
X386734Y384089D01*
X385342Y387450D01*
X384054Y388738D01*
X383799Y389104D01*
X383682Y389596D01*
X383767Y390094D01*
X384039Y390520D01*
X384456Y390805D01*
X384952Y390906D01*
X414406Y390906D01*
X414882Y390813D01*
X415304Y390534D01*
X416682Y389156D01*
X420446Y389156D01*
X423108Y391818D01*
X423108Y395582D01*
X420446Y398244D01*
X416682Y398244D01*
X415304Y396866D01*
X414901Y396595D01*
X414406Y396494D01*
X380888Y396494D01*
X380459Y396569D01*
X380026Y396831D01*
X379731Y397241D01*
X379618Y397734D01*
X379707Y398231D01*
X379983Y398655D01*
X380402Y398937D01*
X382770Y399918D01*
X385342Y402490D01*
X386734Y405851D01*
X386734Y409489D01*
X385342Y412850D01*
X382770Y415422D01*
X379409Y416814D01*
X360531Y416814D01*
X357170Y415422D01*
X354598Y412850D01*
X353206Y409489D01*
X353206Y405851D01*
X354598Y402490D01*
X355273Y401815D01*
X355536Y401431D01*
X355645Y400938D01*
X355552Y400441D01*
X355273Y400019D01*
X352120Y396866D01*
X351717Y396595D01*
X351222Y396494D01*
X336014Y396494D01*
X335556Y396579D01*
X335130Y396852D01*
X334845Y397269D01*
X334744Y397764D01*
X334744Y401818D01*
X332082Y404480D01*
X330133Y404480D01*
X329657Y404573D01*
X329235Y404852D01*
X314249Y419838D01*
X313994Y420204D01*
X313878Y420696D01*
X313963Y421194D01*
X314235Y421620D01*
X314652Y421905D01*
X315147Y422006D01*
X339392Y422006D01*
X339868Y421913D01*
X340290Y421634D01*
X341018Y420906D01*
X344782Y420906D01*
X347444Y423568D01*
X347444Y427332D01*
X344782Y429994D01*
X341018Y429994D01*
X338990Y427966D01*
X338587Y427695D01*
X338092Y427594D01*
X284208Y427594D01*
X283732Y427687D01*
X283310Y427966D01*
X281282Y429994D01*
X277518Y429994D01*
X274856Y427332D01*
X274856Y423700D01*
X274771Y423242D01*
X274498Y422816D01*
X274081Y422531D01*
X273586Y422430D01*
X247114Y422430D01*
X246656Y422515D01*
X246230Y422788D01*
X245945Y423205D01*
X245844Y423700D01*
X245844Y427332D01*
X243182Y429994D01*
X239418Y429994D01*
X238040Y428616D01*
X237637Y428345D01*
X237142Y428244D01*
X226408Y428244D01*
X225932Y428337D01*
X225510Y428616D01*
X224132Y429994D01*
X220368Y429994D01*
X218990Y428616D01*
X218587Y428345D01*
X218092Y428244D01*
X201008Y428244D01*
X200532Y428337D01*
X200110Y428616D01*
X198732Y429994D01*
X194968Y429994D01*
X192306Y427332D01*
X192306Y423700D01*
X192221Y423242D01*
X191948Y422816D01*
X191531Y422531D01*
X191036Y422430D01*
X165132Y422430D01*
X164656Y422523D01*
X164234Y422802D01*
X162094Y424942D01*
X156860Y424942D01*
X156421Y425020D01*
X155991Y425286D01*
X155698Y425698D01*
X155590Y426192D01*
X155682Y426689D01*
X155962Y427110D01*
X156742Y427890D01*
X158134Y431251D01*
X158134Y434906D01*
X158046Y435316D01*
X158131Y435814D01*
X158403Y436240D01*
X158820Y436525D01*
X159315Y436626D01*
X316350Y436626D01*
X316826Y436533D01*
X317248Y436254D01*
X318146Y435356D01*
X326042Y435356D01*
X326518Y435263D01*
X326940Y434984D01*
X328318Y433606D01*
X332082Y433606D01*
X334651Y436174D01*
X335035Y436438D01*
X335528Y436546D01*
X336025Y436453D01*
X336447Y436174D01*
X337801Y434820D01*
X351936Y434820D01*
X352394Y434735D01*
X352820Y434462D01*
X353105Y434045D01*
X353206Y433550D01*
X353206Y431251D01*
X354598Y427890D01*
X357170Y425318D01*
X360531Y423926D01*
X379409Y423926D01*
X382770Y425318D01*
X385342Y427890D01*
X386734Y431251D01*
X386734Y434889D01*
X385342Y438250D01*
X384562Y439030D01*
X384307Y439396D01*
X384190Y439888D01*
X384275Y440386D01*
X384547Y440812D01*
X384964Y441097D01*
X385460Y441198D01*
X390694Y441198D01*
X390830Y441334D01*
X391233Y441605D01*
X391728Y441706D01*
X427106Y441706D01*
X427582Y441613D01*
X428004Y441334D01*
X429382Y439956D01*
X433146Y439956D01*
X435808Y442618D01*
X435808Y446382D01*
X433146Y449044D01*
X429382Y449044D01*
X428004Y447666D01*
X427601Y447395D01*
X427106Y447294D01*
X405864Y447294D01*
X405406Y447379D01*
X404980Y447652D01*
X404695Y448069D01*
X404594Y448564D01*
X404594Y452732D01*
X401932Y455394D01*
X398168Y455394D01*
X396790Y454016D01*
X396387Y453745D01*
X395892Y453644D01*
X389490Y453644D01*
X387068Y451222D01*
X386666Y450951D01*
X386170Y450850D01*
X385968Y450850D01*
X385529Y450928D01*
X385099Y451194D01*
X384806Y451606D01*
X384698Y452100D01*
X384790Y452597D01*
X385070Y453018D01*
X385342Y453290D01*
X386734Y456651D01*
X386734Y460289D01*
X385342Y463650D01*
X384562Y464430D01*
X384307Y464796D01*
X384190Y465288D01*
X384275Y465786D01*
X384547Y466212D01*
X384964Y466497D01*
X385460Y466598D01*
X390050Y466598D01*
X390526Y466505D01*
X390948Y466226D01*
X391818Y465356D01*
X395582Y465356D01*
X398244Y468018D01*
X398244Y472186D01*
X398329Y472644D01*
X398602Y473070D01*
X399019Y473355D01*
X399514Y473456D01*
X402242Y473456D01*
X402718Y473363D01*
X403140Y473084D01*
X404518Y471706D01*
X408282Y471706D01*
X410944Y474368D01*
X410944Y478132D01*
X408282Y480794D01*
X404518Y480794D01*
X403140Y479416D01*
X402737Y479145D01*
X402242Y479044D01*
X389490Y479044D01*
X387068Y476622D01*
X386666Y476351D01*
X386170Y476250D01*
X385968Y476250D01*
X385529Y476328D01*
X385099Y476594D01*
X384806Y477006D01*
X384698Y477500D01*
X384790Y477997D01*
X385070Y478418D01*
X385342Y478690D01*
X386734Y482051D01*
X386734Y485689D01*
X385342Y489050D01*
X384562Y489830D01*
X384307Y490196D01*
X384190Y490688D01*
X384275Y491186D01*
X384547Y491612D01*
X384964Y491897D01*
X385460Y491998D01*
X451106Y491998D01*
X451564Y491913D01*
X451990Y491640D01*
X452275Y491223D01*
X452376Y490728D01*
X452376Y488401D01*
X453768Y485040D01*
X456340Y482468D01*
X459701Y481076D01*
X478579Y481076D01*
X481940Y482468D01*
X484512Y485040D01*
X485904Y488401D01*
X485904Y492039D01*
X484512Y495400D01*
X481940Y497972D01*
X478579Y499364D01*
X459901Y499364D01*
X459463Y499442D01*
X459032Y499708D01*
X458740Y500120D01*
X458632Y500614D01*
X458724Y501111D01*
X459003Y501532D01*
X463575Y506104D01*
X463978Y506375D01*
X464473Y506476D01*
X478579Y506476D01*
X481940Y507868D01*
X484512Y510440D01*
X485904Y513801D01*
X485904Y517439D01*
X484512Y520800D01*
X481940Y523372D01*
X478579Y524764D01*
X459701Y524764D01*
X456340Y523372D01*
X453768Y520800D01*
X452376Y517439D01*
X452376Y513801D01*
X453768Y510440D01*
X455991Y508218D01*
X456254Y507834D01*
X456362Y507340D01*
X456270Y506843D01*
X455991Y506422D01*
X451591Y502022D01*
X451188Y501751D01*
X450693Y501650D01*
X385968Y501650D01*
X385529Y501728D01*
X385099Y501994D01*
X384806Y502406D01*
X384698Y502900D01*
X384790Y503397D01*
X385070Y503818D01*
X385342Y504090D01*
X386734Y507451D01*
X386734Y511089D01*
X385342Y514450D01*
X384562Y515230D01*
X384307Y515596D01*
X384190Y516088D01*
X384275Y516586D01*
X384547Y517012D01*
X384964Y517297D01*
X385460Y517398D01*
X390694Y517398D01*
X390830Y517534D01*
X391233Y517805D01*
X391728Y517906D01*
X440342Y517906D01*
X440818Y517813D01*
X441240Y517534D01*
X442618Y516156D01*
X446382Y516156D01*
X449044Y518818D01*
X449044Y522450D01*
X449129Y522908D01*
X449402Y523334D01*
X449819Y523619D01*
X449944Y523645D01*
X451099Y524801D01*
X451502Y525072D01*
X451997Y525173D01*
X453946Y525173D01*
X456608Y527834D01*
X456608Y531257D01*
X456690Y531705D01*
X456959Y532133D01*
X457373Y532422D01*
X457868Y532527D01*
X458364Y532430D01*
X459701Y531876D01*
X478579Y531876D01*
X481940Y533268D01*
X484512Y535840D01*
X485904Y539201D01*
X485904Y542839D01*
X484512Y546200D01*
X481940Y548772D01*
X478579Y550164D01*
X459701Y550164D01*
X456340Y548772D01*
X456326Y548758D01*
X455924Y548487D01*
X455428Y548386D01*
X411828Y548386D01*
X411389Y548464D01*
X410959Y548730D01*
X410667Y549142D01*
X410558Y549636D01*
X410651Y550133D01*
X410930Y550554D01*
X410944Y550568D01*
X410944Y554332D01*
X408282Y556994D01*
X404518Y556994D01*
X403140Y555616D01*
X402737Y555345D01*
X402242Y555244D01*
X389490Y555244D01*
X387068Y552822D01*
X386666Y552551D01*
X386170Y552450D01*
X385968Y552450D01*
X385529Y552528D01*
X385099Y552794D01*
X384806Y553206D01*
X384698Y553700D01*
X384790Y554197D01*
X385070Y554618D01*
X385342Y554890D01*
X386734Y558251D01*
X386734Y561889D01*
X386064Y563508D01*
X385968Y563933D01*
X386045Y564432D01*
X386311Y564862D01*
X386723Y565155D01*
X387217Y565263D01*
X387713Y565171D01*
X388135Y564892D01*
X390134Y562892D01*
X397266Y562892D01*
X397628Y563254D01*
X398030Y563525D01*
X398526Y563626D01*
X451931Y563626D01*
X452399Y563537D01*
X452822Y563261D01*
X453105Y562842D01*
X453768Y561240D01*
X456340Y558668D01*
X459701Y557276D01*
X478579Y557276D01*
X481940Y558668D01*
X484512Y561240D01*
X485904Y564601D01*
X485904Y568239D01*
X484512Y571600D01*
X481940Y574172D01*
X478579Y575564D01*
X459701Y575564D01*
X456340Y574172D01*
X453768Y571600D01*
X453105Y569998D01*
X452844Y569600D01*
X452427Y569315D01*
X451931Y569214D01*
X399514Y569214D01*
X399056Y569299D01*
X398630Y569572D01*
X398345Y569989D01*
X398244Y570484D01*
X398244Y573382D01*
X395582Y576044D01*
X393633Y576044D01*
X393157Y576137D01*
X392735Y576416D01*
X391301Y577850D01*
X385968Y577850D01*
X385529Y577928D01*
X385099Y578194D01*
X384806Y578606D01*
X384698Y579100D01*
X384790Y579597D01*
X385070Y580018D01*
X385342Y580290D01*
X386734Y583651D01*
X386734Y587289D01*
X385342Y590650D01*
X384562Y591430D01*
X384307Y591796D01*
X384190Y592288D01*
X384275Y592786D01*
X384547Y593212D01*
X384964Y593497D01*
X385460Y593598D01*
X390694Y593598D01*
X390830Y593734D01*
X391233Y594005D01*
X391728Y594106D01*
X395892Y594106D01*
X396368Y594013D01*
X396790Y593734D01*
X398168Y592356D01*
X401932Y592356D01*
X404594Y595018D01*
X404594Y599186D01*
X404679Y599644D01*
X404952Y600070D01*
X405369Y600355D01*
X405864Y600456D01*
X431170Y600456D01*
X431646Y600363D01*
X432068Y600084D01*
X433446Y598706D01*
X437210Y598706D01*
X438588Y600084D01*
X438991Y600355D01*
X439486Y600456D01*
X454158Y600456D01*
X454597Y600378D01*
X455027Y600112D01*
X455320Y599700D01*
X455428Y599206D01*
X455336Y598709D01*
X455056Y598288D01*
X453768Y597000D01*
X452376Y593639D01*
X452376Y590001D01*
X453768Y586640D01*
X456340Y584068D01*
X459701Y582676D01*
X478579Y582676D01*
X481940Y584068D01*
X484512Y586640D01*
X485904Y590001D01*
X485904Y593639D01*
X484512Y597000D01*
X481940Y599572D01*
X478579Y600964D01*
X464473Y600964D01*
X463997Y601057D01*
X463575Y601336D01*
X459003Y605908D01*
X458799Y606201D01*
X458717Y606145D01*
X458222Y606044D01*
X439486Y606044D01*
X439010Y606137D01*
X438588Y606416D01*
X437210Y607794D01*
X433446Y607794D01*
X432068Y606416D01*
X431665Y606145D01*
X431170Y606044D01*
X389490Y606044D01*
X387068Y603622D01*
X386666Y603351D01*
X386170Y603250D01*
X385968Y603250D01*
X385529Y603328D01*
X385099Y603594D01*
X384806Y604006D01*
X384698Y604500D01*
X384790Y604997D01*
X385070Y605418D01*
X385342Y605690D01*
X386734Y609051D01*
X386734Y612689D01*
X385342Y616050D01*
X384562Y616830D01*
X384307Y617196D01*
X384190Y617688D01*
X384275Y618186D01*
X384547Y618612D01*
X384964Y618897D01*
X385460Y618998D01*
X392525Y618998D01*
X393001Y618905D01*
X393423Y618626D01*
X398893Y613156D01*
X435234Y613156D01*
X435710Y613063D01*
X436132Y612784D01*
X437510Y611406D01*
X441274Y611406D01*
X442652Y612784D01*
X443055Y613055D01*
X443550Y613156D01*
X452457Y613156D01*
X452925Y613067D01*
X453348Y612791D01*
X453631Y612372D01*
X453768Y612040D01*
X456340Y609468D01*
X458708Y608487D01*
X459076Y608254D01*
X459323Y607918D01*
X459406Y607975D01*
X459901Y608076D01*
X478579Y608076D01*
X481940Y609468D01*
X484512Y612040D01*
X485904Y615401D01*
X485904Y619039D01*
X484512Y622400D01*
X481940Y624972D01*
X478579Y626364D01*
X459701Y626364D01*
X456340Y624972D01*
X453768Y622400D01*
X452579Y619528D01*
X452318Y619130D01*
X451901Y618845D01*
X451405Y618744D01*
X443550Y618744D01*
X443074Y618837D01*
X442652Y619116D01*
X441274Y620494D01*
X437510Y620494D01*
X436132Y619116D01*
X435729Y618845D01*
X435234Y618744D01*
X418564Y618744D01*
X418106Y618829D01*
X417680Y619102D01*
X417395Y619519D01*
X417294Y620014D01*
X417294Y624182D01*
X414632Y626844D01*
X410868Y626844D01*
X409490Y625466D01*
X409087Y625195D01*
X408592Y625094D01*
X401131Y625094D01*
X400654Y625187D01*
X400233Y625466D01*
X397049Y628650D01*
X385968Y628650D01*
X385529Y628728D01*
X385099Y628994D01*
X384806Y629406D01*
X384698Y629900D01*
X384790Y630397D01*
X385070Y630818D01*
X385342Y631090D01*
X386734Y634451D01*
X386734Y638089D01*
X385342Y641450D01*
X384054Y642738D01*
X383799Y643104D01*
X383682Y643596D01*
X383767Y644094D01*
X384039Y644520D01*
X384456Y644805D01*
X384952Y644906D01*
X402242Y644906D01*
X402718Y644813D01*
X403140Y644534D01*
X404518Y643156D01*
X408282Y643156D01*
X410944Y645818D01*
X410944Y649582D01*
X408282Y652244D01*
X404518Y652244D01*
X403140Y650866D01*
X402737Y650595D01*
X402242Y650494D01*
X380888Y650494D01*
X380459Y650569D01*
X380026Y650831D01*
X379731Y651241D01*
X379618Y651734D01*
X379707Y652231D01*
X379983Y652655D01*
X380402Y652937D01*
X382770Y653918D01*
X385342Y656490D01*
X386734Y659851D01*
X386734Y663489D01*
X385342Y666850D01*
X382770Y669422D01*
X379409Y670814D01*
X360531Y670814D01*
X357170Y669422D01*
X354598Y666850D01*
X353206Y663489D01*
X353206Y659851D01*
X354598Y656490D01*
X357170Y653918D01*
X359538Y652937D01*
X359906Y652704D01*
X360205Y652296D01*
X360321Y651804D01*
X360237Y651306D01*
X359964Y650880D01*
X359547Y650595D01*
X359052Y650494D01*
X284593Y650494D01*
X280365Y646266D01*
X279962Y645995D01*
X279467Y645894D01*
X277518Y645894D01*
X274949Y643326D01*
X274565Y643062D01*
X274072Y642954D01*
X273575Y643047D01*
X273153Y643326D01*
X272335Y644144D01*
X169258Y644144D01*
X168782Y644237D01*
X168360Y644516D01*
X166982Y645894D01*
X163218Y645894D01*
X160556Y643232D01*
X160556Y641281D01*
X160481Y640852D01*
X160219Y640420D01*
X159809Y640124D01*
X159316Y640012D01*
X158819Y640100D01*
X158395Y640376D01*
X158113Y640795D01*
X157603Y642025D01*
X154745Y644883D01*
X151011Y646430D01*
X142640Y646430D01*
X142640Y637540D01*
X159150Y637540D01*
X159150Y637808D01*
X159228Y638247D01*
X159494Y638677D01*
X159906Y638969D01*
X160400Y639078D01*
X160897Y638985D01*
X161318Y638706D01*
X163218Y636806D01*
X166982Y636806D01*
X168360Y638184D01*
X168763Y638455D01*
X169258Y638556D01*
X191036Y638556D01*
X191494Y638471D01*
X191920Y638198D01*
X192205Y637781D01*
X192306Y637286D01*
X192306Y633118D01*
X194968Y630456D01*
X198732Y630456D01*
X200110Y631834D01*
X200513Y632105D01*
X201008Y632206D01*
X210086Y632206D01*
X210544Y632121D01*
X210970Y631848D01*
X211255Y631431D01*
X211356Y630936D01*
X211356Y626364D01*
X211271Y625906D01*
X210998Y625480D01*
X210581Y625195D01*
X210086Y625094D01*
X154943Y625094D01*
X154513Y625169D01*
X154081Y625431D01*
X153786Y625841D01*
X153673Y626334D01*
X153762Y626831D01*
X154038Y627255D01*
X154457Y627537D01*
X154745Y627657D01*
X157603Y630515D01*
X159150Y634249D01*
X159150Y635000D01*
X123590Y635000D01*
X123590Y634249D01*
X125137Y630515D01*
X127995Y627657D01*
X128283Y627537D01*
X128651Y627304D01*
X128950Y626896D01*
X129067Y626404D01*
X128982Y625906D01*
X128709Y625480D01*
X128293Y625195D01*
X127797Y625094D01*
X52128Y625094D01*
X51642Y625191D01*
X48809Y626364D01*
X29931Y626364D01*
X26570Y624972D01*
X23998Y622400D01*
X22606Y619039D01*
X22606Y615401D01*
X23998Y612040D01*
X26570Y609468D01*
X29931Y608076D01*
X48809Y608076D01*
X52170Y609468D01*
X54742Y612040D01*
X56134Y615401D01*
X56134Y618236D01*
X56219Y618694D01*
X56492Y619120D01*
X56909Y619405D01*
X57404Y619506D01*
X126388Y619506D01*
X126827Y619428D01*
X127257Y619162D01*
X127550Y618750D01*
X127658Y618256D01*
X127566Y617759D01*
X127286Y617338D01*
X125998Y616050D01*
X124606Y612689D01*
X124606Y609051D01*
X125998Y605690D01*
X126270Y605418D01*
X126525Y605052D01*
X126642Y604560D01*
X126557Y604062D01*
X126285Y603636D01*
X125868Y603351D01*
X125372Y603250D01*
X53199Y603250D01*
X50897Y600948D01*
X50503Y600680D01*
X50009Y600576D01*
X49513Y600673D01*
X48809Y600964D01*
X29931Y600964D01*
X26570Y599572D01*
X23998Y597000D01*
X22606Y593639D01*
X22606Y590001D01*
X23998Y586640D01*
X26570Y584068D01*
X29931Y582676D01*
X48809Y582676D01*
X52170Y584068D01*
X54742Y586640D01*
X56134Y590001D01*
X56134Y593639D01*
X55195Y595906D01*
X55099Y596352D01*
X55184Y596850D01*
X55456Y597276D01*
X55873Y597561D01*
X56368Y597662D01*
X152936Y597662D01*
X153394Y597577D01*
X153820Y597304D01*
X154105Y596887D01*
X154206Y596392D01*
X154206Y595108D01*
X154124Y594659D01*
X153855Y594231D01*
X153441Y593942D01*
X152946Y593838D01*
X152450Y593934D01*
X150809Y594614D01*
X131931Y594614D01*
X128570Y593222D01*
X125998Y590650D01*
X124606Y587289D01*
X124606Y583651D01*
X125998Y580290D01*
X128570Y577718D01*
X131931Y576326D01*
X150809Y576326D01*
X154170Y577718D01*
X156742Y580290D01*
X158134Y583651D01*
X158134Y587289D01*
X157698Y588342D01*
X157602Y588788D01*
X157686Y589286D01*
X157959Y589712D01*
X158376Y589997D01*
X158871Y590098D01*
X160632Y590098D01*
X162010Y591476D01*
X162413Y591747D01*
X162908Y591848D01*
X178336Y591848D01*
X178794Y591763D01*
X179220Y591490D01*
X179505Y591073D01*
X179606Y590578D01*
X179606Y588668D01*
X182268Y586006D01*
X186032Y586006D01*
X187410Y587384D01*
X187813Y587655D01*
X188308Y587756D01*
X192692Y587756D01*
X193168Y587663D01*
X193590Y587384D01*
X194968Y586006D01*
X198732Y586006D01*
X200110Y587384D01*
X200513Y587655D01*
X201008Y587756D01*
X211742Y587756D01*
X212218Y587663D01*
X212640Y587384D01*
X214018Y586006D01*
X217782Y586006D01*
X219160Y587384D01*
X219563Y587655D01*
X220058Y587756D01*
X224442Y587756D01*
X224918Y587663D01*
X225340Y587384D01*
X226718Y586006D01*
X230482Y586006D01*
X231860Y587384D01*
X232263Y587655D01*
X232758Y587756D01*
X281592Y587756D01*
X282068Y587663D01*
X282490Y587384D01*
X283868Y586006D01*
X287632Y586006D01*
X290294Y588668D01*
X290294Y592432D01*
X287632Y595094D01*
X283868Y595094D01*
X282490Y593716D01*
X282087Y593445D01*
X281592Y593344D01*
X232758Y593344D01*
X232282Y593437D01*
X231860Y593716D01*
X230482Y595094D01*
X226718Y595094D01*
X225340Y593716D01*
X224937Y593445D01*
X224442Y593344D01*
X220058Y593344D01*
X219582Y593437D01*
X219160Y593716D01*
X217782Y595094D01*
X214018Y595094D01*
X212640Y593716D01*
X212237Y593445D01*
X211742Y593344D01*
X201008Y593344D01*
X200532Y593437D01*
X200110Y593716D01*
X198732Y595094D01*
X194968Y595094D01*
X193590Y593716D01*
X193187Y593445D01*
X192692Y593344D01*
X188308Y593344D01*
X187832Y593437D01*
X187410Y593716D01*
X186032Y595094D01*
X184083Y595094D01*
X183607Y595187D01*
X183185Y595466D01*
X180899Y597752D01*
X180644Y598118D01*
X180528Y598610D01*
X180613Y599108D01*
X180885Y599534D01*
X181302Y599819D01*
X181797Y599920D01*
X326203Y599920D01*
X326642Y599842D01*
X327072Y599576D01*
X327364Y599164D01*
X327472Y598670D01*
X327380Y598173D01*
X327101Y597752D01*
X324173Y594824D01*
X323789Y594561D01*
X323295Y594452D01*
X322798Y594545D01*
X322377Y594824D01*
X322256Y594945D01*
X318492Y594945D01*
X315830Y592283D01*
X315830Y588519D01*
X318492Y585857D01*
X322256Y585857D01*
X323634Y587235D01*
X324037Y587506D01*
X324532Y587607D01*
X324858Y587607D01*
X325079Y587828D01*
X325463Y588091D01*
X325957Y588200D01*
X326454Y588107D01*
X326875Y587828D01*
X329444Y585260D01*
X333208Y585260D01*
X334586Y586638D01*
X334989Y586909D01*
X335484Y587010D01*
X341206Y587010D01*
X341682Y586917D01*
X342104Y586638D01*
X353295Y575446D01*
X353550Y575080D01*
X353666Y574588D01*
X353582Y574090D01*
X353309Y573664D01*
X352892Y573379D01*
X352397Y573278D01*
X252824Y573278D01*
X252348Y573371D01*
X251926Y573650D01*
X249532Y576044D01*
X245768Y576044D01*
X243106Y573382D01*
X243106Y569618D01*
X245768Y566956D01*
X249532Y566956D01*
X249894Y567318D01*
X250297Y567589D01*
X250792Y567690D01*
X353972Y567690D01*
X354411Y567612D01*
X354841Y567346D01*
X355134Y566934D01*
X355242Y566440D01*
X355150Y565943D01*
X354870Y565522D01*
X354598Y565250D01*
X353206Y561889D01*
X353206Y558251D01*
X353724Y557000D01*
X353820Y556554D01*
X353736Y556056D01*
X353463Y555630D01*
X353046Y555345D01*
X352551Y555244D01*
X181958Y555244D01*
X181482Y555337D01*
X181060Y555616D01*
X179682Y556994D01*
X175918Y556994D01*
X173256Y554332D01*
X173256Y550568D01*
X175918Y547906D01*
X179682Y547906D01*
X181060Y549284D01*
X181463Y549555D01*
X181958Y549656D01*
X210086Y549656D01*
X210544Y549571D01*
X210970Y549298D01*
X211255Y548881D01*
X211356Y548386D01*
X211356Y544218D01*
X214018Y541556D01*
X217782Y541556D01*
X219160Y542934D01*
X219563Y543205D01*
X220058Y543306D01*
X353762Y543306D01*
X354238Y543213D01*
X354660Y542934D01*
X354864Y542730D01*
X354919Y542720D01*
X355349Y542454D01*
X355642Y542042D01*
X355750Y541548D01*
X355658Y541051D01*
X355378Y540630D01*
X354598Y539850D01*
X353206Y536489D01*
X353206Y532851D01*
X354598Y529490D01*
X354870Y529218D01*
X355125Y528852D01*
X355242Y528360D01*
X355157Y527862D01*
X354885Y527436D01*
X354468Y527151D01*
X353972Y527050D01*
X348675Y527050D01*
X348675Y527050D01*
X346992Y527050D01*
X345835Y527050D01*
X345128Y526343D01*
X343865Y525080D01*
X343462Y524809D01*
X342967Y524708D01*
X341018Y524708D01*
X338356Y522046D01*
X338356Y518414D01*
X338271Y517956D01*
X337998Y517530D01*
X337581Y517245D01*
X337086Y517144D01*
X312833Y517144D01*
X312357Y517237D01*
X311935Y517516D01*
X309716Y519735D01*
X309445Y520138D01*
X309344Y520633D01*
X309344Y522582D01*
X306682Y525244D01*
X302918Y525244D01*
X300256Y522582D01*
X300256Y518818D01*
X302918Y516156D01*
X304867Y516156D01*
X305343Y516063D01*
X305765Y515784D01*
X309123Y512426D01*
X309378Y512060D01*
X309494Y511568D01*
X309409Y511070D01*
X309137Y510644D01*
X308720Y510359D01*
X308225Y510258D01*
X297500Y510258D01*
X297061Y510336D01*
X296631Y510602D01*
X296339Y511014D01*
X296230Y511508D01*
X296323Y512005D01*
X296602Y512426D01*
X296644Y512468D01*
X296644Y516232D01*
X293982Y518894D01*
X290218Y518894D01*
X288840Y517516D01*
X288437Y517245D01*
X287942Y517144D01*
X285214Y517144D01*
X284756Y517229D01*
X284330Y517502D01*
X284045Y517919D01*
X283944Y518414D01*
X283944Y522582D01*
X281282Y525244D01*
X277518Y525244D01*
X274856Y522582D01*
X274856Y520633D01*
X274763Y520157D01*
X274484Y519735D01*
X272265Y517516D01*
X271862Y517245D01*
X271367Y517144D01*
X264508Y517144D01*
X264032Y517237D01*
X263610Y517516D01*
X262232Y518894D01*
X258468Y518894D01*
X255806Y516232D01*
X255806Y512468D01*
X258468Y509806D01*
X262232Y509806D01*
X263610Y511184D01*
X264013Y511455D01*
X264508Y511556D01*
X268986Y511556D01*
X269425Y511478D01*
X269855Y511212D01*
X270147Y510800D01*
X270256Y510306D01*
X270163Y509809D01*
X269884Y509388D01*
X265312Y504816D01*
X264909Y504545D01*
X264414Y504444D01*
X220058Y504444D01*
X219582Y504537D01*
X219160Y504816D01*
X217782Y506194D01*
X214018Y506194D01*
X211356Y503532D01*
X211356Y499768D01*
X214018Y497106D01*
X216436Y497106D01*
X216894Y497021D01*
X217320Y496748D01*
X217605Y496331D01*
X217706Y495836D01*
X217706Y495233D01*
X217613Y494757D01*
X217334Y494335D01*
X215115Y492116D01*
X214712Y491845D01*
X214217Y491744D01*
X154128Y491744D01*
X153642Y491841D01*
X150809Y493014D01*
X131931Y493014D01*
X128570Y491622D01*
X125998Y489050D01*
X124606Y485689D01*
X124606Y482051D01*
X125998Y478690D01*
X128570Y476118D01*
X130938Y475137D01*
X131306Y474904D01*
X131605Y474496D01*
X131721Y474004D01*
X131637Y473506D01*
X131364Y473080D01*
X130947Y472795D01*
X130452Y472694D01*
X52128Y472694D01*
X51642Y472791D01*
X48809Y473964D01*
X29931Y473964D01*
X26570Y472572D01*
X23998Y470000D01*
X22606Y466639D01*
X22606Y463001D01*
X23998Y459640D01*
X26570Y457068D01*
X29931Y455676D01*
X48809Y455676D01*
X52170Y457068D01*
X54742Y459640D01*
X56134Y463001D01*
X56134Y465836D01*
X56219Y466294D01*
X56492Y466720D01*
X56909Y467005D01*
X57404Y467106D01*
X126388Y467106D01*
X126827Y467028D01*
X127257Y466762D01*
X127550Y466350D01*
X127658Y465856D01*
X127566Y465359D01*
X127286Y464938D01*
X125998Y463650D01*
X124606Y460289D01*
X124606Y456651D01*
X125998Y453290D01*
X128570Y450718D01*
X130938Y449737D01*
X131306Y449504D01*
X131605Y449096D01*
X131721Y448604D01*
X131637Y448106D01*
X131364Y447680D01*
X130947Y447395D01*
X130452Y447294D01*
X52128Y447294D01*
X51642Y447391D01*
X48809Y448564D01*
X29931Y448564D01*
X26570Y447172D01*
X23998Y444600D01*
X22606Y441239D01*
X22606Y437601D01*
X23998Y434240D01*
X26570Y431668D01*
X29931Y430276D01*
X48809Y430276D01*
X52170Y431668D01*
X54742Y434240D01*
X56134Y437601D01*
X56134Y440436D01*
X56219Y440894D01*
X56492Y441320D01*
X56909Y441605D01*
X57404Y441706D01*
X126388Y441706D01*
X126827Y441628D01*
X127257Y441362D01*
X127550Y440950D01*
X127658Y440456D01*
X127566Y439959D01*
X127286Y439538D01*
X125998Y438250D01*
X124606Y434889D01*
X124606Y431251D01*
X125998Y427890D01*
X126778Y427110D01*
X127033Y426744D01*
X127150Y426252D01*
X127065Y425754D01*
X126793Y425328D01*
X126376Y425043D01*
X126276Y425022D01*
X123520Y422266D01*
X123117Y421995D01*
X122622Y421894D01*
X99408Y421894D01*
X98932Y421987D01*
X98510Y422266D01*
X97132Y423644D01*
X93368Y423644D01*
X90706Y420982D01*
X90706Y418564D01*
X90621Y418106D01*
X90348Y417680D01*
X89931Y417395D01*
X89436Y417294D01*
X87018Y417294D01*
X84356Y414632D01*
X84356Y410868D01*
X87018Y408206D01*
X90782Y408206D01*
X92160Y409584D01*
X92563Y409855D01*
X93058Y409956D01*
X123336Y409956D01*
X123794Y409871D01*
X124220Y409598D01*
X124505Y409181D01*
X124606Y408686D01*
X124606Y405851D01*
X125124Y404600D01*
X125220Y404154D01*
X125136Y403656D01*
X124863Y403230D01*
X124446Y402945D01*
X123951Y402844D01*
X86708Y402844D01*
X86232Y402937D01*
X85810Y403216D01*
X84432Y404594D01*
X80668Y404594D01*
X78006Y401932D01*
X78006Y399514D01*
X77921Y399056D01*
X77648Y398630D01*
X77231Y398345D01*
X76736Y398244D01*
X74318Y398244D01*
X71656Y395582D01*
X71656Y391818D01*
X74318Y389156D01*
X78082Y389156D01*
X78444Y389518D01*
X78847Y389789D01*
X79342Y389890D01*
X125372Y389890D01*
X125811Y389812D01*
X126241Y389546D01*
X126534Y389134D01*
X126642Y388640D01*
X126550Y388143D01*
X126270Y387722D01*
X125998Y387450D01*
X124606Y384089D01*
X124606Y380451D01*
X125998Y377090D01*
X126270Y376818D01*
X126525Y376452D01*
X126642Y375960D01*
X126557Y375462D01*
X126285Y375036D01*
X125868Y374751D01*
X125372Y374650D01*
X75664Y374650D01*
X75206Y374735D01*
X74780Y375008D01*
X74495Y375425D01*
X74394Y375920D01*
X74394Y376532D01*
X71732Y379194D01*
X67968Y379194D01*
X65306Y376532D01*
X65306Y372768D01*
X67968Y370106D01*
X69917Y370106D01*
X70393Y370013D01*
X70815Y369734D01*
X71487Y369062D01*
X154461Y369062D01*
X156883Y371484D01*
X157286Y371755D01*
X157781Y371856D01*
X197386Y371856D01*
X197844Y371771D01*
X198270Y371498D01*
X198555Y371081D01*
X198656Y370586D01*
X198656Y366418D01*
X200288Y364786D01*
X200552Y364402D01*
X200660Y363908D01*
X200567Y363411D01*
X200288Y362990D01*
X191465Y354166D01*
X191062Y353895D01*
X190567Y353794D01*
X188618Y353794D01*
X185956Y351132D01*
X185956Y347368D01*
X185970Y347354D01*
X186225Y346988D01*
X186341Y346496D01*
X186256Y345998D01*
X185984Y345572D01*
X185567Y345287D01*
X185072Y345186D01*
X176878Y345186D01*
X176439Y345264D01*
X176009Y345530D01*
X175717Y345942D01*
X175608Y346436D01*
X175701Y346933D01*
X175980Y347354D01*
X175994Y347368D01*
X175994Y351132D01*
X173332Y353794D01*
X169568Y353794D01*
X168190Y352416D01*
X167787Y352145D01*
X167292Y352044D01*
X160890Y352044D01*
X158468Y349622D01*
X158066Y349351D01*
X157570Y349250D01*
X157368Y349250D01*
X156929Y349328D01*
X156499Y349594D01*
X156206Y350006D01*
X156098Y350500D01*
X156190Y350997D01*
X156470Y351418D01*
X156742Y351690D01*
X158134Y355051D01*
X158134Y358689D01*
X156742Y362050D01*
X154170Y364622D01*
X150809Y366014D01*
X131931Y366014D01*
X128570Y364622D01*
X125998Y362050D01*
X124606Y358689D01*
X124606Y355051D01*
X125124Y353800D01*
X125220Y353354D01*
X125136Y352856D01*
X124863Y352430D01*
X124446Y352145D01*
X123951Y352044D01*
X67658Y352044D01*
X67182Y352137D01*
X66760Y352416D01*
X65382Y353794D01*
X61618Y353794D01*
X58956Y351132D01*
X58956Y348234D01*
X58871Y347776D01*
X58598Y347350D01*
X58181Y347065D01*
X57686Y346964D01*
X56579Y346964D01*
X56111Y347053D01*
X55688Y347329D01*
X55405Y347748D01*
X54742Y349350D01*
X52170Y351922D01*
X48809Y353314D01*
X29931Y353314D01*
X26570Y351922D01*
X23998Y349350D01*
X22606Y345989D01*
X22606Y342351D01*
X23998Y338990D01*
X26570Y336418D01*
X29931Y335026D01*
X48809Y335026D01*
X52170Y336418D01*
X54742Y338990D01*
X55405Y340592D01*
X55666Y340990D01*
X56083Y341275D01*
X56579Y341376D01*
X58674Y341376D01*
X59151Y341283D01*
X59572Y341004D01*
X60978Y339598D01*
X125880Y339598D01*
X126319Y339520D01*
X126749Y339254D01*
X127042Y338842D01*
X127150Y338348D01*
X127058Y337851D01*
X126778Y337430D01*
X125998Y336650D01*
X124606Y333289D01*
X124606Y329651D01*
X125998Y326290D01*
X128570Y323718D01*
X131931Y322326D01*
X150809Y322326D01*
X154170Y323718D01*
X156742Y326290D01*
X158134Y329651D01*
X158134Y333289D01*
X156742Y336650D01*
X155962Y337430D01*
X155707Y337796D01*
X155590Y338288D01*
X155675Y338786D01*
X155947Y339212D01*
X156364Y339497D01*
X156860Y339598D01*
X258036Y339598D01*
X258513Y339505D01*
X258934Y339226D01*
X263134Y335026D01*
X270266Y335026D01*
X274659Y339419D01*
X275043Y339682D01*
X275536Y339791D01*
X276033Y339698D01*
X276455Y339419D01*
X277518Y338356D01*
X280539Y338356D01*
X280978Y338278D01*
X281408Y338012D01*
X281700Y337600D01*
X281808Y337106D01*
X281716Y336609D01*
X281437Y336188D01*
X280365Y335116D01*
X279962Y334845D01*
X279467Y334744D01*
X277518Y334744D01*
X276140Y333366D01*
X275737Y333095D01*
X275242Y332994D01*
X271959Y332994D01*
X268323Y329358D01*
X267920Y329087D01*
X267425Y328986D01*
X265975Y328986D01*
X265499Y329079D01*
X265077Y329358D01*
X262065Y332370D01*
X246083Y332370D01*
X245606Y332463D01*
X245185Y332742D01*
X243807Y334120D01*
X240042Y334120D01*
X237380Y331458D01*
X237380Y327694D01*
X240042Y325032D01*
X243807Y325032D01*
X245185Y326410D01*
X245587Y326681D01*
X246083Y326782D01*
X259225Y326782D01*
X259701Y326689D01*
X260123Y326410D01*
X263134Y323398D01*
X270266Y323398D01*
X273902Y327034D01*
X274304Y327305D01*
X274800Y327406D01*
X275242Y327406D01*
X275718Y327313D01*
X276140Y327034D01*
X277518Y325656D01*
X281282Y325656D01*
X283944Y328318D01*
X283944Y330267D01*
X284037Y330743D01*
X284316Y331165D01*
X285388Y332237D01*
X285754Y332492D01*
X286246Y332608D01*
X286744Y332523D01*
X287170Y332251D01*
X287455Y331834D01*
X287556Y331339D01*
X287556Y328318D01*
X290218Y325656D01*
X293982Y325656D01*
X295360Y327034D01*
X295763Y327305D01*
X296258Y327406D01*
X313342Y327406D01*
X313818Y327313D01*
X314240Y327034D01*
X315618Y325656D01*
X318639Y325656D01*
X319078Y325578D01*
X319508Y325312D01*
X319800Y324900D01*
X319908Y324406D01*
X319816Y323909D01*
X319537Y323488D01*
X315699Y319650D01*
X315296Y319379D01*
X314801Y319278D01*
X57404Y319278D01*
X56946Y319363D01*
X56520Y319636D01*
X56235Y320053D01*
X56134Y320548D01*
X56134Y320589D01*
X54742Y323950D01*
X52170Y326522D01*
X48809Y327914D01*
X29931Y327914D01*
X26570Y326522D01*
X23998Y323950D01*
X22606Y320589D01*
X22606Y316951D01*
X23998Y313590D01*
X26570Y311018D01*
X29931Y309626D01*
X48809Y309626D01*
X52170Y311018D01*
X54470Y313318D01*
X54872Y313589D01*
X55368Y313690D01*
X125372Y313690D01*
X125811Y313612D01*
X126241Y313346D01*
X126534Y312934D01*
X126642Y312440D01*
X126550Y311943D01*
X126270Y311522D01*
X125998Y311250D01*
X124606Y307889D01*
X124606Y304251D01*
X125998Y300890D01*
X126778Y300110D01*
X127033Y299744D01*
X127150Y299252D01*
X127065Y298754D01*
X126793Y298328D01*
X126376Y298043D01*
X126276Y298022D01*
X123520Y295266D01*
X123117Y294995D01*
X122622Y294894D01*
X112108Y294894D01*
X111632Y294987D01*
X111210Y295266D01*
X109832Y296644D01*
X106068Y296644D01*
X103406Y293982D01*
X103406Y291564D01*
X103321Y291106D01*
X103048Y290680D01*
X102631Y290395D01*
X102136Y290294D01*
X99718Y290294D01*
X97056Y287632D01*
X97056Y283868D01*
X99718Y281206D01*
X103482Y281206D01*
X104860Y282584D01*
X105263Y282855D01*
X105758Y282956D01*
X123336Y282956D01*
X123794Y282871D01*
X124220Y282598D01*
X124505Y282181D01*
X124606Y281686D01*
X124606Y278851D01*
X125998Y275490D01*
X126778Y274710D01*
X127033Y274344D01*
X127150Y273852D01*
X127065Y273354D01*
X126793Y272928D01*
X126376Y272643D01*
X125880Y272542D01*
X68485Y272542D01*
X68009Y272635D01*
X67587Y272914D01*
X54424Y286077D01*
X54161Y286461D01*
X54053Y286955D01*
X54145Y287452D01*
X54424Y287873D01*
X54742Y288190D01*
X56134Y291551D01*
X56134Y295189D01*
X54742Y298550D01*
X52170Y301122D01*
X48809Y302514D01*
X29931Y302514D01*
X26570Y301122D01*
X23998Y298550D01*
X22606Y295189D01*
X22606Y291551D01*
X23998Y288190D01*
X26570Y285618D01*
X29931Y284226D01*
X47847Y284226D01*
X48323Y284133D01*
X48745Y283854D01*
X61953Y270646D01*
X62208Y270280D01*
X62324Y269788D01*
X62239Y269290D01*
X61967Y268864D01*
X61550Y268579D01*
X61055Y268478D01*
X57404Y268478D01*
X56946Y268563D01*
X56520Y268836D01*
X56235Y269253D01*
X56134Y269748D01*
X56134Y269789D01*
X54742Y273150D01*
X52170Y275722D01*
X48809Y277114D01*
X29931Y277114D01*
X26570Y275722D01*
X23998Y273150D01*
X22606Y269789D01*
X22606Y266151D01*
X23998Y262790D01*
X26570Y260218D01*
X29931Y258826D01*
X48809Y258826D01*
X52170Y260218D01*
X54470Y262518D01*
X54872Y262789D01*
X55368Y262890D01*
X125372Y262890D01*
X125811Y262812D01*
X126241Y262546D01*
X126534Y262134D01*
X126642Y261640D01*
X126550Y261143D01*
X126270Y260722D01*
X125998Y260450D01*
X124606Y257089D01*
X124606Y253451D01*
X125998Y250090D01*
X128570Y247518D01*
X131931Y246126D01*
X150609Y246126D01*
X151048Y246048D01*
X151478Y245782D01*
X151770Y245370D01*
X151878Y244876D01*
X151786Y244379D01*
X151507Y243958D01*
X146935Y239386D01*
X146532Y239115D01*
X146037Y239014D01*
X131931Y239014D01*
X128570Y237622D01*
X125998Y235050D01*
X124606Y231689D01*
X124606Y228051D01*
X125998Y224690D01*
X128570Y222118D01*
X131931Y220726D01*
X150809Y220726D01*
X154170Y222118D01*
X156742Y224690D01*
X158134Y228051D01*
X158134Y231689D01*
X156742Y235050D01*
X154519Y237272D01*
X154256Y237656D01*
X154148Y238150D01*
X154240Y238647D01*
X154519Y239068D01*
X159399Y243948D01*
X159802Y244219D01*
X160297Y244320D01*
X165780Y244320D01*
X166238Y244235D01*
X166664Y243962D01*
X166949Y243545D01*
X167050Y243050D01*
X167050Y239418D01*
X169712Y236756D01*
X173476Y236756D01*
X174854Y238134D01*
X175257Y238405D01*
X175752Y238506D01*
X211742Y238506D01*
X212218Y238413D01*
X212640Y238134D01*
X214018Y236756D01*
X215967Y236756D01*
X216443Y236663D01*
X216865Y236384D01*
X227443Y225806D01*
X353287Y225806D01*
X353755Y225717D01*
X354178Y225441D01*
X354461Y225022D01*
X354598Y224690D01*
X355378Y223910D01*
X355633Y223544D01*
X355750Y223052D01*
X355665Y222554D01*
X355393Y222128D01*
X354976Y221843D01*
X354480Y221742D01*
X217791Y221742D01*
X210515Y214466D01*
X210112Y214195D01*
X209617Y214094D01*
X207668Y214094D01*
X205006Y211432D01*
X205006Y207800D01*
X204921Y207342D01*
X204648Y206916D01*
X204231Y206631D01*
X203736Y206530D01*
X193520Y206530D01*
X193043Y206623D01*
X192622Y206902D01*
X181846Y217678D01*
X125824Y217678D01*
X125348Y217771D01*
X124926Y218050D01*
X122532Y220444D01*
X118768Y220444D01*
X116106Y217782D01*
X116106Y214018D01*
X118768Y211356D01*
X122532Y211356D01*
X122894Y211718D01*
X123297Y211989D01*
X123792Y212090D01*
X125372Y212090D01*
X125811Y212012D01*
X126241Y211746D01*
X126534Y211334D01*
X126642Y210840D01*
X126550Y210343D01*
X126270Y209922D01*
X125998Y209650D01*
X125335Y208048D01*
X125074Y207650D01*
X124657Y207365D01*
X124161Y207264D01*
X104488Y207264D01*
X104012Y207357D01*
X103590Y207636D01*
X103482Y207744D01*
X99718Y207744D01*
X97056Y205082D01*
X97056Y201318D01*
X99718Y198656D01*
X103482Y198656D01*
X106130Y201304D01*
X106533Y201575D01*
X107028Y201676D01*
X124161Y201676D01*
X124629Y201587D01*
X125052Y201311D01*
X125335Y200892D01*
X125998Y199290D01*
X128570Y196718D01*
X131931Y195326D01*
X150809Y195326D01*
X154170Y196718D01*
X156742Y199290D01*
X157405Y200892D01*
X157666Y201290D01*
X158083Y201575D01*
X158579Y201676D01*
X160434Y201676D01*
X160873Y201598D01*
X161303Y201332D01*
X161595Y200920D01*
X161704Y200426D01*
X161611Y199929D01*
X161332Y199508D01*
X160556Y198732D01*
X160556Y194968D01*
X163218Y192306D01*
X166982Y192306D01*
X168360Y193684D01*
X168763Y193955D01*
X169258Y194056D01*
X250378Y194056D01*
X250854Y193963D01*
X251276Y193684D01*
X252654Y192306D01*
X256418Y192306D01*
X257796Y193684D01*
X258199Y193955D01*
X258694Y194056D01*
X275242Y194056D01*
X275718Y193963D01*
X276140Y193684D01*
X277518Y192306D01*
X281282Y192306D01*
X283944Y194968D01*
X283944Y199136D01*
X284029Y199594D01*
X284302Y200020D01*
X284719Y200305D01*
X285214Y200406D01*
X287942Y200406D01*
X288418Y200313D01*
X288840Y200034D01*
X290218Y198656D01*
X293982Y198656D01*
X295360Y200034D01*
X295763Y200305D01*
X296258Y200406D01*
X347110Y200406D01*
X351038Y204334D01*
X351404Y204589D01*
X351896Y204706D01*
X352394Y204621D01*
X352820Y204348D01*
X353105Y203932D01*
X353206Y203436D01*
X353206Y202651D01*
X354598Y199290D01*
X355378Y198510D01*
X355633Y198144D01*
X355750Y197652D01*
X355665Y197154D01*
X355393Y196728D01*
X354976Y196443D01*
X354876Y196422D01*
X345770Y187316D01*
X345367Y187045D01*
X344872Y186944D01*
X270858Y186944D01*
X270382Y187037D01*
X269960Y187316D01*
X268582Y188694D01*
X264818Y188694D01*
X262156Y186032D01*
X262156Y183011D01*
X262078Y182573D01*
X261812Y182142D01*
X261400Y181850D01*
X260906Y181742D01*
X260409Y181834D01*
X259988Y182113D01*
X255157Y186944D01*
X239108Y186944D01*
X238632Y187037D01*
X238210Y187316D01*
X236832Y188694D01*
X233068Y188694D01*
X230406Y186032D01*
X230406Y182268D01*
X233068Y179606D01*
X236832Y179606D01*
X238210Y180984D01*
X238613Y181255D01*
X239108Y181356D01*
X252317Y181356D01*
X252793Y181263D01*
X253215Y180984D01*
X259193Y175006D01*
X347110Y175006D01*
X351038Y178934D01*
X351404Y179189D01*
X351896Y179306D01*
X352394Y179221D01*
X352820Y178948D01*
X353105Y178532D01*
X353206Y178036D01*
X353206Y177251D01*
X354598Y173890D01*
X357170Y171318D01*
X360531Y169926D01*
G37*
G36*
X459701Y633476D02*
X478579Y633476D01*
X481940Y634868D01*
X484512Y637440D01*
X485904Y640801D01*
X485904Y644439D01*
X484512Y647800D01*
X481940Y650372D01*
X478579Y651764D01*
X459701Y651764D01*
X456340Y650372D01*
X453768Y647800D01*
X453105Y646198D01*
X452844Y645800D01*
X452427Y645515D01*
X451931Y645414D01*
X421988Y645414D01*
X421512Y645507D01*
X421090Y645786D01*
X420982Y645894D01*
X417218Y645894D01*
X414556Y643232D01*
X414556Y639468D01*
X417218Y636806D01*
X420982Y636806D01*
X423630Y639454D01*
X424033Y639725D01*
X424528Y639826D01*
X451931Y639826D01*
X452399Y639737D01*
X452822Y639461D01*
X453105Y639042D01*
X453768Y637440D01*
X456340Y634868D01*
X459701Y633476D01*
G37*
G36*
X29931Y633476D02*
X48809Y633476D01*
X52170Y634868D01*
X54742Y637440D01*
X54879Y637772D01*
X55140Y638170D01*
X55557Y638455D01*
X56053Y638556D01*
X97442Y638556D01*
X97918Y638463D01*
X98340Y638184D01*
X99718Y636806D01*
X103482Y636806D01*
X106144Y639468D01*
X106144Y643232D01*
X103482Y645894D01*
X99718Y645894D01*
X98340Y644516D01*
X97937Y644245D01*
X97442Y644144D01*
X57105Y644144D01*
X56637Y644233D01*
X56214Y644509D01*
X55931Y644928D01*
X54742Y647800D01*
X52170Y650372D01*
X48809Y651764D01*
X29931Y651764D01*
X26570Y650372D01*
X23998Y647800D01*
X22606Y644439D01*
X22606Y640801D01*
X23998Y637440D01*
X26570Y634868D01*
X29931Y633476D01*
G37*
G36*
X123590Y637540D02*
X140100Y637540D01*
X140100Y646430D01*
X131729Y646430D01*
X127995Y644883D01*
X125137Y642025D01*
X123590Y638291D01*
X123590Y637540D01*
G37*
G36*
X29931Y557276D02*
X48809Y557276D01*
X52170Y558668D01*
X54742Y561240D01*
X56134Y564601D01*
X56134Y568239D01*
X54742Y571600D01*
X52170Y574172D01*
X48809Y575564D01*
X29931Y575564D01*
X26570Y574172D01*
X23998Y571600D01*
X22606Y568239D01*
X22606Y564601D01*
X23998Y561240D01*
X26570Y558668D01*
X29931Y557276D01*
G37*
G36*
X163336Y560606D02*
X167100Y560606D01*
X168478Y561984D01*
X168881Y562255D01*
X169376Y562356D01*
X218615Y562356D01*
X219092Y562263D01*
X219513Y561984D01*
X220368Y561130D01*
X224132Y561130D01*
X226794Y563791D01*
X226794Y567556D01*
X224132Y570218D01*
X220368Y570218D01*
X218466Y568316D01*
X218064Y568045D01*
X217568Y567944D01*
X169376Y567944D01*
X168900Y568037D01*
X168478Y568316D01*
X167100Y569694D01*
X163336Y569694D01*
X160674Y567032D01*
X160674Y563268D01*
X163336Y560606D01*
G37*
G36*
X131931Y550926D02*
X150809Y550926D01*
X154170Y552318D01*
X156742Y554890D01*
X158134Y558251D01*
X158134Y561889D01*
X156742Y565250D01*
X154170Y567822D01*
X150809Y569214D01*
X131931Y569214D01*
X128570Y567822D01*
X125998Y565250D01*
X124606Y561889D01*
X124606Y558251D01*
X125998Y554890D01*
X128570Y552318D01*
X131931Y550926D01*
G37*
G36*
X29931Y531876D02*
X48809Y531876D01*
X52170Y533268D01*
X54742Y535840D01*
X54879Y536172D01*
X55140Y536570D01*
X55557Y536855D01*
X56053Y536956D01*
X65692Y536956D01*
X66168Y536863D01*
X66590Y536584D01*
X67968Y535206D01*
X71732Y535206D01*
X74394Y537868D01*
X74394Y541632D01*
X71732Y544294D01*
X67968Y544294D01*
X66590Y542916D01*
X66187Y542645D01*
X65692Y542544D01*
X57105Y542544D01*
X56637Y542633D01*
X56214Y542909D01*
X55931Y543328D01*
X54742Y546200D01*
X52170Y548772D01*
X48809Y550164D01*
X29931Y550164D01*
X26570Y548772D01*
X23998Y546200D01*
X22606Y542839D01*
X22606Y539201D01*
X23998Y535840D01*
X26570Y533268D01*
X29931Y531876D01*
G37*
G36*
X131931Y525526D02*
X150809Y525526D01*
X154170Y526918D01*
X156742Y529490D01*
X158134Y532851D01*
X158134Y536489D01*
X156742Y539850D01*
X154170Y542422D01*
X150809Y543814D01*
X131931Y543814D01*
X128570Y542422D01*
X125998Y539850D01*
X124606Y536489D01*
X124606Y532851D01*
X125998Y529490D01*
X128570Y526918D01*
X131931Y525526D01*
G37*
G36*
X163218Y516156D02*
X166982Y516156D01*
X168360Y517534D01*
X168763Y517805D01*
X169258Y517906D01*
X192692Y517906D01*
X193168Y517813D01*
X193590Y517534D01*
X194968Y516156D01*
X198732Y516156D01*
X201394Y518818D01*
X201394Y522582D01*
X198732Y525244D01*
X194968Y525244D01*
X193590Y523866D01*
X193187Y523595D01*
X192692Y523494D01*
X169258Y523494D01*
X168782Y523587D01*
X168360Y523866D01*
X166982Y525244D01*
X163218Y525244D01*
X160556Y522582D01*
X160556Y518818D01*
X163218Y516156D01*
G37*
G36*
X29931Y506476D02*
X48809Y506476D01*
X52170Y507868D01*
X54742Y510440D01*
X54879Y510772D01*
X55140Y511170D01*
X55557Y511455D01*
X56053Y511556D01*
X72042Y511556D01*
X72518Y511463D01*
X72940Y511184D01*
X74318Y509806D01*
X78082Y509806D01*
X80744Y512468D01*
X80744Y516232D01*
X78082Y518894D01*
X74318Y518894D01*
X72940Y517516D01*
X72537Y517245D01*
X72042Y517144D01*
X57105Y517144D01*
X56637Y517233D01*
X56214Y517509D01*
X55931Y517928D01*
X54742Y520800D01*
X52170Y523372D01*
X48809Y524764D01*
X29931Y524764D01*
X26570Y523372D01*
X23998Y520800D01*
X22606Y517439D01*
X22606Y513801D01*
X23998Y510440D01*
X26570Y507868D01*
X29931Y506476D01*
G37*
G36*
X131931Y500126D02*
X150809Y500126D01*
X154170Y501518D01*
X156742Y504090D01*
X157405Y505692D01*
X157666Y506090D01*
X158083Y506375D01*
X158579Y506476D01*
X178722Y506476D01*
X179198Y506383D01*
X179620Y506104D01*
X182268Y503456D01*
X186032Y503456D01*
X187410Y504834D01*
X187813Y505105D01*
X188308Y505206D01*
X192692Y505206D01*
X193168Y505113D01*
X193590Y504834D01*
X194968Y503456D01*
X198732Y503456D01*
X201394Y506118D01*
X201394Y509882D01*
X198732Y512544D01*
X194968Y512544D01*
X193590Y511166D01*
X193187Y510895D01*
X192692Y510794D01*
X188308Y510794D01*
X187832Y510887D01*
X187410Y511166D01*
X186032Y512544D01*
X182268Y512544D01*
X182160Y512436D01*
X181757Y512165D01*
X181262Y512064D01*
X158579Y512064D01*
X158111Y512153D01*
X157688Y512429D01*
X157405Y512848D01*
X156742Y514450D01*
X154170Y517022D01*
X150809Y518414D01*
X131931Y518414D01*
X128570Y517022D01*
X125998Y514450D01*
X124606Y511089D01*
X124606Y507451D01*
X125998Y504090D01*
X128570Y501518D01*
X131931Y500126D01*
G37*
G36*
X29931Y481076D02*
X48809Y481076D01*
X52170Y482468D01*
X54742Y485040D01*
X54879Y485372D01*
X55140Y485770D01*
X55557Y486055D01*
X56053Y486156D01*
X78392Y486156D01*
X78868Y486063D01*
X79290Y485784D01*
X80668Y484406D01*
X84432Y484406D01*
X87094Y487068D01*
X87094Y490832D01*
X84432Y493494D01*
X80668Y493494D01*
X79290Y492116D01*
X78887Y491845D01*
X78392Y491744D01*
X57105Y491744D01*
X56637Y491833D01*
X56214Y492109D01*
X55931Y492528D01*
X54742Y495400D01*
X52170Y497972D01*
X48809Y499364D01*
X29931Y499364D01*
X26570Y497972D01*
X23998Y495400D01*
X22606Y492039D01*
X22606Y488401D01*
X23998Y485040D01*
X26570Y482468D01*
X29931Y481076D01*
G37*
G36*
X459701Y455676D02*
X478579Y455676D01*
X481940Y457068D01*
X484512Y459640D01*
X485904Y463001D01*
X485904Y466639D01*
X484512Y470000D01*
X481940Y472572D01*
X478579Y473964D01*
X459701Y473964D01*
X456340Y472572D01*
X453768Y470000D01*
X452376Y466639D01*
X452376Y463001D01*
X453768Y459640D01*
X456340Y457068D01*
X459701Y455676D01*
G37*
G36*
X459701Y430276D02*
X478579Y430276D01*
X481940Y431668D01*
X484512Y434240D01*
X485904Y437601D01*
X485904Y441239D01*
X484512Y444600D01*
X481940Y447172D01*
X478579Y448564D01*
X459701Y448564D01*
X456340Y447172D01*
X453768Y444600D01*
X452376Y441239D01*
X452376Y437601D01*
X453768Y434240D01*
X456340Y431668D01*
X459701Y430276D01*
G37*
G36*
X471170Y397510D02*
X487680Y397510D01*
X487680Y398261D01*
X486133Y401995D01*
X483275Y404853D01*
X479541Y406400D01*
X471170Y406400D01*
X471170Y397510D01*
G37*
G36*
X452120Y397510D02*
X468630Y397510D01*
X468630Y406400D01*
X460259Y406400D01*
X456525Y404853D01*
X453667Y401995D01*
X452120Y398261D01*
X452120Y397510D01*
G37*
G36*
X40640Y396240D02*
X57150Y396240D01*
X57150Y396991D01*
X55603Y400725D01*
X52745Y403583D01*
X49011Y405130D01*
X40640Y405130D01*
X40640Y396240D01*
G37*
G36*
X21590Y396240D02*
X38100Y396240D01*
X38100Y405130D01*
X29729Y405130D01*
X25995Y403583D01*
X23137Y400725D01*
X21590Y396991D01*
X21590Y396240D01*
G37*
G36*
X471170Y386080D02*
X479541Y386080D01*
X483275Y387627D01*
X486133Y390485D01*
X487680Y394219D01*
X487680Y394970D01*
X471170Y394970D01*
X471170Y386080D01*
G37*
G36*
X460259Y386080D02*
X468630Y386080D01*
X468630Y394970D01*
X452120Y394970D01*
X452120Y394219D01*
X453667Y390485D01*
X456525Y387627D01*
X460259Y386080D01*
G37*
G36*
X29729Y384810D02*
X38100Y384810D01*
X38100Y393700D01*
X21590Y393700D01*
X21590Y392949D01*
X23137Y389215D01*
X25995Y386357D01*
X29729Y384810D01*
G37*
G36*
X40640Y384810D02*
X49011Y384810D01*
X52745Y386357D01*
X55603Y389215D01*
X57150Y392949D01*
X57150Y393700D01*
X40640Y393700D01*
X40640Y384810D01*
G37*
G36*
X460461Y361696D02*
X479339Y361696D01*
X482700Y363088D01*
X485272Y365660D01*
X486664Y369021D01*
X486664Y372659D01*
X485272Y376020D01*
X482700Y378592D01*
X479339Y379984D01*
X460461Y379984D01*
X457100Y378592D01*
X454528Y376020D01*
X453136Y372659D01*
X453136Y369021D01*
X454528Y365660D01*
X457100Y363088D01*
X460461Y361696D01*
G37*
G36*
X29931Y360426D02*
X48809Y360426D01*
X52170Y361818D01*
X54742Y364390D01*
X56134Y367751D01*
X56134Y371389D01*
X54742Y374750D01*
X52170Y377322D01*
X48809Y378714D01*
X29931Y378714D01*
X26570Y377322D01*
X23998Y374750D01*
X22606Y371389D01*
X22606Y367751D01*
X23998Y364390D01*
X26570Y361818D01*
X29931Y360426D01*
G37*
G36*
X29931Y233426D02*
X48809Y233426D01*
X52170Y234818D01*
X54742Y237390D01*
X56134Y240751D01*
X56134Y244389D01*
X54742Y247750D01*
X52170Y250322D01*
X48809Y251714D01*
X29931Y251714D01*
X26570Y250322D01*
X23998Y247750D01*
X22606Y244389D01*
X22606Y240751D01*
X23998Y237390D01*
X26570Y234818D01*
X29931Y233426D01*
G37*
G36*
X29931Y208026D02*
X48809Y208026D01*
X52170Y209418D01*
X54742Y211990D01*
X54879Y212322D01*
X55140Y212720D01*
X55557Y213005D01*
X56053Y213106D01*
X65692Y213106D01*
X66168Y213013D01*
X66590Y212734D01*
X67968Y211356D01*
X71732Y211356D01*
X74394Y214018D01*
X74394Y217782D01*
X71732Y220444D01*
X67968Y220444D01*
X66590Y219066D01*
X66187Y218795D01*
X65692Y218694D01*
X57105Y218694D01*
X56637Y218783D01*
X56214Y219059D01*
X55931Y219478D01*
X54742Y222350D01*
X52170Y224922D01*
X48809Y226314D01*
X29931Y226314D01*
X26570Y224922D01*
X23998Y222350D01*
X22606Y218989D01*
X22606Y215351D01*
X23998Y211990D01*
X26570Y209418D01*
X29931Y208026D01*
G37*
G36*
X29931Y182626D02*
X48809Y182626D01*
X52170Y184018D01*
X54742Y186590D01*
X55405Y188192D01*
X55666Y188590D01*
X56083Y188875D01*
X56579Y188976D01*
X70772Y188976D01*
X71248Y188883D01*
X71670Y188604D01*
X74318Y185956D01*
X78082Y185956D01*
X80744Y188618D01*
X80744Y192382D01*
X78082Y195044D01*
X74318Y195044D01*
X74210Y194936D01*
X73807Y194665D01*
X73312Y194564D01*
X56579Y194564D01*
X56111Y194653D01*
X55688Y194929D01*
X55405Y195348D01*
X54742Y196950D01*
X52170Y199522D01*
X48809Y200914D01*
X29931Y200914D01*
X26570Y199522D01*
X23998Y196950D01*
X22606Y193589D01*
X22606Y189951D01*
X23998Y186590D01*
X26570Y184018D01*
X29931Y182626D01*
G37*
G36*
X67968Y58956D02*
X71732Y58956D01*
X73110Y60334D01*
X73513Y60605D01*
X74008Y60706D01*
X249842Y60706D01*
X250318Y60613D01*
X250740Y60334D01*
X252118Y58956D01*
X255882Y58956D01*
X258544Y61618D01*
X258544Y65786D01*
X258629Y66244D01*
X258902Y66670D01*
X259319Y66955D01*
X259814Y67056D01*
X319692Y67056D01*
X320168Y66963D01*
X320590Y66684D01*
X321968Y65306D01*
X325732Y65306D01*
X328394Y67968D01*
X328394Y71732D01*
X325732Y74394D01*
X321968Y74394D01*
X320590Y73016D01*
X320187Y72745D01*
X319692Y72644D01*
X272514Y72644D01*
X272056Y72729D01*
X271630Y73002D01*
X271345Y73419D01*
X271244Y73914D01*
X271244Y78486D01*
X271329Y78944D01*
X271602Y79370D01*
X272019Y79655D01*
X272514Y79756D01*
X287942Y79756D01*
X288418Y79663D01*
X288840Y79384D01*
X290218Y78006D01*
X293982Y78006D01*
X296644Y80668D01*
X296644Y84432D01*
X293982Y87094D01*
X290218Y87094D01*
X288840Y85716D01*
X288437Y85445D01*
X287942Y85344D01*
X285214Y85344D01*
X284756Y85429D01*
X284330Y85702D01*
X284045Y86119D01*
X283944Y86614D01*
X283944Y90782D01*
X281282Y93444D01*
X277518Y93444D01*
X276140Y92066D01*
X275737Y91795D01*
X275242Y91694D01*
X270858Y91694D01*
X270382Y91787D01*
X269960Y92066D01*
X268582Y93444D01*
X264818Y93444D01*
X263440Y92066D01*
X263037Y91795D01*
X262542Y91694D01*
X232758Y91694D01*
X232282Y91787D01*
X231860Y92066D01*
X230482Y93444D01*
X226718Y93444D01*
X225340Y92066D01*
X224937Y91795D01*
X224442Y91694D01*
X209950Y91694D01*
X209492Y91779D01*
X209067Y92052D01*
X208781Y92469D01*
X208680Y92964D01*
X208680Y96196D01*
X206018Y98858D01*
X202254Y98858D01*
X200796Y97400D01*
X200393Y97129D01*
X199898Y97028D01*
X188251Y97028D01*
X187812Y97106D01*
X187382Y97372D01*
X187089Y97784D01*
X186981Y98278D01*
X187073Y98775D01*
X187352Y99196D01*
X187507Y99351D01*
X190985Y105374D01*
X192785Y112092D01*
X192785Y119048D01*
X190985Y125766D01*
X187507Y131789D01*
X184558Y134738D01*
X184303Y135104D01*
X184187Y135596D01*
X184272Y136094D01*
X184544Y136520D01*
X184961Y136805D01*
X185457Y136906D01*
X244028Y136906D01*
X244504Y136813D01*
X244926Y136534D01*
X246304Y135156D01*
X250068Y135156D01*
X252730Y137818D01*
X252730Y141582D01*
X250068Y144244D01*
X246304Y144244D01*
X244926Y142866D01*
X244523Y142595D01*
X244028Y142494D01*
X170914Y142494D01*
X170456Y142579D01*
X170030Y142852D01*
X169745Y143269D01*
X169644Y143764D01*
X169644Y148336D01*
X169729Y148794D01*
X170002Y149220D01*
X170419Y149505D01*
X170914Y149606D01*
X274207Y149606D01*
X278435Y153834D01*
X278838Y154105D01*
X279333Y154206D01*
X281282Y154206D01*
X282660Y155584D01*
X283063Y155855D01*
X283558Y155956D01*
X287942Y155956D01*
X288418Y155863D01*
X288840Y155584D01*
X290218Y154206D01*
X293982Y154206D01*
X296644Y156868D01*
X296644Y161036D01*
X296729Y161494D01*
X297002Y161920D01*
X297419Y162205D01*
X297914Y162306D01*
X303117Y162306D01*
X303593Y162213D01*
X304015Y161934D01*
X306837Y159112D01*
X307092Y158746D01*
X307208Y158254D01*
X307123Y157756D01*
X306851Y157330D01*
X306434Y157045D01*
X305939Y156944D01*
X302918Y156944D01*
X300256Y154282D01*
X300256Y150518D01*
X302918Y147856D01*
X306682Y147856D01*
X308596Y149770D01*
X308999Y150041D01*
X309494Y150142D01*
X318450Y150142D01*
X318889Y150064D01*
X319319Y149798D01*
X319611Y149386D01*
X319720Y148892D01*
X319627Y148395D01*
X319348Y147974D01*
X319306Y147932D01*
X319306Y144168D01*
X321606Y141868D01*
X321861Y141502D01*
X321977Y141010D01*
X321892Y140512D01*
X321620Y140086D01*
X321203Y139801D01*
X320708Y139700D01*
X304264Y139700D01*
X303806Y139785D01*
X303380Y140058D01*
X303095Y140475D01*
X302994Y140970D01*
X302994Y141582D01*
X300332Y144244D01*
X296568Y144244D01*
X293906Y141582D01*
X293906Y137818D01*
X296568Y135156D01*
X298517Y135156D01*
X298993Y135063D01*
X299415Y134784D01*
X300087Y134112D01*
X322290Y134112D01*
X322728Y134034D01*
X323158Y133768D01*
X323451Y133356D01*
X323559Y132862D01*
X323467Y132365D01*
X323188Y131944D01*
X323033Y131789D01*
X319555Y125766D01*
X317755Y119048D01*
X317755Y112092D01*
X319555Y105374D01*
X323033Y99351D01*
X327951Y94433D01*
X333974Y90955D01*
X340692Y89155D01*
X347648Y89155D01*
X354366Y90955D01*
X360389Y94433D01*
X365307Y99351D01*
X368785Y105374D01*
X370585Y112092D01*
X370585Y119048D01*
X368785Y125766D01*
X366810Y129187D01*
X366640Y129782D01*
X366725Y130280D01*
X366997Y130706D01*
X367414Y130991D01*
X367909Y131092D01*
X438471Y131092D01*
X438947Y130999D01*
X439369Y130720D01*
X452764Y117325D01*
X453035Y116922D01*
X453136Y116427D01*
X453136Y115021D01*
X454528Y111660D01*
X457100Y109088D01*
X460461Y107696D01*
X479339Y107696D01*
X482700Y109088D01*
X485272Y111660D01*
X486664Y115021D01*
X486664Y118659D01*
X485272Y122020D01*
X482700Y124592D01*
X479339Y125984D01*
X460461Y125984D01*
X457100Y124592D01*
X456148Y123639D01*
X455764Y123376D01*
X455270Y123268D01*
X454773Y123360D01*
X454352Y123639D01*
X441311Y136680D01*
X418564Y136680D01*
X418106Y136765D01*
X417680Y137038D01*
X417395Y137455D01*
X417294Y137950D01*
X417294Y141986D01*
X417379Y142444D01*
X417652Y142870D01*
X418069Y143155D01*
X418564Y143256D01*
X451866Y143256D01*
X452324Y143171D01*
X452750Y142898D01*
X453035Y142481D01*
X453136Y141986D01*
X453136Y140421D01*
X454528Y137060D01*
X457100Y134488D01*
X460461Y133096D01*
X479339Y133096D01*
X482700Y134488D01*
X485272Y137060D01*
X486664Y140421D01*
X486664Y144059D01*
X485272Y147420D01*
X482700Y149992D01*
X479339Y151384D01*
X460661Y151384D01*
X460223Y151462D01*
X459792Y151728D01*
X459500Y152140D01*
X459392Y152634D01*
X459484Y153131D01*
X459763Y153552D01*
X464335Y158124D01*
X464738Y158395D01*
X465233Y158496D01*
X479339Y158496D01*
X482700Y159888D01*
X485272Y162460D01*
X486664Y165821D01*
X486664Y169459D01*
X485272Y172820D01*
X482700Y175392D01*
X479339Y176784D01*
X460461Y176784D01*
X457100Y175392D01*
X454528Y172820D01*
X453136Y169459D01*
X453136Y165821D01*
X454528Y162460D01*
X456751Y160238D01*
X457014Y159854D01*
X457122Y159360D01*
X457030Y158863D01*
X456751Y158442D01*
X454411Y156102D01*
X454008Y155831D01*
X453513Y155730D01*
X412214Y155730D01*
X411756Y155815D01*
X411330Y156088D01*
X411045Y156505D01*
X410944Y157000D01*
X410944Y160632D01*
X408282Y163294D01*
X404518Y163294D01*
X403140Y161916D01*
X402737Y161645D01*
X402242Y161544D01*
X334358Y161544D01*
X333882Y161637D01*
X333460Y161916D01*
X332082Y163294D01*
X328318Y163294D01*
X326940Y161916D01*
X326537Y161645D01*
X326042Y161544D01*
X312833Y161544D01*
X312357Y161637D01*
X311935Y161916D01*
X305957Y167894D01*
X152288Y167894D01*
X151859Y167969D01*
X151426Y168231D01*
X151131Y168641D01*
X151018Y169134D01*
X151107Y169631D01*
X151383Y170055D01*
X151802Y170337D01*
X154170Y171318D01*
X156742Y173890D01*
X157405Y175492D01*
X157666Y175890D01*
X158083Y176175D01*
X158579Y176276D01*
X218327Y176276D01*
X221285Y179234D01*
X221688Y179505D01*
X222183Y179606D01*
X224132Y179606D01*
X226794Y182268D01*
X226794Y186032D01*
X224132Y188694D01*
X220368Y188694D01*
X217706Y186032D01*
X217706Y184083D01*
X217613Y183607D01*
X217334Y183185D01*
X216385Y182236D01*
X215982Y181965D01*
X215487Y181864D01*
X158579Y181864D01*
X158111Y181953D01*
X157688Y182229D01*
X157405Y182648D01*
X156742Y184250D01*
X154170Y186822D01*
X150809Y188214D01*
X131931Y188214D01*
X128570Y186822D01*
X125998Y184250D01*
X124606Y180889D01*
X124606Y177251D01*
X125998Y173890D01*
X128570Y171318D01*
X130938Y170337D01*
X131306Y170104D01*
X131605Y169696D01*
X131721Y169204D01*
X131637Y168706D01*
X131364Y168280D01*
X130947Y167995D01*
X130452Y167894D01*
X105758Y167894D01*
X105282Y167987D01*
X104860Y168266D01*
X103482Y169644D01*
X99718Y169644D01*
X97056Y166982D01*
X97056Y163218D01*
X99718Y160556D01*
X103482Y160556D01*
X104860Y161934D01*
X105263Y162205D01*
X105758Y162306D01*
X108486Y162306D01*
X108944Y162221D01*
X109370Y161948D01*
X109655Y161531D01*
X109756Y161036D01*
X109756Y156868D01*
X112418Y154206D01*
X114836Y154206D01*
X115294Y154121D01*
X115720Y153848D01*
X116005Y153431D01*
X116106Y152936D01*
X116106Y150114D01*
X116021Y149656D01*
X115748Y149230D01*
X115331Y148945D01*
X114836Y148844D01*
X52128Y148844D01*
X51642Y148941D01*
X48809Y150114D01*
X29931Y150114D01*
X26570Y148722D01*
X23998Y146150D01*
X22606Y142789D01*
X22606Y139151D01*
X23998Y135790D01*
X26570Y133218D01*
X29931Y131826D01*
X48809Y131826D01*
X52170Y133218D01*
X54742Y135790D01*
X56134Y139151D01*
X56134Y141986D01*
X56219Y142444D01*
X56492Y142870D01*
X56909Y143155D01*
X57404Y143256D01*
X76736Y143256D01*
X77194Y143171D01*
X77620Y142898D01*
X77905Y142481D01*
X78006Y141986D01*
X78006Y137818D01*
X80668Y135156D01*
X84432Y135156D01*
X85810Y136534D01*
X86213Y136805D01*
X86708Y136906D01*
X147284Y136906D01*
X147722Y136828D01*
X148152Y136562D01*
X148445Y136150D01*
X148553Y135656D01*
X148461Y135159D01*
X148182Y134738D01*
X145233Y131789D01*
X141755Y125766D01*
X139955Y119048D01*
X139955Y118829D01*
X139877Y118390D01*
X139611Y117960D01*
X139199Y117667D01*
X138705Y117559D01*
X138208Y117652D01*
X137787Y117931D01*
X137354Y118364D01*
X56579Y118364D01*
X56111Y118453D01*
X55688Y118729D01*
X55405Y119148D01*
X54742Y120750D01*
X52170Y123322D01*
X48809Y124714D01*
X29931Y124714D01*
X26570Y123322D01*
X23998Y120750D01*
X22606Y117389D01*
X22606Y113751D01*
X23998Y110390D01*
X26570Y107818D01*
X29931Y106426D01*
X48809Y106426D01*
X52170Y107818D01*
X54742Y110390D01*
X55405Y111992D01*
X55666Y112390D01*
X56083Y112675D01*
X56579Y112776D01*
X134513Y112776D01*
X134990Y112683D01*
X135411Y112404D01*
X141264Y106551D01*
X141592Y105982D01*
X141755Y105374D01*
X145233Y99351D01*
X150151Y94433D01*
X150790Y94064D01*
X151009Y93904D01*
X151308Y93496D01*
X151424Y93004D01*
X151339Y92506D01*
X151067Y92080D01*
X150650Y91795D01*
X150155Y91694D01*
X118458Y91694D01*
X117982Y91787D01*
X117560Y92066D01*
X116182Y93444D01*
X112418Y93444D01*
X109756Y90782D01*
X109756Y86614D01*
X109671Y86156D01*
X109398Y85730D01*
X108981Y85445D01*
X108486Y85344D01*
X80358Y85344D01*
X79882Y85437D01*
X79460Y85716D01*
X78082Y87094D01*
X74318Y87094D01*
X71656Y84432D01*
X71656Y80668D01*
X74318Y78006D01*
X78082Y78006D01*
X79460Y79384D01*
X79863Y79655D01*
X80358Y79756D01*
X191036Y79756D01*
X191494Y79671D01*
X191920Y79398D01*
X192205Y78981D01*
X192306Y78486D01*
X192306Y74318D01*
X194968Y71656D01*
X198732Y71656D01*
X200110Y73034D01*
X200513Y73305D01*
X201008Y73406D01*
X235486Y73406D01*
X235944Y73321D01*
X236370Y73048D01*
X236655Y72631D01*
X236756Y72136D01*
X236756Y67564D01*
X236671Y67106D01*
X236398Y66680D01*
X235981Y66395D01*
X235486Y66294D01*
X74008Y66294D01*
X73532Y66387D01*
X73110Y66666D01*
X71732Y68044D01*
X67968Y68044D01*
X65306Y65382D01*
X65306Y61618D01*
X67968Y58956D01*
G37*
G36*
X29931Y157226D02*
X48809Y157226D01*
X52170Y158618D01*
X54742Y161190D01*
X54879Y161522D01*
X55140Y161920D01*
X55557Y162205D01*
X56053Y162306D01*
X78392Y162306D01*
X78868Y162213D01*
X79290Y161934D01*
X80668Y160556D01*
X84432Y160556D01*
X87094Y163218D01*
X87094Y166982D01*
X84432Y169644D01*
X80668Y169644D01*
X79290Y168266D01*
X78887Y167995D01*
X78392Y167894D01*
X57105Y167894D01*
X56637Y167983D01*
X56214Y168259D01*
X55931Y168678D01*
X54742Y171550D01*
X52170Y174122D01*
X48809Y175514D01*
X29931Y175514D01*
X26570Y174122D01*
X23998Y171550D01*
X22606Y168189D01*
X22606Y164551D01*
X23998Y161190D01*
X26570Y158618D01*
X29931Y157226D01*
G37*
G36*
X61618Y46256D02*
X65382Y46256D01*
X66760Y47634D01*
X67163Y47905D01*
X67658Y48006D01*
X199042Y48006D01*
X199518Y47913D01*
X199940Y47634D01*
X201318Y46256D01*
X205082Y46256D01*
X207744Y48918D01*
X207744Y52682D01*
X205082Y55344D01*
X201318Y55344D01*
X199940Y53966D01*
X199537Y53695D01*
X199042Y53594D01*
X67658Y53594D01*
X67182Y53687D01*
X66760Y53966D01*
X65382Y55344D01*
X61618Y55344D01*
X58956Y52682D01*
X58956Y48918D01*
X61618Y46256D01*
G37*
%LPD*%
D10*
X148990Y661670D02*
X133750Y661670D01*
X133750Y636270D02*
X148990Y636270D01*
X148990Y610870D02*
X133750Y610870D01*
X133750Y585470D02*
X148990Y585470D01*
X148990Y560070D02*
X133750Y560070D01*
X133750Y534670D02*
X148990Y534670D01*
X148990Y509270D02*
X133750Y509270D01*
X133750Y483870D02*
X148990Y483870D01*
X148990Y458470D02*
X133750Y458470D01*
X133750Y433070D02*
X148990Y433070D01*
X148990Y407670D02*
X133750Y407670D01*
X133750Y382270D02*
X148990Y382270D01*
X148990Y356870D02*
X133750Y356870D01*
X133750Y331470D02*
X148990Y331470D01*
X148990Y306070D02*
X133750Y306070D01*
X133750Y280670D02*
X148990Y280670D01*
X148990Y255270D02*
X133750Y255270D01*
X133750Y229870D02*
X148990Y229870D01*
X148990Y204470D02*
X133750Y204470D01*
X133750Y179070D02*
X148990Y179070D01*
X362350Y661670D02*
X377590Y661670D01*
X377590Y636270D02*
X362350Y636270D01*
X362350Y610870D02*
X377590Y610870D01*
X377590Y585470D02*
X362350Y585470D01*
X362350Y560070D02*
X377590Y560070D01*
X377590Y534670D02*
X362350Y534670D01*
X362350Y509270D02*
X377590Y509270D01*
X377590Y483870D02*
X362350Y483870D01*
X362350Y458470D02*
X377590Y458470D01*
X377590Y433070D02*
X362350Y433070D01*
X362350Y407670D02*
X377590Y407670D01*
X377590Y382270D02*
X362350Y382270D01*
X362350Y356870D02*
X377590Y356870D01*
X377590Y331470D02*
X362350Y331470D01*
X362350Y306070D02*
X377590Y306070D01*
X377590Y280670D02*
X362350Y280670D01*
X362350Y255270D02*
X377590Y255270D01*
X377590Y229870D02*
X362350Y229870D01*
X362350Y204470D02*
X377590Y204470D01*
X377590Y179070D02*
X362350Y179070D01*
X46990Y394970D02*
X31750Y394970D01*
X31750Y369570D02*
X46990Y369570D01*
X46990Y344170D02*
X31750Y344170D01*
X31750Y318770D02*
X46990Y318770D01*
X46990Y293370D02*
X31750Y293370D01*
X31750Y267970D02*
X46990Y267970D01*
X46990Y242570D02*
X31750Y242570D01*
X31750Y217170D02*
X46990Y217170D01*
X46990Y191770D02*
X31750Y191770D01*
X31750Y166370D02*
X46990Y166370D01*
X46990Y140970D02*
X31750Y140970D01*
X31750Y115570D02*
X46990Y115570D01*
X462280Y396240D02*
X477520Y396240D01*
X477520Y370840D02*
X462280Y370840D01*
X462280Y345440D02*
X477520Y345440D01*
X477520Y320040D02*
X462280Y320040D01*
X462280Y294640D02*
X477520Y294640D01*
X477520Y269240D02*
X462280Y269240D01*
X462280Y243840D02*
X477520Y243840D01*
X477520Y218440D02*
X462280Y218440D01*
X462280Y193040D02*
X477520Y193040D01*
X477520Y167640D02*
X462280Y167640D01*
X462280Y142240D02*
X477520Y142240D01*
X477520Y116840D02*
X462280Y116840D01*
X46990Y718820D02*
X31750Y718820D01*
X31750Y693420D02*
X46990Y693420D01*
X46990Y668020D02*
X31750Y668020D01*
X31750Y642620D02*
X46990Y642620D01*
X46990Y617220D02*
X31750Y617220D01*
X31750Y591820D02*
X46990Y591820D01*
X46990Y566420D02*
X31750Y566420D01*
X31750Y541020D02*
X46990Y541020D01*
X46990Y515620D02*
X31750Y515620D01*
X31750Y490220D02*
X46990Y490220D01*
X46990Y464820D02*
X31750Y464820D01*
X31750Y439420D02*
X46990Y439420D01*
X461520Y718820D02*
X476760Y718820D01*
X476760Y693420D02*
X461520Y693420D01*
X461520Y668020D02*
X476760Y668020D01*
X476760Y642620D02*
X461520Y642620D01*
X461520Y617220D02*
X476760Y617220D01*
X476760Y591820D02*
X461520Y591820D01*
X461520Y566420D02*
X476760Y566420D01*
X476760Y541020D02*
X461520Y541020D01*
X461520Y515620D02*
X476760Y515620D01*
X476760Y490220D02*
X461520Y490220D01*
X461520Y464820D02*
X476760Y464820D01*
X476760Y439420D02*
X461520Y439420D01*
X19050Y820166D02*
X19050Y835406D01*
X44450Y835406D02*
X44450Y820166D01*
X69850Y820166D02*
X69850Y835406D01*
X95250Y835406D02*
X95250Y820166D01*
X120650Y820166D02*
X120650Y835406D01*
X146050Y835406D02*
X146050Y820166D01*
X171450Y820166D02*
X171450Y835406D01*
X196850Y835406D02*
X196850Y820166D01*
X222250Y820166D02*
X222250Y835406D01*
X247650Y835406D02*
X247650Y820166D01*
X273050Y820166D02*
X273050Y835406D01*
X298450Y835406D02*
X298450Y820166D01*
X209550Y875030D02*
X209550Y890270D01*
X234950Y890270D02*
X234950Y875030D01*
X260350Y875030D02*
X260350Y890270D01*
X285750Y890270D02*
X285750Y875030D01*
X311150Y875030D02*
X311150Y890270D01*
X336550Y890270D02*
X336550Y875030D01*
X361950Y875030D02*
X361950Y890270D01*
X387350Y890270D02*
X387350Y875030D01*
X412750Y875030D02*
X412750Y890270D01*
X438150Y890270D02*
X438150Y875030D01*
X463550Y875030D02*
X463550Y890270D01*
X488950Y890270D02*
X488950Y875030D01*
D11*
X184150Y509270D02*
X184150Y508000D01*
D12*
X196850Y508000D03*
D11*
X184150Y508000D01*
D12*
X196850Y425450D03*
D11*
X222250Y425450D01*
D12*
X222250Y425450D03*
X241300Y425450D03*
D11*
X222250Y425450D01*
D12*
X184608Y381458D03*
X201986Y381056D03*
D11*
X185010Y381056D01*
X184608Y381458D01*
X184150Y509270D02*
X141370Y509270D01*
D12*
X184150Y508000D03*
D11*
X152400Y488950D02*
X147320Y483870D01*
X152400Y488950D02*
X215900Y488950D01*
X222250Y495300D01*
D12*
X222250Y495300D03*
X234950Y495300D03*
D11*
X222250Y495300D01*
X234950Y495300D02*
X279400Y495300D01*
D12*
X279400Y495300D03*
X292100Y495300D03*
D11*
X279400Y495300D01*
X298450Y501650D02*
X317500Y501650D01*
X298450Y501650D02*
X292100Y495300D01*
D12*
X317500Y501650D03*
X330200Y501650D03*
D11*
X317500Y501650D01*
X147320Y483870D02*
X141370Y483870D01*
D12*
X184150Y590550D03*
X196850Y590550D03*
D11*
X184150Y590550D01*
X196850Y590550D02*
X215900Y590550D01*
D12*
X285750Y590550D03*
D11*
X228600Y590550D02*
X215900Y590550D01*
X228600Y590550D02*
X285750Y590550D01*
D12*
X215900Y590550D03*
X228600Y590550D03*
X158750Y594642D03*
D11*
X180058Y594642D02*
X184150Y590550D01*
X180058Y594642D02*
X158750Y594642D01*
D12*
X330200Y438150D03*
X317500Y641350D03*
D11*
X336550Y641350D01*
D12*
X336550Y641350D03*
X228600Y736600D03*
D11*
X241300Y736600D01*
D12*
X317500Y736600D03*
D11*
X241300Y736600D01*
D12*
X241300Y736600D03*
X317500Y762000D03*
D11*
X279400Y762000D01*
D12*
X279400Y762000D03*
X266700Y762000D03*
D11*
X279400Y762000D01*
X319303Y438150D02*
X330200Y438150D01*
X318033Y439420D02*
X147320Y439420D01*
X318033Y439420D02*
X319303Y438150D01*
X141370Y433470D02*
X141370Y433070D01*
X141370Y433470D02*
X147320Y439420D01*
D12*
X400050Y298450D03*
D11*
X396748Y295148D01*
X355953Y295148D01*
D12*
X184150Y400050D03*
X393700Y469900D03*
X241300Y469900D03*
X393700Y571500D03*
D11*
X390144Y575056D01*
X357636Y575056D01*
D12*
X184150Y615950D03*
X393700Y190500D03*
D11*
X392684Y189484D01*
X345952Y177800D02*
X260350Y177800D01*
X357636Y189484D02*
X392684Y189484D01*
X357636Y189484D02*
X345952Y177800D01*
X260350Y177800D02*
X254000Y184150D01*
X234950Y184150D01*
D12*
X234950Y184150D03*
X331326Y589804D03*
D11*
X342889Y589804D02*
X357636Y575056D01*
X342889Y589804D02*
X331326Y589804D01*
X332608Y464086D02*
X247114Y464086D01*
X241300Y469900D01*
X332608Y464086D02*
X337914Y469392D01*
X184150Y400050D02*
X164654Y400050D01*
X294169Y292636D02*
X295106Y291700D01*
X352505Y291700D01*
X355953Y295148D01*
X294169Y292636D02*
X219842Y292636D01*
X233267Y611886D02*
X229203Y615950D01*
X184150Y615950D01*
D12*
X331136Y615014D03*
D11*
X325533Y611886D02*
X233267Y611886D01*
X328661Y615014D02*
X331136Y615014D01*
X328661Y615014D02*
X325533Y611886D01*
D12*
X160783Y399174D03*
D11*
X163778Y399174D02*
X164654Y400050D01*
X163778Y399174D02*
X160783Y399174D01*
X155762Y306070D02*
X162620Y299212D01*
X213266Y299212D01*
X155762Y306070D02*
X141370Y306070D01*
X213266Y299212D02*
X219842Y292636D01*
X389537Y469392D02*
X390045Y469900D01*
X393700Y469900D01*
X389537Y469392D02*
X337914Y469392D01*
X201930Y280670D02*
X165100Y280670D01*
X201930Y280670D02*
X203200Y279400D01*
D12*
X203200Y279400D03*
X196850Y76200D03*
D11*
X266700Y76200D01*
D12*
X266700Y76200D03*
X165100Y520700D03*
D11*
X196850Y520700D01*
D12*
X196850Y520700D03*
X222250Y565674D03*
D11*
X221727Y565150D01*
D12*
X165100Y641350D03*
X292100Y635000D03*
D11*
X271178Y641350D02*
X165100Y641350D01*
X271178Y641350D02*
X276992Y635536D01*
X291564Y635536D02*
X292100Y635000D01*
X291564Y635536D02*
X276992Y635536D01*
D12*
X165100Y280670D03*
X203200Y368300D03*
D11*
X209550Y374650D01*
X222250Y374650D01*
D12*
X222250Y374650D03*
X165218Y565150D03*
D11*
X221727Y565150D01*
D12*
X165100Y196850D03*
D11*
X254536Y196850D01*
D12*
X279400Y196850D03*
D11*
X254536Y196850D01*
D12*
X257810Y374650D03*
D11*
X234950Y374650D01*
D12*
X234950Y374650D03*
X260350Y514350D03*
D11*
X273050Y514350D02*
X279400Y520700D01*
X273050Y514350D02*
X260350Y514350D01*
D12*
X279400Y520700D03*
X260350Y622300D03*
D11*
X234950Y622300D01*
D12*
X215900Y628650D03*
X209550Y762000D03*
D11*
X228600Y762000D01*
D12*
X228600Y762000D03*
X235886Y623236D03*
D11*
X234950Y622300D01*
X234347Y622300D01*
X230283Y626364D01*
X218186Y626364D01*
X215900Y628650D01*
D12*
X254536Y196850D03*
D11*
X357636Y244856D02*
X387854Y244856D01*
X390648Y247650D01*
X355378Y247114D02*
X158614Y247114D01*
X355378Y247114D02*
X357636Y244856D01*
D12*
X323850Y146050D03*
D11*
X336550Y146050D01*
X341630Y140970D01*
X411480Y140970D01*
X412750Y139700D01*
D12*
X412750Y139700D03*
X241300Y69850D03*
D11*
X323850Y69850D01*
D12*
X323850Y69850D03*
D11*
X298450Y393700D02*
X260350Y393700D01*
X254000Y400050D01*
X196850Y400050D01*
D12*
X196850Y400050D03*
X298450Y393700D03*
X412750Y622300D03*
D11*
X260350Y635000D02*
X196850Y635000D01*
D12*
X196850Y635000D03*
X412750Y742950D03*
X266700Y742950D03*
D11*
X356564Y742950D02*
X412750Y742950D01*
X356564Y742950D02*
X353008Y746506D01*
X335332Y746506D01*
X331776Y742950D01*
X266700Y742950D01*
X260350Y635000D02*
X268986Y626364D01*
X399447Y622300D02*
X412750Y622300D01*
X357636Y625856D02*
X357128Y626364D01*
X268986Y626364D01*
X395891Y625856D02*
X399447Y622300D01*
X395891Y625856D02*
X357636Y625856D01*
X358652Y393700D02*
X351510Y386558D01*
X305592Y386558D01*
X298450Y393700D01*
D12*
X418564Y247650D03*
X418564Y393700D03*
D11*
X418564Y247650D02*
X390648Y247650D01*
X418564Y393700D02*
X358652Y393700D01*
X158614Y247114D02*
X141370Y229870D01*
D12*
X114300Y158750D03*
D11*
X184150Y158750D01*
D12*
X184150Y158750D03*
X196850Y158750D03*
D11*
X184150Y158750D01*
D12*
X114300Y88900D03*
X266700Y88900D03*
D11*
X228600Y88900D01*
D12*
X228600Y88900D03*
D11*
X201328Y88900D02*
X114300Y88900D01*
X201328Y88900D02*
X201728Y88500D01*
X206544Y88500D01*
X206945Y88900D01*
X228600Y88900D01*
D12*
X279400Y88900D03*
D11*
X266700Y88900D01*
D12*
X120650Y215900D03*
X234950Y209550D03*
D11*
X222250Y209550D01*
X234950Y209550D02*
X317500Y209550D01*
D12*
X317500Y209550D03*
X330200Y209550D03*
D11*
X317500Y209550D01*
D12*
X120650Y152400D03*
D11*
X273050Y152400D02*
X279400Y158750D01*
X273050Y152400D02*
X120650Y152400D01*
D12*
X279400Y158750D03*
X292100Y158750D03*
D11*
X279400Y158750D01*
X222250Y209550D02*
X217772Y209550D01*
X211958Y203736D01*
X222250Y209550D02*
X222250Y210764D01*
D12*
X221921Y211093D03*
D11*
X222250Y210764D01*
X211958Y203736D02*
X191836Y203736D01*
X121666Y214884D02*
X120650Y215900D01*
X121666Y214884D02*
X180688Y214884D01*
X191836Y203736D01*
D12*
X171450Y329677D03*
X177800Y234950D03*
X273050Y190500D03*
X215900Y114300D03*
X170970Y425450D03*
X266700Y431800D03*
X266700Y520700D03*
X171450Y546100D03*
X171450Y666750D03*
X266700Y666750D03*
X215900Y787400D03*
X266700Y332006D03*
X184150Y202720D03*
X101600Y203200D03*
X101600Y165100D03*
D11*
X304800Y165100D01*
X311150Y158750D02*
X330200Y158750D01*
X311150Y158750D02*
X304800Y165100D01*
D12*
X330200Y158750D03*
D11*
X406400Y158750D01*
D12*
X406400Y158750D03*
X406400Y476250D03*
D11*
X390648Y476250D01*
D12*
X330200Y469900D03*
D11*
X387854Y473456D02*
X390648Y476250D01*
X333756Y473456D02*
X330200Y469900D01*
X333756Y473456D02*
X387854Y473456D01*
D12*
X406400Y552450D03*
X177800Y552450D03*
D11*
X390648Y552450D02*
X406400Y552450D01*
X390648Y552450D02*
X387854Y549656D01*
X357636Y549656D01*
X354842Y552450D01*
X177800Y552450D01*
D12*
X406400Y647700D03*
X279400Y641350D03*
D11*
X285750Y647700D01*
X406400Y647700D01*
D12*
X406400Y698500D03*
X285750Y704850D03*
D11*
X334316Y704850D02*
X335332Y703834D01*
X334316Y704850D02*
X285750Y704850D01*
X401066Y703834D02*
X406400Y698500D01*
X401066Y703834D02*
X335332Y703834D01*
X102870Y204470D02*
X101600Y203200D01*
X102870Y204470D02*
X141370Y204470D01*
X182400Y204470D01*
X184150Y202720D01*
X217170Y179070D02*
X222250Y184150D01*
D12*
X222250Y184150D03*
X222250Y203200D03*
D11*
X292100Y203200D01*
D12*
X292100Y203200D03*
X215900Y469900D03*
D11*
X228600Y469900D01*
D12*
X400050Y450850D03*
X406400Y209550D03*
D11*
X399538Y209550D01*
X345952Y203200D02*
X292100Y203200D01*
D12*
X292100Y514350D03*
X400050Y596900D03*
X320374Y590401D03*
D11*
X323701Y590401D01*
D12*
X400050Y768350D03*
D11*
X247650Y768350D01*
X241300Y762000D01*
D12*
X241300Y762000D03*
D11*
X329692Y596392D02*
X323701Y590401D01*
X357636Y214884D02*
X394204Y214884D01*
X399538Y209550D01*
X357636Y214884D02*
X345952Y203200D01*
X390648Y450850D02*
X400050Y450850D01*
X241300Y457200D02*
X228600Y469900D01*
X357636Y448056D02*
X387854Y448056D01*
X390648Y450850D01*
X348492Y457200D02*
X241300Y457200D01*
X348492Y457200D02*
X357636Y448056D01*
D12*
X215900Y501650D03*
D11*
X278797Y514350D02*
X292100Y514350D01*
X278797Y514350D02*
X266097Y501650D01*
X215900Y501650D01*
X217170Y179070D02*
X141370Y179070D01*
X390045Y596900D02*
X400050Y596900D01*
X390045Y596900D02*
X389537Y596392D01*
X329692Y596392D01*
D12*
X342900Y425450D03*
X279400Y425450D03*
X271714Y278064D03*
D11*
X283492Y276944D02*
X285948Y279400D01*
X283492Y276944D02*
X275308Y276944D01*
X274189Y278064D01*
X271714Y278064D01*
D12*
X328515Y281085D03*
D11*
X326831Y279400D01*
X285948Y279400D01*
X342250Y424800D02*
X342900Y425450D01*
X342250Y424800D02*
X280050Y424800D01*
X279400Y425450D01*
D12*
X349250Y463550D03*
D11*
X364890Y463550D01*
X369970Y458470D01*
D12*
X317500Y330200D03*
D11*
X292100Y330200D01*
D12*
X292100Y330200D03*
X324386Y443964D03*
D11*
X338958Y437614D02*
X362486Y437614D01*
X338958Y437614D02*
X332608Y443964D01*
X324386Y443964D01*
X367030Y433070D02*
X369970Y433070D01*
X367030Y433070D02*
X362486Y437614D01*
D12*
X190500Y349250D03*
D11*
X203200Y361950D01*
X317500Y361950D01*
X330200Y374650D01*
D12*
X330200Y374650D03*
X330200Y392372D03*
D11*
X331528Y393700D02*
X352905Y393700D01*
X331528Y393700D02*
X330200Y392372D01*
X352905Y393700D02*
X366875Y407670D01*
X369970Y407670D01*
D12*
X292100Y381000D03*
X222250Y298450D03*
X297514Y297514D03*
D11*
X296578Y298450D01*
X222250Y298450D01*
X292100Y381000D02*
X293370Y382270D01*
X369970Y382270D01*
D12*
X323850Y311150D03*
D11*
X346555Y311150D01*
X354253Y318848D02*
X355953Y320548D01*
X354253Y318848D02*
X346555Y311150D01*
D12*
X190500Y310670D03*
D11*
X190980Y311150D02*
X323850Y311150D01*
X190980Y311150D02*
X190500Y310670D01*
X355953Y320548D02*
X366875Y331470D01*
X369970Y331470D01*
X369970Y306070D02*
X438150Y306070D01*
X458470Y306070D01*
X469900Y294640D01*
X43180Y293370D02*
X39370Y293370D01*
X43180Y293370D02*
X66802Y269748D01*
D12*
X342900Y279400D03*
D11*
X228600Y622300D02*
X44450Y622300D01*
X39370Y617220D01*
X228600Y622300D02*
X234950Y615950D01*
X323850Y615950D01*
X329692Y621792D01*
X394208Y621792D01*
X400050Y615950D01*
X438150Y615950D01*
X467870Y615950D01*
X469140Y617220D01*
D12*
X438150Y306070D03*
X431800Y863600D03*
D11*
X330200Y863600D01*
X323850Y857250D02*
X311150Y869950D01*
X311150Y882650D01*
X120650Y844550D02*
X120650Y827786D01*
X120650Y844550D02*
X127000Y850900D01*
X317500Y850900D01*
X323850Y857250D01*
X330200Y863600D01*
D12*
X439392Y615950D03*
D11*
X438150Y615950D01*
X342900Y279400D02*
X333248Y269748D01*
X66802Y269748D01*
X369970Y280670D02*
X431800Y280670D01*
X458470Y280670D01*
X469900Y269240D01*
X41656Y265684D02*
X39370Y267970D01*
X39370Y591820D02*
X45720Y591820D01*
X54356Y600456D01*
X357636Y600456D02*
X387854Y600456D01*
X390648Y603250D01*
X435328Y603250D01*
X457710Y603250D01*
X161512Y602714D02*
X159254Y600456D01*
X161512Y602714D02*
X355378Y602714D01*
X357636Y600456D01*
X159254Y600456D02*
X54356Y600456D01*
X457710Y603250D02*
X469140Y591820D01*
D12*
X431800Y280670D03*
X425450Y844550D03*
D11*
X336550Y844550D01*
D12*
X336550Y844550D03*
D11*
X335280Y845820D01*
X164084Y845820D01*
X146050Y827786D01*
D12*
X435328Y603250D03*
D11*
X369970Y280670D02*
X354984Y265684D01*
X41656Y265684D01*
D12*
X304800Y349250D03*
D11*
X336550Y349250D01*
D12*
X336550Y349250D03*
X304800Y254524D03*
X266700Y254000D03*
D11*
X267224Y254524D01*
X304800Y254524D01*
D12*
X266700Y345440D03*
X387350Y348714D03*
D11*
X385092Y346456D02*
X339344Y346456D01*
X336550Y349250D01*
X385092Y346456D02*
X387350Y348714D01*
X270510Y349250D02*
X266700Y345440D01*
X270510Y349250D02*
X304800Y349250D01*
X304800Y254524D02*
X369224Y254524D01*
X369970Y255270D01*
X368700Y228600D02*
X228600Y228600D01*
X215900Y241300D01*
D12*
X215900Y241300D03*
X247650Y304800D03*
X336550Y298450D03*
D11*
X306014Y298450D01*
D12*
X171594Y241300D03*
D11*
X215900Y241300D01*
X247650Y304800D02*
X298450Y304800D01*
X304800Y298450D01*
D12*
X306014Y298450D03*
D11*
X304800Y298450D01*
X369970Y229870D02*
X368700Y228600D01*
D12*
X279400Y330200D03*
D11*
X285750Y336550D01*
X349730Y336550D01*
D12*
X349730Y336550D03*
X241924Y329576D03*
D11*
X264292Y326192D02*
X269108Y326192D01*
X273116Y330200D02*
X279400Y330200D01*
X273116Y330200D02*
X269108Y326192D01*
X264292Y326192D02*
X260908Y329576D01*
X241924Y329576D01*
D12*
X254000Y63500D03*
D11*
X69850Y63500D01*
D12*
X69850Y63500D03*
X69850Y215900D03*
D11*
X40640Y215900D01*
X39370Y217170D01*
D12*
X292100Y82550D03*
D11*
X76200Y82550D01*
D12*
X76200Y82550D03*
X76200Y190500D03*
D11*
X74930Y191770D02*
X39370Y191770D01*
X74930Y191770D02*
X76200Y190500D01*
X82550Y139700D02*
X248186Y139700D01*
D12*
X82550Y139700D03*
X82550Y165100D03*
D11*
X40640Y165100D01*
X39370Y166370D01*
D12*
X248186Y139700D03*
X165100Y146050D03*
D11*
X44450Y146050D01*
X39370Y140970D01*
X39370Y115570D02*
X136196Y115570D01*
X157532Y94234D01*
X202184Y94234D01*
D12*
X204136Y94314D03*
D11*
X202264Y94314D02*
X202184Y94234D01*
X202264Y94314D02*
X204136Y94314D01*
D12*
X247650Y234950D03*
D11*
X273050Y234950D02*
X349250Y234950D01*
X273050Y234950D02*
X247650Y234950D01*
X349250Y234950D02*
X355092Y240792D01*
X466852Y240792D02*
X469900Y243840D01*
X466852Y240792D02*
X355092Y240792D01*
D12*
X209550Y209550D03*
D11*
X218948Y218948D01*
X396395Y218440D02*
X469900Y218440D01*
X396395Y218440D02*
X395887Y218948D01*
X218948Y218948D01*
D12*
X279400Y342900D03*
D11*
X60358Y344170D02*
X39370Y344170D01*
X60358Y344170D02*
X62136Y342392D01*
X264292Y337820D02*
X269108Y337820D01*
X264292Y337820D02*
X259720Y342392D01*
X269108Y337820D02*
X274188Y342900D01*
X279400Y342900D01*
X259720Y342392D02*
X62136Y342392D01*
D12*
X330200Y330200D03*
D11*
X316484Y316484D01*
X41656Y316484D01*
X39370Y318770D01*
D12*
X203200Y50800D03*
D11*
X63500Y50800D01*
D12*
X63500Y50800D03*
X317500Y304800D03*
D11*
X345952Y304800D01*
X466344Y316484D02*
X469900Y320040D01*
X466344Y316484D02*
X357636Y316484D01*
X345952Y304800D01*
D12*
X292100Y342900D03*
D11*
X292608Y342392D02*
X466852Y342392D01*
X292608Y342392D02*
X292100Y342900D01*
X466852Y342392D02*
X469900Y345440D01*
D12*
X266700Y184150D03*
D11*
X391292Y196314D02*
X396108Y196314D01*
X399382Y193040D01*
X469900Y193040D01*
X346555Y184150D02*
X266700Y184150D01*
X346555Y184150D02*
X355953Y193548D01*
X388526Y193548D02*
X391292Y196314D01*
X388526Y193548D02*
X355953Y193548D01*
X313154Y152936D02*
X455196Y152936D01*
X469900Y167640D01*
D12*
X304800Y152400D03*
D11*
X305336Y152936D01*
X313154Y152936D01*
X466090Y146050D02*
X469900Y142240D01*
D12*
X349250Y146784D03*
D11*
X349984Y146050D02*
X466090Y146050D01*
X349984Y146050D02*
X349250Y146784D01*
D12*
X298450Y139700D03*
D11*
X457200Y116840D02*
X469900Y116840D01*
X457200Y116840D02*
X440154Y133886D01*
X356028Y133886D01*
X353008Y136906D01*
X301244Y136906D02*
X298450Y139700D01*
X301244Y136906D02*
X353008Y136906D01*
D12*
X101600Y285750D03*
D11*
X129036Y291084D02*
X159254Y291084D01*
X129036Y291084D02*
X123702Y285750D01*
X101600Y285750D01*
D12*
X101600Y641350D03*
D11*
X40640Y641350D01*
X39370Y642620D01*
D12*
X184150Y286484D03*
D11*
X163854Y286484D01*
X159254Y291084D01*
D12*
X95250Y419100D03*
X95250Y666750D03*
D11*
X40640Y666750D01*
X39370Y668020D01*
X127353Y422148D02*
X124305Y419100D01*
X95250Y419100D01*
D12*
X330200Y399936D03*
D11*
X310500Y419636D01*
X163449Y419636D01*
X160937Y422148D01*
X127353Y422148D01*
D12*
X171450Y349250D03*
X63500Y349250D03*
D11*
X162048Y349250D02*
X171450Y349250D01*
X162048Y349250D02*
X159254Y346456D01*
X129036Y346456D01*
X126242Y349250D01*
X63500Y349250D01*
D12*
X69850Y374650D03*
D11*
X72644Y371856D01*
D12*
X69850Y539750D03*
D11*
X40640Y539750D01*
X39370Y541020D01*
D12*
X209550Y380464D03*
D11*
X209550Y380397D02*
X203803Y374650D01*
X209550Y380397D02*
X209550Y380464D01*
X156098Y374650D02*
X153304Y371856D01*
X156098Y374650D02*
X203803Y374650D01*
X153304Y371856D02*
X72644Y371856D01*
D12*
X247650Y393700D03*
X76200Y393700D03*
X76200Y514350D03*
D11*
X40640Y514350D01*
X39370Y515620D01*
X241836Y387886D02*
X247650Y393700D01*
X77216Y392684D02*
X76200Y393700D01*
X172810Y387886D02*
X241836Y387886D01*
X172810Y387886D02*
X169547Y384624D01*
X161364Y384624D01*
X153304Y392684D02*
X77216Y392684D01*
X153304Y392684D02*
X161364Y384624D01*
D12*
X209550Y393700D03*
X82550Y400050D03*
D11*
X126242Y400050D02*
X129036Y397256D01*
X126242Y400050D02*
X82550Y400050D01*
D12*
X82550Y488950D03*
D11*
X40640Y488950D01*
X39370Y490220D01*
X172876Y393700D02*
X209550Y393700D01*
X172876Y393700D02*
X167864Y388688D01*
X163047Y388688D01*
X154479Y397256D01*
X129036Y397256D01*
X44450Y469900D02*
X39370Y464820D01*
D12*
X170914Y469900D03*
D11*
X44450Y469900D01*
X44450Y444500D02*
X39370Y439420D01*
D12*
X214964Y445436D03*
D11*
X214028Y444500D02*
X44450Y444500D01*
X214028Y444500D02*
X214964Y445436D01*
D12*
X425450Y666750D03*
D11*
X426720Y668020D01*
X469140Y668020D01*
D12*
X331136Y449778D03*
D11*
X334292Y448028D02*
X338328Y443992D01*
X334292Y448028D02*
X332886Y448028D01*
X331136Y449778D01*
D12*
X431264Y444500D03*
D11*
X390045Y444500D01*
X389537Y443992D01*
X338328Y443992D01*
D12*
X425450Y292100D03*
X419100Y641350D03*
D11*
X420370Y642620D01*
X469140Y642620D01*
D12*
X196850Y286484D03*
D11*
X197048Y286286D01*
X214697Y286286D01*
X216475Y284508D01*
X276992Y281008D02*
X281808Y281008D01*
X273492Y284508D02*
X216475Y284508D01*
X273492Y284508D02*
X276992Y281008D01*
X353451Y286899D02*
X357636Y291084D01*
X287699Y286899D02*
X281808Y281008D01*
X287699Y286899D02*
X353451Y286899D01*
X398431Y291084D02*
X399447Y292100D01*
X425450Y292100D01*
X398431Y291084D02*
X357636Y291084D01*
D12*
X247650Y571500D03*
D11*
X248666Y570484D02*
X386494Y570484D01*
X248666Y570484D02*
X247650Y571500D01*
X391292Y565686D02*
X396108Y565686D01*
X396842Y566420D01*
X469140Y566420D01*
X391292Y565686D02*
X386494Y570484D01*
D12*
X215900Y546100D03*
D11*
X355445Y546100D01*
X355953Y545592D01*
X464568Y545592D02*
X469140Y541020D01*
X464568Y545592D02*
X355953Y545592D01*
X349028Y507464D02*
X357636Y498856D01*
X452376Y498856D02*
X469140Y515620D01*
X452376Y498856D02*
X357636Y498856D01*
D12*
X279767Y507097D03*
D11*
X280134Y507464D02*
X349028Y507464D01*
X280134Y507464D02*
X279767Y507097D01*
X464568Y494792D02*
X469140Y490220D01*
D12*
X304800Y495836D03*
D11*
X305844Y494792D02*
X464568Y494792D01*
X305844Y494792D02*
X304800Y495836D01*
D12*
X342900Y520164D03*
D11*
X346992Y524256D02*
X387854Y524256D01*
X346992Y524256D02*
X342900Y520164D01*
X387854Y524256D02*
X390112Y526514D01*
D12*
X452064Y529717D03*
D11*
X448861Y526514D01*
X390112Y526514D01*
D12*
X304800Y520700D03*
X444500Y520700D03*
D11*
X345308Y514350D02*
X311150Y514350D01*
X304800Y520700D01*
X345308Y514350D02*
X351150Y520192D01*
X390045Y520700D02*
X444500Y520700D01*
X390045Y520700D02*
X389537Y520192D01*
X351150Y520192D01*
D12*
X241300Y406400D03*
D11*
X159254Y418084D02*
X129036Y418084D01*
X123702Y412750D01*
X170938Y406400D02*
X241300Y406400D01*
X170938Y406400D02*
X159254Y418084D01*
X123702Y412750D02*
X88900Y412750D01*
D12*
X88900Y412750D03*
X107950Y292100D03*
X101600Y793750D03*
D11*
X69850Y793750D01*
D12*
X69850Y793750D03*
D11*
X127353Y295148D02*
X124305Y292100D01*
X107950Y292100D01*
X199456Y292100D02*
X214630Y292100D01*
X218158Y288572D01*
D12*
X279400Y286822D03*
D11*
X277650Y288572D02*
X218158Y288572D01*
X277650Y288572D02*
X279400Y286822D01*
X199456Y292100D02*
X196408Y295148D01*
X127353Y295148D01*
D12*
X222250Y712052D03*
D11*
X223102Y711200D01*
X241300Y711200D01*
D12*
X241300Y711200D03*
X209550Y806450D03*
D11*
X241300Y806450D01*
X247650Y812800D02*
X247650Y827786D01*
X247650Y812800D02*
X241300Y806450D01*
D12*
X279400Y857250D03*
D11*
X266700Y857250D01*
X260350Y863600D01*
X260350Y882650D01*
D12*
X368300Y679450D03*
D11*
X349250Y679450D01*
D12*
X349250Y679450D03*
X298450Y692150D03*
D11*
X387350Y692150D01*
D12*
X387350Y692150D03*
X215900Y755650D03*
X419100Y756384D03*
D11*
X418366Y755650D02*
X215900Y755650D01*
X418366Y755650D02*
X419100Y756384D01*
D12*
X254000Y749300D03*
X438150Y749300D03*
D11*
X255270Y750570D02*
X254000Y749300D01*
X436880Y750570D02*
X438150Y749300D01*
X436880Y750570D02*
X255270Y750570D01*
D12*
X469900Y787400D03*
X292100Y787400D03*
D11*
X469900Y787400D01*
D12*
X254000Y787400D03*
D11*
X279400Y787400D01*
X285750Y781050D01*
X495300Y781050D01*
D12*
X495300Y781050D03*
M02*
