G04 EAGLE Gerber RS-274X export*
G75*
%MOMM*%
%FSLAX34Y34*%
%LPD*%
%INSoldermask Top*%
%IPPOS*%
%AMOC8*
5,1,8,0,0,1.08239X$1,22.5*%
G01*
G04 Define Apertures*
%ADD10C,3.378000*%
%ADD11C,1.651000*%
%ADD12R,0.584200X1.244600*%
%ADD13R,0.925700X1.100900*%
%ADD14R,1.100900X0.925700*%
%ADD15C,0.731000*%
D10*
X344170Y725170D03*
X344170Y115570D03*
X166370Y725170D03*
X166370Y115570D03*
D11*
X148990Y661670D02*
X133750Y661670D01*
X133750Y636270D02*
X148990Y636270D01*
X148990Y610870D02*
X133750Y610870D01*
X133750Y585470D02*
X148990Y585470D01*
X148990Y560070D02*
X133750Y560070D01*
X133750Y534670D02*
X148990Y534670D01*
X148990Y509270D02*
X133750Y509270D01*
X133750Y483870D02*
X148990Y483870D01*
X148990Y458470D02*
X133750Y458470D01*
X133750Y433070D02*
X148990Y433070D01*
X148990Y407670D02*
X133750Y407670D01*
X133750Y382270D02*
X148990Y382270D01*
X148990Y356870D02*
X133750Y356870D01*
X133750Y331470D02*
X148990Y331470D01*
X148990Y306070D02*
X133750Y306070D01*
X133750Y280670D02*
X148990Y280670D01*
X148990Y255270D02*
X133750Y255270D01*
X133750Y229870D02*
X148990Y229870D01*
X148990Y204470D02*
X133750Y204470D01*
X133750Y179070D02*
X148990Y179070D01*
X362350Y661670D02*
X377590Y661670D01*
X377590Y636270D02*
X362350Y636270D01*
X362350Y610870D02*
X377590Y610870D01*
X377590Y585470D02*
X362350Y585470D01*
X362350Y560070D02*
X377590Y560070D01*
X377590Y534670D02*
X362350Y534670D01*
X362350Y509270D02*
X377590Y509270D01*
X377590Y483870D02*
X362350Y483870D01*
X362350Y458470D02*
X377590Y458470D01*
X377590Y433070D02*
X362350Y433070D01*
X362350Y407670D02*
X377590Y407670D01*
X377590Y382270D02*
X362350Y382270D01*
X362350Y356870D02*
X377590Y356870D01*
X377590Y331470D02*
X362350Y331470D01*
X362350Y306070D02*
X377590Y306070D01*
X377590Y280670D02*
X362350Y280670D01*
X362350Y255270D02*
X377590Y255270D01*
X377590Y229870D02*
X362350Y229870D01*
X362350Y204470D02*
X377590Y204470D01*
X377590Y179070D02*
X362350Y179070D01*
X46990Y394970D02*
X31750Y394970D01*
X31750Y369570D02*
X46990Y369570D01*
X46990Y344170D02*
X31750Y344170D01*
X31750Y318770D02*
X46990Y318770D01*
X46990Y293370D02*
X31750Y293370D01*
X31750Y267970D02*
X46990Y267970D01*
X46990Y242570D02*
X31750Y242570D01*
X31750Y217170D02*
X46990Y217170D01*
X46990Y191770D02*
X31750Y191770D01*
X31750Y166370D02*
X46990Y166370D01*
X46990Y140970D02*
X31750Y140970D01*
X31750Y115570D02*
X46990Y115570D01*
X462280Y396240D02*
X477520Y396240D01*
X477520Y370840D02*
X462280Y370840D01*
X462280Y345440D02*
X477520Y345440D01*
X477520Y320040D02*
X462280Y320040D01*
X462280Y294640D02*
X477520Y294640D01*
X477520Y269240D02*
X462280Y269240D01*
X462280Y243840D02*
X477520Y243840D01*
X477520Y218440D02*
X462280Y218440D01*
X462280Y193040D02*
X477520Y193040D01*
X477520Y167640D02*
X462280Y167640D01*
X462280Y142240D02*
X477520Y142240D01*
X477520Y116840D02*
X462280Y116840D01*
X46990Y718820D02*
X31750Y718820D01*
X31750Y693420D02*
X46990Y693420D01*
X46990Y668020D02*
X31750Y668020D01*
X31750Y642620D02*
X46990Y642620D01*
X46990Y617220D02*
X31750Y617220D01*
X31750Y591820D02*
X46990Y591820D01*
X46990Y566420D02*
X31750Y566420D01*
X31750Y541020D02*
X46990Y541020D01*
X46990Y515620D02*
X31750Y515620D01*
X31750Y490220D02*
X46990Y490220D01*
X46990Y464820D02*
X31750Y464820D01*
X31750Y439420D02*
X46990Y439420D01*
X461520Y718820D02*
X476760Y718820D01*
X476760Y693420D02*
X461520Y693420D01*
X461520Y668020D02*
X476760Y668020D01*
X476760Y642620D02*
X461520Y642620D01*
X461520Y617220D02*
X476760Y617220D01*
X476760Y591820D02*
X461520Y591820D01*
X461520Y566420D02*
X476760Y566420D01*
X476760Y541020D02*
X461520Y541020D01*
X461520Y515620D02*
X476760Y515620D01*
X476760Y490220D02*
X461520Y490220D01*
X461520Y464820D02*
X476760Y464820D01*
X476760Y439420D02*
X461520Y439420D01*
X19050Y820166D02*
X19050Y835406D01*
X44450Y835406D02*
X44450Y820166D01*
X69850Y820166D02*
X69850Y835406D01*
X95250Y835406D02*
X95250Y820166D01*
X120650Y820166D02*
X120650Y835406D01*
X146050Y835406D02*
X146050Y820166D01*
X171450Y820166D02*
X171450Y835406D01*
X196850Y835406D02*
X196850Y820166D01*
X222250Y820166D02*
X222250Y835406D01*
X247650Y835406D02*
X247650Y820166D01*
X273050Y820166D02*
X273050Y835406D01*
X298450Y835406D02*
X298450Y820166D01*
X209550Y875030D02*
X209550Y890270D01*
X234950Y890270D02*
X234950Y875030D01*
X260350Y875030D02*
X260350Y890270D01*
X285750Y890270D02*
X285750Y875030D01*
X311150Y875030D02*
X311150Y890270D01*
X336550Y890270D02*
X336550Y875030D01*
X361950Y875030D02*
X361950Y890270D01*
X387350Y890270D02*
X387350Y875030D01*
X412750Y875030D02*
X412750Y890270D01*
X438150Y890270D02*
X438150Y875030D01*
X463550Y875030D02*
X463550Y890270D01*
X488950Y890270D02*
X488950Y875030D01*
D12*
X215900Y48768D03*
X228600Y48768D03*
X241300Y48768D03*
X254000Y48768D03*
X266700Y48768D03*
X279400Y48768D03*
X292100Y48768D03*
X292100Y103632D03*
X279400Y103632D03*
X266700Y103632D03*
X254000Y103632D03*
X241300Y103632D03*
X228600Y103632D03*
X215900Y103632D03*
X171450Y169418D03*
X184150Y169418D03*
X196850Y169418D03*
X209550Y169418D03*
X222250Y169418D03*
X234950Y169418D03*
X247650Y169418D03*
X247650Y224282D03*
X234950Y224282D03*
X222250Y224282D03*
X209550Y224282D03*
X196850Y224282D03*
X184150Y224282D03*
X171450Y224282D03*
D13*
X274852Y27940D03*
X258548Y27940D03*
X271248Y124460D03*
X287552Y124460D03*
X233148Y124460D03*
X249452Y124460D03*
X192302Y148590D03*
X175998Y148590D03*
X230402Y148590D03*
X214098Y148590D03*
X226798Y245110D03*
X243102Y245110D03*
X188698Y245110D03*
X205002Y245110D03*
D12*
X266700Y169418D03*
X279400Y169418D03*
X292100Y169418D03*
X304800Y169418D03*
X317500Y169418D03*
X330200Y169418D03*
X342900Y169418D03*
X342900Y224282D03*
X330200Y224282D03*
X317500Y224282D03*
X304800Y224282D03*
X292100Y224282D03*
X279400Y224282D03*
X266700Y224282D03*
D13*
X287552Y148590D03*
X271248Y148590D03*
D14*
X311150Y127738D03*
X311150Y144042D03*
D13*
X322048Y245110D03*
X338352Y245110D03*
X283948Y245110D03*
X300252Y245110D03*
D12*
X171450Y359918D03*
X184150Y359918D03*
X196850Y359918D03*
X209550Y359918D03*
X222250Y359918D03*
X234950Y359918D03*
X247650Y359918D03*
X247650Y414782D03*
X234950Y414782D03*
X222250Y414782D03*
X209550Y414782D03*
X196850Y414782D03*
X184150Y414782D03*
X171450Y414782D03*
D13*
X236752Y27940D03*
X220448Y27940D03*
X192302Y339090D03*
X175998Y339090D03*
X230402Y339090D03*
X214098Y339090D03*
X226798Y435610D03*
X243102Y435610D03*
X188698Y435610D03*
X205002Y435610D03*
D12*
X171450Y480568D03*
X184150Y480568D03*
X196850Y480568D03*
X209550Y480568D03*
X222250Y480568D03*
X234950Y480568D03*
X247650Y480568D03*
X247650Y535432D03*
X234950Y535432D03*
X222250Y535432D03*
X209550Y535432D03*
X196850Y535432D03*
X184150Y535432D03*
X171450Y535432D03*
D13*
X192302Y459740D03*
X175998Y459740D03*
X230402Y459740D03*
X214098Y459740D03*
X188698Y556260D03*
X205002Y556260D03*
X226798Y556260D03*
X243102Y556260D03*
D12*
X266700Y480568D03*
X279400Y480568D03*
X292100Y480568D03*
X304800Y480568D03*
X317500Y480568D03*
X330200Y480568D03*
X342900Y480568D03*
X342900Y535432D03*
X330200Y535432D03*
X317500Y535432D03*
X304800Y535432D03*
X292100Y535432D03*
X279400Y535432D03*
X266700Y535432D03*
D13*
X287552Y459740D03*
X271248Y459740D03*
X325652Y459740D03*
X309348Y459740D03*
X322048Y556260D03*
X338352Y556260D03*
X283948Y556260D03*
X300252Y556260D03*
D12*
X171450Y601218D03*
X184150Y601218D03*
X196850Y601218D03*
X209550Y601218D03*
X222250Y601218D03*
X234950Y601218D03*
X247650Y601218D03*
X247650Y656082D03*
X234950Y656082D03*
X222250Y656082D03*
X209550Y656082D03*
X196850Y656082D03*
X184150Y656082D03*
X171450Y656082D03*
D13*
X192302Y580390D03*
X175998Y580390D03*
D12*
X266700Y601218D03*
X279400Y601218D03*
X292100Y601218D03*
X304800Y601218D03*
X317500Y601218D03*
X330200Y601218D03*
X342900Y601218D03*
X342900Y656082D03*
X330200Y656082D03*
X317500Y656082D03*
X304800Y656082D03*
X292100Y656082D03*
X279400Y656082D03*
X266700Y656082D03*
D13*
X230402Y580390D03*
X214098Y580390D03*
X226798Y676910D03*
X243102Y676910D03*
X188698Y676910D03*
X205002Y676910D03*
X287552Y580390D03*
X271248Y580390D03*
X325652Y580390D03*
X309348Y580390D03*
D12*
X215900Y721868D03*
X228600Y721868D03*
X241300Y721868D03*
X254000Y721868D03*
X266700Y721868D03*
X279400Y721868D03*
X292100Y721868D03*
X292100Y776732D03*
X279400Y776732D03*
X266700Y776732D03*
X254000Y776732D03*
X241300Y776732D03*
X228600Y776732D03*
X215900Y776732D03*
D13*
X236752Y701040D03*
X220448Y701040D03*
X274852Y701040D03*
X258548Y701040D03*
X271248Y797560D03*
X287552Y797560D03*
X233148Y797560D03*
X249452Y797560D03*
D12*
X266700Y359918D03*
X279400Y359918D03*
X292100Y359918D03*
X304800Y359918D03*
X317500Y359918D03*
X330200Y359918D03*
X342900Y359918D03*
X342900Y414782D03*
X330200Y414782D03*
X317500Y414782D03*
X304800Y414782D03*
X292100Y414782D03*
X279400Y414782D03*
X266700Y414782D03*
X266700Y264668D03*
X279400Y264668D03*
X292100Y264668D03*
X304800Y264668D03*
X317500Y264668D03*
X330200Y264668D03*
X342900Y264668D03*
X342900Y319532D03*
X330200Y319532D03*
X317500Y319532D03*
X304800Y319532D03*
X292100Y319532D03*
X279400Y319532D03*
X266700Y319532D03*
X171450Y264668D03*
X184150Y264668D03*
X196850Y264668D03*
X209550Y264668D03*
X222250Y264668D03*
X234950Y264668D03*
X247650Y264668D03*
X247650Y319532D03*
X234950Y319532D03*
X222250Y319532D03*
X209550Y319532D03*
X196850Y319532D03*
X184150Y319532D03*
X171450Y319532D03*
D13*
X322048Y676910D03*
X338352Y676910D03*
X283948Y676910D03*
X300252Y676910D03*
D15*
X196850Y508000D03*
X196850Y425450D03*
X222250Y425450D03*
X241300Y425450D03*
X184608Y381458D03*
X201986Y381056D03*
X184150Y508000D03*
X222250Y495300D03*
X234950Y495300D03*
X279400Y495300D03*
X292100Y495300D03*
X317500Y501650D03*
X330200Y501650D03*
X184150Y590550D03*
X196850Y590550D03*
X285750Y590550D03*
X215900Y590550D03*
X228600Y590550D03*
X158750Y594642D03*
X330200Y438150D03*
X317500Y641350D03*
X336550Y641350D03*
X228600Y736600D03*
X317500Y736600D03*
X241300Y736600D03*
X317500Y762000D03*
X279400Y762000D03*
X266700Y762000D03*
X400050Y298450D03*
X184150Y400050D03*
X393700Y469900D03*
X241300Y469900D03*
X393700Y571500D03*
X184150Y615950D03*
X393700Y190500D03*
X234950Y184150D03*
X331326Y589804D03*
X331136Y615014D03*
X160783Y399174D03*
X203200Y279400D03*
X196850Y76200D03*
X266700Y76200D03*
X165100Y520700D03*
X196850Y520700D03*
X222250Y565674D03*
X165100Y641350D03*
X292100Y635000D03*
X165100Y280670D03*
X203200Y368300D03*
X222250Y374650D03*
X165218Y565150D03*
X165100Y196850D03*
X279400Y196850D03*
X257810Y374650D03*
X234950Y374650D03*
X260350Y514350D03*
X279400Y520700D03*
X260350Y622300D03*
X215900Y628650D03*
X209550Y762000D03*
X228600Y762000D03*
X235886Y623236D03*
X254536Y196850D03*
X323850Y146050D03*
X412750Y139700D03*
X241300Y69850D03*
X323850Y69850D03*
X196850Y400050D03*
X298450Y393700D03*
X412750Y622300D03*
X196850Y635000D03*
X412750Y742950D03*
X266700Y742950D03*
X418564Y247650D03*
X418564Y393700D03*
X114300Y158750D03*
X184150Y158750D03*
X196850Y158750D03*
X114300Y88900D03*
X266700Y88900D03*
X228600Y88900D03*
X279400Y88900D03*
X120650Y215900D03*
X234950Y209550D03*
X317500Y209550D03*
X330200Y209550D03*
X120650Y152400D03*
X279400Y158750D03*
X292100Y158750D03*
X221921Y211093D03*
X171450Y329677D03*
X177800Y234950D03*
X273050Y190500D03*
X215900Y114300D03*
X170970Y425450D03*
X266700Y431800D03*
X266700Y520700D03*
X171450Y546100D03*
X171450Y666750D03*
X266700Y666750D03*
X215900Y787400D03*
X266700Y332006D03*
X184150Y202720D03*
X101600Y203200D03*
X101600Y165100D03*
X330200Y158750D03*
X406400Y158750D03*
X406400Y476250D03*
X330200Y469900D03*
X406400Y552450D03*
X177800Y552450D03*
X406400Y647700D03*
X279400Y641350D03*
X406400Y698500D03*
X285750Y704850D03*
X222250Y184150D03*
X222250Y203200D03*
X292100Y203200D03*
X215900Y469900D03*
X400050Y450850D03*
X406400Y209550D03*
X292100Y514350D03*
X400050Y596900D03*
X320374Y590401D03*
X400050Y768350D03*
X241300Y762000D03*
X215900Y501650D03*
X342900Y425450D03*
X279400Y425450D03*
X271714Y278064D03*
X328515Y281085D03*
X349250Y463550D03*
X317500Y330200D03*
X292100Y330200D03*
X324386Y443964D03*
X190500Y349250D03*
X330200Y374650D03*
X330200Y392372D03*
X292100Y381000D03*
X222250Y298450D03*
X297514Y297514D03*
X323850Y311150D03*
X190500Y310670D03*
X342900Y279400D03*
X438150Y306070D03*
X431800Y863600D03*
X439392Y615950D03*
X431800Y280670D03*
X425450Y844550D03*
X336550Y844550D03*
X435328Y603250D03*
X304800Y349250D03*
X336550Y349250D03*
X304800Y254524D03*
X266700Y254000D03*
X266700Y345440D03*
X387350Y348714D03*
X215900Y241300D03*
X247650Y304800D03*
X336550Y298450D03*
X171594Y241300D03*
X306014Y298450D03*
X279400Y330200D03*
X349730Y336550D03*
X241924Y329576D03*
X254000Y63500D03*
X69850Y63500D03*
X69850Y215900D03*
X292100Y82550D03*
X76200Y82550D03*
X76200Y190500D03*
X82550Y139700D03*
X82550Y165100D03*
X248186Y139700D03*
X165100Y146050D03*
X204136Y94314D03*
X247650Y234950D03*
X209550Y209550D03*
X279400Y342900D03*
X330200Y330200D03*
X203200Y50800D03*
X63500Y50800D03*
X317500Y304800D03*
X292100Y342900D03*
X266700Y184150D03*
X304800Y152400D03*
X349250Y146784D03*
X298450Y139700D03*
X101600Y285750D03*
X101600Y641350D03*
X184150Y286484D03*
X95250Y419100D03*
X95250Y666750D03*
X330200Y399936D03*
X171450Y349250D03*
X63500Y349250D03*
X69850Y374650D03*
X69850Y539750D03*
X209550Y380464D03*
X247650Y393700D03*
X76200Y393700D03*
X76200Y514350D03*
X209550Y393700D03*
X82550Y400050D03*
X82550Y488950D03*
X170914Y469900D03*
X214964Y445436D03*
X425450Y666750D03*
X331136Y449778D03*
X431264Y444500D03*
X425450Y292100D03*
X419100Y641350D03*
X196850Y286484D03*
X247650Y571500D03*
X215900Y546100D03*
X279767Y507097D03*
X304800Y495836D03*
X342900Y520164D03*
X452064Y529717D03*
X304800Y520700D03*
X444500Y520700D03*
X241300Y406400D03*
X88900Y412750D03*
X107950Y292100D03*
X101600Y793750D03*
X69850Y793750D03*
X279400Y286822D03*
X222250Y712052D03*
X241300Y711200D03*
X209550Y806450D03*
X279400Y857250D03*
X368300Y679450D03*
X349250Y679450D03*
X298450Y692150D03*
X387350Y692150D03*
X215900Y755650D03*
X419100Y756384D03*
X254000Y749300D03*
X438150Y749300D03*
X469900Y787400D03*
X292100Y787400D03*
X254000Y787400D03*
X495300Y781050D03*
M02*
