G04 EAGLE Gerber RS-274X export*
G75*
%MOMM*%
%FSLAX34Y34*%
%LPD*%
%INSolderpaste Top*%
%IPPOS*%
%AMOC8*
5,1,8,0,0,1.08239X$1,22.5*%
G01*
G04 Define Apertures*
%ADD10R,0.457200X1.117600*%
%ADD11R,0.798700X0.973900*%
%ADD12R,0.973900X0.798700*%
D10*
X215900Y48768D03*
X228600Y48768D03*
X241300Y48768D03*
X254000Y48768D03*
X266700Y48768D03*
X279400Y48768D03*
X292100Y48768D03*
X292100Y103632D03*
X279400Y103632D03*
X266700Y103632D03*
X254000Y103632D03*
X241300Y103632D03*
X228600Y103632D03*
X215900Y103632D03*
X171450Y169418D03*
X184150Y169418D03*
X196850Y169418D03*
X209550Y169418D03*
X222250Y169418D03*
X234950Y169418D03*
X247650Y169418D03*
X247650Y224282D03*
X234950Y224282D03*
X222250Y224282D03*
X209550Y224282D03*
X196850Y224282D03*
X184150Y224282D03*
X171450Y224282D03*
D11*
X274852Y27940D03*
X258548Y27940D03*
X271248Y124460D03*
X287552Y124460D03*
X233148Y124460D03*
X249452Y124460D03*
X192302Y148590D03*
X175998Y148590D03*
X230402Y148590D03*
X214098Y148590D03*
X226798Y245110D03*
X243102Y245110D03*
X188698Y245110D03*
X205002Y245110D03*
D10*
X266700Y169418D03*
X279400Y169418D03*
X292100Y169418D03*
X304800Y169418D03*
X317500Y169418D03*
X330200Y169418D03*
X342900Y169418D03*
X342900Y224282D03*
X330200Y224282D03*
X317500Y224282D03*
X304800Y224282D03*
X292100Y224282D03*
X279400Y224282D03*
X266700Y224282D03*
D11*
X287552Y148590D03*
X271248Y148590D03*
D12*
X311150Y127738D03*
X311150Y144042D03*
D11*
X322048Y245110D03*
X338352Y245110D03*
X283948Y245110D03*
X300252Y245110D03*
D10*
X171450Y359918D03*
X184150Y359918D03*
X196850Y359918D03*
X209550Y359918D03*
X222250Y359918D03*
X234950Y359918D03*
X247650Y359918D03*
X247650Y414782D03*
X234950Y414782D03*
X222250Y414782D03*
X209550Y414782D03*
X196850Y414782D03*
X184150Y414782D03*
X171450Y414782D03*
D11*
X236752Y27940D03*
X220448Y27940D03*
X192302Y339090D03*
X175998Y339090D03*
X230402Y339090D03*
X214098Y339090D03*
X226798Y435610D03*
X243102Y435610D03*
X188698Y435610D03*
X205002Y435610D03*
D10*
X171450Y480568D03*
X184150Y480568D03*
X196850Y480568D03*
X209550Y480568D03*
X222250Y480568D03*
X234950Y480568D03*
X247650Y480568D03*
X247650Y535432D03*
X234950Y535432D03*
X222250Y535432D03*
X209550Y535432D03*
X196850Y535432D03*
X184150Y535432D03*
X171450Y535432D03*
D11*
X192302Y459740D03*
X175998Y459740D03*
X230402Y459740D03*
X214098Y459740D03*
X188698Y556260D03*
X205002Y556260D03*
X226798Y556260D03*
X243102Y556260D03*
D10*
X266700Y480568D03*
X279400Y480568D03*
X292100Y480568D03*
X304800Y480568D03*
X317500Y480568D03*
X330200Y480568D03*
X342900Y480568D03*
X342900Y535432D03*
X330200Y535432D03*
X317500Y535432D03*
X304800Y535432D03*
X292100Y535432D03*
X279400Y535432D03*
X266700Y535432D03*
D11*
X287552Y459740D03*
X271248Y459740D03*
X325652Y459740D03*
X309348Y459740D03*
X322048Y556260D03*
X338352Y556260D03*
X283948Y556260D03*
X300252Y556260D03*
D10*
X171450Y601218D03*
X184150Y601218D03*
X196850Y601218D03*
X209550Y601218D03*
X222250Y601218D03*
X234950Y601218D03*
X247650Y601218D03*
X247650Y656082D03*
X234950Y656082D03*
X222250Y656082D03*
X209550Y656082D03*
X196850Y656082D03*
X184150Y656082D03*
X171450Y656082D03*
D11*
X192302Y580390D03*
X175998Y580390D03*
D10*
X266700Y601218D03*
X279400Y601218D03*
X292100Y601218D03*
X304800Y601218D03*
X317500Y601218D03*
X330200Y601218D03*
X342900Y601218D03*
X342900Y656082D03*
X330200Y656082D03*
X317500Y656082D03*
X304800Y656082D03*
X292100Y656082D03*
X279400Y656082D03*
X266700Y656082D03*
D11*
X230402Y580390D03*
X214098Y580390D03*
X226798Y676910D03*
X243102Y676910D03*
X188698Y676910D03*
X205002Y676910D03*
X287552Y580390D03*
X271248Y580390D03*
X325652Y580390D03*
X309348Y580390D03*
D10*
X215900Y721868D03*
X228600Y721868D03*
X241300Y721868D03*
X254000Y721868D03*
X266700Y721868D03*
X279400Y721868D03*
X292100Y721868D03*
X292100Y776732D03*
X279400Y776732D03*
X266700Y776732D03*
X254000Y776732D03*
X241300Y776732D03*
X228600Y776732D03*
X215900Y776732D03*
D11*
X236752Y701040D03*
X220448Y701040D03*
X274852Y701040D03*
X258548Y701040D03*
X271248Y797560D03*
X287552Y797560D03*
X233148Y797560D03*
X249452Y797560D03*
D10*
X266700Y359918D03*
X279400Y359918D03*
X292100Y359918D03*
X304800Y359918D03*
X317500Y359918D03*
X330200Y359918D03*
X342900Y359918D03*
X342900Y414782D03*
X330200Y414782D03*
X317500Y414782D03*
X304800Y414782D03*
X292100Y414782D03*
X279400Y414782D03*
X266700Y414782D03*
X266700Y264668D03*
X279400Y264668D03*
X292100Y264668D03*
X304800Y264668D03*
X317500Y264668D03*
X330200Y264668D03*
X342900Y264668D03*
X342900Y319532D03*
X330200Y319532D03*
X317500Y319532D03*
X304800Y319532D03*
X292100Y319532D03*
X279400Y319532D03*
X266700Y319532D03*
X171450Y264668D03*
X184150Y264668D03*
X196850Y264668D03*
X209550Y264668D03*
X222250Y264668D03*
X234950Y264668D03*
X247650Y264668D03*
X247650Y319532D03*
X234950Y319532D03*
X222250Y319532D03*
X209550Y319532D03*
X196850Y319532D03*
X184150Y319532D03*
X171450Y319532D03*
D11*
X322048Y676910D03*
X338352Y676910D03*
X283948Y676910D03*
X300252Y676910D03*
M02*
