G04 EAGLE Gerber RS-274X export*
G75*
%MOMM*%
%FSLAX34Y34*%
%LPD*%
%INBottom Copper*%
%IPPOS*%
%AMOC8*
5,1,8,0,0,1.08239X$1,22.5*%
G01*
G04 Define Apertures*
%ADD10C,1.524000*%
%ADD11C,0.604000*%
%ADD12C,0.254000*%
G36*
X446375Y10220D02*
X446078Y10160D01*
X10922Y10160D01*
X10647Y10211D01*
X10392Y10375D01*
X10220Y10625D01*
X10160Y10922D01*
X10160Y677928D01*
X10211Y678203D01*
X10375Y678458D01*
X10625Y678630D01*
X10922Y678690D01*
X446078Y678690D01*
X446353Y678639D01*
X446608Y678475D01*
X446780Y678225D01*
X446840Y677928D01*
X446840Y10922D01*
X446789Y10647D01*
X446625Y10392D01*
X446375Y10220D01*
G37*
%LPC*%
G36*
X312752Y621284D02*
X319708Y621284D01*
X326426Y623084D01*
X332450Y626562D01*
X337368Y631480D01*
X340846Y637504D01*
X342646Y644222D01*
X342646Y651178D01*
X340846Y657896D01*
X337368Y663920D01*
X332450Y668838D01*
X326426Y672316D01*
X319708Y674116D01*
X312752Y674116D01*
X306034Y672316D01*
X300010Y668838D01*
X295092Y663920D01*
X291614Y657896D01*
X289814Y651178D01*
X289814Y644222D01*
X291614Y637504D01*
X295092Y631480D01*
X300010Y626562D01*
X306034Y623084D01*
X312752Y621284D01*
G37*
G36*
X134952Y621284D02*
X141908Y621284D01*
X148626Y623084D01*
X154650Y626562D01*
X159568Y631480D01*
X163046Y637504D01*
X164846Y644222D01*
X164846Y651178D01*
X163046Y657896D01*
X159568Y663920D01*
X154650Y668838D01*
X148626Y672316D01*
X141908Y674116D01*
X134952Y674116D01*
X128234Y672316D01*
X122210Y668838D01*
X117292Y663920D01*
X113814Y657896D01*
X112014Y651178D01*
X112014Y644222D01*
X113814Y637504D01*
X117292Y631480D01*
X122210Y626562D01*
X128234Y623084D01*
X134952Y621284D01*
G37*
G36*
X396040Y585470D02*
X412550Y585470D01*
X412550Y594360D01*
X404179Y594360D01*
X400445Y592813D01*
X397587Y589955D01*
X396040Y586221D01*
X396040Y585470D01*
G37*
G36*
X415090Y585470D02*
X431600Y585470D01*
X431600Y586221D01*
X430053Y589955D01*
X427195Y592813D01*
X423461Y594360D01*
X415090Y594360D01*
X415090Y585470D01*
G37*
G36*
X87794Y572290D02*
X90006Y572290D01*
X92050Y573136D01*
X93614Y574701D01*
X94460Y576744D01*
X94460Y578956D01*
X93614Y581000D01*
X92050Y582564D01*
X90006Y583410D01*
X89044Y583410D01*
X88758Y583466D01*
X88505Y583633D01*
X84128Y588010D01*
X60898Y588010D01*
X60618Y588063D01*
X60364Y588229D01*
X60194Y588480D01*
X59822Y589380D01*
X57250Y591952D01*
X53889Y593344D01*
X35011Y593344D01*
X31650Y591952D01*
X29078Y589380D01*
X27686Y586019D01*
X27686Y582381D01*
X29078Y579020D01*
X31650Y576448D01*
X35011Y575056D01*
X53889Y575056D01*
X57250Y576448D01*
X59822Y579020D01*
X60194Y579920D01*
X60351Y580158D01*
X60601Y580330D01*
X60898Y580390D01*
X80656Y580390D01*
X80942Y580334D01*
X81195Y580167D01*
X83117Y578245D01*
X83280Y578003D01*
X83340Y577706D01*
X83340Y576744D01*
X84186Y574701D01*
X85751Y573136D01*
X87794Y572290D01*
G37*
G36*
X332191Y549656D02*
X351069Y549656D01*
X354430Y551048D01*
X357002Y553620D01*
X358394Y556981D01*
X358394Y560619D01*
X357002Y563980D01*
X354592Y566389D01*
X354439Y566609D01*
X354370Y566904D01*
X354420Y567203D01*
X354584Y567458D01*
X354834Y567630D01*
X355131Y567690D01*
X382981Y567690D01*
X383267Y567634D01*
X383520Y567467D01*
X384201Y566786D01*
X386244Y565940D01*
X388456Y565940D01*
X390500Y566786D01*
X392064Y568351D01*
X392910Y570394D01*
X392910Y572606D01*
X392064Y574650D01*
X390500Y576214D01*
X388456Y577060D01*
X386244Y577060D01*
X384201Y576214D01*
X383520Y575533D01*
X383279Y575370D01*
X382981Y575310D01*
X355131Y575310D01*
X354868Y575357D01*
X354610Y575516D01*
X354434Y575764D01*
X354369Y576060D01*
X354425Y576358D01*
X354592Y576611D01*
X357002Y579020D01*
X358394Y582381D01*
X358394Y586019D01*
X357002Y589380D01*
X354430Y591952D01*
X351069Y593344D01*
X332191Y593344D01*
X328830Y591952D01*
X326258Y589380D01*
X324866Y586019D01*
X324866Y582381D01*
X326258Y579020D01*
X328668Y576611D01*
X328821Y576391D01*
X328890Y576096D01*
X328840Y575797D01*
X328676Y575542D01*
X328426Y575370D01*
X328129Y575310D01*
X302819Y575310D01*
X302533Y575366D01*
X302280Y575533D01*
X301600Y576214D01*
X299556Y577060D01*
X297344Y577060D01*
X295301Y576214D01*
X294620Y575533D01*
X294379Y575370D01*
X294081Y575310D01*
X271069Y575310D01*
X270783Y575366D01*
X270530Y575533D01*
X269850Y576214D01*
X267806Y577060D01*
X265594Y577060D01*
X263551Y576214D01*
X261986Y574650D01*
X261140Y572606D01*
X261140Y570394D01*
X261986Y568351D01*
X263551Y566786D01*
X265594Y565940D01*
X267806Y565940D01*
X269850Y566786D01*
X270530Y567467D01*
X270771Y567630D01*
X271069Y567690D01*
X294081Y567690D01*
X294367Y567634D01*
X294620Y567467D01*
X295301Y566786D01*
X297344Y565940D01*
X299556Y565940D01*
X301600Y566786D01*
X302280Y567467D01*
X302521Y567630D01*
X302819Y567690D01*
X328129Y567690D01*
X328392Y567643D01*
X328650Y567484D01*
X328826Y567236D01*
X328891Y566940D01*
X328835Y566642D01*
X328668Y566389D01*
X326258Y563980D01*
X324866Y560619D01*
X324866Y556981D01*
X326258Y553620D01*
X328830Y551048D01*
X332191Y549656D01*
G37*
G36*
X103591Y321056D02*
X122469Y321056D01*
X125830Y322448D01*
X128402Y325020D01*
X129794Y328381D01*
X129794Y332019D01*
X128402Y335380D01*
X125992Y337789D01*
X125839Y338009D01*
X125770Y338304D01*
X125820Y338603D01*
X125984Y338858D01*
X126234Y339030D01*
X126531Y339090D01*
X131456Y339090D01*
X131742Y339034D01*
X131995Y338867D01*
X138122Y332740D01*
X154381Y332740D01*
X154667Y332684D01*
X154920Y332517D01*
X155601Y331836D01*
X157644Y330990D01*
X159856Y330990D01*
X161900Y331836D01*
X162580Y332517D01*
X162821Y332680D01*
X163119Y332740D01*
X182256Y332740D01*
X182542Y332684D01*
X182795Y332517D01*
X184717Y330595D01*
X184880Y330353D01*
X184940Y330056D01*
X184940Y329094D01*
X185786Y327051D01*
X187351Y325486D01*
X189394Y324640D01*
X191606Y324640D01*
X193650Y325486D01*
X195214Y327051D01*
X196060Y329094D01*
X196060Y331306D01*
X195214Y333350D01*
X193650Y334914D01*
X191606Y335760D01*
X190644Y335760D01*
X190358Y335816D01*
X190105Y335983D01*
X185728Y340360D01*
X163119Y340360D01*
X162833Y340416D01*
X162580Y340583D01*
X161900Y341264D01*
X159856Y342110D01*
X157644Y342110D01*
X155601Y341264D01*
X154920Y340583D01*
X154679Y340420D01*
X154381Y340360D01*
X141594Y340360D01*
X141308Y340416D01*
X141055Y340583D01*
X137499Y344139D01*
X137346Y344359D01*
X137276Y344654D01*
X137327Y344953D01*
X137490Y345208D01*
X137741Y345380D01*
X138038Y345440D01*
X160251Y345440D01*
X160537Y345384D01*
X160790Y345217D01*
X161951Y344056D01*
X163994Y343210D01*
X166206Y343210D01*
X168250Y344056D01*
X169814Y345621D01*
X170660Y347664D01*
X170660Y349278D01*
X170711Y349553D01*
X170875Y349808D01*
X171125Y349980D01*
X171422Y350040D01*
X172556Y350040D01*
X174600Y350886D01*
X176164Y352451D01*
X177010Y354494D01*
X177010Y356706D01*
X176164Y358750D01*
X174600Y360314D01*
X172556Y361160D01*
X170344Y361160D01*
X168301Y360314D01*
X167620Y359633D01*
X167379Y359470D01*
X167081Y359410D01*
X161210Y359410D01*
X160924Y359466D01*
X160671Y359633D01*
X140504Y379800D01*
X140349Y380025D01*
X140281Y380320D01*
X140335Y380619D01*
X140500Y380873D01*
X140752Y381043D01*
X141612Y381399D01*
X143176Y382963D01*
X144023Y385007D01*
X144023Y387219D01*
X143176Y389262D01*
X141612Y390826D01*
X139569Y391673D01*
X138606Y391673D01*
X138320Y391728D01*
X138068Y391896D01*
X132453Y397510D01*
X126531Y397510D01*
X126268Y397557D01*
X126010Y397716D01*
X125834Y397964D01*
X125769Y398260D01*
X125825Y398558D01*
X125992Y398811D01*
X128402Y401220D01*
X128774Y402120D01*
X128931Y402358D01*
X129181Y402530D01*
X129478Y402590D01*
X138640Y402590D01*
X138926Y402534D01*
X139179Y402367D01*
X158966Y382580D01*
X235568Y382580D01*
X240905Y387917D01*
X241147Y388080D01*
X241444Y388140D01*
X242406Y388140D01*
X244450Y388986D01*
X246014Y390551D01*
X246860Y392594D01*
X246860Y394806D01*
X246014Y396850D01*
X244450Y398414D01*
X242406Y399260D01*
X240194Y399260D01*
X238151Y398414D01*
X236586Y396850D01*
X235740Y394806D01*
X235740Y393844D01*
X235684Y393558D01*
X235517Y393305D01*
X232635Y390423D01*
X232393Y390260D01*
X232096Y390200D01*
X221074Y390200D01*
X220805Y390249D01*
X220548Y390410D01*
X220374Y390659D01*
X220312Y390956D01*
X220370Y391254D01*
X220726Y392114D01*
X220726Y394326D01*
X220370Y395186D01*
X220312Y395454D01*
X220363Y395753D01*
X220526Y396008D01*
X220776Y396180D01*
X221074Y396240D01*
X224457Y396240D01*
X224743Y396184D01*
X224996Y396017D01*
X225677Y395336D01*
X227720Y394490D01*
X229932Y394490D01*
X231976Y395336D01*
X233540Y396901D01*
X234386Y398944D01*
X234386Y401156D01*
X233540Y403200D01*
X231976Y404764D01*
X229932Y405610D01*
X227720Y405610D01*
X225677Y404764D01*
X224996Y404083D01*
X224755Y403920D01*
X224457Y403860D01*
X163119Y403860D01*
X162833Y403916D01*
X162580Y404083D01*
X161900Y404764D01*
X159856Y405610D01*
X157644Y405610D01*
X155465Y404707D01*
X155185Y404649D01*
X154887Y404705D01*
X154634Y404872D01*
X136597Y422910D01*
X126531Y422910D01*
X126268Y422957D01*
X126010Y423116D01*
X125834Y423364D01*
X125769Y423660D01*
X125825Y423958D01*
X125992Y424211D01*
X128402Y426620D01*
X129794Y429981D01*
X129794Y433619D01*
X128402Y436980D01*
X126539Y438843D01*
X126381Y439073D01*
X126316Y439370D01*
X126371Y439668D01*
X126539Y439921D01*
X140745Y454127D01*
X140987Y454290D01*
X141284Y454350D01*
X178242Y454350D01*
X178511Y454301D01*
X178768Y454140D01*
X178942Y453891D01*
X179004Y453594D01*
X178946Y453296D01*
X178590Y452436D01*
X178590Y450224D01*
X178946Y449364D01*
X179004Y449096D01*
X178953Y448797D01*
X178790Y448542D01*
X178540Y448370D01*
X178242Y448310D01*
X163119Y448310D01*
X162833Y448366D01*
X162580Y448533D01*
X161900Y449214D01*
X159856Y450060D01*
X157644Y450060D01*
X155601Y449214D01*
X154036Y447650D01*
X153190Y445606D01*
X153190Y443394D01*
X154036Y441351D01*
X155601Y439786D01*
X157644Y438940D01*
X159856Y438940D01*
X161900Y439786D01*
X162580Y440467D01*
X162821Y440630D01*
X163119Y440690D01*
X182256Y440690D01*
X182542Y440634D01*
X182795Y440467D01*
X184717Y438545D01*
X184880Y438303D01*
X184940Y438006D01*
X184940Y437044D01*
X185786Y435001D01*
X187351Y433436D01*
X189394Y432590D01*
X191606Y432590D01*
X193650Y433436D01*
X194330Y434117D01*
X194571Y434280D01*
X194869Y434340D01*
X319078Y434340D01*
X325205Y440467D01*
X325447Y440630D01*
X325744Y440690D01*
X328129Y440690D01*
X328392Y440643D01*
X328650Y440484D01*
X328826Y440236D01*
X328891Y439940D01*
X328835Y439642D01*
X328668Y439389D01*
X326258Y436980D01*
X324866Y433619D01*
X324866Y429981D01*
X326258Y426620D01*
X328830Y424048D01*
X332191Y422656D01*
X351069Y422656D01*
X354430Y424048D01*
X357002Y426620D01*
X358394Y429981D01*
X358394Y433619D01*
X357002Y436980D01*
X354592Y439389D01*
X354439Y439609D01*
X354370Y439904D01*
X354420Y440203D01*
X354584Y440458D01*
X354834Y440630D01*
X355131Y440690D01*
X382981Y440690D01*
X383267Y440634D01*
X383520Y440467D01*
X384201Y439786D01*
X386244Y438940D01*
X388456Y438940D01*
X390500Y439786D01*
X392064Y441351D01*
X392910Y443394D01*
X392910Y445606D01*
X392064Y447650D01*
X390500Y449214D01*
X388456Y450060D01*
X386244Y450060D01*
X384201Y449214D01*
X383520Y448533D01*
X383279Y448370D01*
X382981Y448310D01*
X355131Y448310D01*
X354868Y448357D01*
X354610Y448516D01*
X354434Y448764D01*
X354369Y449060D01*
X354425Y449358D01*
X354592Y449611D01*
X357002Y452020D01*
X358394Y455381D01*
X358394Y459019D01*
X357002Y462380D01*
X354430Y464952D01*
X351069Y466344D01*
X332191Y466344D01*
X328830Y464952D01*
X326258Y462380D01*
X324866Y459019D01*
X324866Y455381D01*
X326258Y452020D01*
X328668Y449611D01*
X328821Y449391D01*
X328890Y449096D01*
X328840Y448797D01*
X328676Y448542D01*
X328426Y448370D01*
X328129Y448310D01*
X322272Y448310D01*
X316145Y442183D01*
X315903Y442020D01*
X315606Y441960D01*
X240858Y441960D01*
X240589Y442009D01*
X240332Y442170D01*
X240158Y442419D01*
X240096Y442716D01*
X240154Y443014D01*
X240510Y443874D01*
X240510Y446086D01*
X240154Y446946D01*
X240096Y447214D01*
X240147Y447513D01*
X240310Y447768D01*
X240560Y447940D01*
X240858Y448000D01*
X256538Y448000D01*
X266305Y457767D01*
X266547Y457930D01*
X266844Y457990D01*
X268032Y457990D01*
X270076Y458836D01*
X271640Y460401D01*
X272486Y462444D01*
X272486Y464656D01*
X271640Y466700D01*
X270076Y468264D01*
X268032Y469110D01*
X265820Y469110D01*
X263777Y468264D01*
X262212Y466700D01*
X261366Y464656D01*
X261366Y463920D01*
X261310Y463634D01*
X261143Y463381D01*
X253605Y455843D01*
X253363Y455680D01*
X253066Y455620D01*
X240858Y455620D01*
X240589Y455669D01*
X240332Y455830D01*
X240158Y456079D01*
X240096Y456376D01*
X240154Y456674D01*
X240510Y457534D01*
X240510Y459746D01*
X239664Y461790D01*
X238100Y463354D01*
X236056Y464200D01*
X233844Y464200D01*
X231801Y463354D01*
X230191Y461744D01*
X230107Y461616D01*
X229857Y461444D01*
X229559Y461384D01*
X189459Y461384D01*
X189173Y461440D01*
X188920Y461607D01*
X188557Y461970D01*
X137812Y461970D01*
X131095Y455253D01*
X130875Y455100D01*
X130580Y455030D01*
X130281Y455081D01*
X130026Y455244D01*
X129854Y455495D01*
X129794Y455792D01*
X129794Y459019D01*
X128402Y462380D01*
X126539Y464243D01*
X126381Y464473D01*
X126316Y464770D01*
X126371Y465068D01*
X126539Y465321D01*
X150791Y489573D01*
X151033Y489736D01*
X151330Y489796D01*
X234834Y489796D01*
X240425Y495387D01*
X240667Y495550D01*
X240964Y495610D01*
X242406Y495610D01*
X244450Y496456D01*
X246014Y498021D01*
X246860Y500064D01*
X246860Y502276D01*
X246504Y503136D01*
X246446Y503404D01*
X246497Y503703D01*
X246660Y503958D01*
X246910Y504130D01*
X247208Y504190D01*
X274197Y504190D01*
X274483Y504134D01*
X274736Y503967D01*
X281343Y497360D01*
X294561Y497360D01*
X294847Y497304D01*
X295100Y497137D01*
X295301Y496936D01*
X297344Y496090D01*
X299556Y496090D01*
X301600Y496936D01*
X302280Y497617D01*
X302521Y497780D01*
X302819Y497840D01*
X321956Y497840D01*
X322242Y497784D01*
X322495Y497617D01*
X328756Y491356D01*
X328914Y491125D01*
X328979Y490829D01*
X328924Y490531D01*
X328756Y490278D01*
X326258Y487780D01*
X324866Y484419D01*
X324866Y480781D01*
X326258Y477420D01*
X328830Y474848D01*
X332191Y473456D01*
X351069Y473456D01*
X354430Y474848D01*
X357002Y477420D01*
X358394Y480781D01*
X358394Y484419D01*
X357002Y487780D01*
X354592Y490189D01*
X354439Y490409D01*
X354370Y490704D01*
X354420Y491003D01*
X354584Y491258D01*
X354834Y491430D01*
X355131Y491490D01*
X397881Y491490D01*
X398127Y491449D01*
X398389Y491296D01*
X399676Y490145D01*
X399864Y489885D01*
X399929Y489589D01*
X399874Y489291D01*
X399706Y489038D01*
X398448Y487780D01*
X397056Y484419D01*
X397056Y480781D01*
X398448Y477420D01*
X401020Y474848D01*
X404381Y473456D01*
X423259Y473456D01*
X426620Y474848D01*
X429192Y477420D01*
X430584Y480781D01*
X430584Y484419D01*
X429192Y487780D01*
X426620Y490352D01*
X423259Y491744D01*
X409606Y491744D01*
X409360Y491785D01*
X409098Y491938D01*
X402263Y498055D01*
X402232Y498084D01*
X402103Y498213D01*
X401953Y498427D01*
X401881Y498721D01*
X401929Y499021D01*
X402091Y499277D01*
X402339Y499451D01*
X402636Y499513D01*
X402934Y499456D01*
X404381Y498856D01*
X423259Y498856D01*
X426620Y500248D01*
X429192Y502820D01*
X430584Y506181D01*
X430584Y509819D01*
X429192Y513180D01*
X426620Y515752D01*
X423259Y517144D01*
X404381Y517144D01*
X401020Y515752D01*
X398448Y513180D01*
X397056Y509819D01*
X397056Y506181D01*
X398448Y502820D01*
X400815Y500454D01*
X400949Y500272D01*
X401035Y499981D01*
X401001Y499680D01*
X400852Y499416D01*
X400611Y499231D01*
X400318Y499154D01*
X399543Y499111D01*
X399501Y499110D01*
X355131Y499110D01*
X354868Y499157D01*
X354610Y499316D01*
X354434Y499564D01*
X354369Y499860D01*
X354425Y500158D01*
X354592Y500411D01*
X357002Y502820D01*
X358394Y506181D01*
X358394Y509819D01*
X357002Y513180D01*
X354430Y515752D01*
X351069Y517144D01*
X332191Y517144D01*
X328830Y515752D01*
X326258Y513180D01*
X324866Y509819D01*
X324866Y506222D01*
X324815Y505947D01*
X324651Y505692D01*
X324401Y505520D01*
X324104Y505460D01*
X302819Y505460D01*
X302533Y505516D01*
X302280Y505683D01*
X301600Y506364D01*
X299556Y507210D01*
X297344Y507210D01*
X295301Y506364D01*
X294140Y505203D01*
X293899Y505040D01*
X293601Y504980D01*
X284815Y504980D01*
X284529Y505036D01*
X284276Y505203D01*
X281442Y508037D01*
X281286Y508262D01*
X281219Y508558D01*
X281272Y508856D01*
X281438Y509111D01*
X281689Y509280D01*
X282550Y509636D01*
X284114Y511201D01*
X284960Y513244D01*
X284960Y515456D01*
X284114Y517500D01*
X282550Y519064D01*
X280506Y519910D01*
X278294Y519910D01*
X276251Y519064D01*
X275570Y518383D01*
X275329Y518220D01*
X275031Y518160D01*
X233372Y518160D01*
X228995Y513783D01*
X228753Y513620D01*
X228456Y513560D01*
X227494Y513560D01*
X225451Y512714D01*
X224770Y512033D01*
X224529Y511870D01*
X224231Y511810D01*
X224144Y511810D01*
X223858Y511866D01*
X223605Y512033D01*
X211128Y524510D01*
X126531Y524510D01*
X126268Y524557D01*
X126010Y524716D01*
X125834Y524964D01*
X125769Y525260D01*
X125825Y525558D01*
X125992Y525811D01*
X128402Y528220D01*
X129794Y531581D01*
X129794Y535219D01*
X128402Y538580D01*
X125992Y540989D01*
X125839Y541209D01*
X125770Y541504D01*
X125820Y541803D01*
X125984Y542058D01*
X126234Y542230D01*
X126531Y542290D01*
X154381Y542290D01*
X154667Y542234D01*
X154920Y542067D01*
X155601Y541386D01*
X157644Y540540D01*
X159856Y540540D01*
X161900Y541386D01*
X163464Y542951D01*
X164310Y544994D01*
X164310Y547206D01*
X163464Y549250D01*
X161900Y550814D01*
X159856Y551660D01*
X157644Y551660D01*
X155601Y550814D01*
X154920Y550133D01*
X154679Y549970D01*
X154381Y549910D01*
X127968Y549910D01*
X127705Y549957D01*
X127447Y550116D01*
X127271Y550364D01*
X127206Y550660D01*
X127262Y550958D01*
X127429Y551211D01*
X129263Y553045D01*
X130810Y556779D01*
X130810Y557530D01*
X95250Y557530D01*
X95250Y556779D01*
X96797Y553045D01*
X98631Y551211D01*
X98784Y550991D01*
X98854Y550696D01*
X98803Y550397D01*
X98639Y550142D01*
X98389Y549970D01*
X98092Y549910D01*
X57951Y549910D01*
X57688Y549957D01*
X57430Y550116D01*
X57254Y550364D01*
X57189Y550660D01*
X57245Y550958D01*
X57412Y551211D01*
X59822Y553620D01*
X61214Y556981D01*
X61214Y560578D01*
X61265Y560853D01*
X61429Y561108D01*
X61679Y561280D01*
X61976Y561340D01*
X94488Y561340D01*
X94763Y561289D01*
X95018Y561125D01*
X95190Y560875D01*
X95250Y560578D01*
X95250Y560070D01*
X130810Y560070D01*
X130810Y560821D01*
X129263Y564555D01*
X127429Y566389D01*
X127276Y566609D01*
X127206Y566904D01*
X127257Y567203D01*
X127421Y567458D01*
X127671Y567630D01*
X127968Y567690D01*
X154381Y567690D01*
X154667Y567634D01*
X154920Y567467D01*
X155601Y566786D01*
X157644Y565940D01*
X159856Y565940D01*
X161900Y566786D01*
X162580Y567467D01*
X162821Y567630D01*
X163119Y567690D01*
X173028Y567690D01*
X185505Y580167D01*
X185747Y580330D01*
X186044Y580390D01*
X214006Y580390D01*
X214292Y580334D01*
X214545Y580167D01*
X222817Y571895D01*
X222980Y571653D01*
X223040Y571356D01*
X223040Y570394D01*
X223886Y568351D01*
X225451Y566786D01*
X227494Y565940D01*
X229706Y565940D01*
X231750Y566786D01*
X233314Y568351D01*
X234160Y570394D01*
X234160Y572606D01*
X233314Y574650D01*
X231750Y576214D01*
X229706Y577060D01*
X228744Y577060D01*
X228458Y577116D01*
X228205Y577283D01*
X217478Y588010D01*
X182572Y588010D01*
X170095Y575533D01*
X169853Y575370D01*
X169556Y575310D01*
X163119Y575310D01*
X162833Y575366D01*
X162580Y575533D01*
X161900Y576214D01*
X159856Y577060D01*
X157644Y577060D01*
X155601Y576214D01*
X154920Y575533D01*
X154679Y575370D01*
X154381Y575310D01*
X126531Y575310D01*
X126268Y575357D01*
X126010Y575516D01*
X125834Y575764D01*
X125769Y576060D01*
X125825Y576358D01*
X125992Y576611D01*
X128402Y579020D01*
X129794Y582381D01*
X129794Y586019D01*
X128402Y589380D01*
X125830Y591952D01*
X122469Y593344D01*
X103591Y593344D01*
X100230Y591952D01*
X97658Y589380D01*
X96266Y586019D01*
X96266Y582381D01*
X97658Y579020D01*
X100156Y576522D01*
X100314Y576292D01*
X100379Y575995D01*
X100324Y575697D01*
X100156Y575444D01*
X93895Y569183D01*
X93653Y569020D01*
X93356Y568960D01*
X49222Y568960D01*
X48429Y568167D01*
X48187Y568004D01*
X47890Y567944D01*
X35011Y567944D01*
X31650Y566552D01*
X29078Y563980D01*
X27686Y560619D01*
X27686Y556981D01*
X29078Y553620D01*
X31650Y551048D01*
X35011Y549656D01*
X53478Y549656D01*
X53742Y549609D01*
X54000Y549450D01*
X54175Y549202D01*
X54240Y548906D01*
X54185Y548608D01*
X54017Y548355D01*
X48429Y542767D01*
X48187Y542604D01*
X47890Y542544D01*
X35011Y542544D01*
X31650Y541152D01*
X29078Y538580D01*
X27686Y535219D01*
X27686Y531581D01*
X29078Y528220D01*
X31650Y525648D01*
X35011Y524256D01*
X53889Y524256D01*
X57250Y525648D01*
X59822Y528220D01*
X61214Y531581D01*
X61214Y535219D01*
X59822Y538580D01*
X57959Y540443D01*
X57801Y540673D01*
X57736Y540970D01*
X57791Y541268D01*
X57959Y541521D01*
X58505Y542067D01*
X58747Y542230D01*
X59044Y542290D01*
X99529Y542290D01*
X99792Y542243D01*
X100050Y542084D01*
X100226Y541836D01*
X100291Y541540D01*
X100235Y541242D01*
X100068Y540989D01*
X97658Y538580D01*
X96266Y535219D01*
X96266Y531581D01*
X97658Y528220D01*
X99217Y526662D01*
X99367Y526448D01*
X99439Y526153D01*
X99391Y525854D01*
X99229Y525597D01*
X98980Y525424D01*
X98684Y525361D01*
X98386Y525419D01*
X96356Y526260D01*
X94144Y526260D01*
X92101Y525414D01*
X90536Y523850D01*
X89690Y521806D01*
X89690Y519594D01*
X90536Y517551D01*
X92101Y515986D01*
X94144Y515140D01*
X96356Y515140D01*
X98386Y515981D01*
X98641Y516038D01*
X98941Y515992D01*
X99199Y515833D01*
X99375Y515585D01*
X99440Y515289D01*
X99384Y514991D01*
X99217Y514738D01*
X97658Y513180D01*
X96266Y509819D01*
X96266Y506181D01*
X97658Y502820D01*
X100230Y500248D01*
X103591Y498856D01*
X122058Y498856D01*
X122322Y498809D01*
X122580Y498650D01*
X122755Y498402D01*
X122820Y498106D01*
X122765Y497808D01*
X122597Y497555D01*
X117009Y491967D01*
X116767Y491804D01*
X116470Y491744D01*
X103591Y491744D01*
X100230Y490352D01*
X97658Y487780D01*
X96266Y484419D01*
X96266Y480781D01*
X97658Y477420D01*
X100230Y474848D01*
X103591Y473456D01*
X122058Y473456D01*
X122322Y473409D01*
X122580Y473250D01*
X122755Y473002D01*
X122820Y472706D01*
X122765Y472408D01*
X122597Y472155D01*
X117009Y466567D01*
X116767Y466404D01*
X116470Y466344D01*
X103591Y466344D01*
X100230Y464952D01*
X97658Y462380D01*
X96266Y459019D01*
X96266Y455381D01*
X97658Y452020D01*
X100230Y449448D01*
X103591Y448056D01*
X122058Y448056D01*
X122322Y448009D01*
X122580Y447850D01*
X122755Y447602D01*
X122820Y447306D01*
X122765Y447008D01*
X122597Y446755D01*
X117009Y441167D01*
X116767Y441004D01*
X116470Y440944D01*
X103591Y440944D01*
X100230Y439552D01*
X97658Y436980D01*
X96266Y433619D01*
X96266Y429981D01*
X97658Y426620D01*
X100068Y424211D01*
X100221Y423991D01*
X100290Y423696D01*
X100240Y423397D01*
X100076Y423142D01*
X99826Y422970D01*
X99529Y422910D01*
X80569Y422910D01*
X80283Y422966D01*
X80030Y423133D01*
X79350Y423814D01*
X77306Y424660D01*
X75094Y424660D01*
X73051Y423814D01*
X71486Y422250D01*
X70640Y420206D01*
X70640Y417994D01*
X71486Y415951D01*
X73051Y414386D01*
X75094Y413540D01*
X77306Y413540D01*
X79350Y414386D01*
X80030Y415067D01*
X80271Y415230D01*
X80569Y415290D01*
X99529Y415290D01*
X99792Y415243D01*
X100050Y415084D01*
X100226Y414836D01*
X100291Y414540D01*
X100235Y414242D01*
X100068Y413989D01*
X97658Y411580D01*
X96266Y408219D01*
X96266Y404581D01*
X97658Y401220D01*
X100156Y398722D01*
X100314Y398492D01*
X100379Y398195D01*
X100324Y397897D01*
X100156Y397644D01*
X95761Y393249D01*
X95541Y393096D01*
X95246Y393026D01*
X94947Y393077D01*
X94692Y393240D01*
X94520Y393491D01*
X94460Y393788D01*
X94460Y394806D01*
X93614Y396850D01*
X92050Y398414D01*
X90006Y399260D01*
X87794Y399260D01*
X85751Y398414D01*
X85070Y397733D01*
X84829Y397570D01*
X84531Y397510D01*
X60898Y397510D01*
X60618Y397563D01*
X60364Y397729D01*
X60194Y397980D01*
X59822Y398880D01*
X57250Y401452D01*
X53889Y402844D01*
X35011Y402844D01*
X31650Y401452D01*
X29078Y398880D01*
X27686Y395519D01*
X27686Y391881D01*
X29078Y388520D01*
X31650Y385948D01*
X35011Y384556D01*
X53478Y384556D01*
X53742Y384509D01*
X54000Y384350D01*
X54175Y384102D01*
X54240Y383806D01*
X54185Y383508D01*
X54017Y383255D01*
X48429Y377667D01*
X48187Y377504D01*
X47890Y377444D01*
X35011Y377444D01*
X31650Y376052D01*
X29078Y373480D01*
X27686Y370119D01*
X27686Y366481D01*
X29078Y363120D01*
X31650Y360548D01*
X35011Y359156D01*
X53478Y359156D01*
X53742Y359109D01*
X54000Y358950D01*
X54175Y358702D01*
X54240Y358406D01*
X54185Y358108D01*
X54017Y357855D01*
X48429Y352267D01*
X48187Y352104D01*
X47890Y352044D01*
X35011Y352044D01*
X31650Y350652D01*
X29078Y348080D01*
X27686Y344719D01*
X27686Y341081D01*
X29078Y337720D01*
X31650Y335148D01*
X35011Y333756D01*
X53889Y333756D01*
X57250Y335148D01*
X59822Y337720D01*
X61214Y341081D01*
X61214Y344719D01*
X59822Y348080D01*
X57959Y349943D01*
X57801Y350173D01*
X57736Y350470D01*
X57791Y350768D01*
X57959Y351021D01*
X71205Y364267D01*
X71447Y364430D01*
X71744Y364490D01*
X71831Y364490D01*
X72117Y364434D01*
X72370Y364267D01*
X73051Y363586D01*
X75094Y362740D01*
X77306Y362740D01*
X79350Y363586D01*
X80914Y365151D01*
X81760Y367194D01*
X81760Y369406D01*
X80914Y371450D01*
X79350Y373014D01*
X77306Y373860D01*
X75094Y373860D01*
X73051Y373014D01*
X72370Y372333D01*
X72129Y372170D01*
X71831Y372110D01*
X68272Y372110D01*
X62515Y366353D01*
X62295Y366200D01*
X62000Y366130D01*
X61701Y366181D01*
X61446Y366344D01*
X61274Y366595D01*
X61214Y366892D01*
X61214Y370119D01*
X59822Y373480D01*
X57959Y375343D01*
X57801Y375573D01*
X57736Y375870D01*
X57791Y376168D01*
X57959Y376421D01*
X58505Y376967D01*
X58747Y377130D01*
X59044Y377190D01*
X90478Y377190D01*
X94965Y381677D01*
X95185Y381830D01*
X95480Y381900D01*
X95779Y381849D01*
X96034Y381686D01*
X96206Y381435D01*
X96266Y381138D01*
X96266Y379181D01*
X97658Y375820D01*
X100230Y373248D01*
X103591Y371856D01*
X122469Y371856D01*
X125830Y373248D01*
X128402Y375820D01*
X128774Y376720D01*
X128931Y376958D01*
X129181Y377130D01*
X129478Y377190D01*
X132022Y377190D01*
X132308Y377134D01*
X132561Y376967D01*
X155167Y354361D01*
X155320Y354141D01*
X155390Y353846D01*
X155339Y353547D01*
X155176Y353292D01*
X154925Y353120D01*
X154628Y353060D01*
X130556Y353060D01*
X130281Y353111D01*
X130026Y353275D01*
X129854Y353525D01*
X129794Y353822D01*
X129794Y357419D01*
X128402Y360780D01*
X125830Y363352D01*
X122469Y364744D01*
X103591Y364744D01*
X100230Y363352D01*
X97658Y360780D01*
X96266Y357419D01*
X96266Y353781D01*
X97658Y350420D01*
X100068Y348011D01*
X100221Y347791D01*
X100290Y347496D01*
X100240Y347197D01*
X100076Y346942D01*
X99826Y346770D01*
X99529Y346710D01*
X93269Y346710D01*
X92983Y346766D01*
X92730Y346933D01*
X92050Y347614D01*
X90006Y348460D01*
X87794Y348460D01*
X85751Y347614D01*
X84186Y346050D01*
X83340Y344006D01*
X83340Y341794D01*
X84186Y339751D01*
X85751Y338186D01*
X87794Y337340D01*
X90006Y337340D01*
X92050Y338186D01*
X92730Y338867D01*
X92971Y339030D01*
X93269Y339090D01*
X99529Y339090D01*
X99792Y339043D01*
X100050Y338884D01*
X100226Y338636D01*
X100291Y338340D01*
X100235Y338042D01*
X100068Y337789D01*
X97658Y335380D01*
X96266Y332019D01*
X96266Y328381D01*
X97658Y325020D01*
X100230Y322448D01*
X103591Y321056D01*
G37*
G36*
X404179Y574040D02*
X412550Y574040D01*
X412550Y582930D01*
X396040Y582930D01*
X396040Y582179D01*
X397587Y578445D01*
X400445Y575587D01*
X404179Y574040D01*
G37*
G36*
X415090Y574040D02*
X423461Y574040D01*
X427195Y575587D01*
X430053Y578445D01*
X431600Y582179D01*
X431600Y582930D01*
X415090Y582930D01*
X415090Y574040D01*
G37*
G36*
X404381Y549656D02*
X423259Y549656D01*
X426620Y551048D01*
X429192Y553620D01*
X430584Y556981D01*
X430584Y560619D01*
X429192Y563980D01*
X426620Y566552D01*
X423259Y567944D01*
X404381Y567944D01*
X401020Y566552D01*
X398448Y563980D01*
X397056Y560619D01*
X397056Y556981D01*
X398448Y553620D01*
X401020Y551048D01*
X404381Y549656D01*
G37*
G36*
X226760Y552280D02*
X228972Y552280D01*
X231016Y553126D01*
X232580Y554691D01*
X233426Y556734D01*
X233426Y558946D01*
X232580Y560990D01*
X231016Y562554D01*
X228972Y563400D01*
X226760Y563400D01*
X224993Y562668D01*
X224701Y562610D01*
X214399Y562610D01*
X214113Y562666D01*
X213860Y562833D01*
X213180Y563514D01*
X211136Y564360D01*
X208924Y564360D01*
X206881Y563514D01*
X205316Y561950D01*
X204470Y559906D01*
X204470Y557694D01*
X205316Y555651D01*
X206881Y554086D01*
X208924Y553240D01*
X211136Y553240D01*
X213180Y554086D01*
X213860Y554767D01*
X214101Y554930D01*
X214399Y554990D01*
X222537Y554990D01*
X222823Y554934D01*
X223076Y554767D01*
X224717Y553126D01*
X226760Y552280D01*
G37*
G36*
X404381Y524256D02*
X423259Y524256D01*
X426620Y525648D01*
X429192Y528220D01*
X430584Y531581D01*
X430584Y535219D01*
X429192Y538580D01*
X426620Y541152D01*
X423259Y542544D01*
X404381Y542544D01*
X401020Y541152D01*
X398448Y538580D01*
X397056Y535219D01*
X397056Y531581D01*
X398448Y528220D01*
X401020Y525648D01*
X404381Y524256D01*
G37*
G36*
X332191Y524256D02*
X351069Y524256D01*
X354430Y525648D01*
X357002Y528220D01*
X358394Y531581D01*
X358394Y535219D01*
X357002Y538580D01*
X354430Y541152D01*
X351069Y542544D01*
X332191Y542544D01*
X328830Y541152D01*
X326258Y538580D01*
X324866Y535219D01*
X324866Y531581D01*
X326258Y528220D01*
X328830Y525648D01*
X332191Y524256D01*
G37*
G36*
X35011Y498856D02*
X53889Y498856D01*
X57250Y500248D01*
X59822Y502820D01*
X61214Y506181D01*
X61214Y509819D01*
X59822Y513180D01*
X57250Y515752D01*
X53889Y517144D01*
X35011Y517144D01*
X31650Y515752D01*
X29078Y513180D01*
X27686Y509819D01*
X27686Y506181D01*
X29078Y502820D01*
X31650Y500248D01*
X35011Y498856D01*
G37*
G36*
X26670Y483870D02*
X43180Y483870D01*
X43180Y492760D01*
X34809Y492760D01*
X31075Y491213D01*
X28217Y488355D01*
X26670Y484621D01*
X26670Y483870D01*
G37*
G36*
X45720Y483870D02*
X62230Y483870D01*
X62230Y484621D01*
X60683Y488355D01*
X57825Y491213D01*
X54091Y492760D01*
X45720Y492760D01*
X45720Y483870D01*
G37*
G36*
X45720Y472440D02*
X54091Y472440D01*
X57825Y473987D01*
X60683Y476845D01*
X62230Y480579D01*
X62230Y481330D01*
X45720Y481330D01*
X45720Y472440D01*
G37*
G36*
X34809Y472440D02*
X43180Y472440D01*
X43180Y481330D01*
X26670Y481330D01*
X26670Y480579D01*
X28217Y476845D01*
X31075Y473987D01*
X34809Y472440D01*
G37*
G36*
X403311Y333756D02*
X422189Y333756D01*
X425550Y335148D01*
X428122Y337720D01*
X429514Y341081D01*
X429514Y344719D01*
X428122Y348080D01*
X425550Y350652D01*
X422189Y352044D01*
X409310Y352044D01*
X409024Y352100D01*
X408771Y352267D01*
X403183Y357855D01*
X403030Y358075D01*
X402960Y358370D01*
X403011Y358669D01*
X403174Y358924D01*
X403425Y359096D01*
X403722Y359156D01*
X422189Y359156D01*
X425550Y360548D01*
X428122Y363120D01*
X429514Y366481D01*
X429514Y370119D01*
X428122Y373480D01*
X425550Y376052D01*
X422189Y377444D01*
X403311Y377444D01*
X399950Y376052D01*
X397378Y373480D01*
X395986Y370119D01*
X395986Y366892D01*
X395939Y366628D01*
X395780Y366370D01*
X395532Y366195D01*
X395236Y366130D01*
X394938Y366185D01*
X394685Y366353D01*
X363528Y397510D01*
X355131Y397510D01*
X354868Y397557D01*
X354610Y397716D01*
X354434Y397964D01*
X354369Y398260D01*
X354425Y398558D01*
X354592Y398811D01*
X357002Y401220D01*
X358394Y404581D01*
X358394Y408219D01*
X357002Y411580D01*
X354430Y414152D01*
X351069Y415544D01*
X332191Y415544D01*
X328830Y414152D01*
X326258Y411580D01*
X324866Y408219D01*
X324866Y404581D01*
X326258Y401220D01*
X328668Y398811D01*
X328821Y398591D01*
X328890Y398296D01*
X328840Y397997D01*
X328676Y397742D01*
X328426Y397570D01*
X328129Y397510D01*
X302819Y397510D01*
X302533Y397566D01*
X302280Y397733D01*
X301600Y398414D01*
X299556Y399260D01*
X297344Y399260D01*
X295301Y398414D01*
X294620Y397733D01*
X294379Y397570D01*
X294081Y397510D01*
X290522Y397510D01*
X252645Y359633D01*
X252403Y359470D01*
X252106Y359410D01*
X232969Y359410D01*
X232683Y359466D01*
X232430Y359633D01*
X231750Y360314D01*
X229706Y361160D01*
X227494Y361160D01*
X225451Y360314D01*
X223886Y358750D01*
X223040Y356706D01*
X223040Y354494D01*
X223886Y352451D01*
X225451Y350886D01*
X227494Y350040D01*
X229706Y350040D01*
X231750Y350886D01*
X232430Y351567D01*
X232671Y351730D01*
X232969Y351790D01*
X255578Y351790D01*
X293455Y389667D01*
X293697Y389830D01*
X293994Y389890D01*
X294081Y389890D01*
X294367Y389834D01*
X294620Y389667D01*
X295301Y388986D01*
X297344Y388140D01*
X299556Y388140D01*
X301600Y388986D01*
X302280Y389667D01*
X302521Y389830D01*
X302819Y389890D01*
X328129Y389890D01*
X328392Y389843D01*
X328650Y389684D01*
X328826Y389436D01*
X328891Y389140D01*
X328835Y388842D01*
X328668Y388589D01*
X326258Y386180D01*
X324866Y382819D01*
X324866Y379181D01*
X326258Y375820D01*
X328830Y373248D01*
X332191Y371856D01*
X351069Y371856D01*
X354430Y373248D01*
X357002Y375820D01*
X358394Y379181D01*
X358394Y382819D01*
X357002Y386180D01*
X354592Y388589D01*
X354439Y388809D01*
X354370Y389104D01*
X354420Y389403D01*
X354584Y389658D01*
X354834Y389830D01*
X355131Y389890D01*
X360056Y389890D01*
X360342Y389834D01*
X360595Y389667D01*
X399241Y351021D01*
X399399Y350790D01*
X399464Y350494D01*
X399409Y350196D01*
X399241Y349943D01*
X397378Y348080D01*
X395986Y344719D01*
X395986Y341081D01*
X397378Y337720D01*
X399950Y335148D01*
X403311Y333756D01*
G37*
G36*
X414020Y394970D02*
X430530Y394970D01*
X430530Y395721D01*
X428983Y399455D01*
X426125Y402313D01*
X422391Y403860D01*
X414020Y403860D01*
X414020Y394970D01*
G37*
G36*
X394970Y394970D02*
X411480Y394970D01*
X411480Y403860D01*
X403109Y403860D01*
X399375Y402313D01*
X396517Y399455D01*
X394970Y395721D01*
X394970Y394970D01*
G37*
G36*
X414020Y383540D02*
X422391Y383540D01*
X426125Y385087D01*
X428983Y387945D01*
X430530Y391679D01*
X430530Y392430D01*
X414020Y392430D01*
X414020Y383540D01*
G37*
G36*
X403109Y383540D02*
X411480Y383540D01*
X411480Y392430D01*
X394970Y392430D01*
X394970Y391679D01*
X396517Y387945D01*
X399375Y385087D01*
X403109Y383540D01*
G37*
G36*
X332191Y295656D02*
X351069Y295656D01*
X354430Y297048D01*
X357002Y299620D01*
X358394Y302981D01*
X358394Y306619D01*
X357002Y309980D01*
X354592Y312389D01*
X354439Y312609D01*
X354370Y312904D01*
X354420Y313203D01*
X354584Y313458D01*
X354834Y313630D01*
X355131Y313690D01*
X396302Y313690D01*
X396582Y313637D01*
X396836Y313471D01*
X397006Y313220D01*
X397378Y312320D01*
X399950Y309748D01*
X403311Y308356D01*
X422189Y308356D01*
X425550Y309748D01*
X428122Y312320D01*
X429514Y315681D01*
X429514Y319319D01*
X428122Y322680D01*
X425550Y325252D01*
X422189Y326644D01*
X403311Y326644D01*
X399950Y325252D01*
X397378Y322680D01*
X397006Y321780D01*
X396849Y321542D01*
X396599Y321370D01*
X396302Y321310D01*
X355131Y321310D01*
X354868Y321357D01*
X354610Y321516D01*
X354434Y321764D01*
X354369Y322060D01*
X354425Y322358D01*
X354592Y322611D01*
X357002Y325020D01*
X358394Y328381D01*
X358394Y332019D01*
X357002Y335380D01*
X354430Y337952D01*
X351069Y339344D01*
X332191Y339344D01*
X328830Y337952D01*
X326258Y335380D01*
X324866Y332019D01*
X324866Y328381D01*
X326258Y325020D01*
X328668Y322611D01*
X328821Y322391D01*
X328890Y322096D01*
X328840Y321797D01*
X328676Y321542D01*
X328426Y321370D01*
X328129Y321310D01*
X325744Y321310D01*
X325458Y321366D01*
X325205Y321533D01*
X306663Y340075D01*
X306510Y340295D01*
X306440Y340590D01*
X306491Y340889D01*
X306654Y341144D01*
X306905Y341316D01*
X307202Y341376D01*
X375104Y341376D01*
X375384Y341323D01*
X375639Y341157D01*
X375808Y340906D01*
X376286Y339751D01*
X377851Y338186D01*
X379894Y337340D01*
X382106Y337340D01*
X384150Y338186D01*
X385714Y339751D01*
X386560Y341794D01*
X386560Y344006D01*
X385714Y346050D01*
X384150Y347614D01*
X382106Y348460D01*
X381144Y348460D01*
X380858Y348516D01*
X380605Y348683D01*
X380292Y348996D01*
X357417Y348996D01*
X357154Y349043D01*
X356896Y349202D01*
X356720Y349450D01*
X356655Y349746D01*
X356711Y350044D01*
X356878Y350297D01*
X357002Y350420D01*
X358394Y353781D01*
X358394Y357419D01*
X357002Y360780D01*
X354430Y363352D01*
X351069Y364744D01*
X332191Y364744D01*
X328830Y363352D01*
X326258Y360780D01*
X324866Y357419D01*
X324866Y353781D01*
X326258Y350420D01*
X326382Y350297D01*
X326535Y350077D01*
X326604Y349782D01*
X326554Y349483D01*
X326390Y349228D01*
X326140Y349056D01*
X325843Y348996D01*
X304772Y348996D01*
X304497Y349047D01*
X304242Y349211D01*
X304070Y349461D01*
X304010Y349758D01*
X304010Y350356D01*
X303164Y352400D01*
X301600Y353964D01*
X299556Y354810D01*
X297344Y354810D01*
X295301Y353964D01*
X294620Y353283D01*
X294379Y353120D01*
X294081Y353060D01*
X271069Y353060D01*
X270783Y353116D01*
X270530Y353283D01*
X269850Y353964D01*
X267806Y354810D01*
X265594Y354810D01*
X263551Y353964D01*
X261986Y352400D01*
X261140Y350356D01*
X261140Y348144D01*
X261986Y346101D01*
X263551Y344536D01*
X265594Y343690D01*
X267806Y343690D01*
X269850Y344536D01*
X270530Y345217D01*
X270771Y345380D01*
X271069Y345440D01*
X294081Y345440D01*
X294367Y345384D01*
X294620Y345217D01*
X295301Y344536D01*
X297344Y343690D01*
X298306Y343690D01*
X298592Y343634D01*
X298845Y343467D01*
X298901Y343411D01*
X299054Y343191D01*
X299124Y342896D01*
X299073Y342597D01*
X298910Y342342D01*
X298659Y342170D01*
X298362Y342110D01*
X297344Y342110D01*
X295301Y341264D01*
X294620Y340583D01*
X294379Y340420D01*
X294081Y340360D01*
X245669Y340360D01*
X245383Y340416D01*
X245130Y340583D01*
X244450Y341264D01*
X242406Y342110D01*
X240194Y342110D01*
X238151Y341264D01*
X236586Y339700D01*
X235740Y337656D01*
X235740Y335444D01*
X236586Y333401D01*
X238151Y331836D01*
X240194Y330990D01*
X242406Y330990D01*
X244450Y331836D01*
X245130Y332517D01*
X245371Y332680D01*
X245669Y332740D01*
X294081Y332740D01*
X294367Y332684D01*
X294620Y332517D01*
X295301Y331836D01*
X297344Y330990D01*
X299556Y330990D01*
X301600Y331836D01*
X302280Y332517D01*
X302521Y332680D01*
X302819Y332740D01*
X302906Y332740D01*
X303192Y332684D01*
X303445Y332517D01*
X322272Y313690D01*
X328129Y313690D01*
X328392Y313643D01*
X328650Y313484D01*
X328826Y313236D01*
X328891Y312940D01*
X328835Y312642D01*
X328668Y312389D01*
X326258Y309980D01*
X324866Y306619D01*
X324866Y302981D01*
X326258Y299620D01*
X328830Y297048D01*
X332191Y295656D01*
G37*
G36*
X35011Y308356D02*
X53889Y308356D01*
X57250Y309748D01*
X59822Y312320D01*
X61214Y315681D01*
X61214Y319319D01*
X59822Y322680D01*
X57250Y325252D01*
X53889Y326644D01*
X35011Y326644D01*
X31650Y325252D01*
X29078Y322680D01*
X27686Y319319D01*
X27686Y315681D01*
X29078Y312320D01*
X31650Y309748D01*
X35011Y308356D01*
G37*
G36*
X103591Y295656D02*
X122469Y295656D01*
X125830Y297048D01*
X128402Y299620D01*
X129794Y302981D01*
X129794Y306619D01*
X128402Y309980D01*
X125830Y312552D01*
X122469Y313944D01*
X103591Y313944D01*
X100230Y312552D01*
X97658Y309980D01*
X96266Y306619D01*
X96266Y302981D01*
X97658Y299620D01*
X100230Y297048D01*
X103591Y295656D01*
G37*
G36*
X26670Y293370D02*
X43180Y293370D01*
X43180Y302260D01*
X34809Y302260D01*
X31075Y300713D01*
X28217Y297855D01*
X26670Y294121D01*
X26670Y293370D01*
G37*
G36*
X45720Y293370D02*
X62230Y293370D01*
X62230Y294121D01*
X60683Y297855D01*
X57825Y300713D01*
X54091Y302260D01*
X45720Y302260D01*
X45720Y293370D01*
G37*
G36*
X403311Y282956D02*
X422189Y282956D01*
X425550Y284348D01*
X428122Y286920D01*
X429514Y290281D01*
X429514Y293919D01*
X428122Y297280D01*
X425550Y299852D01*
X422189Y301244D01*
X403311Y301244D01*
X399950Y299852D01*
X397378Y297280D01*
X395986Y293919D01*
X395986Y290281D01*
X397378Y286920D01*
X399950Y284348D01*
X403311Y282956D01*
G37*
G36*
X183044Y286540D02*
X185256Y286540D01*
X187300Y287386D01*
X187980Y288067D01*
X188221Y288230D01*
X188519Y288290D01*
X230581Y288290D01*
X230867Y288234D01*
X231120Y288067D01*
X231801Y287386D01*
X233844Y286540D01*
X236056Y286540D01*
X238100Y287386D01*
X239664Y288951D01*
X240510Y290994D01*
X240510Y293206D01*
X239664Y295250D01*
X238100Y296814D01*
X236056Y297660D01*
X233844Y297660D01*
X231801Y296814D01*
X231120Y296133D01*
X230879Y295970D01*
X230581Y295910D01*
X188519Y295910D01*
X188233Y295966D01*
X187980Y296133D01*
X187300Y296814D01*
X185256Y297660D01*
X183044Y297660D01*
X181001Y296814D01*
X179436Y295250D01*
X178590Y293206D01*
X178590Y290994D01*
X179436Y288951D01*
X181001Y287386D01*
X183044Y286540D01*
G37*
G36*
X176694Y273840D02*
X178906Y273840D01*
X180950Y274686D01*
X181630Y275367D01*
X181871Y275530D01*
X182169Y275590D01*
X249228Y275590D01*
X253605Y279967D01*
X253847Y280130D01*
X254144Y280190D01*
X254626Y280190D01*
X256670Y281036D01*
X258234Y282601D01*
X259080Y284644D01*
X259080Y286856D01*
X258234Y288900D01*
X256670Y290464D01*
X254626Y291310D01*
X252414Y291310D01*
X250371Y290464D01*
X248806Y288900D01*
X247960Y286856D01*
X247960Y285414D01*
X247904Y285128D01*
X247737Y284875D01*
X246295Y283433D01*
X246053Y283270D01*
X245756Y283210D01*
X182169Y283210D01*
X181883Y283266D01*
X181630Y283433D01*
X180950Y284114D01*
X178906Y284960D01*
X176694Y284960D01*
X174651Y284114D01*
X173086Y282550D01*
X172240Y280506D01*
X172240Y278294D01*
X173086Y276251D01*
X174651Y274686D01*
X176694Y273840D01*
G37*
G36*
X45720Y281940D02*
X54091Y281940D01*
X57825Y283487D01*
X60683Y286345D01*
X62230Y290079D01*
X62230Y290830D01*
X45720Y290830D01*
X45720Y281940D01*
G37*
G36*
X34809Y281940D02*
X43180Y281940D01*
X43180Y290830D01*
X26670Y290830D01*
X26670Y290079D01*
X28217Y286345D01*
X31075Y283487D01*
X34809Y281940D01*
G37*
G36*
X332191Y270256D02*
X351069Y270256D01*
X354430Y271648D01*
X357002Y274220D01*
X358394Y277581D01*
X358394Y281219D01*
X357002Y284580D01*
X354430Y287152D01*
X351069Y288544D01*
X332191Y288544D01*
X328830Y287152D01*
X326258Y284580D01*
X324866Y281219D01*
X324866Y277581D01*
X326258Y274220D01*
X328830Y271648D01*
X332191Y270256D01*
G37*
G36*
X103591Y270256D02*
X122469Y270256D01*
X125830Y271648D01*
X128402Y274220D01*
X129794Y277581D01*
X129794Y281219D01*
X128402Y284580D01*
X125830Y287152D01*
X122469Y288544D01*
X103591Y288544D01*
X100230Y287152D01*
X97658Y284580D01*
X96266Y281219D01*
X96266Y277581D01*
X97658Y274220D01*
X100230Y271648D01*
X103591Y270256D01*
G37*
G36*
X103591Y143256D02*
X122469Y143256D01*
X125830Y144648D01*
X128402Y147220D01*
X129794Y150581D01*
X129794Y154219D01*
X128402Y157580D01*
X126539Y159443D01*
X126381Y159673D01*
X126316Y159970D01*
X126371Y160268D01*
X126539Y160521D01*
X127085Y161067D01*
X127327Y161230D01*
X127624Y161290D01*
X214169Y161290D01*
X227126Y174247D01*
X227367Y174410D01*
X227665Y174470D01*
X229535Y174470D01*
X229821Y174414D01*
X230074Y174247D01*
X230543Y173778D01*
X249843Y173778D01*
X250129Y173723D01*
X250382Y173555D01*
X250851Y173086D01*
X252894Y172240D01*
X255106Y172240D01*
X257150Y173086D01*
X258714Y174651D01*
X259560Y176694D01*
X259560Y178906D01*
X258714Y180950D01*
X257150Y182514D01*
X255106Y183360D01*
X252894Y183360D01*
X250851Y182514D01*
X249958Y181621D01*
X249717Y181459D01*
X249420Y181398D01*
X240858Y181398D01*
X240589Y181447D01*
X240332Y181609D01*
X240158Y181857D01*
X240096Y182154D01*
X240154Y182452D01*
X240510Y183312D01*
X240510Y185524D01*
X239664Y187568D01*
X238100Y189132D01*
X236056Y189978D01*
X233844Y189978D01*
X231801Y189132D01*
X230986Y188317D01*
X230744Y188154D01*
X230447Y188094D01*
X220538Y188094D01*
X211387Y178944D01*
X211168Y178791D01*
X210873Y178721D01*
X210574Y178772D01*
X210318Y178935D01*
X210147Y179185D01*
X210086Y179482D01*
X210086Y180232D01*
X209240Y182276D01*
X207676Y183840D01*
X205632Y184686D01*
X203420Y184686D01*
X201377Y183840D01*
X200697Y183160D01*
X200455Y182997D01*
X200158Y182936D01*
X196822Y182936D01*
X196547Y182988D01*
X196292Y183151D01*
X196120Y183401D01*
X196060Y183698D01*
X196060Y185256D01*
X195214Y187300D01*
X193650Y188864D01*
X191606Y189710D01*
X189394Y189710D01*
X187351Y188864D01*
X186670Y188183D01*
X186429Y188020D01*
X186131Y187960D01*
X163119Y187960D01*
X162833Y188016D01*
X162580Y188183D01*
X161900Y188864D01*
X159856Y189710D01*
X157644Y189710D01*
X155601Y188864D01*
X154920Y188183D01*
X154679Y188020D01*
X154381Y187960D01*
X147944Y187960D01*
X147658Y188016D01*
X147405Y188183D01*
X141278Y194310D01*
X126531Y194310D01*
X126268Y194357D01*
X126010Y194516D01*
X125834Y194764D01*
X125769Y195060D01*
X125825Y195358D01*
X125992Y195611D01*
X128402Y198020D01*
X129794Y201381D01*
X129794Y205019D01*
X128402Y208380D01*
X125992Y210789D01*
X125839Y211009D01*
X125770Y211304D01*
X125820Y211603D01*
X125984Y211858D01*
X126234Y212030D01*
X126531Y212090D01*
X128578Y212090D01*
X134705Y218217D01*
X134947Y218380D01*
X135244Y218440D01*
X224231Y218440D01*
X224517Y218384D01*
X224770Y218217D01*
X225451Y217536D01*
X227494Y216690D01*
X229706Y216690D01*
X231750Y217536D01*
X232430Y218217D01*
X232671Y218380D01*
X232969Y218440D01*
X287731Y218440D01*
X288017Y218384D01*
X288270Y218217D01*
X288951Y217536D01*
X290994Y216690D01*
X293206Y216690D01*
X295250Y217536D01*
X296814Y219101D01*
X297660Y221144D01*
X297660Y223356D01*
X296814Y225400D01*
X295250Y226964D01*
X293206Y227810D01*
X290994Y227810D01*
X288951Y226964D01*
X288270Y226283D01*
X288029Y226120D01*
X287731Y226060D01*
X232969Y226060D01*
X232683Y226116D01*
X232430Y226283D01*
X231750Y226964D01*
X229706Y227810D01*
X227494Y227810D01*
X225451Y226964D01*
X224770Y226283D01*
X224529Y226120D01*
X224231Y226060D01*
X131772Y226060D01*
X130594Y224883D01*
X130380Y224732D01*
X130086Y224660D01*
X129787Y224708D01*
X129530Y224870D01*
X129356Y225119D01*
X129294Y225415D01*
X129352Y225713D01*
X129794Y226781D01*
X129794Y229898D01*
X129845Y230173D01*
X130009Y230428D01*
X130259Y230600D01*
X130556Y230660D01*
X192481Y230660D01*
X192767Y230604D01*
X193020Y230437D01*
X193701Y229756D01*
X195744Y228910D01*
X197956Y228910D01*
X200000Y229756D01*
X201564Y231321D01*
X202410Y233364D01*
X202410Y235576D01*
X202054Y236436D01*
X201996Y236704D01*
X202047Y237003D01*
X202210Y237258D01*
X202460Y237430D01*
X202758Y237490D01*
X223828Y237490D01*
X228205Y241867D01*
X228447Y242030D01*
X228744Y242090D01*
X229706Y242090D01*
X231750Y242936D01*
X233314Y244501D01*
X234160Y246544D01*
X234160Y248756D01*
X233314Y250800D01*
X231750Y252364D01*
X229706Y253210D01*
X227494Y253210D01*
X225451Y252364D01*
X223886Y250800D01*
X223040Y248756D01*
X223040Y247794D01*
X222984Y247508D01*
X222817Y247255D01*
X220895Y245333D01*
X220653Y245170D01*
X220356Y245110D01*
X163119Y245110D01*
X162833Y245166D01*
X162580Y245333D01*
X161900Y246014D01*
X159856Y246860D01*
X157644Y246860D01*
X155601Y246014D01*
X154920Y245333D01*
X154679Y245170D01*
X154381Y245110D01*
X126531Y245110D01*
X126268Y245157D01*
X126010Y245316D01*
X125834Y245564D01*
X125769Y245860D01*
X125825Y246158D01*
X125992Y246411D01*
X128402Y248820D01*
X129794Y252181D01*
X129794Y255819D01*
X128402Y259180D01*
X125830Y261752D01*
X122469Y263144D01*
X103591Y263144D01*
X100230Y261752D01*
X97658Y259180D01*
X96266Y255819D01*
X96266Y252181D01*
X97658Y248820D01*
X100068Y246411D01*
X100221Y246191D01*
X100290Y245896D01*
X100240Y245597D01*
X100076Y245342D01*
X99826Y245170D01*
X99529Y245110D01*
X86919Y245110D01*
X86633Y245166D01*
X86380Y245333D01*
X85700Y246014D01*
X83656Y246860D01*
X81444Y246860D01*
X79401Y246014D01*
X77836Y244450D01*
X76990Y242406D01*
X76990Y240194D01*
X77836Y238151D01*
X79401Y236586D01*
X81444Y235740D01*
X83656Y235740D01*
X85700Y236586D01*
X86380Y237267D01*
X86621Y237430D01*
X86919Y237490D01*
X99529Y237490D01*
X99792Y237443D01*
X100050Y237284D01*
X100226Y237036D01*
X100291Y236740D01*
X100235Y236442D01*
X100068Y236189D01*
X97658Y233780D01*
X96266Y230419D01*
X96266Y226781D01*
X97658Y223420D01*
X100068Y221011D01*
X100221Y220791D01*
X100290Y220496D01*
X100240Y220197D01*
X100076Y219942D01*
X99826Y219770D01*
X99529Y219710D01*
X55572Y219710D01*
X48429Y212567D01*
X48187Y212404D01*
X47890Y212344D01*
X35011Y212344D01*
X31650Y210952D01*
X29078Y208380D01*
X27686Y205019D01*
X27686Y201381D01*
X29078Y198020D01*
X31650Y195448D01*
X35011Y194056D01*
X53889Y194056D01*
X57250Y195448D01*
X59822Y198020D01*
X61214Y201381D01*
X61214Y205019D01*
X59822Y208380D01*
X57959Y210243D01*
X57801Y210473D01*
X57736Y210770D01*
X57791Y211068D01*
X57959Y211321D01*
X58505Y211867D01*
X58747Y212030D01*
X59044Y212090D01*
X99529Y212090D01*
X99792Y212043D01*
X100050Y211884D01*
X100226Y211636D01*
X100291Y211340D01*
X100235Y211042D01*
X100068Y210789D01*
X97658Y208380D01*
X96266Y205019D01*
X96266Y201381D01*
X97658Y198020D01*
X100068Y195611D01*
X100221Y195391D01*
X100290Y195096D01*
X100240Y194797D01*
X100076Y194542D01*
X99826Y194370D01*
X99529Y194310D01*
X93269Y194310D01*
X92983Y194366D01*
X92730Y194533D01*
X92050Y195214D01*
X90006Y196060D01*
X87794Y196060D01*
X85751Y195214D01*
X84186Y193650D01*
X83340Y191606D01*
X83340Y189394D01*
X84186Y187351D01*
X85751Y185786D01*
X87794Y184940D01*
X90006Y184940D01*
X92050Y185786D01*
X92730Y186467D01*
X92971Y186630D01*
X93269Y186690D01*
X99529Y186690D01*
X99792Y186643D01*
X100050Y186484D01*
X100226Y186236D01*
X100291Y185940D01*
X100235Y185642D01*
X100068Y185389D01*
X97658Y182980D01*
X96266Y179619D01*
X96266Y175981D01*
X97658Y172620D01*
X100230Y170048D01*
X103591Y168656D01*
X116470Y168656D01*
X116756Y168600D01*
X117009Y168433D01*
X118762Y166680D01*
X120082Y166680D01*
X120346Y166633D01*
X120604Y166474D01*
X120779Y166226D01*
X120844Y165930D01*
X120789Y165632D01*
X120621Y165379D01*
X117009Y161767D01*
X116767Y161604D01*
X116470Y161544D01*
X103591Y161544D01*
X100230Y160152D01*
X97658Y157580D01*
X96266Y154219D01*
X96266Y150581D01*
X97658Y147220D01*
X100230Y144648D01*
X103591Y143256D01*
G37*
G36*
X332191Y219456D02*
X351069Y219456D01*
X354430Y220848D01*
X357002Y223420D01*
X358394Y226781D01*
X358394Y230419D01*
X357002Y233780D01*
X354592Y236189D01*
X354439Y236409D01*
X354370Y236704D01*
X354420Y237003D01*
X354584Y237258D01*
X354834Y237430D01*
X355131Y237490D01*
X376631Y237490D01*
X376917Y237434D01*
X377170Y237267D01*
X377851Y236586D01*
X379894Y235740D01*
X382106Y235740D01*
X384150Y236586D01*
X385714Y238151D01*
X386560Y240194D01*
X386560Y242406D01*
X385714Y244450D01*
X384150Y246014D01*
X382106Y246860D01*
X379894Y246860D01*
X377851Y246014D01*
X377170Y245333D01*
X376929Y245170D01*
X376631Y245110D01*
X355131Y245110D01*
X354868Y245157D01*
X354610Y245316D01*
X354434Y245564D01*
X354369Y245860D01*
X354425Y246158D01*
X354592Y246411D01*
X357002Y248820D01*
X358394Y252181D01*
X358394Y255819D01*
X357002Y259180D01*
X354430Y261752D01*
X351069Y263144D01*
X332191Y263144D01*
X328830Y261752D01*
X326258Y259180D01*
X324866Y255819D01*
X324866Y252181D01*
X326258Y248820D01*
X328668Y246411D01*
X328821Y246191D01*
X328890Y245896D01*
X328840Y245597D01*
X328676Y245342D01*
X328426Y245170D01*
X328129Y245110D01*
X302819Y245110D01*
X302533Y245166D01*
X302280Y245333D01*
X301600Y246014D01*
X299556Y246860D01*
X297344Y246860D01*
X295301Y246014D01*
X294620Y245333D01*
X294379Y245170D01*
X294081Y245110D01*
X283769Y245110D01*
X283483Y245166D01*
X283230Y245333D01*
X282550Y246014D01*
X280506Y246860D01*
X278294Y246860D01*
X276251Y246014D01*
X274686Y244450D01*
X273840Y242406D01*
X273840Y240194D01*
X274686Y238151D01*
X276251Y236586D01*
X278294Y235740D01*
X280506Y235740D01*
X282550Y236586D01*
X283230Y237267D01*
X283471Y237430D01*
X283769Y237490D01*
X294081Y237490D01*
X294367Y237434D01*
X294620Y237267D01*
X295301Y236586D01*
X297344Y235740D01*
X299556Y235740D01*
X301600Y236586D01*
X302280Y237267D01*
X302521Y237430D01*
X302819Y237490D01*
X328129Y237490D01*
X328392Y237443D01*
X328650Y237284D01*
X328826Y237036D01*
X328891Y236740D01*
X328835Y236442D01*
X328668Y236189D01*
X326258Y233780D01*
X324866Y230419D01*
X324866Y226781D01*
X326258Y223420D01*
X328830Y220848D01*
X332191Y219456D01*
G37*
G36*
X394970Y204470D02*
X411480Y204470D01*
X411480Y213360D01*
X403109Y213360D01*
X399375Y211813D01*
X396517Y208955D01*
X394970Y205221D01*
X394970Y204470D01*
G37*
G36*
X414020Y204470D02*
X430530Y204470D01*
X430530Y205221D01*
X428983Y208955D01*
X426125Y211813D01*
X422391Y213360D01*
X414020Y213360D01*
X414020Y204470D01*
G37*
G36*
X332191Y194056D02*
X351069Y194056D01*
X354430Y195448D01*
X357002Y198020D01*
X358394Y201381D01*
X358394Y205019D01*
X357002Y208380D01*
X354430Y210952D01*
X351069Y212344D01*
X332191Y212344D01*
X328830Y210952D01*
X326258Y208380D01*
X324866Y205019D01*
X324866Y201381D01*
X326258Y198020D01*
X328830Y195448D01*
X332191Y194056D01*
G37*
G36*
X414020Y193040D02*
X422391Y193040D01*
X426125Y194587D01*
X428983Y197445D01*
X430530Y201179D01*
X430530Y201930D01*
X414020Y201930D01*
X414020Y193040D01*
G37*
G36*
X403109Y193040D02*
X411480Y193040D01*
X411480Y201930D01*
X394970Y201930D01*
X394970Y201179D01*
X396517Y197445D01*
X399375Y194587D01*
X403109Y193040D01*
G37*
G36*
X35011Y168656D02*
X53889Y168656D01*
X57250Y170048D01*
X59822Y172620D01*
X60194Y173520D01*
X60351Y173758D01*
X60601Y173930D01*
X60898Y173990D01*
X71428Y173990D01*
X75805Y178367D01*
X76047Y178530D01*
X76344Y178590D01*
X77306Y178590D01*
X79350Y179436D01*
X80914Y181001D01*
X81760Y183044D01*
X81760Y185256D01*
X80914Y187300D01*
X79350Y188864D01*
X77306Y189710D01*
X75094Y189710D01*
X73051Y188864D01*
X71486Y187300D01*
X70640Y185256D01*
X70640Y184294D01*
X70584Y184008D01*
X70417Y183755D01*
X68495Y181833D01*
X68253Y181670D01*
X67956Y181610D01*
X60898Y181610D01*
X60618Y181663D01*
X60364Y181829D01*
X60194Y182080D01*
X59822Y182980D01*
X57250Y185552D01*
X53889Y186944D01*
X35011Y186944D01*
X31650Y185552D01*
X29078Y182980D01*
X27686Y179619D01*
X27686Y175981D01*
X29078Y172620D01*
X31650Y170048D01*
X35011Y168656D01*
G37*
G36*
X403311Y168656D02*
X422189Y168656D01*
X425550Y170048D01*
X428122Y172620D01*
X429514Y175981D01*
X429514Y179619D01*
X428122Y182980D01*
X425550Y185552D01*
X422189Y186944D01*
X403311Y186944D01*
X399950Y185552D01*
X397378Y182980D01*
X395986Y179619D01*
X395986Y175981D01*
X397378Y172620D01*
X399950Y170048D01*
X403311Y168656D01*
G37*
G36*
X332191Y168656D02*
X351069Y168656D01*
X354430Y170048D01*
X357002Y172620D01*
X358394Y175981D01*
X358394Y179619D01*
X357002Y182980D01*
X354430Y185552D01*
X351069Y186944D01*
X332191Y186944D01*
X328830Y185552D01*
X326258Y182980D01*
X324866Y179619D01*
X324866Y175981D01*
X326258Y172620D01*
X328830Y170048D01*
X332191Y168656D01*
G37*
G36*
X35011Y143256D02*
X53889Y143256D01*
X57250Y144648D01*
X59822Y147220D01*
X60194Y148120D01*
X60351Y148358D01*
X60601Y148530D01*
X60898Y148590D01*
X71831Y148590D01*
X72117Y148534D01*
X72370Y148367D01*
X73051Y147686D01*
X75094Y146840D01*
X77306Y146840D01*
X79350Y147686D01*
X80914Y149251D01*
X81760Y151294D01*
X81760Y153506D01*
X80914Y155550D01*
X79350Y157114D01*
X77306Y157960D01*
X75094Y157960D01*
X73051Y157114D01*
X72370Y156433D01*
X72129Y156270D01*
X71831Y156210D01*
X60898Y156210D01*
X60618Y156263D01*
X60364Y156429D01*
X60194Y156680D01*
X59822Y157580D01*
X57250Y160152D01*
X53889Y161544D01*
X35011Y161544D01*
X31650Y160152D01*
X29078Y157580D01*
X27686Y154219D01*
X27686Y150581D01*
X29078Y147220D01*
X31650Y144648D01*
X35011Y143256D01*
G37*
G36*
X403311Y92456D02*
X422189Y92456D01*
X425550Y93848D01*
X428122Y96420D01*
X429514Y99781D01*
X429514Y103419D01*
X428122Y106780D01*
X425550Y109352D01*
X422189Y110744D01*
X403311Y110744D01*
X399950Y109352D01*
X397378Y106780D01*
X397006Y105880D01*
X396849Y105642D01*
X396599Y105470D01*
X396302Y105410D01*
X372221Y105410D01*
X371935Y105466D01*
X371683Y105633D01*
X356788Y120528D01*
X356630Y120759D01*
X356564Y121055D01*
X356620Y121353D01*
X356788Y121606D01*
X357002Y121820D01*
X358394Y125181D01*
X358394Y128819D01*
X357002Y132180D01*
X354592Y134589D01*
X354439Y134809D01*
X354370Y135104D01*
X354420Y135403D01*
X354584Y135658D01*
X354834Y135830D01*
X355131Y135890D01*
X379106Y135890D01*
X379392Y135834D01*
X379645Y135667D01*
X392122Y123190D01*
X396302Y123190D01*
X396582Y123137D01*
X396836Y122971D01*
X397006Y122720D01*
X397378Y121820D01*
X399950Y119248D01*
X403311Y117856D01*
X422189Y117856D01*
X425550Y119248D01*
X428122Y121820D01*
X429514Y125181D01*
X429514Y128819D01*
X428122Y132180D01*
X425550Y134752D01*
X422189Y136144D01*
X403311Y136144D01*
X399950Y134752D01*
X397378Y132180D01*
X397006Y131280D01*
X396849Y131042D01*
X396599Y130870D01*
X396302Y130810D01*
X395594Y130810D01*
X395308Y130866D01*
X395055Y131033D01*
X382578Y143510D01*
X355131Y143510D01*
X354868Y143557D01*
X354610Y143716D01*
X354434Y143964D01*
X354369Y144260D01*
X354425Y144558D01*
X354592Y144811D01*
X357002Y147220D01*
X358394Y150581D01*
X358394Y154219D01*
X357002Y157580D01*
X354430Y160152D01*
X351069Y161544D01*
X332191Y161544D01*
X328830Y160152D01*
X326258Y157580D01*
X324866Y154219D01*
X324866Y150581D01*
X326258Y147220D01*
X328668Y144811D01*
X328821Y144591D01*
X328890Y144296D01*
X328840Y143997D01*
X328676Y143742D01*
X328426Y143570D01*
X328129Y143510D01*
X321869Y143510D01*
X321583Y143566D01*
X321330Y143733D01*
X320650Y144414D01*
X318606Y145260D01*
X316394Y145260D01*
X314351Y144414D01*
X312786Y142850D01*
X311940Y140806D01*
X311940Y138594D01*
X312786Y136551D01*
X314351Y134986D01*
X316394Y134140D01*
X318606Y134140D01*
X320650Y134986D01*
X321330Y135667D01*
X321571Y135830D01*
X321869Y135890D01*
X328129Y135890D01*
X328392Y135843D01*
X328650Y135684D01*
X328826Y135436D01*
X328891Y135140D01*
X328835Y134842D01*
X328668Y134589D01*
X326258Y132180D01*
X324866Y128819D01*
X324866Y125181D01*
X326258Y121820D01*
X326382Y121697D01*
X326535Y121477D01*
X326604Y121182D01*
X326554Y120883D01*
X326390Y120628D01*
X326140Y120456D01*
X325843Y120396D01*
X325240Y120396D01*
X324954Y120452D01*
X324701Y120619D01*
X308161Y137160D01*
X283769Y137160D01*
X283483Y137216D01*
X283230Y137383D01*
X282550Y138064D01*
X280506Y138910D01*
X278294Y138910D01*
X276251Y138064D01*
X275570Y137383D01*
X275329Y137220D01*
X275031Y137160D01*
X236844Y137160D01*
X236558Y137216D01*
X236305Y137383D01*
X234383Y139305D01*
X234220Y139547D01*
X234160Y139844D01*
X234160Y140806D01*
X233314Y142850D01*
X231750Y144414D01*
X229706Y145260D01*
X227494Y145260D01*
X225451Y144414D01*
X223886Y142850D01*
X223040Y140806D01*
X223040Y138594D01*
X223886Y136551D01*
X225451Y134986D01*
X227494Y134140D01*
X228456Y134140D01*
X228742Y134084D01*
X228995Y133917D01*
X233567Y129345D01*
X233720Y129125D01*
X233790Y128830D01*
X233739Y128531D01*
X233576Y128276D01*
X233325Y128104D01*
X233028Y128044D01*
X198856Y128044D01*
X190895Y120083D01*
X190653Y119920D01*
X190356Y119860D01*
X189394Y119860D01*
X187351Y119014D01*
X185786Y117450D01*
X184940Y115406D01*
X184940Y113194D01*
X185786Y111151D01*
X187351Y109586D01*
X189394Y108740D01*
X191606Y108740D01*
X193650Y109586D01*
X195214Y111151D01*
X196060Y113194D01*
X196060Y114156D01*
X196116Y114442D01*
X196283Y114695D01*
X201789Y120201D01*
X202031Y120364D01*
X202328Y120424D01*
X287731Y120424D01*
X288017Y120368D01*
X288270Y120201D01*
X288951Y119520D01*
X290994Y118674D01*
X293206Y118674D01*
X295250Y119520D01*
X296814Y121085D01*
X297660Y123128D01*
X297660Y125340D01*
X296814Y127384D01*
X295958Y128239D01*
X295805Y128459D01*
X295735Y128754D01*
X295786Y129053D01*
X295949Y129308D01*
X296199Y129480D01*
X296497Y129540D01*
X304689Y129540D01*
X304975Y129484D01*
X305227Y129317D01*
X321768Y112776D01*
X353448Y112776D01*
X353734Y112720D01*
X353987Y112553D01*
X368749Y97790D01*
X396302Y97790D01*
X396582Y97737D01*
X396836Y97571D01*
X397006Y97320D01*
X397378Y96420D01*
X399950Y93848D01*
X403311Y92456D01*
G37*
G36*
X403311Y143256D02*
X422189Y143256D01*
X425550Y144648D01*
X428122Y147220D01*
X429514Y150581D01*
X429514Y154219D01*
X428122Y157580D01*
X425550Y160152D01*
X422189Y161544D01*
X403311Y161544D01*
X399950Y160152D01*
X397378Y157580D01*
X395986Y154219D01*
X395986Y150581D01*
X397378Y147220D01*
X399950Y144648D01*
X403311Y143256D01*
G37*
G36*
X35011Y117856D02*
X53889Y117856D01*
X57250Y119248D01*
X59822Y121820D01*
X61214Y125181D01*
X61214Y128819D01*
X59822Y132180D01*
X57250Y134752D01*
X53889Y136144D01*
X35011Y136144D01*
X31650Y134752D01*
X29078Y132180D01*
X27686Y128819D01*
X27686Y125181D01*
X29078Y121820D01*
X31650Y119248D01*
X35011Y117856D01*
G37*
G36*
X103591Y117856D02*
X122469Y117856D01*
X125830Y119248D01*
X128402Y121820D01*
X129794Y125181D01*
X129794Y128819D01*
X128402Y132180D01*
X125830Y134752D01*
X122469Y136144D01*
X103591Y136144D01*
X100230Y134752D01*
X97658Y132180D01*
X96266Y128819D01*
X96266Y125181D01*
X97658Y121820D01*
X100230Y119248D01*
X103591Y117856D01*
G37*
G36*
X26670Y102870D02*
X43180Y102870D01*
X43180Y111760D01*
X34809Y111760D01*
X31075Y110213D01*
X28217Y107355D01*
X26670Y103621D01*
X26670Y102870D01*
G37*
G36*
X45720Y102870D02*
X62230Y102870D01*
X62230Y103621D01*
X60683Y107355D01*
X57825Y110213D01*
X54091Y111760D01*
X45720Y111760D01*
X45720Y102870D01*
G37*
G36*
X103591Y92456D02*
X122469Y92456D01*
X125830Y93848D01*
X128402Y96420D01*
X129794Y99781D01*
X129794Y103419D01*
X128402Y106780D01*
X125830Y109352D01*
X122469Y110744D01*
X103591Y110744D01*
X100230Y109352D01*
X97658Y106780D01*
X96266Y103419D01*
X96266Y99781D01*
X97658Y96420D01*
X100230Y93848D01*
X103591Y92456D01*
G37*
G36*
X332191Y92456D02*
X351069Y92456D01*
X354430Y93848D01*
X357002Y96420D01*
X358394Y99781D01*
X358394Y103419D01*
X357002Y106780D01*
X354430Y109352D01*
X351069Y110744D01*
X332191Y110744D01*
X328830Y109352D01*
X326258Y106780D01*
X324866Y103419D01*
X324866Y99781D01*
X326258Y96420D01*
X328830Y93848D01*
X332191Y92456D01*
G37*
G36*
X45720Y91440D02*
X54091Y91440D01*
X57825Y92987D01*
X60683Y95845D01*
X62230Y99579D01*
X62230Y100330D01*
X45720Y100330D01*
X45720Y91440D01*
G37*
G36*
X34809Y91440D02*
X43180Y91440D01*
X43180Y100330D01*
X26670Y100330D01*
X26670Y99579D01*
X28217Y95845D01*
X31075Y92987D01*
X34809Y91440D01*
G37*
G36*
X312752Y11684D02*
X319708Y11684D01*
X326426Y13484D01*
X332450Y16962D01*
X337368Y21880D01*
X340846Y27904D01*
X342646Y34622D01*
X342646Y41578D01*
X340846Y48296D01*
X337368Y54320D01*
X332450Y59238D01*
X326426Y62716D01*
X319708Y64516D01*
X312752Y64516D01*
X306034Y62716D01*
X300010Y59238D01*
X295092Y54320D01*
X291614Y48296D01*
X289814Y41578D01*
X289814Y34622D01*
X291614Y27904D01*
X295092Y21880D01*
X300010Y16962D01*
X306034Y13484D01*
X312752Y11684D01*
G37*
G36*
X134952Y11684D02*
X141908Y11684D01*
X148626Y13484D01*
X154650Y16962D01*
X159568Y21880D01*
X163046Y27904D01*
X164846Y34622D01*
X164846Y41578D01*
X163046Y48296D01*
X159568Y54320D01*
X154650Y59238D01*
X148626Y62716D01*
X141908Y64516D01*
X134952Y64516D01*
X128234Y62716D01*
X122210Y59238D01*
X117292Y54320D01*
X113814Y48296D01*
X112014Y41578D01*
X112014Y34622D01*
X113814Y27904D01*
X117292Y21880D01*
X122210Y16962D01*
X128234Y13484D01*
X134952Y11684D01*
G37*
%LPD*%
D10*
X105410Y584200D02*
X120650Y584200D01*
X120650Y558800D02*
X105410Y558800D01*
X105410Y533400D02*
X120650Y533400D01*
X120650Y508000D02*
X105410Y508000D01*
X105410Y482600D02*
X120650Y482600D01*
X120650Y457200D02*
X105410Y457200D01*
X105410Y431800D02*
X120650Y431800D01*
X120650Y406400D02*
X105410Y406400D01*
X105410Y381000D02*
X120650Y381000D01*
X120650Y355600D02*
X105410Y355600D01*
X105410Y330200D02*
X120650Y330200D01*
X120650Y304800D02*
X105410Y304800D01*
X105410Y279400D02*
X120650Y279400D01*
X120650Y254000D02*
X105410Y254000D01*
X105410Y228600D02*
X120650Y228600D01*
X120650Y203200D02*
X105410Y203200D01*
X105410Y177800D02*
X120650Y177800D01*
X120650Y152400D02*
X105410Y152400D01*
X105410Y127000D02*
X120650Y127000D01*
X120650Y101600D02*
X105410Y101600D01*
X334010Y584200D02*
X349250Y584200D01*
X349250Y558800D02*
X334010Y558800D01*
X334010Y533400D02*
X349250Y533400D01*
X349250Y508000D02*
X334010Y508000D01*
X334010Y482600D02*
X349250Y482600D01*
X349250Y457200D02*
X334010Y457200D01*
X334010Y431800D02*
X349250Y431800D01*
X349250Y406400D02*
X334010Y406400D01*
X334010Y381000D02*
X349250Y381000D01*
X349250Y355600D02*
X334010Y355600D01*
X334010Y330200D02*
X349250Y330200D01*
X349250Y304800D02*
X334010Y304800D01*
X334010Y279400D02*
X349250Y279400D01*
X349250Y254000D02*
X334010Y254000D01*
X334010Y228600D02*
X349250Y228600D01*
X349250Y203200D02*
X334010Y203200D01*
X334010Y177800D02*
X349250Y177800D01*
X349250Y152400D02*
X334010Y152400D01*
X334010Y127000D02*
X349250Y127000D01*
X349250Y101600D02*
X334010Y101600D01*
X52070Y482600D02*
X36830Y482600D01*
X36830Y508000D02*
X52070Y508000D01*
X52070Y533400D02*
X36830Y533400D01*
X36830Y558800D02*
X52070Y558800D01*
X52070Y584200D02*
X36830Y584200D01*
X406200Y584200D02*
X421440Y584200D01*
X421440Y558800D02*
X406200Y558800D01*
X406200Y533400D02*
X421440Y533400D01*
X421440Y508000D02*
X406200Y508000D01*
X406200Y482600D02*
X421440Y482600D01*
X52070Y292100D02*
X36830Y292100D01*
X36830Y317500D02*
X52070Y317500D01*
X52070Y342900D02*
X36830Y342900D01*
X36830Y368300D02*
X52070Y368300D01*
X52070Y393700D02*
X36830Y393700D01*
X405130Y393700D02*
X420370Y393700D01*
X420370Y368300D02*
X405130Y368300D01*
X405130Y342900D02*
X420370Y342900D01*
X420370Y317500D02*
X405130Y317500D01*
X405130Y292100D02*
X420370Y292100D01*
X52070Y101600D02*
X36830Y101600D01*
X36830Y127000D02*
X52070Y127000D01*
X52070Y152400D02*
X36830Y152400D01*
X36830Y177800D02*
X52070Y177800D01*
X52070Y203200D02*
X36830Y203200D01*
X405130Y203200D02*
X420370Y203200D01*
X420370Y177800D02*
X405130Y177800D01*
X405130Y152400D02*
X420370Y152400D01*
X420370Y127000D02*
X405130Y127000D01*
X405130Y101600D02*
X420370Y101600D01*
D11*
X190500Y571500D03*
X190500Y139700D03*
X190980Y355600D03*
X177800Y254480D03*
X190394Y464404D03*
D12*
X138430Y508000D02*
X113030Y482600D01*
D11*
X203680Y508000D03*
D12*
X138430Y508000D01*
D11*
X196850Y234470D03*
D12*
X118900Y234470D02*
X113030Y228600D01*
X118900Y234470D02*
X196850Y234470D01*
D11*
X210030Y558800D03*
D12*
X114300Y203200D02*
X113030Y203200D01*
D11*
X204526Y179126D03*
D12*
X195135Y179126D02*
X193329Y177320D01*
X195135Y179126D02*
X204526Y179126D01*
X193329Y177320D02*
X140180Y177320D01*
D11*
X140180Y177320D03*
X204160Y444980D03*
X234950Y444980D03*
D12*
X204160Y444980D01*
D11*
X227866Y557840D03*
D12*
X226906Y558800D01*
X210030Y558800D01*
X234950Y184418D02*
X234816Y184284D01*
X222116Y184284D01*
D11*
X234950Y184418D03*
D12*
X222116Y184284D02*
X208322Y170490D01*
X120340Y170490D01*
X113030Y177800D01*
X125730Y165100D02*
X113030Y152400D01*
D11*
X254000Y177800D03*
D12*
X231429Y178280D02*
X225771Y178280D01*
X212591Y165100D02*
X125730Y165100D01*
X212591Y165100D02*
X225771Y178280D01*
X231429Y178280D02*
X232121Y177588D01*
X253788Y177588D01*
X254000Y177800D01*
D11*
X241300Y501170D03*
D12*
X240820Y501170D01*
X149436Y493606D02*
X113030Y457200D01*
X149436Y493606D02*
X233256Y493606D01*
X240820Y501170D01*
X215032Y394180D02*
X215166Y394046D01*
D11*
X215166Y393220D03*
D12*
X215166Y394046D01*
X139390Y458160D02*
X113030Y431800D01*
X139390Y458160D02*
X186979Y458160D01*
X187565Y457574D01*
D11*
X234950Y458640D03*
D12*
X233884Y457574D02*
X187565Y457574D01*
X233884Y457574D02*
X234950Y458640D01*
D11*
X241300Y393700D03*
D12*
X140534Y406400D02*
X113030Y406400D01*
X140534Y406400D02*
X160544Y386390D01*
X233990Y386390D01*
X241300Y393700D01*
D11*
X171450Y355600D03*
X184150Y292100D03*
X234950Y292100D03*
D12*
X184150Y292100D01*
X133916Y381000D02*
X113030Y381000D01*
X159316Y355600D02*
X171450Y355600D01*
X159316Y355600D02*
X133916Y381000D01*
X113030Y355600D02*
X119380Y349250D01*
D11*
X177800Y279400D03*
D12*
X247650Y279400D01*
D11*
X253520Y285750D03*
D12*
X253520Y285270D02*
X247650Y279400D01*
X253520Y285270D02*
X253520Y285750D01*
D11*
X165100Y348770D03*
D12*
X164620Y349250D02*
X119380Y349250D01*
X164620Y349250D02*
X165100Y348770D01*
X44450Y533400D02*
X57150Y546100D01*
X158750Y546100D01*
D11*
X158750Y546100D03*
D12*
X50800Y565150D02*
X44450Y558800D01*
X50800Y565150D02*
X95250Y565150D01*
X101600Y571500D01*
X158750Y571500D01*
D11*
X158750Y571500D03*
D12*
X171450Y571500D01*
X184150Y584200D01*
X215900Y584200D01*
X228600Y571500D01*
D11*
X228600Y571500D03*
X228600Y508000D03*
D12*
X234950Y514350D01*
X279400Y514350D01*
D11*
X279400Y514350D03*
D12*
X228600Y508000D02*
X222250Y508000D01*
X209550Y520700D01*
X95250Y520700D01*
D11*
X95250Y520700D03*
X88900Y577850D03*
D12*
X82550Y584200D01*
X44450Y584200D01*
D11*
X266700Y571500D03*
D12*
X298450Y571500D01*
D11*
X298450Y571500D03*
D12*
X387350Y571500D01*
D11*
X387350Y571500D03*
X158750Y444500D03*
D12*
X184150Y444500D01*
X190500Y438150D01*
D11*
X190500Y438150D03*
D12*
X317500Y438150D01*
X323850Y444500D01*
X387350Y444500D01*
D11*
X387350Y444500D03*
D12*
X323850Y501650D02*
X298450Y501650D01*
X323850Y501650D02*
X330200Y495300D01*
X399628Y495300D01*
X413820Y482600D01*
D11*
X298450Y501650D03*
X228600Y500436D03*
D12*
X229334Y501170D01*
X231429Y501170D01*
X238259Y508000D01*
X276091Y508000D01*
X282921Y501170D01*
X297970Y501170D02*
X298450Y501650D01*
X297970Y501170D02*
X282921Y501170D01*
X76200Y368300D02*
X69850Y368300D01*
X44450Y342900D01*
D11*
X228826Y400050D03*
X76200Y368300D03*
X76200Y419100D03*
X158750Y400050D03*
D12*
X228826Y400050D01*
X158750Y400050D02*
X154069Y400050D01*
X135019Y419100D02*
X76200Y419100D01*
X135019Y419100D02*
X154069Y400050D01*
X57150Y381000D02*
X44450Y368300D01*
X57150Y381000D02*
X88900Y381000D01*
X101600Y393700D01*
D11*
X138463Y386113D03*
D12*
X130875Y393700D02*
X101600Y393700D01*
X130875Y393700D02*
X138463Y386113D01*
D11*
X266926Y463550D03*
D12*
X266700Y463550D01*
D11*
X184150Y451330D03*
D12*
X200851Y451330D02*
X201331Y451810D01*
X200851Y451330D02*
X184150Y451330D01*
X254960Y451810D02*
X266700Y463550D01*
X254960Y451810D02*
X201331Y451810D01*
D11*
X190500Y330200D03*
D12*
X184150Y336550D01*
X158750Y336550D01*
D11*
X158750Y336550D03*
D12*
X139700Y336550D01*
X133350Y342900D01*
X88900Y342900D01*
D11*
X88900Y342900D03*
X88900Y393700D03*
D12*
X44450Y393700D01*
D11*
X228600Y355600D03*
D12*
X254000Y355600D01*
X292100Y393700D01*
X298450Y393700D01*
D11*
X298450Y393700D03*
D12*
X361950Y393700D01*
X412750Y342900D01*
D11*
X241300Y336550D03*
D12*
X298450Y336550D01*
D11*
X298450Y336550D03*
D12*
X304800Y336550D01*
X323850Y317500D01*
X412750Y317500D01*
D11*
X266700Y349250D03*
D12*
X298450Y349250D01*
D11*
X298450Y349250D03*
D12*
X302514Y345186D02*
X378714Y345186D01*
X302514Y345186D02*
X298450Y349250D01*
X378714Y345186D02*
X381000Y342900D01*
D11*
X381000Y342900D03*
X190500Y184150D03*
D12*
X158750Y184150D01*
X146050Y184150D01*
X139700Y190500D01*
X88900Y190500D01*
D11*
X88900Y190500D03*
X76200Y152400D03*
X158750Y184150D03*
D12*
X76200Y152400D02*
X44450Y152400D01*
D11*
X228600Y247650D03*
D12*
X222250Y241300D01*
X158750Y241300D01*
D11*
X158750Y241300D03*
D12*
X82550Y241300D01*
D11*
X82550Y241300D03*
X76200Y184150D03*
D12*
X69850Y177800D01*
X44450Y177800D01*
D11*
X228600Y222250D03*
D12*
X292100Y222250D01*
D11*
X292100Y222250D03*
D12*
X228600Y222250D02*
X133350Y222250D01*
X127000Y215900D01*
X57150Y215900D01*
X44450Y203200D01*
D11*
X279400Y241300D03*
D12*
X298450Y241300D01*
D11*
X298450Y241300D03*
D12*
X381000Y241300D01*
D11*
X381000Y241300D03*
X190500Y114300D03*
X317500Y139700D03*
D12*
X393700Y127000D02*
X412750Y127000D01*
D11*
X292100Y124234D03*
D12*
X200434Y124234D01*
X190500Y114300D01*
X381000Y139700D02*
X393700Y127000D01*
X381000Y139700D02*
X317500Y139700D01*
D11*
X228600Y139700D03*
D12*
X234950Y133350D01*
X279400Y133350D01*
D11*
X279400Y133350D03*
D12*
X370328Y101600D02*
X412750Y101600D01*
X306582Y133350D02*
X279400Y133350D01*
X306582Y133350D02*
X323346Y116586D01*
X355342Y116586D02*
X370328Y101600D01*
X355342Y116586D02*
X323346Y116586D01*
M02*
