G04 EAGLE Gerber RS-274X export*
G75*
%MOMM*%
%FSLAX34Y34*%
%LPD*%
%INTop Copper*%
%IPPOS*%
%AMOC8*
5,1,8,0,0,1.08239X$1,22.5*%
G01*
G04 Define Apertures*
%ADD10R,0.660400X2.032000*%
%ADD11C,1.524000*%
%ADD12R,0.973900X0.798700*%
%ADD13C,0.254000*%
%ADD14C,0.604000*%
G36*
X446375Y10220D02*
X446078Y10160D01*
X10922Y10160D01*
X10647Y10211D01*
X10392Y10375D01*
X10220Y10625D01*
X10160Y10922D01*
X10160Y677928D01*
X10211Y678203D01*
X10375Y678458D01*
X10625Y678630D01*
X10922Y678690D01*
X446078Y678690D01*
X446353Y678639D01*
X446608Y678475D01*
X446780Y678225D01*
X446840Y677928D01*
X446840Y10922D01*
X446789Y10647D01*
X446625Y10392D01*
X446375Y10220D01*
G37*
%LPC*%
G36*
X312752Y621284D02*
X319708Y621284D01*
X326426Y623084D01*
X332450Y626562D01*
X337368Y631480D01*
X340846Y637504D01*
X342646Y644222D01*
X342646Y651178D01*
X340846Y657896D01*
X337368Y663920D01*
X332450Y668838D01*
X326426Y672316D01*
X319708Y674116D01*
X312752Y674116D01*
X306034Y672316D01*
X300010Y668838D01*
X295092Y663920D01*
X291614Y657896D01*
X289814Y651178D01*
X289814Y644222D01*
X291614Y637504D01*
X295092Y631480D01*
X300010Y626562D01*
X306034Y623084D01*
X312752Y621284D01*
G37*
G36*
X134952Y621284D02*
X141908Y621284D01*
X148626Y623084D01*
X154650Y626562D01*
X159568Y631480D01*
X163046Y637504D01*
X164846Y644222D01*
X164846Y651178D01*
X163046Y657896D01*
X159568Y663920D01*
X154650Y668838D01*
X148626Y672316D01*
X141908Y674116D01*
X134952Y674116D01*
X128234Y672316D01*
X122210Y668838D01*
X117292Y663920D01*
X113814Y657896D01*
X112014Y651178D01*
X112014Y644222D01*
X113814Y637504D01*
X117292Y631480D01*
X122210Y626562D01*
X128234Y623084D01*
X134952Y621284D01*
G37*
G36*
X291041Y599972D02*
X297180Y599972D01*
X297180Y605236D01*
X292528Y605236D01*
X291041Y603748D01*
X291041Y599972D01*
G37*
G36*
X151341Y599972D02*
X157480Y599972D01*
X157480Y605236D01*
X152828Y605236D01*
X151341Y603748D01*
X151341Y599972D01*
G37*
G36*
X160020Y599972D02*
X166160Y599972D01*
X166160Y603748D01*
X164672Y605236D01*
X160020Y605236D01*
X160020Y599972D01*
G37*
G36*
X299720Y599972D02*
X305860Y599972D01*
X305860Y603748D01*
X304372Y605236D01*
X299720Y605236D01*
X299720Y599972D01*
G37*
G36*
X265594Y565940D02*
X267806Y565940D01*
X269850Y566786D01*
X271414Y568351D01*
X272260Y570394D01*
X272260Y572606D01*
X271414Y574650D01*
X270733Y575330D01*
X270570Y575571D01*
X270510Y575869D01*
X270510Y577411D01*
X270566Y577697D01*
X270733Y577950D01*
X271526Y578743D01*
X271526Y600325D01*
X270633Y601218D01*
X262767Y601218D01*
X261874Y600325D01*
X261874Y578743D01*
X262667Y577950D01*
X262830Y577708D01*
X262890Y577411D01*
X262890Y575869D01*
X262834Y575583D01*
X262667Y575330D01*
X261986Y574650D01*
X261140Y572606D01*
X261140Y570394D01*
X261986Y568351D01*
X263551Y566786D01*
X265594Y565940D01*
G37*
G36*
X189394Y565940D02*
X191606Y565940D01*
X193650Y566786D01*
X195214Y568351D01*
X196060Y570394D01*
X196060Y572606D01*
X195214Y574650D01*
X194533Y575330D01*
X194370Y575571D01*
X194310Y575869D01*
X194310Y577411D01*
X194366Y577697D01*
X194533Y577950D01*
X195326Y578743D01*
X195326Y600325D01*
X194433Y601218D01*
X186567Y601218D01*
X185674Y600325D01*
X185674Y578743D01*
X186467Y577950D01*
X186630Y577708D01*
X186690Y577411D01*
X186690Y575869D01*
X186634Y575583D01*
X186467Y575330D01*
X185786Y574650D01*
X184940Y572606D01*
X184940Y570394D01*
X185786Y568351D01*
X187351Y566786D01*
X189394Y565940D01*
G37*
G36*
X199267Y84582D02*
X207133Y84582D01*
X208026Y85475D01*
X208026Y103763D01*
X208082Y104049D01*
X208249Y104302D01*
X208757Y104810D01*
X208977Y104963D01*
X209272Y105033D01*
X209571Y104982D01*
X209826Y104818D01*
X209998Y104568D01*
X210058Y104271D01*
X210058Y97536D01*
X214630Y97536D01*
X214630Y108988D01*
X214490Y109013D01*
X214232Y109172D01*
X214056Y109420D01*
X213991Y109716D01*
X214047Y110014D01*
X214214Y110267D01*
X245110Y141163D01*
X245110Y145611D01*
X245166Y145897D01*
X245333Y146150D01*
X246126Y146943D01*
X246126Y168525D01*
X245333Y169318D01*
X245170Y169560D01*
X245110Y169857D01*
X245110Y172865D01*
X245166Y173151D01*
X245333Y173404D01*
X247687Y175758D01*
X247912Y175914D01*
X248208Y175981D01*
X248506Y175928D01*
X248761Y175762D01*
X248930Y175511D01*
X249286Y174651D01*
X250851Y173086D01*
X252894Y172240D01*
X255106Y172240D01*
X257150Y173086D01*
X258714Y174651D01*
X259560Y176694D01*
X259560Y178906D01*
X258714Y180950D01*
X258033Y181630D01*
X257870Y181871D01*
X257810Y182169D01*
X257810Y192093D01*
X257866Y192379D01*
X258033Y192632D01*
X258826Y193425D01*
X258826Y215022D01*
X258882Y215308D01*
X259049Y215561D01*
X259557Y216069D01*
X259777Y216222D01*
X260072Y216292D01*
X260371Y216241D01*
X260626Y216078D01*
X260798Y215827D01*
X260858Y215530D01*
X260858Y205486D01*
X265430Y205486D01*
X265430Y216916D01*
X262244Y216916D01*
X261980Y216963D01*
X261722Y217122D01*
X261547Y217370D01*
X261482Y217666D01*
X261537Y217964D01*
X261705Y218217D01*
X264160Y220672D01*
X264160Y249312D01*
X264207Y249576D01*
X264366Y249834D01*
X264614Y250009D01*
X264910Y250074D01*
X265208Y250019D01*
X265461Y249851D01*
X273617Y241695D01*
X273780Y241453D01*
X273840Y241156D01*
X273840Y240194D01*
X274686Y238151D01*
X276251Y236586D01*
X278294Y235740D01*
X280506Y235740D01*
X282550Y236586D01*
X284114Y238151D01*
X284960Y240194D01*
X284960Y242406D01*
X284114Y244450D01*
X282550Y246014D01*
X280506Y246860D01*
X279544Y246860D01*
X279258Y246916D01*
X279005Y247083D01*
X271749Y254339D01*
X271586Y254581D01*
X271526Y254878D01*
X271526Y276475D01*
X270633Y277368D01*
X264922Y277368D01*
X264647Y277419D01*
X264392Y277583D01*
X264220Y277833D01*
X264160Y278130D01*
X264160Y293678D01*
X258184Y299655D01*
X258026Y299885D01*
X257960Y300181D01*
X258016Y300479D01*
X258184Y300732D01*
X258826Y301375D01*
X258826Y322352D01*
X258882Y322638D01*
X259049Y322890D01*
X259557Y323398D01*
X259777Y323551D01*
X260072Y323621D01*
X260371Y323570D01*
X260626Y323407D01*
X260798Y323157D01*
X260858Y322860D01*
X260858Y313436D01*
X265430Y313436D01*
X265430Y324866D01*
X262864Y324866D01*
X262601Y324913D01*
X262343Y325072D01*
X262168Y325320D01*
X262103Y325616D01*
X262158Y325914D01*
X262326Y326167D01*
X277340Y341181D01*
X277340Y394798D01*
X266023Y406115D01*
X265870Y406335D01*
X265800Y406630D01*
X265826Y406781D01*
X265430Y406781D01*
X265430Y418846D01*
X260858Y418846D01*
X260858Y413120D01*
X260811Y412856D01*
X260652Y412598D01*
X260404Y412423D01*
X260108Y412358D01*
X259810Y412413D01*
X259557Y412581D01*
X259049Y413089D01*
X258886Y413331D01*
X258826Y413628D01*
X258826Y430907D01*
X258033Y431700D01*
X257870Y431942D01*
X257810Y432239D01*
X257810Y436256D01*
X257866Y436542D01*
X258033Y436795D01*
X277566Y456328D01*
X277566Y502522D01*
X266023Y514065D01*
X265870Y514285D01*
X265800Y514580D01*
X265826Y514731D01*
X265430Y514731D01*
X265430Y526796D01*
X260858Y526796D01*
X260858Y521070D01*
X260811Y520806D01*
X260652Y520548D01*
X260404Y520373D01*
X260108Y520308D01*
X259810Y520363D01*
X259557Y520531D01*
X259049Y521039D01*
X258886Y521281D01*
X258826Y521578D01*
X258826Y538857D01*
X257933Y539750D01*
X250067Y539750D01*
X249174Y538857D01*
X249174Y517275D01*
X250067Y516382D01*
X252614Y516382D01*
X252900Y516326D01*
X253153Y516159D01*
X269723Y499589D01*
X269886Y499347D01*
X269946Y499050D01*
X269946Y494030D01*
X269895Y493755D01*
X269731Y493500D01*
X269481Y493328D01*
X269184Y493268D01*
X264668Y493268D01*
X264393Y493319D01*
X264138Y493483D01*
X263966Y493733D01*
X263906Y494030D01*
X263906Y497132D01*
X245484Y515555D01*
X245326Y515785D01*
X245260Y516081D01*
X245316Y516379D01*
X245484Y516632D01*
X246126Y517275D01*
X246126Y538857D01*
X245233Y539750D01*
X239776Y539750D01*
X239501Y539801D01*
X239246Y539965D01*
X239074Y540215D01*
X239014Y540512D01*
X239014Y559367D01*
X239070Y559653D01*
X239237Y559906D01*
X256958Y577627D01*
X257200Y577790D01*
X257497Y577850D01*
X257933Y577850D01*
X258826Y578743D01*
X258826Y600325D01*
X257933Y601218D01*
X250067Y601218D01*
X249174Y600325D01*
X249174Y580934D01*
X249118Y580648D01*
X248951Y580396D01*
X247427Y578872D01*
X247207Y578719D01*
X246912Y578649D01*
X246613Y578700D01*
X246358Y578863D01*
X246186Y579113D01*
X246126Y579410D01*
X246126Y600325D01*
X245233Y601218D01*
X237367Y601218D01*
X236474Y600325D01*
X236474Y578743D01*
X237267Y577950D01*
X237430Y577708D01*
X237490Y577411D01*
X237490Y576435D01*
X237434Y576149D01*
X237267Y575896D01*
X234913Y573542D01*
X234688Y573386D01*
X234392Y573319D01*
X234094Y573372D01*
X233839Y573538D01*
X233670Y573789D01*
X233314Y574650D01*
X232633Y575330D01*
X232470Y575571D01*
X232410Y575869D01*
X232410Y577411D01*
X232466Y577697D01*
X232633Y577950D01*
X233426Y578743D01*
X233426Y600325D01*
X232533Y601218D01*
X224667Y601218D01*
X223774Y600325D01*
X223774Y578743D01*
X224567Y577950D01*
X224730Y577708D01*
X224790Y577411D01*
X224790Y575869D01*
X224734Y575583D01*
X224567Y575330D01*
X223886Y574650D01*
X223040Y572606D01*
X223040Y570394D01*
X223528Y569215D01*
X223586Y568935D01*
X223531Y568637D01*
X223363Y568385D01*
X217226Y562247D01*
X217226Y549341D01*
X217170Y549055D01*
X217003Y548802D01*
X212090Y543889D01*
X212090Y540189D01*
X212034Y539903D01*
X211867Y539650D01*
X211074Y538857D01*
X211074Y532638D01*
X211023Y532363D01*
X210859Y532108D01*
X210609Y531936D01*
X210312Y531876D01*
X208788Y531876D01*
X208513Y531927D01*
X208258Y532091D01*
X208086Y532341D01*
X208026Y532638D01*
X208026Y538857D01*
X207133Y539750D01*
X204078Y539750D01*
X203814Y539797D01*
X203556Y539956D01*
X203381Y540204D01*
X203316Y540500D01*
X203371Y540798D01*
X203539Y541051D01*
X207010Y544522D01*
X207010Y552892D01*
X207059Y553161D01*
X207220Y553418D01*
X207469Y553592D01*
X207766Y553654D01*
X208064Y553596D01*
X208924Y553240D01*
X211136Y553240D01*
X213180Y554086D01*
X214744Y555651D01*
X215590Y557694D01*
X215590Y559906D01*
X214744Y561950D01*
X214063Y562630D01*
X213900Y562871D01*
X213840Y563169D01*
X213840Y563736D01*
X213896Y564022D01*
X214063Y564275D01*
X217254Y567466D01*
X217257Y567468D01*
X219710Y569921D01*
X219710Y577411D01*
X219766Y577697D01*
X219933Y577950D01*
X220726Y578743D01*
X220726Y600325D01*
X219833Y601218D01*
X211967Y601218D01*
X211074Y600325D01*
X211074Y578743D01*
X211867Y577950D01*
X212030Y577708D01*
X212090Y577411D01*
X212090Y573394D01*
X212034Y573108D01*
X211867Y572855D01*
X208311Y569299D01*
X208091Y569146D01*
X207796Y569076D01*
X207497Y569127D01*
X207242Y569290D01*
X207070Y569541D01*
X207010Y569838D01*
X207010Y577411D01*
X207066Y577697D01*
X207233Y577950D01*
X208026Y578743D01*
X208026Y600325D01*
X207133Y601218D01*
X199267Y601218D01*
X198374Y600325D01*
X198374Y578743D01*
X199167Y577950D01*
X199330Y577708D01*
X199390Y577411D01*
X199390Y547994D01*
X199334Y547708D01*
X199167Y547455D01*
X193040Y541328D01*
X193040Y540512D01*
X192989Y540237D01*
X192825Y539982D01*
X192575Y539810D01*
X192278Y539750D01*
X186567Y539750D01*
X185924Y539108D01*
X185694Y538950D01*
X185398Y538884D01*
X185099Y538940D01*
X184847Y539108D01*
X174044Y549910D01*
X163119Y549910D01*
X162833Y549966D01*
X162580Y550133D01*
X161900Y550814D01*
X159856Y551660D01*
X157644Y551660D01*
X155601Y550814D01*
X154036Y549250D01*
X153190Y547206D01*
X153190Y544994D01*
X154036Y542951D01*
X154717Y542270D01*
X154880Y542029D01*
X154940Y541731D01*
X154940Y541482D01*
X154889Y541207D01*
X154725Y540951D01*
X154475Y540780D01*
X154178Y540720D01*
X153249Y540720D01*
X152357Y539827D01*
X152357Y530577D01*
X153249Y529685D01*
X164251Y529685D01*
X165144Y530577D01*
X165144Y539827D01*
X164251Y540720D01*
X163322Y540720D01*
X163047Y540771D01*
X162792Y540934D01*
X162620Y541184D01*
X162560Y541482D01*
X162560Y541528D01*
X162611Y541803D01*
X162775Y542058D01*
X163025Y542230D01*
X163322Y542290D01*
X170572Y542290D01*
X170858Y542234D01*
X171111Y542067D01*
X185451Y527727D01*
X185614Y527485D01*
X185674Y527188D01*
X185674Y517275D01*
X186567Y516382D01*
X192278Y516382D01*
X192553Y516331D01*
X192808Y516167D01*
X192980Y515917D01*
X193040Y515620D01*
X193040Y499056D01*
X198508Y493587D01*
X198666Y493357D01*
X198732Y493061D01*
X198676Y492763D01*
X198508Y492510D01*
X198374Y492375D01*
X198374Y470793D01*
X199167Y470000D01*
X199330Y469758D01*
X199390Y469461D01*
X199390Y469445D01*
X199334Y469159D01*
X199167Y468906D01*
X196707Y466446D01*
X196482Y466290D01*
X196186Y466223D01*
X195888Y466276D01*
X195634Y466442D01*
X195464Y466693D01*
X195108Y467554D01*
X194533Y468128D01*
X194370Y468370D01*
X194310Y468667D01*
X194310Y469461D01*
X194366Y469747D01*
X194533Y470000D01*
X195326Y470793D01*
X195326Y492375D01*
X194433Y493268D01*
X186567Y493268D01*
X185674Y492375D01*
X185674Y470793D01*
X186467Y470000D01*
X186630Y469758D01*
X186690Y469461D01*
X186690Y468879D01*
X186634Y468593D01*
X186467Y468340D01*
X185681Y467554D01*
X184834Y465510D01*
X184834Y463298D01*
X185681Y461255D01*
X187245Y459691D01*
X189288Y458844D01*
X191500Y458844D01*
X192466Y459244D01*
X192734Y459302D01*
X193033Y459251D01*
X193288Y459088D01*
X193460Y458838D01*
X193520Y458540D01*
X193520Y444058D01*
X193471Y443789D01*
X193310Y443532D01*
X193061Y443358D01*
X192764Y443296D01*
X192466Y443354D01*
X191606Y443710D01*
X189394Y443710D01*
X187351Y442864D01*
X185786Y441300D01*
X184940Y439256D01*
X184940Y437044D01*
X185786Y435001D01*
X186467Y434320D01*
X186630Y434079D01*
X186690Y433781D01*
X186690Y432239D01*
X186634Y431953D01*
X186467Y431700D01*
X185674Y430907D01*
X185674Y409325D01*
X186567Y408432D01*
X192532Y408432D01*
X192807Y408381D01*
X193062Y408217D01*
X193234Y407967D01*
X193294Y407670D01*
X193294Y390852D01*
X198508Y385637D01*
X198666Y385407D01*
X198732Y385111D01*
X198676Y384813D01*
X198508Y384560D01*
X198374Y384425D01*
X198374Y362843D01*
X199167Y362050D01*
X199330Y361808D01*
X199390Y361511D01*
X199390Y338444D01*
X199334Y338158D01*
X199167Y337905D01*
X195451Y334189D01*
X195221Y334031D01*
X194925Y333966D01*
X194626Y334022D01*
X194374Y334189D01*
X193650Y334914D01*
X191606Y335760D01*
X189394Y335760D01*
X187351Y334914D01*
X185786Y333350D01*
X184940Y331306D01*
X184940Y329094D01*
X185786Y327051D01*
X186467Y326370D01*
X186630Y326129D01*
X186690Y325831D01*
X186690Y324289D01*
X186634Y324003D01*
X186467Y323750D01*
X185674Y322957D01*
X185674Y301375D01*
X186567Y300482D01*
X192532Y300482D01*
X192807Y300431D01*
X193062Y300267D01*
X193234Y300017D01*
X193294Y299720D01*
X193294Y280221D01*
X194846Y278669D01*
X194999Y278449D01*
X195069Y278154D01*
X195018Y277855D01*
X194854Y277600D01*
X194604Y277428D01*
X194307Y277368D01*
X186567Y277368D01*
X185674Y276475D01*
X185674Y266562D01*
X185618Y266276D01*
X185451Y266023D01*
X179663Y260235D01*
X179427Y260075D01*
X179131Y260012D01*
X178988Y260040D01*
X176694Y260040D01*
X174651Y259194D01*
X173086Y257630D01*
X172240Y255586D01*
X172240Y253374D01*
X173086Y251331D01*
X174651Y249766D01*
X176694Y248920D01*
X178906Y248920D01*
X180950Y249766D01*
X182514Y251331D01*
X183148Y252862D01*
X183313Y253109D01*
X184847Y254642D01*
X185077Y254800D01*
X185373Y254866D01*
X185671Y254810D01*
X185924Y254642D01*
X186567Y254000D01*
X194433Y254000D01*
X195326Y254893D01*
X195326Y276349D01*
X195373Y276612D01*
X195532Y276870D01*
X195780Y277046D01*
X196076Y277111D01*
X196374Y277055D01*
X196627Y276888D01*
X198151Y275364D01*
X198314Y275122D01*
X198374Y274825D01*
X198374Y254893D01*
X199303Y253964D01*
X199383Y253949D01*
X199638Y253785D01*
X199810Y253535D01*
X199870Y253238D01*
X199870Y243674D01*
X199814Y243388D01*
X199647Y243135D01*
X196765Y240253D01*
X196523Y240090D01*
X196226Y240030D01*
X195744Y240030D01*
X193701Y239184D01*
X192136Y237620D01*
X191290Y235576D01*
X191290Y235094D01*
X191234Y234808D01*
X191067Y234555D01*
X179860Y223348D01*
X179860Y179743D01*
X186093Y173510D01*
X186434Y173510D01*
X186720Y173454D01*
X186972Y173287D01*
X189540Y170719D01*
X189693Y170499D01*
X189763Y170204D01*
X189712Y169905D01*
X189549Y169650D01*
X189299Y169478D01*
X189002Y169418D01*
X186567Y169418D01*
X185674Y168525D01*
X185674Y146943D01*
X186467Y146150D01*
X186630Y145908D01*
X186690Y145611D01*
X186690Y144069D01*
X186634Y143783D01*
X186467Y143530D01*
X185786Y142850D01*
X184940Y140806D01*
X184940Y138594D01*
X185786Y136551D01*
X187351Y134986D01*
X189394Y134140D01*
X191606Y134140D01*
X193650Y134986D01*
X195214Y136551D01*
X196060Y138594D01*
X196060Y140806D01*
X195214Y142850D01*
X194533Y143530D01*
X194370Y143771D01*
X194310Y144069D01*
X194310Y145611D01*
X194366Y145897D01*
X194533Y146150D01*
X195326Y146943D01*
X195326Y163094D01*
X195373Y163357D01*
X195532Y163615D01*
X195780Y163790D01*
X196076Y163855D01*
X196374Y163800D01*
X196627Y163632D01*
X198151Y162108D01*
X198314Y161867D01*
X198374Y161570D01*
X198374Y146943D01*
X199267Y146050D01*
X207133Y146050D01*
X208026Y146943D01*
X208026Y168399D01*
X208073Y168662D01*
X208232Y168920D01*
X208480Y169096D01*
X208776Y169161D01*
X209074Y169105D01*
X209327Y168938D01*
X210851Y167414D01*
X211014Y167172D01*
X211074Y166875D01*
X211074Y146943D01*
X211967Y146050D01*
X219833Y146050D01*
X220726Y146943D01*
X220726Y168525D01*
X219808Y169443D01*
X219653Y169474D01*
X219400Y169641D01*
X210310Y178731D01*
X210147Y178973D01*
X210086Y179270D01*
X210086Y180232D01*
X209240Y182276D01*
X207676Y183840D01*
X205632Y184686D01*
X204670Y184686D01*
X204384Y184742D01*
X204131Y184910D01*
X201363Y187678D01*
X201200Y187919D01*
X201140Y188216D01*
X201140Y188557D01*
X201137Y188560D01*
X200974Y188802D01*
X200914Y189099D01*
X200914Y191770D01*
X200965Y192045D01*
X201129Y192300D01*
X201379Y192472D01*
X201676Y192532D01*
X207133Y192532D01*
X208026Y193425D01*
X208026Y199644D01*
X208077Y199919D01*
X208241Y200174D01*
X208491Y200346D01*
X208788Y200406D01*
X210312Y200406D01*
X210587Y200355D01*
X210842Y200191D01*
X211014Y199941D01*
X211074Y199644D01*
X211074Y193425D01*
X211967Y192532D01*
X219833Y192532D01*
X220726Y193425D01*
X220726Y215007D01*
X219933Y215800D01*
X219770Y216042D01*
X219710Y216339D01*
X219710Y220356D01*
X219766Y220642D01*
X219933Y220895D01*
X221739Y222701D01*
X221959Y222854D01*
X222254Y222924D01*
X222553Y222873D01*
X222808Y222710D01*
X222980Y222459D01*
X223040Y222162D01*
X223040Y221144D01*
X223886Y219101D01*
X224567Y218420D01*
X224730Y218179D01*
X224790Y217881D01*
X224790Y216339D01*
X224734Y216053D01*
X224567Y215800D01*
X223774Y215007D01*
X223774Y193425D01*
X224667Y192532D01*
X232533Y192532D01*
X233426Y193425D01*
X233426Y215007D01*
X232633Y215800D01*
X232470Y216042D01*
X232410Y216339D01*
X232410Y217881D01*
X232466Y218167D01*
X232633Y218420D01*
X233314Y219101D01*
X234160Y221144D01*
X234160Y223356D01*
X233314Y225400D01*
X231750Y226964D01*
X229706Y227810D01*
X228688Y227810D01*
X228424Y227857D01*
X228166Y228016D01*
X227991Y228264D01*
X227926Y228560D01*
X227981Y228858D01*
X228149Y229111D01*
X242285Y243247D01*
X242505Y243400D01*
X242800Y243470D01*
X243099Y243419D01*
X243354Y243256D01*
X243526Y243005D01*
X243586Y242708D01*
X243586Y225558D01*
X243530Y225272D01*
X243363Y225019D01*
X237490Y219147D01*
X237490Y216339D01*
X237434Y216053D01*
X237267Y215800D01*
X236474Y215007D01*
X236474Y193425D01*
X236982Y192916D01*
X237140Y192686D01*
X237205Y192390D01*
X237150Y192092D01*
X236982Y191839D01*
X235345Y190201D01*
X235103Y190039D01*
X234806Y189978D01*
X233844Y189978D01*
X231801Y189132D01*
X230236Y187568D01*
X229390Y185524D01*
X229390Y183312D01*
X230236Y181269D01*
X231801Y179705D01*
X233844Y178858D01*
X236056Y178858D01*
X238100Y179705D01*
X239664Y181269D01*
X240510Y183312D01*
X240510Y184274D01*
X240566Y184560D01*
X240733Y184813D01*
X242793Y186873D01*
X243013Y187026D01*
X243308Y187096D01*
X243607Y187045D01*
X243862Y186882D01*
X244034Y186632D01*
X244094Y186334D01*
X244094Y183257D01*
X244038Y182971D01*
X243871Y182718D01*
X237490Y176337D01*
X237490Y169857D01*
X237434Y169571D01*
X237267Y169318D01*
X236474Y168525D01*
X236474Y146943D01*
X237267Y146150D01*
X237430Y145908D01*
X237490Y145611D01*
X237490Y144635D01*
X237434Y144349D01*
X237267Y144096D01*
X234913Y141742D01*
X234688Y141586D01*
X234392Y141519D01*
X234094Y141572D01*
X233839Y141738D01*
X233670Y141989D01*
X233314Y142850D01*
X232633Y143530D01*
X232470Y143771D01*
X232410Y144069D01*
X232410Y145611D01*
X232466Y145897D01*
X232633Y146150D01*
X233426Y146943D01*
X233426Y168525D01*
X232533Y169418D01*
X224667Y169418D01*
X223774Y168525D01*
X223774Y146943D01*
X224567Y146150D01*
X224730Y145908D01*
X224790Y145611D01*
X224790Y144069D01*
X224734Y143783D01*
X224567Y143530D01*
X223886Y142850D01*
X223040Y140806D01*
X223040Y138594D01*
X223886Y136551D01*
X225451Y134986D01*
X226311Y134630D01*
X226541Y134482D01*
X226716Y134234D01*
X226781Y133938D01*
X226726Y133640D01*
X226558Y133387D01*
X201344Y108173D01*
X201103Y108010D01*
X200805Y107950D01*
X199267Y107950D01*
X198374Y107057D01*
X198374Y85475D01*
X199267Y84582D01*
G37*
G36*
X292528Y592169D02*
X297180Y592169D01*
X297180Y597432D01*
X291041Y597432D01*
X291041Y593656D01*
X292528Y592169D01*
G37*
G36*
X160020Y592169D02*
X164672Y592169D01*
X166160Y593656D01*
X166160Y597432D01*
X160020Y597432D01*
X160020Y592169D01*
G37*
G36*
X152828Y592169D02*
X157480Y592169D01*
X157480Y597432D01*
X151341Y597432D01*
X151341Y593656D01*
X152828Y592169D01*
G37*
G36*
X299720Y592169D02*
X304372Y592169D01*
X305860Y593656D01*
X305860Y597432D01*
X299720Y597432D01*
X299720Y592169D01*
G37*
G36*
X103591Y575056D02*
X122469Y575056D01*
X125830Y576448D01*
X128402Y579020D01*
X129794Y582381D01*
X129794Y586019D01*
X128402Y589380D01*
X125830Y591952D01*
X122469Y593344D01*
X103591Y593344D01*
X100230Y591952D01*
X97658Y589380D01*
X96266Y586019D01*
X96266Y582381D01*
X97658Y579020D01*
X100230Y576448D01*
X103591Y575056D01*
G37*
G36*
X332191Y575056D02*
X351069Y575056D01*
X354430Y576448D01*
X357002Y579020D01*
X358394Y582381D01*
X358394Y586019D01*
X357002Y589380D01*
X354430Y591952D01*
X351069Y593344D01*
X332191Y593344D01*
X328830Y591952D01*
X326258Y589380D01*
X324866Y586019D01*
X324866Y582381D01*
X326258Y579020D01*
X328830Y576448D01*
X332191Y575056D01*
G37*
G36*
X404381Y575056D02*
X423259Y575056D01*
X426620Y576448D01*
X429192Y579020D01*
X430584Y582381D01*
X430584Y586019D01*
X429192Y589380D01*
X426620Y591952D01*
X423259Y593344D01*
X404381Y593344D01*
X401020Y591952D01*
X398448Y589380D01*
X397056Y586019D01*
X397056Y582381D01*
X398448Y579020D01*
X401020Y576448D01*
X404381Y575056D01*
G37*
G36*
X35011Y575056D02*
X53889Y575056D01*
X57250Y576448D01*
X59822Y579020D01*
X61214Y582381D01*
X61214Y586019D01*
X59822Y589380D01*
X57250Y591952D01*
X53889Y593344D01*
X35011Y593344D01*
X31650Y591952D01*
X29078Y589380D01*
X27686Y586019D01*
X27686Y582381D01*
X29078Y579020D01*
X31650Y576448D01*
X35011Y575056D01*
G37*
G36*
X297344Y565940D02*
X299556Y565940D01*
X301600Y566786D01*
X303164Y568351D01*
X304010Y570394D01*
X304010Y572606D01*
X303164Y574650D01*
X302483Y575330D01*
X302320Y575571D01*
X302260Y575869D01*
X302260Y576119D01*
X302311Y576393D01*
X302475Y576649D01*
X302725Y576820D01*
X303022Y576881D01*
X303951Y576881D01*
X304844Y577773D01*
X304844Y587023D01*
X303951Y587916D01*
X292949Y587916D01*
X292057Y587023D01*
X292057Y577773D01*
X292949Y576881D01*
X293878Y576881D01*
X294153Y576829D01*
X294408Y576666D01*
X294580Y576416D01*
X294640Y576119D01*
X294640Y575869D01*
X294584Y575583D01*
X294417Y575330D01*
X293736Y574650D01*
X292890Y572606D01*
X292890Y570394D01*
X293736Y568351D01*
X295301Y566786D01*
X297344Y565940D01*
G37*
G36*
X157644Y565940D02*
X159856Y565940D01*
X161900Y566786D01*
X163464Y568351D01*
X164310Y570394D01*
X164310Y572606D01*
X163464Y574650D01*
X162783Y575330D01*
X162620Y575571D01*
X162560Y575869D01*
X162560Y576119D01*
X162611Y576393D01*
X162775Y576649D01*
X163025Y576820D01*
X163322Y576881D01*
X164251Y576881D01*
X165144Y577773D01*
X165144Y587023D01*
X164251Y587916D01*
X153249Y587916D01*
X152357Y587023D01*
X152357Y577773D01*
X153249Y576881D01*
X154178Y576881D01*
X154453Y576829D01*
X154708Y576666D01*
X154880Y576416D01*
X154940Y576119D01*
X154940Y575869D01*
X154884Y575583D01*
X154717Y575330D01*
X154036Y574650D01*
X153190Y572606D01*
X153190Y570394D01*
X154036Y568351D01*
X155601Y566786D01*
X157644Y565940D01*
G37*
G36*
X95250Y509270D02*
X111760Y509270D01*
X111760Y518160D01*
X103389Y518160D01*
X101258Y517277D01*
X100997Y517220D01*
X100698Y517269D01*
X100441Y517430D01*
X100268Y517679D01*
X100205Y517975D01*
X100263Y518273D01*
X100810Y519594D01*
X100810Y521806D01*
X99964Y523850D01*
X99413Y524400D01*
X99263Y524614D01*
X99191Y524908D01*
X99239Y525208D01*
X99401Y525464D01*
X99649Y525638D01*
X99946Y525701D01*
X100244Y525643D01*
X103591Y524256D01*
X122469Y524256D01*
X125830Y525648D01*
X128402Y528220D01*
X129794Y531581D01*
X129794Y535219D01*
X128402Y538580D01*
X125830Y541152D01*
X122469Y542544D01*
X103591Y542544D01*
X100230Y541152D01*
X97658Y538580D01*
X96266Y535219D01*
X96266Y531581D01*
X97658Y528220D01*
X99217Y526662D01*
X99367Y526448D01*
X99439Y526153D01*
X99391Y525854D01*
X99229Y525597D01*
X98980Y525424D01*
X98684Y525361D01*
X98386Y525419D01*
X96356Y526260D01*
X95394Y526260D01*
X95108Y526316D01*
X94855Y526483D01*
X92933Y528405D01*
X92770Y528647D01*
X92710Y528944D01*
X92710Y573481D01*
X92766Y573767D01*
X92933Y574020D01*
X93614Y574701D01*
X94460Y576744D01*
X94460Y578956D01*
X93614Y581000D01*
X92050Y582564D01*
X90006Y583410D01*
X87794Y583410D01*
X85751Y582564D01*
X84186Y581000D01*
X83340Y578956D01*
X83340Y576744D01*
X84186Y574701D01*
X84867Y574020D01*
X85030Y573779D01*
X85090Y573481D01*
X85090Y525472D01*
X89467Y521095D01*
X89630Y520853D01*
X89690Y520556D01*
X89690Y519594D01*
X90536Y517551D01*
X92101Y515986D01*
X94144Y515140D01*
X96342Y515140D01*
X96605Y515093D01*
X96863Y514934D01*
X97039Y514686D01*
X97104Y514390D01*
X97048Y514092D01*
X96881Y513839D01*
X96797Y513755D01*
X95250Y510021D01*
X95250Y509270D01*
G37*
G36*
X404381Y524256D02*
X423259Y524256D01*
X426620Y525648D01*
X429192Y528220D01*
X430584Y531581D01*
X430584Y535219D01*
X429192Y538580D01*
X426620Y541152D01*
X423259Y542544D01*
X409310Y542544D01*
X409024Y542600D01*
X408771Y542767D01*
X404199Y547339D01*
X404046Y547559D01*
X403976Y547854D01*
X404027Y548153D01*
X404190Y548408D01*
X404441Y548580D01*
X404738Y548640D01*
X412550Y548640D01*
X412550Y557530D01*
X396040Y557530D01*
X396040Y557338D01*
X395993Y557074D01*
X395834Y556816D01*
X395586Y556641D01*
X395290Y556576D01*
X394992Y556631D01*
X394739Y556799D01*
X393469Y558069D01*
X393306Y558311D01*
X393246Y558608D01*
X393246Y570992D01*
X393133Y571105D01*
X392970Y571347D01*
X392910Y571644D01*
X392910Y572606D01*
X392064Y574650D01*
X390500Y576214D01*
X388456Y577060D01*
X386244Y577060D01*
X384201Y576214D01*
X382636Y574650D01*
X381790Y572606D01*
X381790Y570394D01*
X382636Y568351D01*
X384201Y566786D01*
X385156Y566391D01*
X385394Y566234D01*
X385566Y565984D01*
X385626Y565687D01*
X385626Y555136D01*
X399776Y540986D01*
X399934Y540755D01*
X399999Y540459D01*
X399944Y540161D01*
X399776Y539908D01*
X398448Y538580D01*
X397056Y535219D01*
X397056Y531581D01*
X398448Y528220D01*
X401020Y525648D01*
X404381Y524256D01*
G37*
G36*
X396040Y560070D02*
X412550Y560070D01*
X412550Y568960D01*
X404179Y568960D01*
X400445Y567413D01*
X397587Y564555D01*
X396040Y560821D01*
X396040Y560070D01*
G37*
G36*
X415090Y560070D02*
X431600Y560070D01*
X431600Y560821D01*
X430053Y564555D01*
X427195Y567413D01*
X423461Y568960D01*
X415090Y568960D01*
X415090Y560070D01*
G37*
G36*
X103591Y549656D02*
X122469Y549656D01*
X125830Y551048D01*
X128402Y553620D01*
X129794Y556981D01*
X129794Y560619D01*
X128402Y563980D01*
X125830Y566552D01*
X122469Y567944D01*
X103591Y567944D01*
X100230Y566552D01*
X97658Y563980D01*
X96266Y560619D01*
X96266Y556981D01*
X97658Y553620D01*
X100230Y551048D01*
X103591Y549656D01*
G37*
G36*
X332191Y549656D02*
X351069Y549656D01*
X354430Y551048D01*
X357002Y553620D01*
X358394Y556981D01*
X358394Y560619D01*
X357002Y563980D01*
X354430Y566552D01*
X351069Y567944D01*
X332191Y567944D01*
X328830Y566552D01*
X326258Y563980D01*
X324866Y560619D01*
X324866Y556981D01*
X326258Y553620D01*
X328830Y551048D01*
X332191Y549656D01*
G37*
G36*
X35011Y549656D02*
X53889Y549656D01*
X57250Y551048D01*
X59822Y553620D01*
X61214Y556981D01*
X61214Y560619D01*
X59822Y563980D01*
X57250Y566552D01*
X53889Y567944D01*
X35011Y567944D01*
X31650Y566552D01*
X29078Y563980D01*
X27686Y560619D01*
X27686Y556981D01*
X29078Y553620D01*
X31650Y551048D01*
X35011Y549656D01*
G37*
G36*
X415090Y548640D02*
X423461Y548640D01*
X427195Y550187D01*
X430053Y553045D01*
X431600Y556779D01*
X431600Y557530D01*
X415090Y557530D01*
X415090Y548640D01*
G37*
G36*
X35011Y524256D02*
X53889Y524256D01*
X57250Y525648D01*
X59822Y528220D01*
X61214Y531581D01*
X61214Y535219D01*
X59822Y538580D01*
X57250Y541152D01*
X53889Y542544D01*
X35011Y542544D01*
X31650Y541152D01*
X29078Y538580D01*
X27686Y535219D01*
X27686Y531581D01*
X29078Y528220D01*
X31650Y525648D01*
X35011Y524256D01*
G37*
G36*
X332191Y524256D02*
X351069Y524256D01*
X354430Y525648D01*
X357002Y528220D01*
X358394Y531581D01*
X358394Y535219D01*
X357002Y538580D01*
X354430Y541152D01*
X351069Y542544D01*
X332191Y542544D01*
X328830Y541152D01*
X326258Y538580D01*
X324866Y535219D01*
X324866Y531581D01*
X326258Y528220D01*
X328830Y525648D01*
X332191Y524256D01*
G37*
G36*
X291041Y536472D02*
X297180Y536472D01*
X297180Y541736D01*
X292528Y541736D01*
X291041Y540248D01*
X291041Y536472D01*
G37*
G36*
X299720Y536472D02*
X305860Y536472D01*
X305860Y540248D01*
X304372Y541736D01*
X299720Y541736D01*
X299720Y536472D01*
G37*
G36*
X267970Y529336D02*
X272542Y529336D01*
X272542Y539278D01*
X271054Y540766D01*
X267970Y540766D01*
X267970Y529336D01*
G37*
G36*
X260858Y529336D02*
X265430Y529336D01*
X265430Y540766D01*
X262346Y540766D01*
X260858Y539278D01*
X260858Y529336D01*
G37*
G36*
X299720Y528669D02*
X304372Y528669D01*
X305860Y530156D01*
X305860Y533932D01*
X299720Y533932D01*
X299720Y528669D01*
G37*
G36*
X292528Y528669D02*
X297180Y528669D01*
X297180Y533932D01*
X291041Y533932D01*
X291041Y530156D01*
X292528Y528669D01*
G37*
G36*
X267970Y515366D02*
X271054Y515366D01*
X272542Y516854D01*
X272542Y526796D01*
X267970Y526796D01*
X267970Y515366D01*
G37*
G36*
X151341Y520168D02*
X157480Y520168D01*
X157480Y525432D01*
X152828Y525432D01*
X151341Y523944D01*
X151341Y520168D01*
G37*
G36*
X160020Y520168D02*
X166160Y520168D01*
X166160Y523944D01*
X164672Y525432D01*
X160020Y525432D01*
X160020Y520168D01*
G37*
G36*
X278294Y508790D02*
X280506Y508790D01*
X282550Y509636D01*
X283230Y510317D01*
X283471Y510480D01*
X283769Y510540D01*
X295480Y510540D01*
X298097Y513157D01*
X298339Y513320D01*
X298636Y513381D01*
X303951Y513381D01*
X304844Y514273D01*
X304844Y523523D01*
X303951Y524416D01*
X292949Y524416D01*
X292057Y523523D01*
X292057Y518922D01*
X292005Y518647D01*
X291842Y518392D01*
X291592Y518220D01*
X291295Y518160D01*
X283769Y518160D01*
X283483Y518216D01*
X283230Y518383D01*
X282550Y519064D01*
X280506Y519910D01*
X278294Y519910D01*
X276251Y519064D01*
X274686Y517500D01*
X273840Y515456D01*
X273840Y513244D01*
X274686Y511201D01*
X276251Y509636D01*
X278294Y508790D01*
G37*
G36*
X114300Y509270D02*
X130810Y509270D01*
X130810Y510021D01*
X129263Y513755D01*
X126405Y516613D01*
X122671Y518160D01*
X114300Y518160D01*
X114300Y509270D01*
G37*
G36*
X45720Y509270D02*
X62230Y509270D01*
X62230Y510021D01*
X60683Y513755D01*
X57825Y516613D01*
X54091Y518160D01*
X45720Y518160D01*
X45720Y509270D01*
G37*
G36*
X26670Y509270D02*
X43180Y509270D01*
X43180Y518160D01*
X34809Y518160D01*
X31075Y516613D01*
X28217Y513755D01*
X26670Y510021D01*
X26670Y509270D01*
G37*
G36*
X152828Y512365D02*
X157480Y512365D01*
X157480Y517628D01*
X151341Y517628D01*
X151341Y513852D01*
X152828Y512365D01*
G37*
G36*
X160020Y512365D02*
X164672Y512365D01*
X166160Y513852D01*
X166160Y517628D01*
X160020Y517628D01*
X160020Y512365D01*
G37*
G36*
X386244Y438940D02*
X388456Y438940D01*
X390500Y439786D01*
X392064Y441351D01*
X392910Y443394D01*
X392910Y444356D01*
X392966Y444642D01*
X393133Y444895D01*
X393246Y445008D01*
X393246Y481722D01*
X393302Y482008D01*
X393469Y482261D01*
X395755Y484547D01*
X395975Y484700D01*
X396270Y484770D01*
X396569Y484719D01*
X396824Y484556D01*
X396996Y484305D01*
X397056Y484008D01*
X397056Y480781D01*
X398448Y477420D01*
X401020Y474848D01*
X404381Y473456D01*
X423259Y473456D01*
X426620Y474848D01*
X429192Y477420D01*
X430584Y480781D01*
X430584Y484419D01*
X429192Y487780D01*
X426620Y490352D01*
X423259Y491744D01*
X404792Y491744D01*
X404528Y491791D01*
X404270Y491950D01*
X404095Y492198D01*
X404030Y492494D01*
X404085Y492792D01*
X404253Y493045D01*
X409841Y498633D01*
X410083Y498796D01*
X410380Y498856D01*
X423259Y498856D01*
X426620Y500248D01*
X429192Y502820D01*
X430584Y506181D01*
X430584Y509819D01*
X429192Y513180D01*
X426620Y515752D01*
X423259Y517144D01*
X404381Y517144D01*
X401020Y515752D01*
X398448Y513180D01*
X397056Y509819D01*
X397056Y506181D01*
X398448Y502820D01*
X400311Y500957D01*
X400469Y500727D01*
X400534Y500430D01*
X400479Y500132D01*
X400311Y499879D01*
X385626Y485194D01*
X385626Y450313D01*
X385573Y450033D01*
X385407Y449779D01*
X385156Y449609D01*
X384201Y449214D01*
X382636Y447650D01*
X381790Y445606D01*
X381790Y443394D01*
X382636Y441351D01*
X384201Y439786D01*
X386244Y438940D01*
G37*
G36*
X332191Y498856D02*
X351069Y498856D01*
X354430Y500248D01*
X357002Y502820D01*
X358394Y506181D01*
X358394Y509819D01*
X357002Y513180D01*
X354430Y515752D01*
X351069Y517144D01*
X332191Y517144D01*
X328830Y515752D01*
X326258Y513180D01*
X324866Y509819D01*
X324866Y506181D01*
X326258Y502820D01*
X328830Y500248D01*
X332191Y498856D01*
G37*
G36*
X292949Y485235D02*
X303951Y485235D01*
X304844Y486127D01*
X304844Y495377D01*
X303951Y496270D01*
X303022Y496270D01*
X302747Y496321D01*
X302492Y496484D01*
X302320Y496734D01*
X302260Y497032D01*
X302260Y497281D01*
X302316Y497567D01*
X302483Y497820D01*
X303164Y498501D01*
X304010Y500544D01*
X304010Y502756D01*
X303164Y504800D01*
X301600Y506364D01*
X299556Y507210D01*
X297344Y507210D01*
X295301Y506364D01*
X293736Y504800D01*
X292890Y502756D01*
X292890Y500544D01*
X293736Y498501D01*
X294417Y497820D01*
X294580Y497579D01*
X294640Y497281D01*
X294640Y497032D01*
X294589Y496757D01*
X294425Y496501D01*
X294175Y496330D01*
X293878Y496270D01*
X292949Y496270D01*
X292057Y495377D01*
X292057Y486127D01*
X292949Y485235D01*
G37*
G36*
X103389Y497840D02*
X111760Y497840D01*
X111760Y506730D01*
X95250Y506730D01*
X95250Y505979D01*
X96797Y502245D01*
X99655Y499387D01*
X103389Y497840D01*
G37*
G36*
X114300Y497840D02*
X122671Y497840D01*
X126405Y499387D01*
X129263Y502245D01*
X130810Y505979D01*
X130810Y506730D01*
X114300Y506730D01*
X114300Y497840D01*
G37*
G36*
X34809Y497840D02*
X43180Y497840D01*
X43180Y506730D01*
X26670Y506730D01*
X26670Y505979D01*
X28217Y502245D01*
X31075Y499387D01*
X34809Y497840D01*
G37*
G36*
X45720Y497840D02*
X54091Y497840D01*
X57825Y499387D01*
X60683Y502245D01*
X62230Y505979D01*
X62230Y506730D01*
X45720Y506730D01*
X45720Y497840D01*
G37*
G36*
X151341Y492022D02*
X157480Y492022D01*
X157480Y497286D01*
X152828Y497286D01*
X151341Y495798D01*
X151341Y492022D01*
G37*
G36*
X160020Y492022D02*
X166160Y492022D01*
X166160Y495798D01*
X164672Y497286D01*
X160020Y497286D01*
X160020Y492022D01*
G37*
G36*
X332191Y473456D02*
X351069Y473456D01*
X354430Y474848D01*
X357002Y477420D01*
X358394Y480781D01*
X358394Y484419D01*
X357002Y487780D01*
X354430Y490352D01*
X351069Y491744D01*
X332191Y491744D01*
X328830Y490352D01*
X326258Y487780D01*
X324866Y484419D01*
X324866Y480781D01*
X326258Y477420D01*
X328830Y474848D01*
X332191Y473456D01*
G37*
G36*
X35011Y473456D02*
X53889Y473456D01*
X57250Y474848D01*
X59822Y477420D01*
X61214Y480781D01*
X61214Y484419D01*
X59822Y487780D01*
X57250Y490352D01*
X53889Y491744D01*
X35011Y491744D01*
X31650Y490352D01*
X29078Y487780D01*
X27686Y484419D01*
X27686Y480781D01*
X29078Y477420D01*
X31650Y474848D01*
X35011Y473456D01*
G37*
G36*
X103591Y473456D02*
X122469Y473456D01*
X125830Y474848D01*
X128402Y477420D01*
X129794Y480781D01*
X129794Y484419D01*
X128402Y487780D01*
X125830Y490352D01*
X122469Y491744D01*
X103591Y491744D01*
X100230Y490352D01*
X97658Y487780D01*
X96266Y484419D01*
X96266Y480781D01*
X97658Y477420D01*
X100230Y474848D01*
X103591Y473456D01*
G37*
G36*
X160020Y484219D02*
X164672Y484219D01*
X166160Y485706D01*
X166160Y489482D01*
X160020Y489482D01*
X160020Y484219D01*
G37*
G36*
X152828Y484219D02*
X157480Y484219D01*
X157480Y489482D01*
X151341Y489482D01*
X151341Y485706D01*
X152828Y484219D01*
G37*
G36*
X291041Y475718D02*
X297180Y475718D01*
X297180Y480982D01*
X292528Y480982D01*
X291041Y479494D01*
X291041Y475718D01*
G37*
G36*
X299720Y475718D02*
X305860Y475718D01*
X305860Y479494D01*
X304372Y480982D01*
X299720Y480982D01*
X299720Y475718D01*
G37*
G36*
X157644Y438940D02*
X159856Y438940D01*
X161900Y439786D01*
X163464Y441351D01*
X164310Y443394D01*
X164310Y445606D01*
X163464Y447650D01*
X162783Y448330D01*
X162620Y448571D01*
X162560Y448869D01*
X162560Y468169D01*
X162611Y468443D01*
X162775Y468699D01*
X163025Y468870D01*
X163322Y468931D01*
X164251Y468931D01*
X165144Y469823D01*
X165144Y479073D01*
X164251Y479966D01*
X153249Y479966D01*
X152357Y479073D01*
X152357Y469823D01*
X153249Y468931D01*
X154178Y468931D01*
X154453Y468879D01*
X154708Y468716D01*
X154880Y468466D01*
X154940Y468169D01*
X154940Y448869D01*
X154884Y448583D01*
X154717Y448330D01*
X154036Y447650D01*
X153190Y445606D01*
X153190Y443394D01*
X154036Y441351D01*
X155601Y439786D01*
X157644Y438940D01*
G37*
G36*
X299720Y467915D02*
X304372Y467915D01*
X305860Y469402D01*
X305860Y473178D01*
X299720Y473178D01*
X299720Y467915D01*
G37*
G36*
X292528Y467915D02*
X297180Y467915D01*
X297180Y473178D01*
X291041Y473178D01*
X291041Y469402D01*
X292528Y467915D01*
G37*
G36*
X103591Y448056D02*
X122469Y448056D01*
X125830Y449448D01*
X128402Y452020D01*
X129794Y455381D01*
X129794Y459019D01*
X128402Y462380D01*
X125830Y464952D01*
X122469Y466344D01*
X103591Y466344D01*
X100230Y464952D01*
X97658Y462380D01*
X96266Y459019D01*
X96266Y455381D01*
X97658Y452020D01*
X100230Y449448D01*
X103591Y448056D01*
G37*
G36*
X332191Y448056D02*
X351069Y448056D01*
X354430Y449448D01*
X357002Y452020D01*
X358394Y455381D01*
X358394Y459019D01*
X357002Y462380D01*
X354430Y464952D01*
X351069Y466344D01*
X332191Y466344D01*
X328830Y464952D01*
X326258Y462380D01*
X324866Y459019D01*
X324866Y455381D01*
X326258Y452020D01*
X328830Y449448D01*
X332191Y448056D01*
G37*
G36*
X153249Y377285D02*
X164251Y377285D01*
X165144Y378177D01*
X165144Y381690D01*
X165199Y381976D01*
X165367Y382229D01*
X181610Y398472D01*
X181610Y442126D01*
X181666Y442412D01*
X181833Y442665D01*
X184715Y445547D01*
X184957Y445710D01*
X185254Y445770D01*
X185256Y445770D01*
X187300Y446616D01*
X188864Y448181D01*
X189710Y450224D01*
X189710Y452436D01*
X188864Y454480D01*
X187300Y456044D01*
X185256Y456890D01*
X183044Y456890D01*
X181001Y456044D01*
X179436Y454480D01*
X178590Y452436D01*
X178590Y450514D01*
X178534Y450228D01*
X178367Y449975D01*
X173990Y445598D01*
X173990Y401944D01*
X173934Y401658D01*
X173767Y401405D01*
X160905Y388543D01*
X160663Y388380D01*
X160366Y388320D01*
X153249Y388320D01*
X152357Y387427D01*
X152357Y387374D01*
X152305Y387099D01*
X152142Y386844D01*
X151892Y386672D01*
X151595Y386612D01*
X147944Y386612D01*
X147658Y386668D01*
X147405Y386835D01*
X144318Y389923D01*
X142831Y389923D01*
X142545Y389978D01*
X142292Y390146D01*
X141612Y390826D01*
X139569Y391673D01*
X137357Y391673D01*
X135313Y390826D01*
X133749Y389262D01*
X132903Y387219D01*
X132903Y385007D01*
X133749Y382963D01*
X135313Y381399D01*
X137357Y380553D01*
X139569Y380553D01*
X141462Y381337D01*
X141741Y381395D01*
X142039Y381339D01*
X142292Y381172D01*
X144472Y378992D01*
X151595Y378992D01*
X151869Y378941D01*
X152125Y378777D01*
X152296Y378527D01*
X152357Y378230D01*
X152357Y378177D01*
X153249Y377285D01*
G37*
G36*
X103591Y422656D02*
X122469Y422656D01*
X125830Y424048D01*
X128402Y426620D01*
X129794Y429981D01*
X129794Y433619D01*
X128402Y436980D01*
X125830Y439552D01*
X122469Y440944D01*
X103591Y440944D01*
X100230Y439552D01*
X97658Y436980D01*
X96266Y433619D01*
X96266Y429981D01*
X97658Y426620D01*
X100230Y424048D01*
X103591Y422656D01*
G37*
G36*
X332191Y422656D02*
X351069Y422656D01*
X354430Y424048D01*
X357002Y426620D01*
X358394Y429981D01*
X358394Y433619D01*
X357002Y436980D01*
X354430Y439552D01*
X351069Y440944D01*
X332191Y440944D01*
X328830Y439552D01*
X326258Y436980D01*
X324866Y433619D01*
X324866Y429981D01*
X326258Y426620D01*
X328830Y424048D01*
X332191Y422656D01*
G37*
G36*
X151341Y428522D02*
X157480Y428522D01*
X157480Y433786D01*
X152828Y433786D01*
X151341Y432298D01*
X151341Y428522D01*
G37*
G36*
X291041Y428522D02*
X297180Y428522D01*
X297180Y433786D01*
X292528Y433786D01*
X291041Y432298D01*
X291041Y428522D01*
G37*
G36*
X299720Y428522D02*
X305860Y428522D01*
X305860Y432298D01*
X304372Y433786D01*
X299720Y433786D01*
X299720Y428522D01*
G37*
G36*
X160020Y428522D02*
X166160Y428522D01*
X166160Y432298D01*
X164672Y433786D01*
X160020Y433786D01*
X160020Y428522D01*
G37*
G36*
X260858Y421386D02*
X265430Y421386D01*
X265430Y432816D01*
X262346Y432816D01*
X260858Y431328D01*
X260858Y421386D01*
G37*
G36*
X267970Y421386D02*
X272542Y421386D01*
X272542Y431328D01*
X271054Y432816D01*
X267970Y432816D01*
X267970Y421386D01*
G37*
G36*
X299720Y420719D02*
X304372Y420719D01*
X305860Y422206D01*
X305860Y425982D01*
X299720Y425982D01*
X299720Y420719D01*
G37*
G36*
X292528Y420719D02*
X297180Y420719D01*
X297180Y425982D01*
X291041Y425982D01*
X291041Y422206D01*
X292528Y420719D01*
G37*
G36*
X160020Y420719D02*
X164672Y420719D01*
X166160Y422206D01*
X166160Y425982D01*
X160020Y425982D01*
X160020Y420719D01*
G37*
G36*
X152828Y420719D02*
X157480Y420719D01*
X157480Y425982D01*
X151341Y425982D01*
X151341Y422206D01*
X152828Y420719D01*
G37*
G36*
X75094Y362740D02*
X77306Y362740D01*
X79350Y363586D01*
X80914Y365151D01*
X81760Y367194D01*
X81760Y369406D01*
X80914Y371450D01*
X80233Y372130D01*
X80070Y372371D01*
X80010Y372669D01*
X80010Y414731D01*
X80066Y415017D01*
X80233Y415270D01*
X80914Y415951D01*
X81760Y417994D01*
X81760Y420206D01*
X80914Y422250D01*
X79350Y423814D01*
X77306Y424660D01*
X75094Y424660D01*
X73051Y423814D01*
X71486Y422250D01*
X70640Y420206D01*
X70640Y417994D01*
X71486Y415951D01*
X72167Y415270D01*
X72330Y415029D01*
X72390Y414731D01*
X72390Y372669D01*
X72334Y372383D01*
X72167Y372130D01*
X71486Y371450D01*
X70640Y369406D01*
X70640Y367194D01*
X71486Y365151D01*
X73051Y363586D01*
X75094Y362740D01*
G37*
G36*
X267970Y407416D02*
X271054Y407416D01*
X272542Y408904D01*
X272542Y418846D01*
X267970Y418846D01*
X267970Y407416D01*
G37*
G36*
X157644Y394490D02*
X159856Y394490D01*
X161900Y395336D01*
X163464Y396901D01*
X164310Y398944D01*
X164310Y401156D01*
X163464Y403200D01*
X162783Y403880D01*
X162620Y404121D01*
X162560Y404419D01*
X162560Y404669D01*
X162611Y404943D01*
X162775Y405199D01*
X163025Y405370D01*
X163322Y405431D01*
X164251Y405431D01*
X165144Y406323D01*
X165144Y415573D01*
X164251Y416466D01*
X153249Y416466D01*
X152357Y415573D01*
X152357Y406323D01*
X153249Y405431D01*
X154178Y405431D01*
X154453Y405379D01*
X154708Y405216D01*
X154880Y404966D01*
X154940Y404669D01*
X154940Y404419D01*
X154884Y404133D01*
X154717Y403880D01*
X154036Y403200D01*
X153190Y401156D01*
X153190Y398944D01*
X154036Y396901D01*
X155601Y395336D01*
X157644Y394490D01*
G37*
G36*
X291041Y384072D02*
X305860Y384072D01*
X305860Y387848D01*
X304372Y389336D01*
X303788Y389336D01*
X303525Y389382D01*
X303267Y389542D01*
X303091Y389789D01*
X303026Y390085D01*
X303082Y390383D01*
X303115Y390434D01*
X304010Y392594D01*
X304010Y394806D01*
X303164Y396850D01*
X302483Y397530D01*
X302320Y397771D01*
X302260Y398069D01*
X302260Y404669D01*
X302311Y404943D01*
X302475Y405199D01*
X302725Y405370D01*
X303022Y405431D01*
X303951Y405431D01*
X304844Y406323D01*
X304844Y415573D01*
X303951Y416466D01*
X292949Y416466D01*
X292057Y415573D01*
X292057Y406323D01*
X292949Y405431D01*
X293878Y405431D01*
X294153Y405379D01*
X294408Y405216D01*
X294580Y404966D01*
X294640Y404669D01*
X294640Y398069D01*
X294584Y397783D01*
X294417Y397530D01*
X293736Y396850D01*
X292890Y394806D01*
X292890Y392594D01*
X293774Y390459D01*
X293804Y390417D01*
X293873Y390122D01*
X293823Y389823D01*
X293659Y389567D01*
X293409Y389396D01*
X293112Y389336D01*
X292528Y389336D01*
X291041Y387848D01*
X291041Y384072D01*
G37*
G36*
X332191Y397256D02*
X351069Y397256D01*
X354430Y398648D01*
X357002Y401220D01*
X358394Y404581D01*
X358394Y408219D01*
X357002Y411580D01*
X354430Y414152D01*
X351069Y415544D01*
X332191Y415544D01*
X328830Y414152D01*
X326258Y411580D01*
X324866Y408219D01*
X324866Y404581D01*
X326258Y401220D01*
X328830Y398648D01*
X332191Y397256D01*
G37*
G36*
X103591Y397256D02*
X122469Y397256D01*
X125830Y398648D01*
X128402Y401220D01*
X129794Y404581D01*
X129794Y408219D01*
X128402Y411580D01*
X125830Y414152D01*
X122469Y415544D01*
X103591Y415544D01*
X100230Y414152D01*
X97658Y411580D01*
X96266Y408219D01*
X96266Y404581D01*
X97658Y401220D01*
X100230Y398648D01*
X103591Y397256D01*
G37*
G36*
X403311Y384556D02*
X422189Y384556D01*
X425550Y385948D01*
X428122Y388520D01*
X429514Y391881D01*
X429514Y395519D01*
X428122Y398880D01*
X425550Y401452D01*
X422189Y402844D01*
X403311Y402844D01*
X399950Y401452D01*
X397378Y398880D01*
X395986Y395519D01*
X395986Y391881D01*
X397378Y388520D01*
X399950Y385948D01*
X403311Y384556D01*
G37*
G36*
X35011Y384556D02*
X53889Y384556D01*
X57250Y385948D01*
X59822Y388520D01*
X61214Y391881D01*
X61214Y395519D01*
X59822Y398880D01*
X57250Y401452D01*
X53889Y402844D01*
X35011Y402844D01*
X31650Y401452D01*
X29078Y398880D01*
X27686Y395519D01*
X27686Y391881D01*
X29078Y388520D01*
X31650Y385948D01*
X35011Y384556D01*
G37*
G36*
X87794Y337340D02*
X90006Y337340D01*
X92050Y338186D01*
X93614Y339751D01*
X94460Y341794D01*
X94460Y344006D01*
X93614Y346050D01*
X92933Y346730D01*
X92770Y346971D01*
X92710Y347269D01*
X92710Y389331D01*
X92766Y389617D01*
X92933Y389870D01*
X93614Y390551D01*
X94460Y392594D01*
X94460Y394806D01*
X93614Y396850D01*
X92050Y398414D01*
X90006Y399260D01*
X87794Y399260D01*
X85751Y398414D01*
X84186Y396850D01*
X83340Y394806D01*
X83340Y392594D01*
X84186Y390551D01*
X84867Y389870D01*
X85030Y389629D01*
X85090Y389331D01*
X85090Y347269D01*
X85034Y346983D01*
X84867Y346730D01*
X84186Y346050D01*
X83340Y344006D01*
X83340Y341794D01*
X84186Y339751D01*
X85751Y338186D01*
X87794Y337340D01*
G37*
G36*
X332191Y371856D02*
X351069Y371856D01*
X354430Y373248D01*
X357002Y375820D01*
X358394Y379181D01*
X358394Y382819D01*
X357002Y386180D01*
X354430Y388752D01*
X351069Y390144D01*
X332191Y390144D01*
X328830Y388752D01*
X326258Y386180D01*
X324866Y382819D01*
X324866Y379181D01*
X326258Y375820D01*
X328830Y373248D01*
X332191Y371856D01*
G37*
G36*
X103591Y371856D02*
X122469Y371856D01*
X125830Y373248D01*
X128402Y375820D01*
X129794Y379181D01*
X129794Y382819D01*
X128402Y386180D01*
X125830Y388752D01*
X122469Y390144D01*
X103591Y390144D01*
X100230Y388752D01*
X97658Y386180D01*
X96266Y382819D01*
X96266Y379181D01*
X97658Y375820D01*
X100230Y373248D01*
X103591Y371856D01*
G37*
G36*
X189874Y350040D02*
X192086Y350040D01*
X194130Y350886D01*
X195694Y352451D01*
X196540Y354494D01*
X196540Y356706D01*
X195694Y358750D01*
X194533Y359910D01*
X194370Y360151D01*
X194310Y360449D01*
X194310Y361511D01*
X194366Y361797D01*
X194533Y362050D01*
X195326Y362843D01*
X195326Y384425D01*
X194433Y385318D01*
X186567Y385318D01*
X185674Y384425D01*
X185674Y362843D01*
X186467Y362050D01*
X186630Y361808D01*
X186690Y361511D01*
X186690Y359489D01*
X186634Y359203D01*
X186467Y358950D01*
X186266Y358750D01*
X185420Y356706D01*
X185420Y354494D01*
X186266Y352451D01*
X187831Y350886D01*
X189874Y350040D01*
G37*
G36*
X292528Y376269D02*
X297180Y376269D01*
X297180Y381532D01*
X291041Y381532D01*
X291041Y377756D01*
X292528Y376269D01*
G37*
G36*
X299720Y376269D02*
X304372Y376269D01*
X305860Y377756D01*
X305860Y381532D01*
X299720Y381532D01*
X299720Y376269D01*
G37*
G36*
X414020Y369570D02*
X430530Y369570D01*
X430530Y370321D01*
X428983Y374055D01*
X426125Y376913D01*
X422391Y378460D01*
X414020Y378460D01*
X414020Y369570D01*
G37*
G36*
X394970Y369570D02*
X411480Y369570D01*
X411480Y378460D01*
X403109Y378460D01*
X399375Y376913D01*
X396517Y374055D01*
X394970Y370321D01*
X394970Y369570D01*
G37*
G36*
X35011Y359156D02*
X53889Y359156D01*
X57250Y360548D01*
X59822Y363120D01*
X61214Y366481D01*
X61214Y370119D01*
X59822Y373480D01*
X57250Y376052D01*
X53889Y377444D01*
X35011Y377444D01*
X31650Y376052D01*
X29078Y373480D01*
X27686Y370119D01*
X27686Y366481D01*
X29078Y363120D01*
X31650Y360548D01*
X35011Y359156D01*
G37*
G36*
X151341Y367768D02*
X157480Y367768D01*
X157480Y373032D01*
X152828Y373032D01*
X151341Y371544D01*
X151341Y367768D01*
G37*
G36*
X160020Y367768D02*
X166160Y367768D01*
X166160Y371544D01*
X164672Y373032D01*
X160020Y373032D01*
X160020Y367768D01*
G37*
G36*
X297344Y343690D02*
X299556Y343690D01*
X301600Y344536D01*
X303164Y346101D01*
X304010Y348144D01*
X304010Y350356D01*
X303164Y352400D01*
X302483Y353080D01*
X302320Y353321D01*
X302260Y353619D01*
X302260Y360219D01*
X302311Y360493D01*
X302475Y360749D01*
X302725Y360920D01*
X303022Y360981D01*
X303951Y360981D01*
X304844Y361873D01*
X304844Y371123D01*
X303951Y372016D01*
X292949Y372016D01*
X292057Y371123D01*
X292057Y361873D01*
X292949Y360981D01*
X293878Y360981D01*
X294153Y360929D01*
X294408Y360766D01*
X294580Y360516D01*
X294640Y360219D01*
X294640Y353619D01*
X294584Y353333D01*
X294417Y353080D01*
X293736Y352400D01*
X292890Y350356D01*
X292890Y348144D01*
X293736Y346101D01*
X295301Y344536D01*
X297344Y343690D01*
G37*
G36*
X414020Y358140D02*
X422391Y358140D01*
X426125Y359687D01*
X428983Y362545D01*
X430530Y366279D01*
X430530Y367030D01*
X414020Y367030D01*
X414020Y358140D01*
G37*
G36*
X403109Y358140D02*
X411480Y358140D01*
X411480Y367030D01*
X394970Y367030D01*
X394970Y366279D01*
X396517Y362545D01*
X399375Y359687D01*
X403109Y358140D01*
G37*
G36*
X160020Y359965D02*
X164672Y359965D01*
X166160Y361452D01*
X166160Y365228D01*
X160020Y365228D01*
X160020Y359965D01*
G37*
G36*
X152828Y359965D02*
X157480Y359965D01*
X157480Y365228D01*
X151341Y365228D01*
X151341Y361452D01*
X152828Y359965D01*
G37*
G36*
X103591Y346456D02*
X122469Y346456D01*
X125830Y347848D01*
X128402Y350420D01*
X129794Y353781D01*
X129794Y357419D01*
X128402Y360780D01*
X125830Y363352D01*
X122469Y364744D01*
X103591Y364744D01*
X100230Y363352D01*
X97658Y360780D01*
X96266Y357419D01*
X96266Y353781D01*
X97658Y350420D01*
X100230Y347848D01*
X103591Y346456D01*
G37*
G36*
X332191Y346456D02*
X351069Y346456D01*
X354430Y347848D01*
X357002Y350420D01*
X358394Y353781D01*
X358394Y357419D01*
X357002Y360780D01*
X354430Y363352D01*
X351069Y364744D01*
X332191Y364744D01*
X328830Y363352D01*
X326258Y360780D01*
X324866Y357419D01*
X324866Y353781D01*
X326258Y350420D01*
X328830Y347848D01*
X332191Y346456D01*
G37*
G36*
X176694Y273840D02*
X178906Y273840D01*
X180950Y274686D01*
X182514Y276251D01*
X183360Y278294D01*
X183360Y280506D01*
X182514Y282550D01*
X180950Y284114D01*
X178906Y284960D01*
X177944Y284960D01*
X177658Y285016D01*
X177405Y285183D01*
X175483Y287105D01*
X175320Y287347D01*
X175260Y287644D01*
X175260Y293762D01*
X175307Y294026D01*
X175466Y294284D01*
X175714Y294459D01*
X176010Y294524D01*
X176308Y294469D01*
X176561Y294301D01*
X178367Y292495D01*
X178530Y292253D01*
X178590Y291956D01*
X178590Y290994D01*
X179436Y288951D01*
X181001Y287386D01*
X183044Y286540D01*
X185256Y286540D01*
X187300Y287386D01*
X188864Y288951D01*
X189710Y290994D01*
X189710Y293206D01*
X188864Y295250D01*
X187300Y296814D01*
X185256Y297660D01*
X184294Y297660D01*
X184008Y297716D01*
X183755Y297883D01*
X181833Y299805D01*
X181670Y300047D01*
X181610Y300344D01*
X181610Y350828D01*
X177233Y355205D01*
X177070Y355447D01*
X177010Y355744D01*
X177010Y356706D01*
X176164Y358750D01*
X174600Y360314D01*
X172556Y361160D01*
X170344Y361160D01*
X168301Y360314D01*
X166736Y358750D01*
X165890Y356706D01*
X165890Y355092D01*
X165839Y354817D01*
X165675Y354562D01*
X165425Y354390D01*
X165128Y354330D01*
X163994Y354330D01*
X161951Y353484D01*
X160386Y351920D01*
X159540Y349876D01*
X159540Y347664D01*
X160386Y345621D01*
X161951Y344056D01*
X163994Y343210D01*
X164956Y343210D01*
X165242Y343154D01*
X165495Y342987D01*
X167417Y341065D01*
X167580Y340823D01*
X167640Y340526D01*
X167640Y308403D01*
X167593Y308139D01*
X167434Y307881D01*
X167186Y307706D01*
X166890Y307641D01*
X166592Y307696D01*
X166339Y307864D01*
X164672Y309532D01*
X160020Y309532D01*
X160020Y296465D01*
X164672Y296465D01*
X166339Y298132D01*
X166559Y298285D01*
X166854Y298355D01*
X167153Y298304D01*
X167408Y298141D01*
X167580Y297891D01*
X167640Y297593D01*
X167640Y284172D01*
X172017Y279795D01*
X172180Y279553D01*
X172240Y279256D01*
X172240Y278294D01*
X173086Y276251D01*
X174651Y274686D01*
X176694Y273840D01*
G37*
G36*
X403311Y333756D02*
X422189Y333756D01*
X425550Y335148D01*
X428122Y337720D01*
X429514Y341081D01*
X429514Y344719D01*
X428122Y348080D01*
X425550Y350652D01*
X422189Y352044D01*
X403311Y352044D01*
X399950Y350652D01*
X397378Y348080D01*
X395986Y344719D01*
X395986Y341081D01*
X397378Y337720D01*
X399950Y335148D01*
X403311Y333756D01*
G37*
G36*
X35011Y333756D02*
X53889Y333756D01*
X57250Y335148D01*
X59822Y337720D01*
X61214Y341081D01*
X61214Y344719D01*
X59822Y348080D01*
X57250Y350652D01*
X53889Y352044D01*
X35011Y352044D01*
X31650Y350652D01*
X29078Y348080D01*
X27686Y344719D01*
X27686Y341081D01*
X29078Y337720D01*
X31650Y335148D01*
X35011Y333756D01*
G37*
G36*
X403311Y282956D02*
X422189Y282956D01*
X425550Y284348D01*
X428122Y286920D01*
X429514Y290281D01*
X429514Y293919D01*
X428122Y297280D01*
X425550Y299852D01*
X422189Y301244D01*
X403311Y301244D01*
X399950Y299852D01*
X399357Y299259D01*
X399127Y299101D01*
X398830Y299036D01*
X398532Y299091D01*
X398279Y299259D01*
X385033Y312505D01*
X384870Y312747D01*
X384810Y313044D01*
X384810Y338531D01*
X384866Y338817D01*
X385033Y339070D01*
X385714Y339751D01*
X386560Y341794D01*
X386560Y344006D01*
X385714Y346050D01*
X384150Y347614D01*
X382106Y348460D01*
X379894Y348460D01*
X377851Y347614D01*
X376286Y346050D01*
X375440Y344006D01*
X375440Y341794D01*
X376286Y339751D01*
X376967Y339070D01*
X377130Y338829D01*
X377190Y338531D01*
X377190Y309572D01*
X395763Y290999D01*
X395926Y290757D01*
X395986Y290460D01*
X395986Y290281D01*
X397378Y286920D01*
X399950Y284348D01*
X403311Y282956D01*
G37*
G36*
X292949Y313785D02*
X303951Y313785D01*
X304844Y314677D01*
X304844Y323927D01*
X303951Y324820D01*
X303022Y324820D01*
X302747Y324871D01*
X302492Y325034D01*
X302320Y325284D01*
X302260Y325582D01*
X302260Y332181D01*
X302316Y332467D01*
X302483Y332720D01*
X303164Y333401D01*
X304010Y335444D01*
X304010Y337656D01*
X303164Y339700D01*
X301600Y341264D01*
X299556Y342110D01*
X297344Y342110D01*
X295301Y341264D01*
X293736Y339700D01*
X292890Y337656D01*
X292890Y335444D01*
X293736Y333401D01*
X294417Y332720D01*
X294580Y332479D01*
X294640Y332181D01*
X294640Y325582D01*
X294589Y325307D01*
X294425Y325051D01*
X294175Y324880D01*
X293878Y324820D01*
X292949Y324820D01*
X292057Y323927D01*
X292057Y314677D01*
X292949Y313785D01*
G37*
G36*
X153249Y313785D02*
X164251Y313785D01*
X165144Y314677D01*
X165144Y323927D01*
X164251Y324820D01*
X163322Y324820D01*
X163047Y324871D01*
X162792Y325034D01*
X162620Y325284D01*
X162560Y325582D01*
X162560Y332181D01*
X162616Y332467D01*
X162783Y332720D01*
X163464Y333401D01*
X164310Y335444D01*
X164310Y337656D01*
X163464Y339700D01*
X161900Y341264D01*
X159856Y342110D01*
X157644Y342110D01*
X155601Y341264D01*
X154036Y339700D01*
X153190Y337656D01*
X153190Y335444D01*
X154036Y333401D01*
X154717Y332720D01*
X154880Y332479D01*
X154940Y332181D01*
X154940Y325582D01*
X154889Y325307D01*
X154725Y325051D01*
X154475Y324880D01*
X154178Y324820D01*
X153249Y324820D01*
X152357Y323927D01*
X152357Y314677D01*
X153249Y313785D01*
G37*
G36*
X103591Y321056D02*
X122469Y321056D01*
X125830Y322448D01*
X128402Y325020D01*
X129794Y328381D01*
X129794Y332019D01*
X128402Y335380D01*
X125830Y337952D01*
X122469Y339344D01*
X103591Y339344D01*
X100230Y337952D01*
X97658Y335380D01*
X96266Y332019D01*
X96266Y328381D01*
X97658Y325020D01*
X100230Y322448D01*
X103591Y321056D01*
G37*
G36*
X332191Y321056D02*
X351069Y321056D01*
X354430Y322448D01*
X357002Y325020D01*
X358394Y328381D01*
X358394Y332019D01*
X357002Y335380D01*
X354430Y337952D01*
X351069Y339344D01*
X332191Y339344D01*
X328830Y337952D01*
X326258Y335380D01*
X324866Y332019D01*
X324866Y328381D01*
X326258Y325020D01*
X328830Y322448D01*
X332191Y321056D01*
G37*
G36*
X45720Y318770D02*
X62230Y318770D01*
X62230Y319521D01*
X60683Y323255D01*
X57825Y326113D01*
X54091Y327660D01*
X45720Y327660D01*
X45720Y318770D01*
G37*
G36*
X26670Y318770D02*
X43180Y318770D01*
X43180Y327660D01*
X34809Y327660D01*
X31075Y326113D01*
X28217Y323255D01*
X26670Y319521D01*
X26670Y318770D01*
G37*
G36*
X403311Y308356D02*
X422189Y308356D01*
X425550Y309748D01*
X428122Y312320D01*
X429514Y315681D01*
X429514Y319319D01*
X428122Y322680D01*
X425550Y325252D01*
X422189Y326644D01*
X403311Y326644D01*
X399950Y325252D01*
X397378Y322680D01*
X395986Y319319D01*
X395986Y315681D01*
X397378Y312320D01*
X399950Y309748D01*
X403311Y308356D01*
G37*
G36*
X267970Y313436D02*
X272542Y313436D01*
X272542Y323378D01*
X271054Y324866D01*
X267970Y324866D01*
X267970Y313436D01*
G37*
G36*
X34809Y307340D02*
X43180Y307340D01*
X43180Y316230D01*
X26670Y316230D01*
X26670Y315479D01*
X28217Y311745D01*
X31075Y308887D01*
X34809Y307340D01*
G37*
G36*
X45720Y307340D02*
X54091Y307340D01*
X57825Y308887D01*
X60683Y311745D01*
X62230Y315479D01*
X62230Y316230D01*
X45720Y316230D01*
X45720Y307340D01*
G37*
G36*
X103591Y295656D02*
X122469Y295656D01*
X125830Y297048D01*
X128402Y299620D01*
X129794Y302981D01*
X129794Y306619D01*
X128402Y309980D01*
X125830Y312552D01*
X122469Y313944D01*
X103591Y313944D01*
X100230Y312552D01*
X97658Y309980D01*
X96266Y306619D01*
X96266Y302981D01*
X97658Y299620D01*
X100230Y297048D01*
X103591Y295656D01*
G37*
G36*
X332191Y295656D02*
X351069Y295656D01*
X354430Y297048D01*
X357002Y299620D01*
X358394Y302981D01*
X358394Y306619D01*
X357002Y309980D01*
X354430Y312552D01*
X351069Y313944D01*
X332191Y313944D01*
X328830Y312552D01*
X326258Y309980D01*
X324866Y306619D01*
X324866Y302981D01*
X326258Y299620D01*
X328830Y297048D01*
X332191Y295656D01*
G37*
G36*
X262346Y299466D02*
X265430Y299466D01*
X265430Y310896D01*
X260858Y310896D01*
X260858Y300954D01*
X262346Y299466D01*
G37*
G36*
X267970Y299466D02*
X271054Y299466D01*
X272542Y300954D01*
X272542Y310896D01*
X267970Y310896D01*
X267970Y299466D01*
G37*
G36*
X299720Y304268D02*
X305860Y304268D01*
X305860Y308044D01*
X304372Y309532D01*
X299720Y309532D01*
X299720Y304268D01*
G37*
G36*
X151341Y304268D02*
X157480Y304268D01*
X157480Y309532D01*
X152828Y309532D01*
X151341Y308044D01*
X151341Y304268D01*
G37*
G36*
X291041Y304268D02*
X297180Y304268D01*
X297180Y309532D01*
X292528Y309532D01*
X291041Y308044D01*
X291041Y304268D01*
G37*
G36*
X299720Y296465D02*
X304372Y296465D01*
X305860Y297952D01*
X305860Y301728D01*
X299720Y301728D01*
X299720Y296465D01*
G37*
G36*
X292528Y296465D02*
X297180Y296465D01*
X297180Y301728D01*
X291041Y301728D01*
X291041Y297952D01*
X292528Y296465D01*
G37*
G36*
X152828Y296465D02*
X157480Y296465D01*
X157480Y301728D01*
X151341Y301728D01*
X151341Y297952D01*
X152828Y296465D01*
G37*
G36*
X35011Y282956D02*
X53889Y282956D01*
X57250Y284348D01*
X59822Y286920D01*
X61214Y290281D01*
X61214Y293919D01*
X59822Y297280D01*
X57250Y299852D01*
X53889Y301244D01*
X35011Y301244D01*
X31650Y299852D01*
X29078Y297280D01*
X27686Y293919D01*
X27686Y290281D01*
X29078Y286920D01*
X31650Y284348D01*
X35011Y282956D01*
G37*
G36*
X103591Y270256D02*
X122469Y270256D01*
X125830Y271648D01*
X128402Y274220D01*
X129794Y277581D01*
X129794Y281219D01*
X128402Y284580D01*
X125830Y287152D01*
X122469Y288544D01*
X103591Y288544D01*
X100230Y287152D01*
X97658Y284580D01*
X96266Y281219D01*
X96266Y277581D01*
X97658Y274220D01*
X100230Y271648D01*
X103591Y270256D01*
G37*
G36*
X332191Y270256D02*
X351069Y270256D01*
X354430Y271648D01*
X357002Y274220D01*
X358394Y277581D01*
X358394Y281219D01*
X357002Y284580D01*
X354430Y287152D01*
X351069Y288544D01*
X332191Y288544D01*
X328830Y287152D01*
X326258Y284580D01*
X324866Y281219D01*
X324866Y277581D01*
X326258Y274220D01*
X328830Y271648D01*
X332191Y270256D01*
G37*
G36*
X151341Y276122D02*
X157480Y276122D01*
X157480Y281386D01*
X152828Y281386D01*
X151341Y279898D01*
X151341Y276122D01*
G37*
G36*
X291041Y276122D02*
X297180Y276122D01*
X297180Y281386D01*
X292528Y281386D01*
X291041Y279898D01*
X291041Y276122D01*
G37*
G36*
X299720Y276122D02*
X305860Y276122D01*
X305860Y279898D01*
X304372Y281386D01*
X299720Y281386D01*
X299720Y276122D01*
G37*
G36*
X160020Y276122D02*
X166160Y276122D01*
X166160Y279898D01*
X164672Y281386D01*
X160020Y281386D01*
X160020Y276122D01*
G37*
G36*
X152828Y268319D02*
X157480Y268319D01*
X157480Y273582D01*
X151341Y273582D01*
X151341Y269806D01*
X152828Y268319D01*
G37*
G36*
X160020Y268319D02*
X164672Y268319D01*
X166160Y269806D01*
X166160Y273582D01*
X160020Y273582D01*
X160020Y268319D01*
G37*
G36*
X292528Y268319D02*
X297180Y268319D01*
X297180Y273582D01*
X291041Y273582D01*
X291041Y269806D01*
X292528Y268319D01*
G37*
G36*
X299720Y268319D02*
X304372Y268319D01*
X305860Y269806D01*
X305860Y273582D01*
X299720Y273582D01*
X299720Y268319D01*
G37*
G36*
X297344Y235740D02*
X299556Y235740D01*
X301600Y236586D01*
X303164Y238151D01*
X304010Y240194D01*
X304010Y242406D01*
X303164Y244450D01*
X302483Y245130D01*
X302320Y245371D01*
X302260Y245669D01*
X302260Y252269D01*
X302311Y252543D01*
X302475Y252799D01*
X302725Y252970D01*
X303022Y253031D01*
X303951Y253031D01*
X304844Y253923D01*
X304844Y263173D01*
X303951Y264066D01*
X292949Y264066D01*
X292057Y263173D01*
X292057Y253923D01*
X292949Y253031D01*
X293878Y253031D01*
X294153Y252979D01*
X294408Y252816D01*
X294580Y252566D01*
X294640Y252269D01*
X294640Y245669D01*
X294584Y245383D01*
X294417Y245130D01*
X293736Y244450D01*
X292890Y242406D01*
X292890Y240194D01*
X293736Y238151D01*
X295301Y236586D01*
X297344Y235740D01*
G37*
G36*
X157644Y235740D02*
X159856Y235740D01*
X161900Y236586D01*
X163464Y238151D01*
X164310Y240194D01*
X164310Y242406D01*
X163464Y244450D01*
X162783Y245130D01*
X162620Y245371D01*
X162560Y245669D01*
X162560Y252269D01*
X162611Y252543D01*
X162775Y252799D01*
X163025Y252970D01*
X163322Y253031D01*
X164251Y253031D01*
X165144Y253923D01*
X165144Y263173D01*
X164251Y264066D01*
X153249Y264066D01*
X152357Y263173D01*
X152357Y253923D01*
X153249Y253031D01*
X154178Y253031D01*
X154453Y252979D01*
X154708Y252816D01*
X154880Y252566D01*
X154940Y252269D01*
X154940Y245669D01*
X154884Y245383D01*
X154717Y245130D01*
X154036Y244450D01*
X153190Y242406D01*
X153190Y240194D01*
X154036Y238151D01*
X155601Y236586D01*
X157644Y235740D01*
G37*
G36*
X332191Y244856D02*
X351069Y244856D01*
X354430Y246248D01*
X357002Y248820D01*
X358394Y252181D01*
X358394Y255819D01*
X357002Y259180D01*
X354430Y261752D01*
X351069Y263144D01*
X332191Y263144D01*
X328830Y261752D01*
X326258Y259180D01*
X324866Y255819D01*
X324866Y252181D01*
X326258Y248820D01*
X328830Y246248D01*
X332191Y244856D01*
G37*
G36*
X103591Y244856D02*
X122469Y244856D01*
X125830Y246248D01*
X128402Y248820D01*
X129794Y252181D01*
X129794Y255819D01*
X128402Y259180D01*
X125830Y261752D01*
X122469Y263144D01*
X103591Y263144D01*
X100230Y261752D01*
X97658Y259180D01*
X96266Y255819D01*
X96266Y252181D01*
X97658Y248820D01*
X100230Y246248D01*
X103591Y244856D01*
G37*
G36*
X403311Y143256D02*
X422189Y143256D01*
X425550Y144648D01*
X428122Y147220D01*
X429514Y150581D01*
X429514Y154219D01*
X428122Y157580D01*
X425550Y160152D01*
X422189Y161544D01*
X403311Y161544D01*
X399950Y160152D01*
X397378Y157580D01*
X397006Y156680D01*
X396849Y156442D01*
X396599Y156270D01*
X396302Y156210D01*
X395594Y156210D01*
X395308Y156266D01*
X395055Y156433D01*
X391383Y160105D01*
X391220Y160347D01*
X391160Y160644D01*
X391160Y236528D01*
X386783Y240905D01*
X386620Y241147D01*
X386560Y241444D01*
X386560Y242406D01*
X385714Y244450D01*
X384150Y246014D01*
X382106Y246860D01*
X379894Y246860D01*
X377851Y246014D01*
X376286Y244450D01*
X375440Y242406D01*
X375440Y240194D01*
X376286Y238151D01*
X377851Y236586D01*
X379894Y235740D01*
X380856Y235740D01*
X381142Y235684D01*
X381395Y235517D01*
X383317Y233595D01*
X383480Y233353D01*
X383540Y233056D01*
X383540Y157172D01*
X392122Y148590D01*
X396302Y148590D01*
X396582Y148537D01*
X396836Y148371D01*
X397006Y148120D01*
X397378Y147220D01*
X399950Y144648D01*
X403311Y143256D01*
G37*
G36*
X75094Y178590D02*
X77306Y178590D01*
X79350Y179436D01*
X80914Y181001D01*
X81760Y183044D01*
X81760Y185256D01*
X80914Y187300D01*
X80233Y187980D01*
X80070Y188221D01*
X80010Y188519D01*
X80010Y233056D01*
X80066Y233342D01*
X80233Y233595D01*
X82155Y235517D01*
X82397Y235680D01*
X82694Y235740D01*
X83656Y235740D01*
X85700Y236586D01*
X87264Y238151D01*
X88110Y240194D01*
X88110Y242406D01*
X87264Y244450D01*
X85700Y246014D01*
X83656Y246860D01*
X81444Y246860D01*
X79401Y246014D01*
X77836Y244450D01*
X76990Y242406D01*
X76990Y241444D01*
X76934Y241158D01*
X76767Y240905D01*
X72390Y236528D01*
X72390Y188519D01*
X72334Y188233D01*
X72167Y187980D01*
X71486Y187300D01*
X70640Y185256D01*
X70640Y183044D01*
X71486Y181001D01*
X73051Y179436D01*
X75094Y178590D01*
G37*
G36*
X103591Y219456D02*
X122469Y219456D01*
X125830Y220848D01*
X128402Y223420D01*
X129794Y226781D01*
X129794Y230419D01*
X128402Y233780D01*
X125830Y236352D01*
X122469Y237744D01*
X103591Y237744D01*
X100230Y236352D01*
X97658Y233780D01*
X96266Y230419D01*
X96266Y226781D01*
X97658Y223420D01*
X100230Y220848D01*
X103591Y219456D01*
G37*
G36*
X332191Y219456D02*
X351069Y219456D01*
X354430Y220848D01*
X357002Y223420D01*
X358394Y226781D01*
X358394Y230419D01*
X357002Y233780D01*
X354430Y236352D01*
X351069Y237744D01*
X332191Y237744D01*
X328830Y236352D01*
X326258Y233780D01*
X324866Y230419D01*
X324866Y226781D01*
X326258Y223420D01*
X328830Y220848D01*
X332191Y219456D01*
G37*
G36*
X292949Y205835D02*
X303951Y205835D01*
X304844Y206727D01*
X304844Y215977D01*
X303951Y216870D01*
X303022Y216870D01*
X302747Y216921D01*
X302492Y217084D01*
X302320Y217334D01*
X302299Y217439D01*
X297883Y221855D01*
X297720Y222097D01*
X297660Y222394D01*
X297660Y223356D01*
X296814Y225400D01*
X295250Y226964D01*
X293206Y227810D01*
X290994Y227810D01*
X288951Y226964D01*
X287386Y225400D01*
X286540Y223356D01*
X286540Y221144D01*
X287386Y219101D01*
X288951Y217536D01*
X290994Y216690D01*
X291295Y216690D01*
X291569Y216639D01*
X291825Y216475D01*
X291996Y216225D01*
X292057Y215928D01*
X292057Y206727D01*
X292949Y205835D01*
G37*
G36*
X151341Y212622D02*
X157480Y212622D01*
X157480Y217886D01*
X152828Y217886D01*
X151341Y216398D01*
X151341Y212622D01*
G37*
G36*
X160020Y212622D02*
X166160Y212622D01*
X166160Y216398D01*
X164672Y217886D01*
X160020Y217886D01*
X160020Y212622D01*
G37*
G36*
X267970Y205486D02*
X272542Y205486D01*
X272542Y215428D01*
X271054Y216916D01*
X267970Y216916D01*
X267970Y205486D01*
G37*
G36*
X403311Y194056D02*
X422189Y194056D01*
X425550Y195448D01*
X428122Y198020D01*
X429514Y201381D01*
X429514Y205019D01*
X428122Y208380D01*
X425550Y210952D01*
X422189Y212344D01*
X403311Y212344D01*
X399950Y210952D01*
X397378Y208380D01*
X395986Y205019D01*
X395986Y201381D01*
X397378Y198020D01*
X399950Y195448D01*
X403311Y194056D01*
G37*
G36*
X35011Y194056D02*
X53889Y194056D01*
X57250Y195448D01*
X59822Y198020D01*
X61214Y201381D01*
X61214Y205019D01*
X59822Y208380D01*
X57250Y210952D01*
X53889Y212344D01*
X35011Y212344D01*
X31650Y210952D01*
X29078Y208380D01*
X27686Y205019D01*
X27686Y201381D01*
X29078Y198020D01*
X31650Y195448D01*
X35011Y194056D01*
G37*
G36*
X332191Y194056D02*
X351069Y194056D01*
X354430Y195448D01*
X357002Y198020D01*
X358394Y201381D01*
X358394Y205019D01*
X357002Y208380D01*
X354430Y210952D01*
X351069Y212344D01*
X332191Y212344D01*
X328830Y210952D01*
X326258Y208380D01*
X324866Y205019D01*
X324866Y201381D01*
X326258Y198020D01*
X328830Y195448D01*
X332191Y194056D01*
G37*
G36*
X103591Y168656D02*
X122469Y168656D01*
X125830Y170048D01*
X128402Y172620D01*
X129794Y175981D01*
X129794Y179619D01*
X129352Y180687D01*
X129294Y180942D01*
X129340Y181242D01*
X129500Y181500D01*
X129747Y181676D01*
X130043Y181741D01*
X130342Y181685D01*
X130594Y181518D01*
X134397Y177715D01*
X134560Y177473D01*
X134620Y177176D01*
X134620Y176214D01*
X135466Y174171D01*
X137031Y172606D01*
X139074Y171760D01*
X141286Y171760D01*
X143330Y172606D01*
X144894Y174171D01*
X145740Y176214D01*
X145740Y178426D01*
X144894Y180470D01*
X143330Y182034D01*
X141286Y182880D01*
X140324Y182880D01*
X140038Y182936D01*
X139785Y183103D01*
X127174Y195714D01*
X127016Y195945D01*
X126951Y196241D01*
X127006Y196539D01*
X127174Y196792D01*
X128402Y198020D01*
X129794Y201381D01*
X129794Y205019D01*
X128402Y208380D01*
X125830Y210952D01*
X122469Y212344D01*
X103591Y212344D01*
X100230Y210952D01*
X97658Y208380D01*
X96266Y205019D01*
X96266Y201381D01*
X97658Y198020D01*
X100230Y195448D01*
X103591Y194056D01*
X117740Y194056D01*
X118026Y194000D01*
X118279Y193833D01*
X124368Y187744D01*
X124518Y187530D01*
X124590Y187236D01*
X124542Y186937D01*
X124380Y186680D01*
X124131Y186506D01*
X123835Y186444D01*
X123537Y186502D01*
X122469Y186944D01*
X103591Y186944D01*
X100230Y185552D01*
X97658Y182980D01*
X96266Y179619D01*
X96266Y175981D01*
X97658Y172620D01*
X100230Y170048D01*
X103591Y168656D01*
G37*
G36*
X160020Y204819D02*
X164672Y204819D01*
X166160Y206306D01*
X166160Y210082D01*
X160020Y210082D01*
X160020Y204819D01*
G37*
G36*
X152828Y204819D02*
X157480Y204819D01*
X157480Y210082D01*
X151341Y210082D01*
X151341Y206306D01*
X152828Y204819D01*
G37*
G36*
X267970Y191516D02*
X271054Y191516D01*
X272542Y193004D01*
X272542Y202946D01*
X267970Y202946D01*
X267970Y191516D01*
G37*
G36*
X262346Y191516D02*
X265430Y191516D01*
X265430Y202946D01*
X260858Y202946D01*
X260858Y193004D01*
X262346Y191516D01*
G37*
G36*
X291041Y196318D02*
X297180Y196318D01*
X297180Y201582D01*
X292528Y201582D01*
X291041Y200094D01*
X291041Y196318D01*
G37*
G36*
X299720Y196318D02*
X305860Y196318D01*
X305860Y200094D01*
X304372Y201582D01*
X299720Y201582D01*
X299720Y196318D01*
G37*
G36*
X157644Y178590D02*
X159856Y178590D01*
X161900Y179436D01*
X163464Y181001D01*
X164310Y183044D01*
X164310Y185256D01*
X163464Y187300D01*
X162783Y187980D01*
X162620Y188221D01*
X162560Y188519D01*
X162560Y188769D01*
X162611Y189043D01*
X162775Y189299D01*
X163025Y189470D01*
X163322Y189531D01*
X164251Y189531D01*
X165144Y190423D01*
X165144Y199673D01*
X164251Y200566D01*
X153249Y200566D01*
X152357Y199673D01*
X152357Y190423D01*
X153249Y189531D01*
X154178Y189531D01*
X154453Y189479D01*
X154708Y189316D01*
X154880Y189066D01*
X154940Y188769D01*
X154940Y188519D01*
X154884Y188233D01*
X154717Y187980D01*
X154036Y187300D01*
X153190Y185256D01*
X153190Y183044D01*
X154036Y181001D01*
X155601Y179436D01*
X157644Y178590D01*
G37*
G36*
X75094Y146840D02*
X77306Y146840D01*
X79350Y147686D01*
X80914Y149251D01*
X81760Y151294D01*
X81760Y152256D01*
X81816Y152542D01*
X81983Y152795D01*
X92456Y163268D01*
X92456Y185877D01*
X92512Y186163D01*
X92679Y186416D01*
X93614Y187351D01*
X94460Y189394D01*
X94460Y191606D01*
X93614Y193650D01*
X92050Y195214D01*
X90006Y196060D01*
X87794Y196060D01*
X85751Y195214D01*
X84186Y193650D01*
X83340Y191606D01*
X83340Y189394D01*
X84186Y187351D01*
X84613Y186924D01*
X84776Y186683D01*
X84836Y186385D01*
X84836Y166740D01*
X84780Y166454D01*
X84613Y166201D01*
X76595Y158183D01*
X76353Y158020D01*
X76056Y157960D01*
X75094Y157960D01*
X73051Y157114D01*
X71486Y155550D01*
X70640Y153506D01*
X70640Y151294D01*
X71486Y149251D01*
X73051Y147686D01*
X75094Y146840D01*
G37*
G36*
X299720Y188515D02*
X304372Y188515D01*
X305860Y190002D01*
X305860Y193778D01*
X299720Y193778D01*
X299720Y188515D01*
G37*
G36*
X292528Y188515D02*
X297180Y188515D01*
X297180Y193778D01*
X291041Y193778D01*
X291041Y190002D01*
X292528Y188515D01*
G37*
G36*
X394970Y179070D02*
X411480Y179070D01*
X411480Y187960D01*
X403109Y187960D01*
X399375Y186413D01*
X396517Y183555D01*
X394970Y179821D01*
X394970Y179070D01*
G37*
G36*
X414020Y179070D02*
X430530Y179070D01*
X430530Y179821D01*
X428983Y183555D01*
X426125Y186413D01*
X422391Y187960D01*
X414020Y187960D01*
X414020Y179070D01*
G37*
G36*
X35011Y168656D02*
X53889Y168656D01*
X57250Y170048D01*
X59822Y172620D01*
X61214Y175981D01*
X61214Y179619D01*
X59822Y182980D01*
X57250Y185552D01*
X53889Y186944D01*
X35011Y186944D01*
X31650Y185552D01*
X29078Y182980D01*
X27686Y179619D01*
X27686Y175981D01*
X29078Y172620D01*
X31650Y170048D01*
X35011Y168656D01*
G37*
G36*
X332191Y168656D02*
X351069Y168656D01*
X354430Y170048D01*
X357002Y172620D01*
X358394Y175981D01*
X358394Y179619D01*
X357002Y182980D01*
X354430Y185552D01*
X351069Y186944D01*
X332191Y186944D01*
X328830Y185552D01*
X326258Y182980D01*
X324866Y179619D01*
X324866Y175981D01*
X326258Y172620D01*
X328830Y170048D01*
X332191Y168656D01*
G37*
G36*
X414020Y167640D02*
X422391Y167640D01*
X426125Y169187D01*
X428983Y172045D01*
X430530Y175779D01*
X430530Y176530D01*
X414020Y176530D01*
X414020Y167640D01*
G37*
G36*
X403109Y167640D02*
X411480Y167640D01*
X411480Y176530D01*
X394970Y176530D01*
X394970Y175779D01*
X396517Y172045D01*
X399375Y169187D01*
X403109Y167640D01*
G37*
G36*
X291041Y168172D02*
X297180Y168172D01*
X297180Y173436D01*
X292528Y173436D01*
X291041Y171948D01*
X291041Y168172D01*
G37*
G36*
X299720Y168172D02*
X305860Y168172D01*
X305860Y171948D01*
X304372Y173436D01*
X299720Y173436D01*
X299720Y168172D01*
G37*
G36*
X248158Y159004D02*
X252730Y159004D01*
X252730Y170434D01*
X249646Y170434D01*
X248158Y168946D01*
X248158Y159004D01*
G37*
G36*
X255270Y145034D02*
X258354Y145034D01*
X259811Y146491D01*
X260042Y146649D01*
X260338Y146714D01*
X260636Y146659D01*
X260889Y146491D01*
X262346Y145034D01*
X265430Y145034D01*
X265430Y170434D01*
X262346Y170434D01*
X260889Y168977D01*
X260658Y168819D01*
X260362Y168754D01*
X260064Y168809D01*
X259811Y168977D01*
X258354Y170434D01*
X255270Y170434D01*
X255270Y145034D01*
G37*
G36*
X267970Y159004D02*
X272542Y159004D01*
X272542Y168946D01*
X271054Y170434D01*
X267970Y170434D01*
X267970Y159004D01*
G37*
G36*
X299720Y160369D02*
X304372Y160369D01*
X305860Y161856D01*
X305860Y165632D01*
X299720Y165632D01*
X299720Y160369D01*
G37*
G36*
X292528Y160369D02*
X297180Y160369D01*
X297180Y165632D01*
X291041Y165632D01*
X291041Y161856D01*
X292528Y160369D01*
G37*
G36*
X332191Y143256D02*
X351069Y143256D01*
X354430Y144648D01*
X357002Y147220D01*
X358394Y150581D01*
X358394Y154219D01*
X357002Y157580D01*
X354430Y160152D01*
X351069Y161544D01*
X332191Y161544D01*
X328830Y160152D01*
X326258Y157580D01*
X324866Y154219D01*
X324866Y150581D01*
X326258Y147220D01*
X328830Y144648D01*
X332191Y143256D01*
G37*
G36*
X103591Y143256D02*
X122469Y143256D01*
X125830Y144648D01*
X128402Y147220D01*
X129794Y150581D01*
X129794Y154219D01*
X128402Y157580D01*
X125830Y160152D01*
X122469Y161544D01*
X103591Y161544D01*
X100230Y160152D01*
X97658Y157580D01*
X96266Y154219D01*
X96266Y150581D01*
X97658Y147220D01*
X100230Y144648D01*
X103591Y143256D01*
G37*
G36*
X35011Y143256D02*
X53889Y143256D01*
X57250Y144648D01*
X59822Y147220D01*
X61214Y150581D01*
X61214Y154219D01*
X59822Y157580D01*
X57250Y160152D01*
X53889Y161544D01*
X35011Y161544D01*
X31650Y160152D01*
X29078Y157580D01*
X27686Y154219D01*
X27686Y150581D01*
X29078Y147220D01*
X31650Y144648D01*
X35011Y143256D01*
G37*
G36*
X249646Y145034D02*
X252730Y145034D01*
X252730Y156464D01*
X248158Y156464D01*
X248158Y146522D01*
X249646Y145034D01*
G37*
G36*
X267970Y145034D02*
X271054Y145034D01*
X272542Y146522D01*
X272542Y156464D01*
X267970Y156464D01*
X267970Y145034D01*
G37*
G36*
X290994Y118674D02*
X293206Y118674D01*
X295250Y119520D01*
X296814Y121085D01*
X297660Y123128D01*
X297660Y125340D01*
X297318Y126165D01*
X297260Y126444D01*
X297316Y126742D01*
X297483Y126995D01*
X306155Y135667D01*
X306397Y135830D01*
X306694Y135890D01*
X313131Y135890D01*
X313417Y135834D01*
X313670Y135667D01*
X314351Y134986D01*
X316394Y134140D01*
X318606Y134140D01*
X320650Y134986D01*
X322214Y136551D01*
X323060Y138594D01*
X323060Y140806D01*
X322214Y142850D01*
X320650Y144414D01*
X318606Y145260D01*
X316394Y145260D01*
X314351Y144414D01*
X313670Y143733D01*
X313429Y143570D01*
X313131Y143510D01*
X303022Y143510D01*
X302747Y143561D01*
X302492Y143725D01*
X302320Y143975D01*
X302260Y144272D01*
X302260Y144319D01*
X302311Y144593D01*
X302475Y144849D01*
X302725Y145020D01*
X303022Y145081D01*
X303951Y145081D01*
X304844Y145973D01*
X304844Y155223D01*
X303951Y156116D01*
X292949Y156116D01*
X292057Y155223D01*
X292057Y145973D01*
X292949Y145081D01*
X293878Y145081D01*
X294153Y145029D01*
X294408Y144866D01*
X294580Y144616D01*
X294640Y144319D01*
X294640Y135244D01*
X294584Y134958D01*
X294417Y134705D01*
X288284Y128572D01*
X288234Y128317D01*
X288067Y128064D01*
X287386Y127384D01*
X286540Y125340D01*
X286540Y123128D01*
X287386Y121085D01*
X288951Y119520D01*
X290994Y118674D01*
G37*
G36*
X292949Y97885D02*
X303951Y97885D01*
X304844Y98777D01*
X304844Y108027D01*
X303951Y108920D01*
X296834Y108920D01*
X296548Y108975D01*
X296295Y109143D01*
X283433Y122005D01*
X283270Y122247D01*
X283210Y122544D01*
X283210Y128981D01*
X283266Y129267D01*
X283433Y129520D01*
X284114Y130201D01*
X284960Y132244D01*
X284960Y134456D01*
X284114Y136500D01*
X282550Y138064D01*
X280506Y138910D01*
X278294Y138910D01*
X276251Y138064D01*
X274686Y136500D01*
X273840Y134456D01*
X273840Y132244D01*
X274686Y130201D01*
X275367Y129520D01*
X275530Y129279D01*
X275590Y128981D01*
X275590Y119072D01*
X291833Y102829D01*
X291996Y102587D01*
X292057Y102290D01*
X292057Y98777D01*
X292949Y97885D01*
G37*
G36*
X26670Y128270D02*
X43180Y128270D01*
X43180Y137160D01*
X34809Y137160D01*
X31075Y135613D01*
X28217Y132755D01*
X26670Y129021D01*
X26670Y128270D01*
G37*
G36*
X45720Y128270D02*
X62230Y128270D01*
X62230Y129021D01*
X60683Y132755D01*
X57825Y135613D01*
X54091Y137160D01*
X45720Y137160D01*
X45720Y128270D01*
G37*
G36*
X403311Y117856D02*
X422189Y117856D01*
X425550Y119248D01*
X428122Y121820D01*
X429514Y125181D01*
X429514Y128819D01*
X428122Y132180D01*
X425550Y134752D01*
X422189Y136144D01*
X403311Y136144D01*
X399950Y134752D01*
X397378Y132180D01*
X395986Y128819D01*
X395986Y125181D01*
X397378Y121820D01*
X399950Y119248D01*
X403311Y117856D01*
G37*
G36*
X332191Y117856D02*
X351069Y117856D01*
X354430Y119248D01*
X357002Y121820D01*
X358394Y125181D01*
X358394Y128819D01*
X357002Y132180D01*
X354430Y134752D01*
X351069Y136144D01*
X332191Y136144D01*
X328830Y134752D01*
X326258Y132180D01*
X324866Y128819D01*
X324866Y125181D01*
X326258Y121820D01*
X328830Y119248D01*
X332191Y117856D01*
G37*
G36*
X103591Y117856D02*
X122469Y117856D01*
X125830Y119248D01*
X128402Y121820D01*
X129794Y125181D01*
X129794Y128819D01*
X128402Y132180D01*
X125830Y134752D01*
X122469Y136144D01*
X103591Y136144D01*
X100230Y134752D01*
X97658Y132180D01*
X96266Y128819D01*
X96266Y125181D01*
X97658Y121820D01*
X100230Y119248D01*
X103591Y117856D01*
G37*
G36*
X45720Y116840D02*
X54091Y116840D01*
X57825Y118387D01*
X60683Y121245D01*
X62230Y124979D01*
X62230Y125730D01*
X45720Y125730D01*
X45720Y116840D01*
G37*
G36*
X34809Y116840D02*
X43180Y116840D01*
X43180Y125730D01*
X26670Y125730D01*
X26670Y124979D01*
X28217Y121245D01*
X31075Y118387D01*
X34809Y116840D01*
G37*
G36*
X186567Y84582D02*
X194433Y84582D01*
X195326Y85475D01*
X195326Y107057D01*
X194533Y107850D01*
X194370Y108092D01*
X194310Y108389D01*
X194310Y109931D01*
X194366Y110217D01*
X194533Y110470D01*
X195214Y111151D01*
X196060Y113194D01*
X196060Y115406D01*
X195214Y117450D01*
X193650Y119014D01*
X191606Y119860D01*
X189394Y119860D01*
X187351Y119014D01*
X185786Y117450D01*
X184940Y115406D01*
X184940Y113194D01*
X185786Y111151D01*
X186467Y110470D01*
X186630Y110229D01*
X186690Y109931D01*
X186690Y108389D01*
X186634Y108103D01*
X186467Y107850D01*
X185674Y107057D01*
X185674Y85475D01*
X186567Y84582D01*
G37*
G36*
X403311Y92456D02*
X422189Y92456D01*
X425550Y93848D01*
X428122Y96420D01*
X429514Y99781D01*
X429514Y103419D01*
X428122Y106780D01*
X425550Y109352D01*
X422189Y110744D01*
X403311Y110744D01*
X399950Y109352D01*
X397378Y106780D01*
X395986Y103419D01*
X395986Y99781D01*
X397378Y96420D01*
X399950Y93848D01*
X403311Y92456D01*
G37*
G36*
X332191Y92456D02*
X351069Y92456D01*
X354430Y93848D01*
X357002Y96420D01*
X358394Y99781D01*
X358394Y103419D01*
X357002Y106780D01*
X354430Y109352D01*
X351069Y110744D01*
X332191Y110744D01*
X328830Y109352D01*
X326258Y106780D01*
X324866Y103419D01*
X324866Y99781D01*
X326258Y96420D01*
X328830Y93848D01*
X332191Y92456D01*
G37*
G36*
X103591Y92456D02*
X122469Y92456D01*
X125830Y93848D01*
X128402Y96420D01*
X129794Y99781D01*
X129794Y103419D01*
X128402Y106780D01*
X125830Y109352D01*
X122469Y110744D01*
X103591Y110744D01*
X100230Y109352D01*
X97658Y106780D01*
X96266Y103419D01*
X96266Y99781D01*
X97658Y96420D01*
X100230Y93848D01*
X103591Y92456D01*
G37*
G36*
X35011Y92456D02*
X53889Y92456D01*
X57250Y93848D01*
X59822Y96420D01*
X61214Y99781D01*
X61214Y103419D01*
X59822Y106780D01*
X57250Y109352D01*
X53889Y110744D01*
X35011Y110744D01*
X31650Y109352D01*
X29078Y106780D01*
X27686Y103419D01*
X27686Y99781D01*
X29078Y96420D01*
X31650Y93848D01*
X35011Y92456D01*
G37*
G36*
X217170Y83566D02*
X220254Y83566D01*
X221711Y85023D01*
X221942Y85181D01*
X222238Y85246D01*
X222536Y85191D01*
X222789Y85023D01*
X224246Y83566D01*
X227330Y83566D01*
X227330Y108966D01*
X224246Y108966D01*
X222789Y107509D01*
X222558Y107351D01*
X222262Y107286D01*
X221964Y107341D01*
X221711Y107509D01*
X220254Y108966D01*
X217170Y108966D01*
X217170Y83566D01*
G37*
G36*
X229870Y83566D02*
X232954Y83566D01*
X234411Y85023D01*
X234642Y85181D01*
X234938Y85246D01*
X235236Y85191D01*
X235489Y85023D01*
X236946Y83566D01*
X240030Y83566D01*
X240030Y108966D01*
X236946Y108966D01*
X235489Y107509D01*
X235258Y107351D01*
X234962Y107286D01*
X234664Y107341D01*
X234411Y107509D01*
X232954Y108966D01*
X229870Y108966D01*
X229870Y83566D01*
G37*
G36*
X255270Y83566D02*
X258354Y83566D01*
X259811Y85023D01*
X260042Y85181D01*
X260338Y85246D01*
X260636Y85191D01*
X260889Y85023D01*
X262346Y83566D01*
X265430Y83566D01*
X265430Y108966D01*
X262346Y108966D01*
X260889Y107509D01*
X260658Y107351D01*
X260362Y107286D01*
X260064Y107341D01*
X259811Y107509D01*
X258354Y108966D01*
X255270Y108966D01*
X255270Y83566D01*
G37*
G36*
X242570Y83566D02*
X245654Y83566D01*
X247111Y85023D01*
X247342Y85181D01*
X247638Y85246D01*
X247936Y85191D01*
X248189Y85023D01*
X249646Y83566D01*
X252730Y83566D01*
X252730Y108966D01*
X249646Y108966D01*
X248189Y107509D01*
X247958Y107351D01*
X247662Y107286D01*
X247364Y107341D01*
X247111Y107509D01*
X245654Y108966D01*
X242570Y108966D01*
X242570Y83566D01*
G37*
G36*
X267970Y97536D02*
X272542Y97536D01*
X272542Y107478D01*
X271054Y108966D01*
X267970Y108966D01*
X267970Y97536D01*
G37*
G36*
X211546Y83566D02*
X214630Y83566D01*
X214630Y94996D01*
X210058Y94996D01*
X210058Y85054D01*
X211546Y83566D01*
G37*
G36*
X267970Y83566D02*
X271054Y83566D01*
X272542Y85054D01*
X272542Y94996D01*
X267970Y94996D01*
X267970Y83566D01*
G37*
G36*
X291041Y88368D02*
X297180Y88368D01*
X297180Y93632D01*
X292528Y93632D01*
X291041Y92144D01*
X291041Y88368D01*
G37*
G36*
X299720Y88368D02*
X305860Y88368D01*
X305860Y92144D01*
X304372Y93632D01*
X299720Y93632D01*
X299720Y88368D01*
G37*
G36*
X299720Y80565D02*
X304372Y80565D01*
X305860Y82052D01*
X305860Y85828D01*
X299720Y85828D01*
X299720Y80565D01*
G37*
G36*
X292528Y80565D02*
X297180Y80565D01*
X297180Y85828D01*
X291041Y85828D01*
X291041Y82052D01*
X292528Y80565D01*
G37*
G36*
X134952Y11684D02*
X141908Y11684D01*
X148626Y13484D01*
X154650Y16962D01*
X159568Y21880D01*
X163046Y27904D01*
X164846Y34622D01*
X164846Y41578D01*
X163046Y48296D01*
X159568Y54320D01*
X154650Y59238D01*
X148626Y62716D01*
X141908Y64516D01*
X134952Y64516D01*
X128234Y62716D01*
X122210Y59238D01*
X117292Y54320D01*
X113814Y48296D01*
X112014Y41578D01*
X112014Y34622D01*
X113814Y27904D01*
X117292Y21880D01*
X122210Y16962D01*
X128234Y13484D01*
X134952Y11684D01*
G37*
G36*
X312752Y11684D02*
X319708Y11684D01*
X326426Y13484D01*
X332450Y16962D01*
X337368Y21880D01*
X340846Y27904D01*
X342646Y34622D01*
X342646Y41578D01*
X340846Y48296D01*
X337368Y54320D01*
X332450Y59238D01*
X326426Y62716D01*
X319708Y64516D01*
X312752Y64516D01*
X306034Y62716D01*
X300010Y59238D01*
X295092Y54320D01*
X291614Y48296D01*
X289814Y41578D01*
X289814Y34622D01*
X291614Y27904D01*
X295092Y21880D01*
X300010Y16962D01*
X306034Y13484D01*
X312752Y11684D01*
G37*
%LPD*%
D10*
X190500Y528066D03*
X190500Y589534D03*
X203200Y528066D03*
X215900Y528066D03*
X203200Y589534D03*
X215900Y589534D03*
X228600Y528066D03*
X228600Y589534D03*
X241300Y528066D03*
X254000Y528066D03*
X241300Y589534D03*
X254000Y589534D03*
X266700Y528066D03*
X266700Y589534D03*
X190500Y420116D03*
X190500Y481584D03*
X203200Y420116D03*
X215900Y420116D03*
X203200Y481584D03*
X215900Y481584D03*
X228600Y420116D03*
X228600Y481584D03*
X241300Y420116D03*
X254000Y420116D03*
X241300Y481584D03*
X254000Y481584D03*
X266700Y420116D03*
X266700Y481584D03*
X190500Y312166D03*
X190500Y373634D03*
X203200Y312166D03*
X215900Y312166D03*
X203200Y373634D03*
X215900Y373634D03*
X228600Y312166D03*
X228600Y373634D03*
X241300Y312166D03*
X254000Y312166D03*
X241300Y373634D03*
X254000Y373634D03*
X266700Y312166D03*
X266700Y373634D03*
X190500Y204216D03*
X190500Y265684D03*
X203200Y204216D03*
X215900Y204216D03*
X203200Y265684D03*
X215900Y265684D03*
X228600Y204216D03*
X228600Y265684D03*
X241300Y204216D03*
X254000Y204216D03*
X241300Y265684D03*
X254000Y265684D03*
X266700Y204216D03*
X266700Y265684D03*
X190500Y96266D03*
X190500Y157734D03*
X203200Y96266D03*
X215900Y96266D03*
X203200Y157734D03*
X215900Y157734D03*
X228600Y96266D03*
X228600Y157734D03*
X241300Y96266D03*
X254000Y96266D03*
X241300Y157734D03*
X254000Y157734D03*
X266700Y96266D03*
X266700Y157734D03*
D11*
X120650Y584200D02*
X105410Y584200D01*
X105410Y558800D02*
X120650Y558800D01*
X120650Y533400D02*
X105410Y533400D01*
X105410Y508000D02*
X120650Y508000D01*
X120650Y482600D02*
X105410Y482600D01*
X105410Y457200D02*
X120650Y457200D01*
X120650Y431800D02*
X105410Y431800D01*
X105410Y406400D02*
X120650Y406400D01*
X120650Y381000D02*
X105410Y381000D01*
X105410Y355600D02*
X120650Y355600D01*
X120650Y330200D02*
X105410Y330200D01*
X105410Y304800D02*
X120650Y304800D01*
X120650Y279400D02*
X105410Y279400D01*
X105410Y254000D02*
X120650Y254000D01*
X120650Y228600D02*
X105410Y228600D01*
X105410Y203200D02*
X120650Y203200D01*
X120650Y177800D02*
X105410Y177800D01*
X105410Y152400D02*
X120650Y152400D01*
X120650Y127000D02*
X105410Y127000D01*
X105410Y101600D02*
X120650Y101600D01*
X334010Y584200D02*
X349250Y584200D01*
X349250Y558800D02*
X334010Y558800D01*
X334010Y533400D02*
X349250Y533400D01*
X349250Y508000D02*
X334010Y508000D01*
X334010Y482600D02*
X349250Y482600D01*
X349250Y457200D02*
X334010Y457200D01*
X334010Y431800D02*
X349250Y431800D01*
X349250Y406400D02*
X334010Y406400D01*
X334010Y381000D02*
X349250Y381000D01*
X349250Y355600D02*
X334010Y355600D01*
X334010Y330200D02*
X349250Y330200D01*
X349250Y304800D02*
X334010Y304800D01*
X334010Y279400D02*
X349250Y279400D01*
X349250Y254000D02*
X334010Y254000D01*
X334010Y228600D02*
X349250Y228600D01*
X349250Y203200D02*
X334010Y203200D01*
X334010Y177800D02*
X349250Y177800D01*
X349250Y152400D02*
X334010Y152400D01*
X334010Y127000D02*
X349250Y127000D01*
X349250Y101600D02*
X334010Y101600D01*
X52070Y482600D02*
X36830Y482600D01*
X36830Y508000D02*
X52070Y508000D01*
X52070Y533400D02*
X36830Y533400D01*
X36830Y558800D02*
X52070Y558800D01*
X52070Y584200D02*
X36830Y584200D01*
X406200Y584200D02*
X421440Y584200D01*
X421440Y558800D02*
X406200Y558800D01*
X406200Y533400D02*
X421440Y533400D01*
X421440Y508000D02*
X406200Y508000D01*
X406200Y482600D02*
X421440Y482600D01*
X52070Y292100D02*
X36830Y292100D01*
X36830Y317500D02*
X52070Y317500D01*
X52070Y342900D02*
X36830Y342900D01*
X36830Y368300D02*
X52070Y368300D01*
X52070Y393700D02*
X36830Y393700D01*
X405130Y393700D02*
X420370Y393700D01*
X420370Y368300D02*
X405130Y368300D01*
X405130Y342900D02*
X420370Y342900D01*
X420370Y317500D02*
X405130Y317500D01*
X405130Y292100D02*
X420370Y292100D01*
X52070Y101600D02*
X36830Y101600D01*
X36830Y127000D02*
X52070Y127000D01*
X52070Y152400D02*
X36830Y152400D01*
X36830Y177800D02*
X52070Y177800D01*
X52070Y203200D02*
X36830Y203200D01*
X405130Y203200D02*
X420370Y203200D01*
X420370Y177800D02*
X405130Y177800D01*
X405130Y152400D02*
X420370Y152400D01*
X420370Y127000D02*
X405130Y127000D01*
X405130Y101600D02*
X420370Y101600D01*
D12*
X158750Y518898D03*
X158750Y535202D03*
X298450Y427252D03*
X298450Y410948D03*
X298450Y302998D03*
X298450Y319302D03*
X298450Y382802D03*
X298450Y366498D03*
X158750Y211352D03*
X158750Y195048D03*
X158750Y274852D03*
X158750Y258548D03*
X298450Y195048D03*
X298450Y211352D03*
X298450Y274852D03*
X298450Y258548D03*
X298450Y166902D03*
X298450Y150598D03*
X298450Y87098D03*
X298450Y103402D03*
X158750Y598702D03*
X158750Y582398D03*
X298450Y535202D03*
X298450Y518898D03*
X298450Y598702D03*
X298450Y582398D03*
X158750Y490752D03*
X158750Y474448D03*
X298450Y474448D03*
X298450Y490752D03*
X158750Y427252D03*
X158750Y410948D03*
X158750Y366498D03*
X158750Y382802D03*
X158750Y302998D03*
X158750Y319302D03*
D13*
X190500Y571500D02*
X190500Y589534D01*
D14*
X190500Y571500D03*
D13*
X190500Y157734D02*
X190500Y139700D01*
D14*
X190500Y139700D03*
X190980Y355600D03*
D13*
X190500Y356080D02*
X190500Y373634D01*
X190500Y356080D02*
X190980Y355600D01*
D14*
X177800Y254480D03*
D13*
X179296Y254480D02*
X190500Y265684D01*
X179296Y254480D02*
X177800Y254480D01*
X190500Y464510D02*
X190500Y481584D01*
D14*
X190394Y464404D03*
D13*
X190500Y464510D01*
X203200Y528066D02*
X215900Y528066D01*
X215900Y542311D01*
D14*
X203680Y508000D03*
D13*
X203200Y508480D01*
X203200Y528066D01*
X215900Y542311D02*
X221036Y547447D01*
X221036Y560669D01*
X225037Y564670D01*
X231429Y564670D01*
X241300Y574541D01*
X241300Y589534D01*
X203200Y265684D02*
X203680Y265204D01*
X203680Y241780D01*
X196850Y234950D01*
X203200Y546100D02*
X203200Y589534D01*
X203200Y546100D02*
X196850Y539750D01*
X196850Y500634D01*
X203200Y494284D02*
X203200Y481584D01*
X203200Y494284D02*
X196850Y500634D01*
X203200Y386334D02*
X203200Y373634D01*
X203200Y336550D01*
X203200Y275703D02*
X203200Y265684D01*
X203200Y275703D02*
X197104Y281799D01*
X183670Y181321D02*
X187671Y177320D01*
X188327Y177320D01*
X203200Y162447D01*
X203200Y157734D01*
X183670Y221770D02*
X196850Y234950D01*
X183670Y221770D02*
X183670Y181321D01*
D14*
X196850Y234470D03*
D13*
X196850Y234950D01*
X197330Y330680D02*
X203200Y336550D01*
X197330Y330680D02*
X197330Y327371D01*
X197104Y327145D01*
X197104Y281799D01*
X197330Y435321D02*
X197330Y461681D01*
X197330Y435321D02*
X197104Y435095D01*
X197104Y392430D01*
X203200Y386334D01*
X203200Y467551D02*
X203200Y481584D01*
X203200Y467551D02*
X197330Y461681D01*
X215900Y167753D02*
X215900Y157734D01*
X215900Y167753D02*
X204526Y179126D01*
X197104Y222504D02*
X215900Y241300D01*
X215900Y265684D01*
X215900Y294753D01*
X209804Y300849D01*
X215900Y373634D02*
X215900Y381000D01*
X215900Y463550D02*
X215900Y481584D01*
X215900Y571500D02*
X215900Y589534D01*
D14*
X210030Y558800D03*
D13*
X215900Y571500D02*
X215900Y571499D01*
X209804Y328786D02*
X209804Y300849D01*
X209804Y328786D02*
X215900Y334882D01*
X215900Y373634D01*
X222250Y539750D02*
X227866Y545366D01*
D14*
X204526Y179126D03*
D13*
X197330Y186323D01*
X197330Y186979D01*
X197104Y187205D01*
X197104Y222504D01*
X114300Y203200D02*
X113030Y203200D01*
X114300Y203200D02*
X140180Y177320D01*
D14*
X140180Y177320D03*
D13*
X215900Y381000D02*
X221996Y387096D01*
X221996Y431546D02*
X234950Y444500D01*
X221996Y431546D02*
X221996Y387096D01*
X204160Y451810D02*
X215900Y463550D01*
D14*
X204160Y444980D03*
D13*
X204160Y451810D01*
D14*
X234950Y444980D03*
D13*
X234950Y444500D01*
X210030Y558800D02*
X210030Y565630D01*
X215900Y571500D01*
X222250Y539750D02*
X222250Y511309D01*
X215900Y504959D02*
X215900Y481584D01*
X215900Y504959D02*
X222250Y511309D01*
D14*
X227866Y557840D03*
D13*
X227866Y545366D01*
X241300Y312166D02*
X241300Y298450D01*
X241300Y312166D02*
X241300Y323850D01*
X241300Y406400D02*
X241300Y420116D01*
X241300Y514350D02*
X241300Y528066D01*
X241300Y432634D02*
X241300Y420116D01*
X241300Y217569D02*
X241300Y204216D01*
X241300Y217569D02*
X247396Y223665D01*
X247396Y282215D01*
X246690Y282921D01*
X246690Y293060D02*
X241300Y298450D01*
X246690Y293060D02*
X246690Y282921D01*
X241300Y204216D02*
X241300Y190768D01*
D14*
X234950Y184418D03*
D13*
X241300Y190768D01*
X241300Y323850D02*
X259870Y342420D01*
X259870Y358429D02*
X260096Y358655D01*
X260096Y387604D01*
X241300Y406400D01*
X259870Y358429D02*
X259870Y342420D01*
X241300Y432634D02*
X260096Y451430D01*
X260096Y495554D02*
X241300Y514350D01*
X260096Y495554D02*
X260096Y451430D01*
X254000Y438150D02*
X254000Y420116D01*
X254000Y520700D02*
X254000Y528066D01*
X254000Y420116D02*
X254000Y412750D01*
X254000Y323229D02*
X254000Y312166D01*
X254000Y215900D02*
X254000Y204216D01*
X254000Y215900D02*
X260350Y222250D01*
X260350Y292100D01*
X254000Y298450D01*
X254000Y312166D01*
D14*
X254000Y177800D03*
D13*
X254000Y204216D01*
X273530Y393220D02*
X254000Y412750D01*
X273530Y393220D02*
X273530Y342759D01*
X254000Y323229D01*
X254000Y438150D02*
X273756Y457906D01*
X273756Y500944D01*
X254000Y520700D01*
X241300Y501170D02*
X241300Y481584D01*
D14*
X241300Y501170D03*
D13*
X241300Y501650D01*
X203200Y433535D02*
X203200Y420116D01*
X203200Y433535D02*
X228120Y458455D01*
X228120Y461469D01*
X241300Y474649D02*
X241300Y481584D01*
X241300Y474649D02*
X228120Y461469D01*
X241300Y501650D02*
X235430Y507520D01*
X235430Y510829D01*
X235204Y511055D01*
X235204Y561261D01*
X254000Y580057D01*
X254000Y589534D01*
X215900Y438150D02*
X215900Y420116D01*
X215900Y438150D02*
X234950Y457200D01*
X254000Y476250D01*
X254000Y481584D01*
X215900Y420116D02*
X215900Y394660D01*
X215900Y391047D01*
X209804Y384951D01*
X203200Y329366D02*
X203200Y312166D01*
X209804Y335970D02*
X209804Y384951D01*
X209804Y335970D02*
X203200Y329366D01*
D14*
X215166Y393220D03*
D13*
X215166Y393926D01*
X215900Y394660D01*
D14*
X234950Y458640D03*
D13*
X234950Y457200D01*
X241300Y373634D02*
X254000Y373634D01*
X215900Y323850D02*
X215900Y312166D01*
X215900Y323850D02*
X241300Y349250D01*
X241300Y373634D01*
D14*
X241300Y393700D03*
D13*
X241300Y373634D01*
X215900Y204216D02*
X203200Y204216D01*
X215900Y204216D02*
X215900Y222250D01*
X241300Y247650D01*
X241300Y265684D01*
D14*
X171450Y355600D03*
D13*
X177800Y349250D01*
X177800Y298450D01*
X184150Y292100D01*
D14*
X184150Y292100D03*
X234950Y292100D03*
D13*
X241300Y285750D01*
X241300Y265684D01*
X177800Y279400D02*
X171450Y285750D01*
D14*
X177800Y279400D03*
D13*
X241300Y174759D02*
X241300Y157734D01*
X254000Y223084D02*
X254000Y265684D01*
X254000Y223084D02*
X247904Y216988D01*
D14*
X253520Y285750D03*
D13*
X254000Y285270D01*
X254000Y265684D01*
X247904Y216988D02*
X247904Y181363D01*
X241300Y174759D01*
X203200Y104641D02*
X203200Y96266D01*
X203200Y104641D02*
X241300Y142741D01*
X241300Y157734D01*
D14*
X165100Y348770D03*
D13*
X171450Y342420D01*
X171450Y285750D01*
D14*
X158750Y546100D03*
D13*
X158750Y535202D01*
X158750Y546100D02*
X172466Y546100D01*
X190500Y528066D01*
D14*
X158750Y571500D03*
D13*
X158750Y582398D01*
D14*
X228600Y571500D03*
D13*
X228600Y589534D01*
X228600Y528066D02*
X228600Y508000D01*
D14*
X228600Y508000D03*
D13*
X293902Y514350D02*
X298450Y518898D01*
X293902Y514350D02*
X279400Y514350D01*
D14*
X279400Y514350D03*
X95250Y520700D03*
D13*
X88900Y527050D01*
X88900Y577850D01*
D14*
X88900Y577850D03*
D13*
X266700Y571500D02*
X266700Y589534D01*
D14*
X266700Y571500D03*
X298450Y571500D03*
D13*
X298450Y582398D01*
D14*
X387350Y571500D03*
D13*
X412965Y533185D02*
X413820Y533400D01*
X389436Y569414D02*
X387350Y571500D01*
X389436Y569414D02*
X389436Y556714D01*
X412965Y533185D01*
X158750Y474448D02*
X158750Y444500D01*
D14*
X158750Y444500D03*
X190500Y438150D03*
D13*
X190500Y420116D01*
D14*
X387350Y444500D03*
D13*
X389436Y446586D02*
X389436Y483616D01*
X389436Y446586D02*
X387350Y444500D01*
X389436Y483616D02*
X413820Y508000D01*
X298450Y501650D02*
X298450Y490752D01*
D14*
X298450Y501650D03*
X228600Y500436D03*
D13*
X228600Y481584D01*
D14*
X228826Y400050D03*
D13*
X228600Y400276D02*
X228600Y420116D01*
X228600Y400276D02*
X228826Y400050D01*
D14*
X76200Y368300D03*
D13*
X76200Y419100D01*
D14*
X76200Y419100D03*
X158750Y400050D03*
D13*
X158750Y410948D01*
X177800Y400050D02*
X160552Y382802D01*
X158750Y382802D01*
D14*
X138463Y386113D03*
D13*
X146050Y382802D02*
X158750Y382802D01*
X146050Y382802D02*
X142739Y386113D01*
X138463Y386113D01*
X177800Y400050D02*
X177800Y444020D01*
X184150Y450370D01*
D14*
X266926Y463550D03*
D13*
X266700Y463776D01*
X266700Y481584D01*
D14*
X184150Y451330D03*
D13*
X184150Y450370D01*
X190500Y330200D02*
X190500Y312166D01*
D14*
X190500Y330200D03*
X158750Y336550D03*
D13*
X158750Y319302D01*
D14*
X88900Y342900D03*
D13*
X88900Y393700D01*
D14*
X88900Y393700D03*
D13*
X228600Y373634D02*
X228600Y355600D01*
D14*
X228600Y355600D03*
X298450Y393700D03*
D13*
X298450Y410948D01*
X228600Y323850D02*
X228600Y312166D01*
X228600Y323850D02*
X241300Y336550D01*
D14*
X241300Y336550D03*
X298450Y336550D03*
D13*
X298450Y319302D01*
X266700Y349250D02*
X266700Y373634D01*
D14*
X266700Y349250D03*
X298450Y349250D03*
D13*
X298450Y366498D01*
D14*
X381000Y342900D03*
D13*
X381000Y311150D01*
X400050Y292100D01*
X412750Y292100D01*
X190500Y204216D02*
X190500Y184150D01*
D14*
X190500Y184150D03*
X88900Y190500D03*
X76200Y152400D03*
D13*
X158750Y184150D02*
X158750Y195048D01*
D14*
X158750Y184150D03*
D13*
X88646Y164846D02*
X76200Y152400D01*
X88646Y190246D02*
X88900Y190500D01*
X88646Y190246D02*
X88646Y164846D01*
X228600Y247650D02*
X228600Y265684D01*
D14*
X228600Y247650D03*
X158750Y241300D03*
D13*
X158750Y258548D01*
D14*
X82550Y241300D03*
D13*
X76200Y234950D01*
X76200Y184150D01*
D14*
X76200Y184150D03*
D13*
X228600Y204216D02*
X228600Y222250D01*
D14*
X228600Y222250D03*
X292100Y222250D03*
D13*
X298450Y215900D01*
X298450Y211352D01*
X266700Y254000D02*
X266700Y265684D01*
X266700Y254000D02*
X279400Y241300D01*
D14*
X279400Y241300D03*
D13*
X298450Y241300D02*
X298450Y258548D01*
D14*
X298450Y241300D03*
X381000Y241300D03*
D13*
X387350Y234950D01*
X387350Y158750D01*
X393700Y152400D01*
X412750Y152400D01*
X190500Y114300D02*
X190500Y96266D01*
D14*
X190500Y114300D03*
D13*
X298450Y133350D02*
X298450Y150598D01*
D14*
X317500Y139700D03*
D13*
X304800Y139700D01*
X298450Y133350D01*
X292100Y127000D01*
D14*
X292100Y124234D03*
D13*
X292100Y127000D01*
D14*
X228600Y139700D03*
D13*
X228600Y157734D01*
D14*
X279400Y133350D03*
D13*
X279400Y120650D01*
X296648Y103402D01*
X298450Y103402D01*
M02*
