G04 EAGLE Gerber RS-274X export*
G75*
%MOMM*%
%FSLAX34Y34*%
%LPD*%
%INSoldermask Top*%
%IPPOS*%
%AMOC8*
5,1,8,0,0,1.08239X$1,22.5*%
G01*
G04 Define Apertures*
%ADD10C,3.378200*%
%ADD11R,0.787400X2.159000*%
%ADD12C,1.651000*%
%ADD13R,1.100900X0.925700*%
%ADD14C,0.731000*%
D10*
X138430Y38100D03*
X316230Y38100D03*
X138430Y647700D03*
X316230Y647700D03*
D11*
X190500Y528066D03*
X190500Y589534D03*
X203200Y528066D03*
X215900Y528066D03*
X203200Y589534D03*
X215900Y589534D03*
X228600Y528066D03*
X228600Y589534D03*
X241300Y528066D03*
X254000Y528066D03*
X241300Y589534D03*
X254000Y589534D03*
X266700Y528066D03*
X266700Y589534D03*
X190500Y420116D03*
X190500Y481584D03*
X203200Y420116D03*
X215900Y420116D03*
X203200Y481584D03*
X215900Y481584D03*
X228600Y420116D03*
X228600Y481584D03*
X241300Y420116D03*
X254000Y420116D03*
X241300Y481584D03*
X254000Y481584D03*
X266700Y420116D03*
X266700Y481584D03*
X190500Y312166D03*
X190500Y373634D03*
X203200Y312166D03*
X215900Y312166D03*
X203200Y373634D03*
X215900Y373634D03*
X228600Y312166D03*
X228600Y373634D03*
X241300Y312166D03*
X254000Y312166D03*
X241300Y373634D03*
X254000Y373634D03*
X266700Y312166D03*
X266700Y373634D03*
X190500Y204216D03*
X190500Y265684D03*
X203200Y204216D03*
X215900Y204216D03*
X203200Y265684D03*
X215900Y265684D03*
X228600Y204216D03*
X228600Y265684D03*
X241300Y204216D03*
X254000Y204216D03*
X241300Y265684D03*
X254000Y265684D03*
X266700Y204216D03*
X266700Y265684D03*
X190500Y96266D03*
X190500Y157734D03*
X203200Y96266D03*
X215900Y96266D03*
X203200Y157734D03*
X215900Y157734D03*
X228600Y96266D03*
X228600Y157734D03*
X241300Y96266D03*
X254000Y96266D03*
X241300Y157734D03*
X254000Y157734D03*
X266700Y96266D03*
X266700Y157734D03*
D12*
X120650Y584200D02*
X105410Y584200D01*
X105410Y558800D02*
X120650Y558800D01*
X120650Y533400D02*
X105410Y533400D01*
X105410Y508000D02*
X120650Y508000D01*
X120650Y482600D02*
X105410Y482600D01*
X105410Y457200D02*
X120650Y457200D01*
X120650Y431800D02*
X105410Y431800D01*
X105410Y406400D02*
X120650Y406400D01*
X120650Y381000D02*
X105410Y381000D01*
X105410Y355600D02*
X120650Y355600D01*
X120650Y330200D02*
X105410Y330200D01*
X105410Y304800D02*
X120650Y304800D01*
X120650Y279400D02*
X105410Y279400D01*
X105410Y254000D02*
X120650Y254000D01*
X120650Y228600D02*
X105410Y228600D01*
X105410Y203200D02*
X120650Y203200D01*
X120650Y177800D02*
X105410Y177800D01*
X105410Y152400D02*
X120650Y152400D01*
X120650Y127000D02*
X105410Y127000D01*
X105410Y101600D02*
X120650Y101600D01*
X334010Y584200D02*
X349250Y584200D01*
X349250Y558800D02*
X334010Y558800D01*
X334010Y533400D02*
X349250Y533400D01*
X349250Y508000D02*
X334010Y508000D01*
X334010Y482600D02*
X349250Y482600D01*
X349250Y457200D02*
X334010Y457200D01*
X334010Y431800D02*
X349250Y431800D01*
X349250Y406400D02*
X334010Y406400D01*
X334010Y381000D02*
X349250Y381000D01*
X349250Y355600D02*
X334010Y355600D01*
X334010Y330200D02*
X349250Y330200D01*
X349250Y304800D02*
X334010Y304800D01*
X334010Y279400D02*
X349250Y279400D01*
X349250Y254000D02*
X334010Y254000D01*
X334010Y228600D02*
X349250Y228600D01*
X349250Y203200D02*
X334010Y203200D01*
X334010Y177800D02*
X349250Y177800D01*
X349250Y152400D02*
X334010Y152400D01*
X334010Y127000D02*
X349250Y127000D01*
X349250Y101600D02*
X334010Y101600D01*
X52070Y482600D02*
X36830Y482600D01*
X36830Y508000D02*
X52070Y508000D01*
X52070Y533400D02*
X36830Y533400D01*
X36830Y558800D02*
X52070Y558800D01*
X52070Y584200D02*
X36830Y584200D01*
X406200Y584200D02*
X421440Y584200D01*
X421440Y558800D02*
X406200Y558800D01*
X406200Y533400D02*
X421440Y533400D01*
X421440Y508000D02*
X406200Y508000D01*
X406200Y482600D02*
X421440Y482600D01*
X52070Y292100D02*
X36830Y292100D01*
X36830Y317500D02*
X52070Y317500D01*
X52070Y342900D02*
X36830Y342900D01*
X36830Y368300D02*
X52070Y368300D01*
X52070Y393700D02*
X36830Y393700D01*
X405130Y393700D02*
X420370Y393700D01*
X420370Y368300D02*
X405130Y368300D01*
X405130Y342900D02*
X420370Y342900D01*
X420370Y317500D02*
X405130Y317500D01*
X405130Y292100D02*
X420370Y292100D01*
X52070Y101600D02*
X36830Y101600D01*
X36830Y127000D02*
X52070Y127000D01*
X52070Y152400D02*
X36830Y152400D01*
X36830Y177800D02*
X52070Y177800D01*
X52070Y203200D02*
X36830Y203200D01*
X405130Y203200D02*
X420370Y203200D01*
X420370Y177800D02*
X405130Y177800D01*
X405130Y152400D02*
X420370Y152400D01*
X420370Y127000D02*
X405130Y127000D01*
X405130Y101600D02*
X420370Y101600D01*
D13*
X158750Y518898D03*
X158750Y535202D03*
X298450Y427252D03*
X298450Y410948D03*
X298450Y302998D03*
X298450Y319302D03*
X298450Y382802D03*
X298450Y366498D03*
X158750Y211352D03*
X158750Y195048D03*
X158750Y274852D03*
X158750Y258548D03*
X298450Y195048D03*
X298450Y211352D03*
X298450Y274852D03*
X298450Y258548D03*
X298450Y166902D03*
X298450Y150598D03*
X298450Y87098D03*
X298450Y103402D03*
X158750Y598702D03*
X158750Y582398D03*
X298450Y535202D03*
X298450Y518898D03*
X298450Y598702D03*
X298450Y582398D03*
X158750Y490752D03*
X158750Y474448D03*
X298450Y474448D03*
X298450Y490752D03*
X158750Y427252D03*
X158750Y410948D03*
X158750Y366498D03*
X158750Y382802D03*
X158750Y302998D03*
X158750Y319302D03*
D14*
X190500Y571500D03*
X190500Y139700D03*
X190980Y355600D03*
X177800Y254480D03*
X190394Y464404D03*
X203680Y508000D03*
X196850Y234470D03*
X210030Y558800D03*
X204526Y179126D03*
X140180Y177320D03*
X204160Y444980D03*
X234950Y444980D03*
X227866Y557840D03*
X234950Y184418D03*
X254000Y177800D03*
X241300Y501170D03*
X215166Y393220D03*
X234950Y458640D03*
X241300Y393700D03*
X171450Y355600D03*
X184150Y292100D03*
X234950Y292100D03*
X177800Y279400D03*
X253520Y285750D03*
X165100Y348770D03*
X158750Y546100D03*
X158750Y571500D03*
X228600Y571500D03*
X228600Y508000D03*
X279400Y514350D03*
X95250Y520700D03*
X88900Y577850D03*
X266700Y571500D03*
X298450Y571500D03*
X387350Y571500D03*
X158750Y444500D03*
X190500Y438150D03*
X387350Y444500D03*
X298450Y501650D03*
X228600Y500436D03*
X228826Y400050D03*
X76200Y368300D03*
X76200Y419100D03*
X158750Y400050D03*
X138463Y386113D03*
X266926Y463550D03*
X184150Y451330D03*
X190500Y330200D03*
X158750Y336550D03*
X88900Y342900D03*
X88900Y393700D03*
X228600Y355600D03*
X298450Y393700D03*
X241300Y336550D03*
X298450Y336550D03*
X266700Y349250D03*
X298450Y349250D03*
X381000Y342900D03*
X190500Y184150D03*
X88900Y190500D03*
X76200Y152400D03*
X158750Y184150D03*
X228600Y247650D03*
X158750Y241300D03*
X82550Y241300D03*
X76200Y184150D03*
X228600Y222250D03*
X292100Y222250D03*
X279400Y241300D03*
X298450Y241300D03*
X381000Y241300D03*
X190500Y114300D03*
X317500Y139700D03*
X292100Y124234D03*
X228600Y139700D03*
X279400Y133350D03*
M02*
