G04 EAGLE Gerber RS-274X export*
G75*
%MOMM*%
%FSLAX34Y34*%
%LPD*%
%INSolderpaste Top*%
%IPPOS*%
%AMOC8*
5,1,8,0,0,1.08239X$1,22.5*%
G01*
G04 Define Apertures*
%ADD10R,0.660400X2.032000*%
%ADD11R,0.973900X0.798700*%
D10*
X190500Y528066D03*
X190500Y589534D03*
X203200Y528066D03*
X215900Y528066D03*
X203200Y589534D03*
X215900Y589534D03*
X228600Y528066D03*
X228600Y589534D03*
X241300Y528066D03*
X254000Y528066D03*
X241300Y589534D03*
X254000Y589534D03*
X266700Y528066D03*
X266700Y589534D03*
X190500Y420116D03*
X190500Y481584D03*
X203200Y420116D03*
X215900Y420116D03*
X203200Y481584D03*
X215900Y481584D03*
X228600Y420116D03*
X228600Y481584D03*
X241300Y420116D03*
X254000Y420116D03*
X241300Y481584D03*
X254000Y481584D03*
X266700Y420116D03*
X266700Y481584D03*
X190500Y312166D03*
X190500Y373634D03*
X203200Y312166D03*
X215900Y312166D03*
X203200Y373634D03*
X215900Y373634D03*
X228600Y312166D03*
X228600Y373634D03*
X241300Y312166D03*
X254000Y312166D03*
X241300Y373634D03*
X254000Y373634D03*
X266700Y312166D03*
X266700Y373634D03*
X190500Y204216D03*
X190500Y265684D03*
X203200Y204216D03*
X215900Y204216D03*
X203200Y265684D03*
X215900Y265684D03*
X228600Y204216D03*
X228600Y265684D03*
X241300Y204216D03*
X254000Y204216D03*
X241300Y265684D03*
X254000Y265684D03*
X266700Y204216D03*
X266700Y265684D03*
X190500Y96266D03*
X190500Y157734D03*
X203200Y96266D03*
X215900Y96266D03*
X203200Y157734D03*
X215900Y157734D03*
X228600Y96266D03*
X228600Y157734D03*
X241300Y96266D03*
X254000Y96266D03*
X241300Y157734D03*
X254000Y157734D03*
X266700Y96266D03*
X266700Y157734D03*
D11*
X158750Y518898D03*
X158750Y535202D03*
X298450Y427252D03*
X298450Y410948D03*
X298450Y302998D03*
X298450Y319302D03*
X298450Y382802D03*
X298450Y366498D03*
X158750Y211352D03*
X158750Y195048D03*
X158750Y274852D03*
X158750Y258548D03*
X298450Y195048D03*
X298450Y211352D03*
X298450Y274852D03*
X298450Y258548D03*
X298450Y166902D03*
X298450Y150598D03*
X298450Y87098D03*
X298450Y103402D03*
X158750Y598702D03*
X158750Y582398D03*
X298450Y535202D03*
X298450Y518898D03*
X298450Y598702D03*
X298450Y582398D03*
X158750Y490752D03*
X158750Y474448D03*
X298450Y474448D03*
X298450Y490752D03*
X158750Y427252D03*
X158750Y410948D03*
X158750Y366498D03*
X158750Y382802D03*
X158750Y302998D03*
X158750Y319302D03*
M02*
