M48
;GenerationSoftware,Autodesk,EAGLE,9.7.0*%
;CreationDate,2025-06-04T17:14:54Z*%
FMAT,2
ICI,OFF
METRIC,TZ,000.000
T3C0.350
T2C1.016
T1C3.251
%
G90
M71
T1
X13843Y64770
X31623Y64770
X13843Y3810
X31623Y3810
T2
X4445Y31750
X11303Y25400
X11303Y58420
X11303Y55880
X11303Y53340
X11303Y50800
X11303Y48260
X11303Y45720
X11303Y43180
X11303Y40640
X11303Y38100
X11303Y35560
X11303Y33020
X11303Y30480
X11303Y27940
X11303Y22860
X11303Y20320
X11303Y17780
X11303Y15240
X11303Y12700
X11303Y10160
X34163Y58420
X34163Y55880
X34163Y53340
X34163Y50800
X34163Y48260
X34163Y45720
X34163Y43180
X34163Y40640
X34163Y38100
X34163Y35560
X34163Y33020
X34163Y30480
X34163Y27940
X34163Y25400
X34163Y22860
X34163Y20320
X34163Y17780
X34163Y15240
X34163Y12700
X34163Y10160
X4445Y48260
X4445Y50800
X4445Y53340
X4445Y55880
X4445Y58420
X41382Y58420
X41382Y55880
X41382Y53340
X41382Y50800
X41382Y48260
X4445Y29210
X4445Y34290
X4445Y36830
X4445Y39370
X41275Y39370
X41275Y36830
X41275Y34290
X41275Y31750
X41275Y29210
X4445Y10160
X4445Y12700
X4445Y15240
X4445Y17780
X4445Y20320
X41275Y20320
X41275Y17780
X41275Y15240
X41275Y12700
X41275Y10160
T3
X22860Y13970
X24130Y39370
X19050Y57150
X19050Y13970
X19098Y35560
X17780Y25448
X19039Y46440
X20368Y50800
X19685Y23447
X21003Y55880
X20453Y17913
X14018Y17732
X20416Y44498
X23495Y44498
X22787Y55784
X23495Y18442
X25400Y17780
X24130Y50117
X21517Y39322
X27940Y13335
X23495Y45864
X17145Y35560
X18415Y29210
X23495Y29210
X17780Y27940
X25352Y28575
X16510Y34877
X15875Y54610
X15875Y57150
X22860Y57150
X22860Y50800
X27940Y51435
X9525Y52070
X8890Y57785
X26670Y57150
X29845Y57150
X38735Y57150
X15875Y44450
X19050Y43815
X38735Y44450
X29845Y50165
X22860Y50044
X22883Y40005
X7620Y36830
X7620Y41910
X15875Y40005
X13846Y38611
X26693Y46355
X18415Y45133
X19050Y33020
X15875Y33655
X8890Y34290
X8890Y39370
X22860Y35560
X29845Y39370
X24130Y33655
X29845Y33655
X38100Y34290
X26670Y34925
X29845Y34925
X19050Y18415
X8890Y19050
X7620Y15240
X15875Y18415
X22860Y24765
X15875Y24130
X8255Y24130
X7620Y18415
X22860Y22225
X29210Y22225
X27940Y24130
X29845Y24130
X38100Y24130
X19050Y11430
X31750Y13970
X29210Y12423
M30