M48
;GenerationSoftware,Autodesk,EAGLE,9.7.0*%
;CreationDate,2025-06-04T17:52:19Z*%
FMAT,2
ICI,OFF
METRIC,TZ,000.000
T5C0.350
T4C0.850
T3C1.016
T2C1.600
T1C3.000
%
G90
M71
T1
X5080Y4445
X61595Y4445
X5080Y33655
X61595Y33655
T2
X4445Y24130
X4445Y13970
X14605Y13970
X14605Y24130
T3
X20320Y6350
X34290Y6350
X36830Y6350
X22860Y6350
X50800Y6350
X48260Y6350
X22860Y31750
X20320Y31750
X36830Y31750
X34290Y31750
X50800Y31750
X48260Y31750
T4
X55165Y26670
X52665Y26670
X50165Y26670
X22305Y11430
X36195Y26670
X36275Y11430
X38775Y11430
X41275Y11430
X50245Y11430
X52745Y11430
X55245Y11430
X41195Y26670
X38695Y26670
X60960Y21510
X60960Y19010
X60960Y16510
X24805Y11430
X27305Y11430
X27225Y26670
X24725Y26670
X22225Y26670
T5
X22860Y3175
X22860Y34979
X36830Y3175
X36830Y34925
X50800Y3175
X50800Y34925
M30