G04 EAGLE Gerber RS-274X export*
G75*
%MOMM*%
%FSLAX34Y34*%
%LPD*%
%INBottom Copper*%
%IPPOS*%
%AMOC8*
5,1,8,0,0,1.08239X$1,22.5*%
G01*
G04 Define Apertures*
%ADD10C,1.524000*%
%ADD11C,1.500000*%
%ADD12C,0.604000*%
%ADD13C,0.254000*%
G36*
X356019Y10220D02*
X355721Y10160D01*
X44329Y10160D01*
X44065Y10207D01*
X43807Y10366D01*
X43632Y10614D01*
X43567Y10910D01*
X43622Y11208D01*
X43790Y11461D01*
X44780Y12451D01*
X48260Y20853D01*
X48260Y29947D01*
X44780Y38349D01*
X38349Y44780D01*
X29947Y48260D01*
X20853Y48260D01*
X12451Y44780D01*
X11461Y43790D01*
X11241Y43637D01*
X10946Y43567D01*
X10647Y43618D01*
X10392Y43781D01*
X10220Y44031D01*
X10160Y44329D01*
X10160Y58029D01*
X10207Y58292D01*
X10366Y58550D01*
X10614Y58725D01*
X10910Y58790D01*
X11208Y58735D01*
X11461Y58567D01*
X12788Y57240D01*
X16105Y55866D01*
X34695Y55866D01*
X38012Y57240D01*
X40550Y59778D01*
X41924Y63095D01*
X41924Y66685D01*
X41177Y68489D01*
X41120Y68744D01*
X41166Y69043D01*
X41325Y69302D01*
X41573Y69477D01*
X41869Y69542D01*
X42167Y69486D01*
X42420Y69319D01*
X48493Y63246D01*
X64632Y63246D01*
X64918Y63190D01*
X65171Y63023D01*
X66698Y61496D01*
X70462Y61496D01*
X71989Y63023D01*
X72231Y63186D01*
X72528Y63246D01*
X115432Y63246D01*
X115718Y63190D01*
X115971Y63023D01*
X117498Y61496D01*
X121262Y61496D01*
X123921Y64155D01*
X124152Y64313D01*
X124448Y64378D01*
X124746Y64323D01*
X124999Y64155D01*
X127658Y61496D01*
X131422Y61496D01*
X132949Y63023D01*
X133191Y63186D01*
X133488Y63246D01*
X161152Y63246D01*
X161438Y63190D01*
X161691Y63023D01*
X163218Y61496D01*
X166982Y61496D01*
X169644Y64158D01*
X169644Y67922D01*
X166982Y70584D01*
X163218Y70584D01*
X161691Y69057D01*
X161449Y68894D01*
X161152Y68834D01*
X133488Y68834D01*
X133202Y68890D01*
X132949Y69057D01*
X131422Y70584D01*
X127658Y70584D01*
X124999Y67925D01*
X124768Y67767D01*
X124472Y67702D01*
X124174Y67758D01*
X123921Y67925D01*
X121262Y70584D01*
X117498Y70584D01*
X115971Y69057D01*
X115729Y68894D01*
X115432Y68834D01*
X72528Y68834D01*
X72242Y68890D01*
X71989Y69057D01*
X70462Y70584D01*
X66698Y70584D01*
X65171Y69057D01*
X64929Y68894D01*
X64632Y68834D01*
X51123Y68834D01*
X50837Y68890D01*
X50584Y69057D01*
X38045Y81596D01*
X37887Y81826D01*
X37822Y82123D01*
X37878Y82421D01*
X38045Y82674D01*
X40550Y85178D01*
X41924Y88495D01*
X41924Y92085D01*
X40550Y95402D01*
X38012Y97940D01*
X34695Y99314D01*
X16105Y99314D01*
X12788Y97940D01*
X11461Y96613D01*
X11241Y96460D01*
X10946Y96390D01*
X10647Y96441D01*
X10392Y96604D01*
X10220Y96854D01*
X10160Y97151D01*
X10160Y164589D01*
X10207Y164852D01*
X10366Y165110D01*
X10614Y165285D01*
X10910Y165350D01*
X11208Y165295D01*
X11461Y165127D01*
X12788Y163800D01*
X16105Y162426D01*
X34695Y162426D01*
X38012Y163800D01*
X40550Y166338D01*
X41924Y169655D01*
X41924Y173245D01*
X40550Y176562D01*
X38012Y179100D01*
X34695Y180474D01*
X16105Y180474D01*
X12788Y179100D01*
X11461Y177773D01*
X11241Y177620D01*
X10946Y177550D01*
X10647Y177601D01*
X10392Y177764D01*
X10220Y178014D01*
X10160Y178311D01*
X10160Y189989D01*
X10207Y190252D01*
X10366Y190510D01*
X10614Y190685D01*
X10910Y190750D01*
X11208Y190695D01*
X11461Y190527D01*
X12788Y189200D01*
X16105Y187826D01*
X31427Y187826D01*
X31713Y187770D01*
X31966Y187603D01*
X47103Y172466D01*
X64632Y172466D01*
X64918Y172410D01*
X65171Y172243D01*
X66698Y170716D01*
X70462Y170716D01*
X71989Y172243D01*
X72231Y172406D01*
X72528Y172466D01*
X123052Y172466D01*
X123338Y172410D01*
X123591Y172243D01*
X125118Y170716D01*
X128882Y170716D01*
X131544Y173378D01*
X131544Y177142D01*
X128882Y179804D01*
X125118Y179804D01*
X123591Y178277D01*
X123349Y178114D01*
X123052Y178054D01*
X72528Y178054D01*
X72242Y178110D01*
X71989Y178277D01*
X70462Y179804D01*
X66698Y179804D01*
X65171Y178277D01*
X64929Y178114D01*
X64632Y178054D01*
X49733Y178054D01*
X49447Y178110D01*
X49194Y178277D01*
X38680Y188791D01*
X38522Y189021D01*
X38457Y189318D01*
X38513Y189616D01*
X38680Y189869D01*
X40550Y191738D01*
X41924Y195055D01*
X41924Y198645D01*
X40550Y201962D01*
X38012Y204500D01*
X34695Y205874D01*
X16105Y205874D01*
X12788Y204500D01*
X11461Y203173D01*
X11241Y203020D01*
X10946Y202950D01*
X10647Y203001D01*
X10392Y203164D01*
X10220Y203414D01*
X10160Y203711D01*
X10160Y432683D01*
X10207Y432947D01*
X10366Y433205D01*
X10614Y433380D01*
X10910Y433445D01*
X11208Y433390D01*
X11461Y433222D01*
X12451Y432232D01*
X20853Y428752D01*
X29947Y428752D01*
X38349Y432232D01*
X44780Y438663D01*
X48064Y446592D01*
X48204Y446813D01*
X48449Y446992D01*
X48744Y447062D01*
X49043Y447011D01*
X49298Y446847D01*
X49470Y446597D01*
X49530Y446300D01*
X49530Y445019D01*
X51077Y441285D01*
X53935Y438427D01*
X57669Y436880D01*
X58420Y436880D01*
X58420Y455930D01*
X69850Y455930D01*
X69850Y464301D01*
X69230Y465798D01*
X69172Y466066D01*
X69223Y466365D01*
X69386Y466620D01*
X69637Y466792D01*
X69934Y466852D01*
X75946Y466852D01*
X76215Y466803D01*
X76472Y466642D01*
X76645Y466393D01*
X76708Y466096D01*
X76650Y465798D01*
X75946Y464099D01*
X75946Y445221D01*
X77338Y441860D01*
X79910Y439288D01*
X83271Y437896D01*
X86909Y437896D01*
X90270Y439288D01*
X92842Y441860D01*
X94234Y445221D01*
X94234Y464099D01*
X93530Y465798D01*
X93472Y466066D01*
X93523Y466365D01*
X93687Y466620D01*
X93937Y466792D01*
X94234Y466852D01*
X101346Y466852D01*
X101615Y466803D01*
X101872Y466642D01*
X102045Y466393D01*
X102108Y466096D01*
X102050Y465798D01*
X101346Y464099D01*
X101346Y445221D01*
X102738Y441860D01*
X105310Y439288D01*
X108671Y437896D01*
X112309Y437896D01*
X115670Y439288D01*
X118242Y441860D01*
X119634Y445221D01*
X119634Y464099D01*
X118930Y465798D01*
X118872Y466066D01*
X118923Y466365D01*
X119087Y466620D01*
X119337Y466792D01*
X119634Y466852D01*
X126746Y466852D01*
X127015Y466803D01*
X127272Y466642D01*
X127445Y466393D01*
X127508Y466096D01*
X127450Y465798D01*
X126746Y464099D01*
X126746Y445221D01*
X128138Y441860D01*
X130710Y439288D01*
X134071Y437896D01*
X137709Y437896D01*
X141070Y439288D01*
X143642Y441860D01*
X145034Y445221D01*
X145034Y464099D01*
X144330Y465798D01*
X144272Y466066D01*
X144323Y466365D01*
X144487Y466620D01*
X144737Y466792D01*
X145034Y466852D01*
X152146Y466852D01*
X152415Y466803D01*
X152672Y466642D01*
X152845Y466393D01*
X152908Y466096D01*
X152850Y465798D01*
X152146Y464099D01*
X152146Y445221D01*
X153538Y441860D01*
X156110Y439288D01*
X159471Y437896D01*
X163109Y437896D01*
X166470Y439288D01*
X169042Y441860D01*
X170434Y445221D01*
X170434Y464099D01*
X169730Y465798D01*
X169672Y466066D01*
X169723Y466365D01*
X169887Y466620D01*
X170137Y466792D01*
X170434Y466852D01*
X177546Y466852D01*
X177815Y466803D01*
X178072Y466642D01*
X178245Y466393D01*
X178308Y466096D01*
X178250Y465798D01*
X177546Y464099D01*
X177546Y445221D01*
X178938Y441860D01*
X181510Y439288D01*
X184871Y437896D01*
X188509Y437896D01*
X191870Y439288D01*
X194442Y441860D01*
X195834Y445221D01*
X195834Y464099D01*
X195130Y465798D01*
X195072Y466066D01*
X195123Y466365D01*
X195287Y466620D01*
X195537Y466792D01*
X195834Y466852D01*
X202946Y466852D01*
X203215Y466803D01*
X203472Y466642D01*
X203645Y466393D01*
X203708Y466096D01*
X203650Y465798D01*
X202946Y464099D01*
X202946Y445221D01*
X204338Y441860D01*
X206910Y439288D01*
X210271Y437896D01*
X213909Y437896D01*
X217270Y439288D01*
X219842Y441860D01*
X221234Y445221D01*
X221234Y464099D01*
X220530Y465798D01*
X220472Y466066D01*
X220523Y466365D01*
X220687Y466620D01*
X220937Y466792D01*
X221234Y466852D01*
X228346Y466852D01*
X228615Y466803D01*
X228872Y466642D01*
X229045Y466393D01*
X229108Y466096D01*
X229050Y465798D01*
X228346Y464099D01*
X228346Y445221D01*
X229738Y441860D01*
X232310Y439288D01*
X235671Y437896D01*
X239309Y437896D01*
X242670Y439288D01*
X245242Y441860D01*
X246634Y445221D01*
X246634Y464099D01*
X245930Y465798D01*
X245872Y466066D01*
X245923Y466365D01*
X246087Y466620D01*
X246337Y466792D01*
X246634Y466852D01*
X253746Y466852D01*
X254015Y466803D01*
X254272Y466642D01*
X254445Y466393D01*
X254508Y466096D01*
X254450Y465798D01*
X253746Y464099D01*
X253746Y445221D01*
X255138Y441860D01*
X257710Y439288D01*
X261071Y437896D01*
X264709Y437896D01*
X268070Y439288D01*
X270642Y441860D01*
X272034Y445221D01*
X272034Y464099D01*
X271330Y465798D01*
X271272Y466066D01*
X271323Y466365D01*
X271487Y466620D01*
X271737Y466792D01*
X272034Y466852D01*
X279146Y466852D01*
X279415Y466803D01*
X279672Y466642D01*
X279845Y466393D01*
X279908Y466096D01*
X279850Y465798D01*
X279146Y464099D01*
X279146Y445221D01*
X280538Y441860D01*
X283110Y439288D01*
X286471Y437896D01*
X290109Y437896D01*
X293470Y439288D01*
X296042Y441860D01*
X297434Y445221D01*
X297434Y464099D01*
X296730Y465798D01*
X296672Y466066D01*
X296723Y466365D01*
X296887Y466620D01*
X297137Y466792D01*
X297434Y466852D01*
X304546Y466852D01*
X304815Y466803D01*
X305072Y466642D01*
X305245Y466393D01*
X305308Y466096D01*
X305250Y465798D01*
X304546Y464099D01*
X304546Y445221D01*
X305938Y441860D01*
X308510Y439288D01*
X311871Y437896D01*
X315509Y437896D01*
X318870Y439288D01*
X321442Y441860D01*
X322834Y445221D01*
X322834Y464099D01*
X322130Y465798D01*
X322072Y466066D01*
X322123Y466365D01*
X322287Y466620D01*
X322537Y466792D01*
X322834Y466852D01*
X329946Y466852D01*
X330215Y466803D01*
X330472Y466642D01*
X330645Y466393D01*
X330708Y466096D01*
X330650Y465798D01*
X329946Y464099D01*
X329946Y445221D01*
X331338Y441860D01*
X333910Y439288D01*
X337271Y437896D01*
X340909Y437896D01*
X344270Y439288D01*
X346842Y441860D01*
X348234Y445221D01*
X348234Y464099D01*
X347530Y465798D01*
X347472Y466066D01*
X347523Y466365D01*
X347687Y466620D01*
X347937Y466792D01*
X348234Y466852D01*
X356483Y466852D01*
X356747Y466805D01*
X357005Y466646D01*
X357180Y466398D01*
X357245Y466102D01*
X357190Y465804D01*
X357022Y465551D01*
X355270Y463799D01*
X351790Y455397D01*
X351790Y446303D01*
X355270Y437901D01*
X361701Y431470D01*
X370103Y427990D01*
X379197Y427990D01*
X387599Y431470D01*
X388589Y432460D01*
X388809Y432613D01*
X389104Y432683D01*
X389403Y432632D01*
X389658Y432469D01*
X389830Y432219D01*
X389890Y431921D01*
X389890Y343411D01*
X389843Y343148D01*
X389684Y342890D01*
X389436Y342715D01*
X389140Y342650D01*
X388842Y342705D01*
X388589Y342873D01*
X387262Y344200D01*
X383945Y345574D01*
X365355Y345574D01*
X362038Y344200D01*
X359500Y341662D01*
X358126Y338345D01*
X358126Y334755D01*
X359500Y331438D01*
X362038Y328900D01*
X365355Y327526D01*
X383945Y327526D01*
X387262Y328900D01*
X388589Y330227D01*
X388809Y330380D01*
X389104Y330450D01*
X389403Y330399D01*
X389658Y330236D01*
X389830Y329986D01*
X389890Y329689D01*
X389890Y318011D01*
X389843Y317748D01*
X389684Y317490D01*
X389436Y317315D01*
X389140Y317250D01*
X388842Y317305D01*
X388589Y317473D01*
X387262Y318800D01*
X383945Y320174D01*
X369893Y320174D01*
X369607Y320230D01*
X369354Y320397D01*
X366917Y322834D01*
X334148Y322834D01*
X333862Y322890D01*
X333609Y323057D01*
X332082Y324584D01*
X328318Y324584D01*
X326791Y323057D01*
X326549Y322894D01*
X326252Y322834D01*
X295163Y322834D01*
X293890Y321561D01*
X293648Y321398D01*
X293351Y321338D01*
X278268Y321338D01*
X277982Y321394D01*
X277729Y321561D01*
X276202Y323088D01*
X272438Y323088D01*
X269776Y320426D01*
X269776Y316662D01*
X272463Y313975D01*
X272616Y313755D01*
X272686Y313460D01*
X272635Y313161D01*
X272472Y312906D01*
X272221Y312734D01*
X271924Y312674D01*
X265543Y312674D01*
X260686Y307817D01*
X260444Y307654D01*
X260147Y307594D01*
X252933Y307594D01*
X252647Y307650D01*
X252394Y307817D01*
X247442Y312769D01*
X247249Y312897D01*
X245722Y314424D01*
X241958Y314424D01*
X240431Y312897D01*
X240189Y312734D01*
X239892Y312674D01*
X230008Y312674D01*
X229722Y312730D01*
X229469Y312897D01*
X227942Y314424D01*
X224178Y314424D01*
X221516Y311762D01*
X221516Y307998D01*
X224178Y305336D01*
X227942Y305336D01*
X229469Y306863D01*
X229711Y307026D01*
X230008Y307086D01*
X239892Y307086D01*
X240178Y307030D01*
X240431Y306863D01*
X241958Y305336D01*
X245722Y305336D01*
X245809Y305422D01*
X246039Y305580D01*
X246335Y305646D01*
X246633Y305590D01*
X246886Y305422D01*
X250303Y302006D01*
X262777Y302006D01*
X267634Y306863D01*
X267876Y307026D01*
X268173Y307086D01*
X288152Y307086D01*
X288438Y307030D01*
X288691Y306863D01*
X290218Y305336D01*
X293982Y305336D01*
X296644Y307998D01*
X296644Y311762D01*
X293957Y314449D01*
X293804Y314669D01*
X293734Y314964D01*
X293785Y315263D01*
X293948Y315518D01*
X294199Y315690D01*
X294496Y315750D01*
X295981Y315750D01*
X297254Y317023D01*
X297496Y317186D01*
X297793Y317246D01*
X326252Y317246D01*
X326538Y317190D01*
X326791Y317023D01*
X328318Y315496D01*
X332082Y315496D01*
X333609Y317023D01*
X333851Y317186D01*
X334148Y317246D01*
X358767Y317246D01*
X359036Y317197D01*
X359293Y317036D01*
X359466Y316787D01*
X359529Y316490D01*
X359471Y316192D01*
X358126Y312945D01*
X358126Y309355D01*
X359500Y306038D01*
X362038Y303500D01*
X365355Y302126D01*
X383945Y302126D01*
X387262Y303500D01*
X388589Y304827D01*
X388809Y304980D01*
X389104Y305050D01*
X389403Y304999D01*
X389658Y304836D01*
X389830Y304586D01*
X389890Y304289D01*
X389890Y235461D01*
X389843Y235198D01*
X389684Y234940D01*
X389436Y234765D01*
X389140Y234700D01*
X388842Y234755D01*
X388589Y234923D01*
X387262Y236250D01*
X383945Y237624D01*
X365355Y237624D01*
X362038Y236250D01*
X359500Y233712D01*
X358126Y230395D01*
X358126Y226805D01*
X359500Y223488D01*
X362038Y220950D01*
X365355Y219576D01*
X383945Y219576D01*
X387262Y220950D01*
X388589Y222277D01*
X388809Y222430D01*
X389104Y222500D01*
X389403Y222449D01*
X389658Y222286D01*
X389830Y222036D01*
X389890Y221739D01*
X389890Y210061D01*
X389843Y209798D01*
X389684Y209540D01*
X389436Y209365D01*
X389140Y209300D01*
X388842Y209355D01*
X388589Y209523D01*
X387262Y210850D01*
X383945Y212224D01*
X365355Y212224D01*
X364321Y211796D01*
X364041Y211738D01*
X363743Y211793D01*
X363490Y211961D01*
X361837Y213614D01*
X334148Y213614D01*
X333862Y213670D01*
X333609Y213837D01*
X332082Y215364D01*
X328318Y215364D01*
X326791Y213837D01*
X326549Y213674D01*
X326252Y213614D01*
X278268Y213614D01*
X277982Y213670D01*
X277729Y213837D01*
X276202Y215364D01*
X272438Y215364D01*
X269776Y212702D01*
X269776Y208938D01*
X271419Y207295D01*
X271572Y207075D01*
X271642Y206780D01*
X271591Y206481D01*
X271428Y206226D01*
X271177Y206054D01*
X270880Y205994D01*
X247788Y205994D01*
X247502Y206050D01*
X247249Y206217D01*
X245722Y207744D01*
X241958Y207744D01*
X240431Y206217D01*
X240189Y206054D01*
X239892Y205994D01*
X228215Y205994D01*
X227929Y206050D01*
X227676Y206217D01*
X225776Y208118D01*
X222011Y208118D01*
X219350Y205456D01*
X219350Y203531D01*
X219303Y203268D01*
X219143Y203010D01*
X218896Y202834D01*
X218600Y202769D01*
X218302Y202825D01*
X218049Y202992D01*
X217782Y203259D01*
X215028Y203259D01*
X214742Y203315D01*
X214489Y203482D01*
X206802Y211169D01*
X206609Y211297D01*
X206101Y211805D01*
X205948Y212025D01*
X205878Y212320D01*
X205929Y212619D01*
X206092Y212874D01*
X206343Y213046D01*
X206640Y213106D01*
X231002Y213106D01*
X231288Y213050D01*
X231541Y212883D01*
X233068Y211356D01*
X236832Y211356D01*
X239494Y214018D01*
X239494Y217782D01*
X236832Y220444D01*
X233068Y220444D01*
X231541Y218917D01*
X231299Y218754D01*
X231002Y218694D01*
X105548Y218694D01*
X105262Y218750D01*
X105009Y218917D01*
X103482Y220444D01*
X99718Y220444D01*
X97056Y217782D01*
X97056Y214018D01*
X99718Y211356D01*
X103482Y211356D01*
X105009Y212883D01*
X105251Y213046D01*
X105548Y213106D01*
X199760Y213106D01*
X200024Y213059D01*
X200282Y212900D01*
X200457Y212652D01*
X200522Y212356D01*
X200467Y212058D01*
X200299Y211805D01*
X198656Y210162D01*
X198656Y206398D01*
X201318Y203736D01*
X205082Y203736D01*
X205169Y203822D01*
X205399Y203980D01*
X205695Y204046D01*
X205993Y203990D01*
X206246Y203822D01*
X211133Y198936D01*
X211296Y198694D01*
X211356Y198397D01*
X211356Y196833D01*
X214018Y194171D01*
X217782Y194171D01*
X220444Y196833D01*
X220444Y198757D01*
X220491Y199021D01*
X220650Y199279D01*
X220898Y199454D01*
X221194Y199519D01*
X221492Y199464D01*
X221745Y199296D01*
X222011Y199030D01*
X225776Y199030D01*
X226929Y200183D01*
X227171Y200346D01*
X227468Y200406D01*
X239892Y200406D01*
X240178Y200350D01*
X240431Y200183D01*
X241958Y198656D01*
X245722Y198656D01*
X247249Y200183D01*
X247491Y200346D01*
X247788Y200406D01*
X288152Y200406D01*
X288438Y200350D01*
X288691Y200183D01*
X290218Y198656D01*
X293982Y198656D01*
X296644Y201318D01*
X296644Y205082D01*
X295001Y206725D01*
X294848Y206945D01*
X294778Y207240D01*
X294829Y207539D01*
X294992Y207794D01*
X295243Y207966D01*
X295540Y208026D01*
X326252Y208026D01*
X326538Y207970D01*
X326791Y207803D01*
X328318Y206276D01*
X332082Y206276D01*
X333609Y207803D01*
X333851Y207966D01*
X334148Y208026D01*
X358241Y208026D01*
X358510Y207977D01*
X358767Y207816D01*
X358940Y207567D01*
X359003Y207270D01*
X358945Y206972D01*
X358126Y204995D01*
X358126Y201405D01*
X359500Y198088D01*
X362038Y195550D01*
X365355Y194176D01*
X383945Y194176D01*
X387262Y195550D01*
X388589Y196877D01*
X388809Y197030D01*
X389104Y197100D01*
X389403Y197049D01*
X389658Y196886D01*
X389830Y196636D01*
X389890Y196339D01*
X389890Y127751D01*
X389843Y127488D01*
X389684Y127230D01*
X389436Y127055D01*
X389140Y126990D01*
X388842Y127045D01*
X388589Y127213D01*
X387502Y128300D01*
X384185Y129674D01*
X365595Y129674D01*
X362278Y128300D01*
X359740Y125762D01*
X358366Y122445D01*
X358366Y118855D01*
X359740Y115538D01*
X362278Y113000D01*
X365595Y111626D01*
X384185Y111626D01*
X387502Y113000D01*
X388589Y114087D01*
X388809Y114240D01*
X389104Y114310D01*
X389403Y114259D01*
X389658Y114096D01*
X389830Y113846D01*
X389890Y113549D01*
X389890Y102351D01*
X389843Y102088D01*
X389684Y101830D01*
X389436Y101655D01*
X389140Y101590D01*
X388842Y101645D01*
X388589Y101813D01*
X387502Y102900D01*
X384185Y104274D01*
X370053Y104274D01*
X369767Y104330D01*
X369670Y104394D01*
X334148Y104394D01*
X333862Y104450D01*
X333609Y104617D01*
X332082Y106144D01*
X328318Y106144D01*
X326791Y104617D01*
X326549Y104454D01*
X326252Y104394D01*
X279626Y104394D01*
X279351Y104445D01*
X279096Y104609D01*
X278924Y104859D01*
X278864Y105156D01*
X278864Y106022D01*
X276202Y108684D01*
X272438Y108684D01*
X269776Y106022D01*
X269776Y102258D01*
X272438Y99596D01*
X274597Y99596D01*
X274883Y99540D01*
X275136Y99373D01*
X275703Y98806D01*
X288660Y98806D01*
X288924Y98759D01*
X289182Y98600D01*
X289357Y98352D01*
X289422Y98056D01*
X289367Y97758D01*
X289199Y97505D01*
X288691Y96997D01*
X288449Y96834D01*
X288152Y96774D01*
X245248Y96774D01*
X244962Y96830D01*
X244709Y96997D01*
X243182Y98524D01*
X239418Y98524D01*
X237891Y96997D01*
X237649Y96834D01*
X237352Y96774D01*
X237120Y96774D01*
X236857Y96821D01*
X236598Y96980D01*
X236423Y97228D01*
X236358Y97524D01*
X236414Y97822D01*
X236581Y98075D01*
X238224Y99718D01*
X238224Y103482D01*
X235562Y106144D01*
X231798Y106144D01*
X230271Y104617D01*
X230029Y104454D01*
X229732Y104394D01*
X109423Y104394D01*
X109137Y104450D01*
X108884Y104617D01*
X106367Y107134D01*
X106204Y107376D01*
X106144Y107673D01*
X106144Y109832D01*
X103482Y112494D01*
X99718Y112494D01*
X97056Y109832D01*
X97056Y106068D01*
X99718Y103406D01*
X101877Y103406D01*
X102163Y103350D01*
X102416Y103183D01*
X106793Y98806D01*
X222620Y98806D01*
X222884Y98759D01*
X223142Y98600D01*
X223317Y98352D01*
X223382Y98056D01*
X223327Y97758D01*
X223159Y97505D01*
X221516Y95862D01*
X221516Y92098D01*
X224178Y89436D01*
X227942Y89436D01*
X229469Y90963D01*
X229711Y91126D01*
X230008Y91186D01*
X237352Y91186D01*
X237638Y91130D01*
X237891Y90963D01*
X239418Y89436D01*
X243182Y89436D01*
X244709Y90963D01*
X244951Y91126D01*
X245248Y91186D01*
X288152Y91186D01*
X288438Y91130D01*
X288691Y90963D01*
X290218Y89436D01*
X293982Y89436D01*
X296644Y92098D01*
X296644Y95862D01*
X295001Y97505D01*
X294848Y97725D01*
X294778Y98020D01*
X294829Y98319D01*
X294992Y98574D01*
X295243Y98746D01*
X295540Y98806D01*
X326252Y98806D01*
X326538Y98750D01*
X326791Y98583D01*
X328318Y97056D01*
X332082Y97056D01*
X333609Y98583D01*
X333851Y98746D01*
X334148Y98806D01*
X357955Y98806D01*
X358224Y98757D01*
X358481Y98596D01*
X358654Y98347D01*
X358717Y98050D01*
X358659Y97752D01*
X358366Y97045D01*
X358366Y93455D01*
X359740Y90138D01*
X362278Y87600D01*
X365595Y86226D01*
X384185Y86226D01*
X387502Y87600D01*
X388589Y88687D01*
X388809Y88840D01*
X389104Y88910D01*
X389403Y88859D01*
X389658Y88696D01*
X389830Y88446D01*
X389890Y88149D01*
X389890Y44329D01*
X389843Y44065D01*
X389684Y43807D01*
X389436Y43632D01*
X389140Y43567D01*
X388842Y43622D01*
X388589Y43790D01*
X387599Y44780D01*
X379197Y48260D01*
X370103Y48260D01*
X361701Y44780D01*
X355270Y38349D01*
X351790Y29947D01*
X351790Y20853D01*
X355270Y12451D01*
X356260Y11461D01*
X356413Y11241D01*
X356483Y10946D01*
X356432Y10647D01*
X356269Y10392D01*
X356019Y10220D01*
G37*
%LPC*%
G36*
X60960Y436880D02*
X61711Y436880D01*
X65445Y438427D01*
X68303Y441285D01*
X69850Y445019D01*
X69850Y453390D01*
X60960Y453390D01*
X60960Y436880D01*
G37*
G36*
X163218Y394236D02*
X166982Y394236D01*
X168509Y395763D01*
X168751Y395926D01*
X169048Y395986D01*
X199224Y395986D01*
X199510Y395930D01*
X199763Y395763D01*
X201290Y394236D01*
X205054Y394236D01*
X207716Y396898D01*
X207716Y400662D01*
X205054Y403324D01*
X201290Y403324D01*
X199763Y401797D01*
X199521Y401634D01*
X199224Y401574D01*
X169048Y401574D01*
X168762Y401630D01*
X168509Y401797D01*
X166982Y403324D01*
X163218Y403324D01*
X161861Y401968D01*
X161631Y401810D01*
X161335Y401744D01*
X161037Y401800D01*
X160784Y401968D01*
X153557Y409194D01*
X149998Y409194D01*
X149712Y409250D01*
X149459Y409417D01*
X147932Y410944D01*
X144168Y410944D01*
X141506Y408282D01*
X141506Y404518D01*
X144168Y401856D01*
X147932Y401856D01*
X149459Y403383D01*
X149701Y403546D01*
X149998Y403606D01*
X150927Y403606D01*
X151213Y403550D01*
X151466Y403383D01*
X158863Y395986D01*
X161152Y395986D01*
X161438Y395930D01*
X161691Y395763D01*
X163218Y394236D01*
G37*
G36*
X26058Y367331D02*
X29822Y367331D01*
X32484Y369992D01*
X32484Y372152D01*
X32540Y372438D01*
X32707Y372690D01*
X32920Y372903D01*
X33161Y373066D01*
X33458Y373126D01*
X84952Y373126D01*
X85238Y373070D01*
X85491Y372903D01*
X87018Y371376D01*
X90782Y371376D01*
X90813Y371407D01*
X91055Y371570D01*
X91352Y371630D01*
X105272Y371630D01*
X105558Y371574D01*
X105811Y371407D01*
X107338Y369880D01*
X111102Y369880D01*
X113764Y372542D01*
X113764Y376306D01*
X113165Y376905D01*
X113012Y377125D01*
X112942Y377420D01*
X112993Y377719D01*
X113156Y377974D01*
X113407Y378146D01*
X113704Y378206D01*
X178932Y378206D01*
X179218Y378150D01*
X179471Y377983D01*
X180998Y376456D01*
X184762Y376456D01*
X186289Y377983D01*
X186531Y378146D01*
X186828Y378206D01*
X210594Y378206D01*
X210869Y378155D01*
X211124Y377991D01*
X211296Y377741D01*
X211356Y377444D01*
X211356Y376578D01*
X214018Y373916D01*
X217782Y373916D01*
X220444Y376578D01*
X220444Y380342D01*
X217782Y383004D01*
X215623Y383004D01*
X215337Y383060D01*
X215084Y383227D01*
X214517Y383794D01*
X186828Y383794D01*
X186542Y383850D01*
X186289Y384017D01*
X184762Y385544D01*
X181494Y385544D01*
X181231Y385591D01*
X180972Y385750D01*
X180797Y385998D01*
X180732Y386294D01*
X180788Y386592D01*
X180848Y386683D01*
X180848Y390502D01*
X178186Y393164D01*
X174422Y393164D01*
X172895Y391637D01*
X172653Y391474D01*
X172356Y391414D01*
X67448Y391414D01*
X67162Y391470D01*
X66909Y391637D01*
X65382Y393164D01*
X61618Y393164D01*
X58956Y390502D01*
X58956Y386738D01*
X61618Y384076D01*
X65382Y384076D01*
X66909Y385603D01*
X67151Y385766D01*
X67448Y385826D01*
X95620Y385826D01*
X95884Y385779D01*
X96142Y385620D01*
X96317Y385372D01*
X96382Y385076D01*
X96327Y384778D01*
X96159Y384525D01*
X94516Y382882D01*
X94516Y379118D01*
X95115Y378519D01*
X95268Y378299D01*
X95338Y378004D01*
X95287Y377705D01*
X95124Y377450D01*
X94873Y377278D01*
X94576Y377218D01*
X94206Y377218D01*
X93931Y377269D01*
X93676Y377433D01*
X93504Y377683D01*
X93489Y377757D01*
X90782Y380464D01*
X87018Y380464D01*
X85491Y378937D01*
X85249Y378774D01*
X84952Y378714D01*
X58916Y378714D01*
X58641Y378765D01*
X58386Y378929D01*
X58214Y379179D01*
X58154Y379476D01*
X58154Y380612D01*
X55492Y383274D01*
X51728Y383274D01*
X49066Y380612D01*
X49066Y379476D01*
X49015Y379201D01*
X48851Y378946D01*
X48601Y378774D01*
X48304Y378714D01*
X30828Y378714D01*
X28756Y376642D01*
X28514Y376479D01*
X28217Y376419D01*
X26058Y376419D01*
X23396Y373757D01*
X23396Y369992D01*
X26058Y367331D01*
G37*
G36*
X155598Y333276D02*
X159362Y333276D01*
X162024Y335938D01*
X162024Y339702D01*
X159362Y342364D01*
X157203Y342364D01*
X156917Y342420D01*
X156664Y342587D01*
X154322Y344929D01*
X154169Y345149D01*
X154099Y345444D01*
X154150Y345743D01*
X154314Y345998D01*
X154564Y346170D01*
X154861Y346230D01*
X197894Y346230D01*
X198169Y346179D01*
X198424Y346015D01*
X198596Y345765D01*
X198656Y345468D01*
X198656Y343558D01*
X201318Y340896D01*
X205082Y340896D01*
X207744Y343558D01*
X207744Y347322D01*
X205082Y349984D01*
X202923Y349984D01*
X202637Y350040D01*
X202384Y350207D01*
X200773Y351818D01*
X80148Y351818D01*
X79862Y351874D01*
X79609Y352041D01*
X78082Y353568D01*
X74318Y353568D01*
X71656Y350906D01*
X71656Y347142D01*
X72255Y346543D01*
X72408Y346323D01*
X72478Y346028D01*
X72427Y345729D01*
X72264Y345474D01*
X72013Y345302D01*
X71716Y345242D01*
X67900Y345242D01*
X67614Y345298D01*
X67361Y345465D01*
X65382Y347444D01*
X61618Y347444D01*
X58956Y344782D01*
X58956Y341018D01*
X61618Y338356D01*
X65382Y338356D01*
X66457Y339431D01*
X66699Y339594D01*
X66996Y339654D01*
X151379Y339654D01*
X151665Y339598D01*
X151918Y339431D01*
X152713Y338636D01*
X152876Y338394D01*
X152936Y338097D01*
X152936Y335938D01*
X155598Y333276D01*
G37*
G36*
X225222Y329240D02*
X228986Y329240D01*
X231648Y331902D01*
X231648Y335666D01*
X228986Y338328D01*
X225222Y338328D01*
X225191Y338297D01*
X224949Y338134D01*
X224652Y338074D01*
X193968Y338074D01*
X193682Y338130D01*
X193429Y338297D01*
X191902Y339824D01*
X188138Y339824D01*
X185476Y337162D01*
X185476Y333398D01*
X188138Y330736D01*
X191902Y330736D01*
X193429Y332263D01*
X193671Y332426D01*
X193968Y332486D01*
X221798Y332486D01*
X222073Y332435D01*
X222328Y332271D01*
X222500Y332021D01*
X222515Y331947D01*
X225222Y329240D01*
G37*
G36*
X99718Y319306D02*
X103482Y319306D01*
X105009Y320833D01*
X105251Y320996D01*
X105548Y321056D01*
X160677Y321056D01*
X160963Y321000D01*
X161216Y320833D01*
X161219Y320830D01*
X181905Y320830D01*
X184250Y323175D01*
X184492Y323338D01*
X184789Y323398D01*
X194172Y323398D01*
X194458Y323342D01*
X194711Y323175D01*
X196238Y321648D01*
X200002Y321648D01*
X202664Y324310D01*
X202664Y328074D01*
X200002Y330736D01*
X196238Y330736D01*
X194711Y329209D01*
X194469Y329046D01*
X194172Y328986D01*
X182159Y328986D01*
X179814Y326641D01*
X179572Y326478D01*
X179275Y326418D01*
X174729Y326418D01*
X174466Y326465D01*
X174208Y326624D01*
X174032Y326872D01*
X173967Y327168D01*
X174023Y327466D01*
X174190Y327719D01*
X176984Y330513D01*
X177226Y330676D01*
X177523Y330736D01*
X179682Y330736D01*
X182344Y333398D01*
X182344Y337162D01*
X179682Y339824D01*
X175918Y339824D01*
X173256Y337162D01*
X173256Y335003D01*
X173200Y334717D01*
X173033Y334464D01*
X171786Y333217D01*
X171544Y333054D01*
X171247Y332994D01*
X169048Y332994D01*
X168762Y333050D01*
X168509Y333217D01*
X166982Y334744D01*
X163218Y334744D01*
X160556Y332082D01*
X160556Y328318D01*
X160929Y327945D01*
X161082Y327725D01*
X161152Y327430D01*
X161101Y327131D01*
X160938Y326876D01*
X160687Y326704D01*
X160390Y326644D01*
X105548Y326644D01*
X105262Y326700D01*
X105009Y326867D01*
X103482Y328394D01*
X99718Y328394D01*
X97056Y325732D01*
X97056Y321968D01*
X99718Y319306D01*
G37*
G36*
X87018Y267236D02*
X90782Y267236D01*
X92309Y268763D01*
X92551Y268926D01*
X92848Y268986D01*
X156072Y268986D01*
X156358Y268930D01*
X156611Y268763D01*
X158138Y267236D01*
X161902Y267236D01*
X163429Y268763D01*
X163671Y268926D01*
X163968Y268986D01*
X171312Y268986D01*
X171598Y268930D01*
X171851Y268763D01*
X173378Y267236D01*
X177142Y267236D01*
X179804Y269898D01*
X179804Y273662D01*
X177142Y276324D01*
X173378Y276324D01*
X171851Y274797D01*
X171609Y274634D01*
X171312Y274574D01*
X163968Y274574D01*
X163682Y274630D01*
X163429Y274797D01*
X161902Y276324D01*
X158138Y276324D01*
X156611Y274797D01*
X156369Y274634D01*
X156072Y274574D01*
X131484Y274574D01*
X131221Y274621D01*
X130962Y274780D01*
X130787Y275028D01*
X130722Y275324D01*
X130778Y275622D01*
X130945Y275875D01*
X131544Y276474D01*
X131544Y280238D01*
X128882Y282900D01*
X125118Y282900D01*
X124635Y282417D01*
X124393Y282254D01*
X124096Y282194D01*
X73798Y282194D01*
X73512Y282250D01*
X73259Y282417D01*
X71732Y283944D01*
X69573Y283944D01*
X69287Y284000D01*
X69034Y284167D01*
X47727Y305475D01*
X45546Y305475D01*
X45266Y305528D01*
X45011Y305693D01*
X44842Y305945D01*
X44077Y307792D01*
X41538Y310331D01*
X38222Y311705D01*
X19632Y311705D01*
X16315Y310331D01*
X13776Y307792D01*
X12403Y304476D01*
X12403Y300886D01*
X13776Y297569D01*
X16315Y295030D01*
X19632Y293657D01*
X38222Y293657D01*
X41538Y295030D01*
X44077Y297569D01*
X44710Y299098D01*
X44859Y299328D01*
X45106Y299504D01*
X45402Y299569D01*
X45700Y299513D01*
X45953Y299346D01*
X65083Y280216D01*
X65246Y279974D01*
X65306Y279677D01*
X65306Y277518D01*
X67968Y274856D01*
X71732Y274856D01*
X73259Y276383D01*
X73501Y276546D01*
X73798Y276606D01*
X85460Y276606D01*
X85724Y276559D01*
X85982Y276400D01*
X86157Y276152D01*
X86222Y275856D01*
X86167Y275558D01*
X85999Y275305D01*
X84356Y273662D01*
X84356Y269898D01*
X87018Y267236D01*
G37*
G36*
X130198Y290096D02*
X133962Y290096D01*
X135489Y291623D01*
X135731Y291786D01*
X136028Y291846D01*
X161152Y291846D01*
X161438Y291790D01*
X161691Y291623D01*
X163218Y290096D01*
X166982Y290096D01*
X169644Y292758D01*
X169644Y296522D01*
X166982Y299184D01*
X163218Y299184D01*
X161691Y297657D01*
X161449Y297494D01*
X161152Y297434D01*
X136028Y297434D01*
X135742Y297490D01*
X135489Y297657D01*
X133962Y299184D01*
X130198Y299184D01*
X127536Y296522D01*
X127536Y292758D01*
X130198Y290096D01*
G37*
G36*
X19632Y268257D02*
X38222Y268257D01*
X41538Y269630D01*
X44077Y272169D01*
X45451Y275486D01*
X45451Y279076D01*
X44077Y282392D01*
X41538Y284931D01*
X38222Y286305D01*
X19632Y286305D01*
X16315Y284931D01*
X13776Y282392D01*
X12403Y279076D01*
X12403Y275486D01*
X13776Y272169D01*
X16315Y269630D01*
X19632Y268257D01*
G37*
G36*
X206323Y251996D02*
X210088Y251996D01*
X211615Y253523D01*
X211856Y253686D01*
X212153Y253746D01*
X222112Y253746D01*
X222398Y253690D01*
X222651Y253523D01*
X224178Y251996D01*
X227942Y251996D01*
X230604Y254658D01*
X230604Y258422D01*
X227942Y261084D01*
X224178Y261084D01*
X222651Y259557D01*
X222409Y259394D01*
X222112Y259334D01*
X212153Y259334D01*
X211867Y259390D01*
X211615Y259557D01*
X210088Y261084D01*
X206323Y261084D01*
X203662Y258422D01*
X203662Y254658D01*
X206323Y251996D01*
G37*
G36*
X127658Y183416D02*
X131422Y183416D01*
X132949Y184943D01*
X133191Y185106D01*
X133488Y185166D01*
X163692Y185166D01*
X163978Y185110D01*
X164231Y184943D01*
X165758Y183416D01*
X169522Y183416D01*
X172184Y186078D01*
X172184Y189842D01*
X169522Y192504D01*
X165758Y192504D01*
X164231Y190977D01*
X163989Y190814D01*
X163692Y190754D01*
X133488Y190754D01*
X133202Y190810D01*
X132949Y190977D01*
X131422Y192504D01*
X127658Y192504D01*
X124996Y189842D01*
X124996Y186078D01*
X127658Y183416D01*
G37*
G36*
X89558Y160556D02*
X93322Y160556D01*
X94849Y162083D01*
X95091Y162246D01*
X95388Y162306D01*
X156072Y162306D01*
X156358Y162250D01*
X156611Y162083D01*
X158138Y160556D01*
X161902Y160556D01*
X163429Y162083D01*
X163671Y162246D01*
X163968Y162306D01*
X171312Y162306D01*
X171598Y162250D01*
X171851Y162083D01*
X173378Y160556D01*
X177142Y160556D01*
X179804Y163218D01*
X179804Y166982D01*
X177142Y169644D01*
X173378Y169644D01*
X171851Y168117D01*
X171609Y167954D01*
X171312Y167894D01*
X163968Y167894D01*
X163682Y167950D01*
X163429Y168117D01*
X161902Y169644D01*
X158138Y169644D01*
X156611Y168117D01*
X156369Y167954D01*
X156072Y167894D01*
X95388Y167894D01*
X95102Y167950D01*
X94849Y168117D01*
X93322Y169644D01*
X89558Y169644D01*
X86896Y166982D01*
X86896Y163218D01*
X89558Y160556D01*
G37*
G36*
X231798Y160556D02*
X235562Y160556D01*
X237089Y162083D01*
X237331Y162246D01*
X237628Y162306D01*
X259820Y162306D01*
X260106Y162250D01*
X260359Y162083D01*
X261886Y160556D01*
X265650Y160556D01*
X268312Y163218D01*
X268312Y166982D01*
X265650Y169644D01*
X261886Y169644D01*
X260359Y168117D01*
X260117Y167954D01*
X259820Y167894D01*
X237628Y167894D01*
X237342Y167950D01*
X237089Y168117D01*
X235562Y169644D01*
X231798Y169644D01*
X229136Y166982D01*
X229136Y163218D01*
X231798Y160556D01*
G37*
G36*
X302918Y109756D02*
X306682Y109756D01*
X308209Y111283D01*
X308451Y111446D01*
X308748Y111506D01*
X332602Y111506D01*
X332888Y111450D01*
X333141Y111283D01*
X334668Y109756D01*
X338432Y109756D01*
X341094Y112418D01*
X341094Y116182D01*
X338432Y118844D01*
X334668Y118844D01*
X333141Y117317D01*
X332899Y117154D01*
X332602Y117094D01*
X308748Y117094D01*
X308462Y117150D01*
X308209Y117317D01*
X306682Y118844D01*
X302918Y118844D01*
X300256Y116182D01*
X300256Y112418D01*
X302918Y109756D01*
G37*
G36*
X158138Y48796D02*
X161902Y48796D01*
X163429Y50323D01*
X163671Y50486D01*
X163968Y50546D01*
X172208Y50546D01*
X172372Y50514D01*
X176320Y50514D01*
X178982Y53176D01*
X178982Y56940D01*
X176320Y59602D01*
X172556Y59602D01*
X169894Y56940D01*
X169894Y56896D01*
X169843Y56621D01*
X169679Y56366D01*
X169429Y56194D01*
X169132Y56134D01*
X163968Y56134D01*
X163682Y56190D01*
X163429Y56357D01*
X161902Y57884D01*
X158138Y57884D01*
X156611Y56357D01*
X156369Y56194D01*
X156072Y56134D01*
X94206Y56134D01*
X93931Y56185D01*
X93676Y56349D01*
X93504Y56599D01*
X93444Y56896D01*
X93444Y57762D01*
X90782Y60424D01*
X87018Y60424D01*
X84356Y57762D01*
X84356Y53998D01*
X87018Y51336D01*
X89177Y51336D01*
X89463Y51280D01*
X89716Y51113D01*
X90283Y50546D01*
X156072Y50546D01*
X156358Y50490D01*
X156611Y50323D01*
X158138Y48796D01*
G37*
%LPD*%
D10*
X59690Y447040D02*
X59690Y462280D01*
X85090Y462280D02*
X85090Y447040D01*
X110490Y447040D02*
X110490Y462280D01*
X135890Y462280D02*
X135890Y447040D01*
X161290Y447040D02*
X161290Y462280D01*
X186690Y462280D02*
X186690Y447040D01*
X212090Y447040D02*
X212090Y462280D01*
X237490Y462280D02*
X237490Y447040D01*
X262890Y447040D02*
X262890Y462280D01*
X288290Y462280D02*
X288290Y447040D01*
X313690Y447040D02*
X313690Y462280D01*
X339090Y462280D02*
X339090Y447040D01*
D11*
X367390Y95250D02*
X382390Y95250D01*
X382390Y120650D02*
X367390Y120650D01*
X367150Y203200D02*
X382150Y203200D01*
X382150Y228600D02*
X367150Y228600D01*
X367150Y311150D02*
X382150Y311150D01*
X382150Y336550D02*
X367150Y336550D01*
X36427Y302681D02*
X21427Y302681D01*
X21427Y277281D02*
X36427Y277281D01*
X32900Y196850D02*
X17900Y196850D01*
X17900Y171450D02*
X32900Y171450D01*
X32900Y90290D02*
X17900Y90290D01*
X17900Y64890D02*
X32900Y64890D01*
D12*
X33020Y420370D03*
X154940Y416560D03*
X147320Y355600D03*
X271780Y157480D03*
X68580Y226060D03*
X63500Y332740D03*
X193040Y279400D03*
X185420Y170180D03*
X185420Y208280D03*
X71120Y119380D03*
X193040Y50800D03*
X144780Y88900D03*
X185420Y88900D03*
X274320Y375920D03*
X274320Y264160D03*
X256540Y311376D03*
X256540Y350520D03*
X254000Y246380D03*
X256540Y209776D03*
X183924Y317500D03*
X215900Y139700D03*
X254000Y139700D03*
X256540Y101600D03*
X274320Y50800D03*
X71120Y15240D03*
X88900Y375920D03*
X109220Y374424D03*
D13*
X89760Y375920D02*
X88900Y375920D01*
X89760Y375920D02*
X91256Y374424D01*
X109220Y374424D01*
D12*
X27940Y371875D03*
X53610Y378730D03*
D13*
X52373Y377493D01*
X31986Y375920D02*
X27940Y371875D01*
X31986Y375920D02*
X88900Y375920D01*
X53945Y375920D01*
X52373Y377493D01*
D12*
X165100Y398780D03*
D13*
X160020Y398780D01*
X152400Y406400D01*
X146050Y406400D01*
D12*
X146050Y406400D03*
X203172Y398780D03*
D13*
X165100Y398780D01*
D12*
X63500Y388620D03*
X176304Y388620D03*
D13*
X63500Y388620D01*
D12*
X182880Y381000D03*
D13*
X213360Y381000D01*
X215900Y378460D01*
D12*
X215900Y378460D03*
D13*
X182880Y381000D02*
X99060Y381000D01*
D12*
X99060Y381000D03*
X101600Y323850D03*
X198120Y326192D03*
D13*
X162376Y323624D02*
X162150Y323850D01*
X101600Y323850D01*
X162376Y323624D02*
X180748Y323624D01*
X183316Y326192D02*
X198120Y326192D01*
X183316Y326192D02*
X180748Y323624D01*
D12*
X101600Y215900D03*
D13*
X234950Y215900D01*
D12*
X234950Y215900D03*
D13*
X233680Y101600D02*
X107950Y101600D01*
X101600Y107950D01*
D12*
X101600Y107950D03*
X233680Y101600D03*
X233680Y165100D03*
D13*
X263768Y165100D01*
D12*
X263768Y165100D03*
X336550Y114300D03*
D13*
X304800Y114300D01*
D12*
X304800Y114300D03*
X63500Y342900D03*
X157480Y337820D03*
D13*
X152852Y342448D02*
X63952Y342448D01*
X63500Y342900D01*
X152852Y342448D02*
X157480Y337820D01*
D12*
X76200Y349024D03*
D13*
X199616Y349024D01*
X203200Y345440D01*
D12*
X203200Y345440D03*
X226060Y256540D03*
X208206Y256540D03*
D13*
X226060Y256540D01*
D12*
X165100Y294640D03*
D13*
X132080Y294640D01*
D12*
X132080Y294640D03*
X167640Y187960D03*
D13*
X129540Y187960D01*
D12*
X129540Y187960D03*
X165100Y66040D03*
D13*
X129540Y66040D01*
D12*
X129540Y66040D03*
X177800Y335280D03*
D13*
X172720Y330200D01*
X165100Y330200D01*
D12*
X165100Y330200D03*
X190020Y335280D03*
D13*
X226060Y335280D01*
X227104Y334236D01*
D12*
X227104Y333784D03*
D13*
X227104Y334236D01*
D12*
X203200Y208280D03*
D13*
X205740Y208280D01*
D12*
X215900Y198715D03*
D13*
X215305Y198715D02*
X205740Y208280D01*
X215305Y198715D02*
X215900Y198715D01*
D12*
X175260Y271780D03*
D13*
X160020Y271780D01*
D12*
X160020Y271780D03*
X88900Y271780D03*
D13*
X160020Y271780D01*
X124460Y279400D02*
X69850Y279400D01*
D12*
X69850Y279400D03*
X127000Y278356D03*
D13*
X125504Y278356D01*
X124460Y279400D01*
X69850Y279400D02*
X46570Y302681D01*
X28927Y302681D01*
D12*
X91440Y165100D03*
D13*
X160020Y165100D01*
D12*
X160020Y165100D03*
X175260Y165100D03*
D13*
X160020Y165100D01*
D12*
X68580Y175260D03*
D13*
X127000Y175260D01*
D12*
X127000Y175260D03*
D13*
X48260Y175260D02*
X26670Y196850D01*
X48260Y175260D02*
X68580Y175260D01*
X26670Y196850D02*
X25400Y196850D01*
D12*
X88900Y55880D03*
X174438Y55058D03*
D13*
X160020Y53340D02*
X91440Y53340D01*
X160020Y53340D02*
X172720Y53340D01*
X91440Y53340D02*
X88900Y55880D01*
X172720Y53340D02*
X174438Y55058D01*
D12*
X160020Y53340D03*
X68580Y66040D03*
D13*
X119380Y66040D01*
D12*
X119380Y66040D03*
D13*
X68580Y66040D02*
X49650Y66040D01*
X25400Y90290D01*
D12*
X226060Y309880D03*
D13*
X241300Y309880D01*
X246380Y309880D01*
X251460Y304800D01*
X261620Y304800D01*
X266700Y309880D01*
X292100Y309880D01*
D12*
X292100Y309880D03*
X243840Y309880D03*
D13*
X241300Y309880D01*
D12*
X330200Y320040D03*
D13*
X365760Y320040D01*
D12*
X274320Y318544D03*
D13*
X296320Y320040D02*
X330200Y320040D01*
X296320Y320040D02*
X294824Y318544D01*
X274320Y318544D01*
X365760Y320040D02*
X374650Y311150D01*
D12*
X292100Y203200D03*
D13*
X243840Y203200D01*
D12*
X243840Y203200D03*
X223894Y203574D03*
D13*
X224267Y203200D01*
X243840Y203200D01*
D12*
X330200Y210820D03*
D13*
X274320Y210820D01*
D12*
X274320Y210820D03*
D13*
X360680Y210820D02*
X368300Y203200D01*
X360680Y210820D02*
X330200Y210820D01*
X368300Y203200D02*
X374650Y203200D01*
D12*
X241300Y93980D03*
D13*
X226060Y93980D01*
D12*
X226060Y93980D03*
X292100Y93980D03*
D13*
X241300Y93980D01*
D12*
X330200Y101600D03*
D13*
X368460Y101600D01*
X330200Y101600D02*
X276860Y101600D01*
X274320Y104140D01*
D12*
X274320Y104140D03*
D13*
X374810Y95250D02*
X374890Y95250D01*
X374810Y95250D02*
X368460Y101600D01*
M02*
