G04 EAGLE Gerber RS-274X export*
G75*
%MOMM*%
%FSLAX34Y34*%
%LPD*%
%INSoldermask Bottom*%
%IPPOS*%
%AMOC8*
5,1,8,0,0,1.08239X$1,22.5*%
G01*
G04 Define Apertures*
%ADD10C,2.667000*%
%ADD11C,1.651000*%
%ADD12C,1.627000*%
%ADD13C,0.731000*%
D10*
X25400Y451612D03*
X374650Y450850D03*
X25400Y25400D03*
X374650Y25400D03*
D11*
X59690Y447040D02*
X59690Y462280D01*
X85090Y462280D02*
X85090Y447040D01*
X110490Y447040D02*
X110490Y462280D01*
X135890Y462280D02*
X135890Y447040D01*
X161290Y447040D02*
X161290Y462280D01*
X186690Y462280D02*
X186690Y447040D01*
X212090Y447040D02*
X212090Y462280D01*
X237490Y462280D02*
X237490Y447040D01*
X262890Y447040D02*
X262890Y462280D01*
X288290Y462280D02*
X288290Y447040D01*
X313690Y447040D02*
X313690Y462280D01*
X339090Y462280D02*
X339090Y447040D01*
D12*
X367390Y95250D02*
X382390Y95250D01*
X382390Y120650D02*
X367390Y120650D01*
X367150Y203200D02*
X382150Y203200D01*
X382150Y228600D02*
X367150Y228600D01*
X367150Y311150D02*
X382150Y311150D01*
X382150Y336550D02*
X367150Y336550D01*
X36427Y302681D02*
X21427Y302681D01*
X21427Y277281D02*
X36427Y277281D01*
X32900Y196850D02*
X17900Y196850D01*
X17900Y171450D02*
X32900Y171450D01*
X32900Y90290D02*
X17900Y90290D01*
X17900Y64890D02*
X32900Y64890D01*
D13*
X33020Y420370D03*
X154940Y416560D03*
X147320Y355600D03*
X271780Y157480D03*
X68580Y226060D03*
X63500Y332740D03*
X193040Y279400D03*
X185420Y170180D03*
X185420Y208280D03*
X71120Y119380D03*
X193040Y50800D03*
X144780Y88900D03*
X185420Y88900D03*
X274320Y375920D03*
X274320Y264160D03*
X256540Y311376D03*
X256540Y350520D03*
X254000Y246380D03*
X256540Y209776D03*
X183924Y317500D03*
X215900Y139700D03*
X254000Y139700D03*
X256540Y101600D03*
X274320Y50800D03*
X71120Y15240D03*
X88900Y375920D03*
X109220Y374424D03*
X27940Y371875D03*
X53610Y378730D03*
X165100Y398780D03*
X146050Y406400D03*
X203172Y398780D03*
X63500Y388620D03*
X176304Y388620D03*
X182880Y381000D03*
X215900Y378460D03*
X99060Y381000D03*
X101600Y323850D03*
X198120Y326192D03*
X101600Y215900D03*
X234950Y215900D03*
X101600Y107950D03*
X233680Y101600D03*
X233680Y165100D03*
X263768Y165100D03*
X336550Y114300D03*
X304800Y114300D03*
X63500Y342900D03*
X157480Y337820D03*
X76200Y349024D03*
X203200Y345440D03*
X226060Y256540D03*
X208206Y256540D03*
X165100Y294640D03*
X132080Y294640D03*
X167640Y187960D03*
X129540Y187960D03*
X165100Y66040D03*
X129540Y66040D03*
X177800Y335280D03*
X165100Y330200D03*
X190020Y335280D03*
X227104Y333784D03*
X203200Y208280D03*
X215900Y198715D03*
X175260Y271780D03*
X160020Y271780D03*
X88900Y271780D03*
X69850Y279400D03*
X127000Y278356D03*
X91440Y165100D03*
X160020Y165100D03*
X175260Y165100D03*
X68580Y175260D03*
X127000Y175260D03*
X88900Y55880D03*
X174438Y55058D03*
X160020Y53340D03*
X68580Y66040D03*
X119380Y66040D03*
X226060Y309880D03*
X292100Y309880D03*
X243840Y309880D03*
X330200Y320040D03*
X274320Y318544D03*
X292100Y203200D03*
X243840Y203200D03*
X223894Y203574D03*
X330200Y210820D03*
X274320Y210820D03*
X241300Y93980D03*
X226060Y93980D03*
X292100Y93980D03*
X330200Y101600D03*
X274320Y104140D03*
M02*
