M48
;GenerationSoftware,Autodesk,EAGLE,9.7.0*%
;CreationDate,2025-06-04T17:46:51Z*%
FMAT,2
ICI,OFF
METRIC,TZ,000.000
T4C0.350
T3C1.000
T2C1.016
T1C2.540
%
G90
M71
T1
X2540Y45161
X37465Y45085
X2540Y2540
X37465Y2540
T2
X26289Y45466
X5969Y45466
X8509Y45466
X11049Y45466
X13589Y45466
X16129Y45466
X18669Y45466
X21209Y45466
X23749Y45466
X28829Y45466
X31369Y45466
X33909Y45466
T3
X2540Y6489
X37489Y9525
X37489Y12065
X37465Y20320
X37465Y22860
X37465Y31115
X37465Y33655
X2893Y30268
X2893Y27728
X2540Y19685
X2540Y17145
X2540Y9029
T4
X5361Y37873
X16510Y39878
X14605Y40640
X20317Y39878
X6350Y38862
X17630Y38862
X18288Y38100
X21590Y37846
X9906Y38100
X10160Y32385
X19812Y32619
X10160Y21590
X23495Y21590
X10160Y10795
X23368Y10160
X23368Y16510
X26377Y16510
X33655Y11430
X30480Y11430
X6350Y34290
X15748Y33782
X7620Y34902
X20320Y34544
X22606Y25654
X20821Y25654
X16510Y29464
X13208Y29464
X16764Y18796
X12954Y18796
X16510Y6604
X12954Y6604
X17780Y33528
X16510Y33020
X25654Y31138
X22710Y33378
X20320Y20828
X21590Y19871
X17526Y27178
X16002Y27178
X8890Y27178
X6985Y27940
X12700Y27836
X9144Y16510
X16002Y16510
X17526Y16510
X6858Y17526
X12700Y17526
X8890Y5588
X17444Y5506
X16002Y5334
X6858Y6604
X11938Y6604
X22606Y30988
X29210Y30988
X24384Y30988
X33020Y32004
X27432Y31854
X29210Y20320
X24384Y20320
X22389Y20357
X33020Y21082
X27432Y21082
X24130Y9398
X22606Y9398
X3302Y42037
X33020Y10160
X27432Y10414
X15494Y41656
X14732Y35560
X27178Y15748
X6858Y22606
X6350Y33274
X19304Y27940
X18542Y17018
X18542Y20828
X7112Y11938
X19304Y5080
X14478Y8890
X18542Y8890
X19002Y33528
X27432Y37592
X27432Y26416
X25654Y35052
X25400Y24638
X25654Y20978
X18392Y31750
X21590Y13970
X25400Y13970
X25654Y10160
X27432Y5080
X7112Y1524
X8890Y37592
X10922Y37442
X2794Y37187
X29210Y9398
M30